<?xml version="1.0" encoding="utf-8"?>
<!-- Generator: Adobe Illustrator 24.0.0, SVG Export Plug-In . SVG Version: 6.00 Build 0)  -->
<svg version="1.1" id="Layer_1" xmlns="http://www.w3.org/2000/svg" xmlns:xlink="http://www.w3.org/1999/xlink" x="0px" y="0px"
	 viewBox="0 0 212.1 56.2" style="enable-background:new 0 0 212.1 56.2;" xml:space="preserve">
<style type="text/css">
	.st0{fill-rule:evenodd;clip-rule:evenodd;fill:#058182;}
</style>
<path class="st0" d="M61.4,20.8L52,11.5L61.5,2l18.9,18.9v34c-8.1,0-16.1,0-24.2,0l-13.4-11c0-7.7,0-15.4,0-23.1
	C49,20.8,55.2,20.8,61.4,20.8L61.4,20.8z M56.1,31.7v12.4H67V31.7H56.1z"/>
<path class="st0" d="M147.9,54.9h-24.2v-34h24.2l13.4,11v9.4H137V44h10.8L147.9,54.9L147.9,54.9z M137,31.7v2.8h10.8v-2.8H137z"/>
<path class="st0" d="M39.8,20.8v34h-6.6l-6.6-5.4v5.4H15.7l-13.4-11c0-7.7,0-15.4,0-23.1C14.8,20.8,27.3,20.8,39.8,20.8L39.8,20.8z
	 M15.7,31.7v12.4h10.8V31.7H15.7z"/>
<path class="st0" d="M101.8,20.8l-9.5-9.4l9.5-9.5l18.9,18.9v34c-8.1,0-16.1,0-24.2,0l-13.3-11c0-7.7,0-15.4,0-23.1
	C89.4,20.8,95.6,20.8,101.8,20.8L101.8,20.8z M96.6,31.7v12.4h10.8V31.7H96.6z"/>
<path class="st0" d="M182.8,20.8l-9.5-9.4l9.5-9.5l18.9,18.9v34c-8.1,0-16.1,0-24.2,0l-13.4-11c0-7.7,0-15.4,0-23.1
	C170.4,20.8,176.6,20.8,182.8,20.8L182.8,20.8z M177.6,31.7v12.4h10.8V31.7H177.6z"/>
<path class="st0" d="M207.6,47.7c0.5,0,0.9,0.1,1.4,0.3c0.4,0.2,0.8,0.4,1.2,0.7c0.3,0.3,0.6,0.7,0.7,1.2c0.2,0.4,0.3,0.8,0.3,1.4
	s-0.1,0.9-0.3,1.4c-0.2,0.4-0.4,0.8-0.7,1.2c-0.3,0.3-0.7,0.6-1.2,0.7c-0.4,0.2-0.8,0.3-1.4,0.3c-0.5,0-0.9-0.1-1.4-0.3
	s-0.8-0.4-1.2-0.7c-0.3-0.3-0.6-0.7-0.7-1.2c-0.2-0.4-0.3-0.8-0.3-1.4s0.1-0.9,0.3-1.4c0.2-0.4,0.4-0.8,0.7-1.2
	c0.3-0.3,0.7-0.6,1.2-0.7C206.6,47.8,207.2,47.7,207.6,47.7L207.6,47.7z M206,53.3L206,53.3l0.6,0.1v-1.8h0.4c0.1,0,0.1,0,0.2,0h0.1
	c0,0,0.1,0,0.1,0.1l0.1,0.1c0,0.1,0.1,0.1,0.1,0.2c0.1,0.1,0.1,0.2,0.2,0.4l0.5,0.9h0.8l-0.6-1.3c0-0.1-0.1-0.2-0.2-0.3
	c-0.1-0.1-0.1-0.2-0.2-0.2l0,0l-0.1-0.1c0.1,0,0.1-0.1,0.2-0.1c0.1-0.1,0.2-0.1,0.3-0.3s0.1-0.2,0.2-0.4s0.1-0.3,0.1-0.4
	c0-0.1,0-0.2,0-0.3s-0.1-0.2-0.1-0.3s-0.1-0.2-0.2-0.2c-0.1-0.1-0.1-0.1-0.2-0.2c-0.1,0-0.2-0.1-0.3-0.1s-0.3,0-0.4,0H206V53.3
	L206,53.3z M206.7,51h0.8c0.1,0,0.2,0,0.2,0c0.1,0,0.1,0,0.2,0c0,0,0.1,0,0.1-0.1l0.1-0.1c0,0,0-0.1,0.1-0.1c0-0.1,0-0.1,0-0.2
	c0-0.1,0-0.2,0-0.2c0-0.1-0.1-0.1-0.1-0.2c0,0-0.1-0.1-0.2-0.1s-0.2,0-0.3,0h-0.9L206.7,51L206.7,51z M209.7,49.2
	c-0.3-0.3-0.6-0.5-0.9-0.6c-0.3-0.1-0.7-0.2-1.2-0.2c-0.4,0-0.8,0.1-1.2,0.2c-0.4,0.1-0.7,0.4-0.9,0.6c-0.3,0.3-0.5,0.6-0.6,0.9
	c-0.1,0.3-0.2,0.7-0.2,1.2c0,0.4,0.1,0.8,0.2,1.2c0.1,0.4,0.4,0.7,0.6,0.9c0.3,0.3,0.6,0.5,0.9,0.6c0.3,0.1,0.7,0.2,1.2,0.2
	s0.8-0.1,1.2-0.2c0.4-0.1,0.7-0.4,0.9-0.6c0.3-0.3,0.5-0.6,0.6-0.9c0.1-0.3,0.2-0.7,0.2-1.2s-0.1-0.8-0.2-1.2
	C210.2,49.8,210,49.4,209.7,49.2z"/>
</svg>
