<?xml version="1.0" encoding="utf-8"?>
<!-- Generator: Adobe Illustrator 24.0.0, SVG Export Plug-In . SVG Version: 6.00 Build 0)  -->
<svg version="1.1" id="Layer_1" xmlns="http://www.w3.org/2000/svg" xmlns:xlink="http://www.w3.org/1999/xlink" x="0px" y="0px"
	 viewBox="0 0 144 216" style="enable-background:new 0 0 144 216;" xml:space="preserve">
<style type="text/css">
	.st0{fill:#222222;}
	.st1{fill:#FFFFFF;}
	.st2{fill:none;stroke:#444444;stroke-width:45;stroke-miterlimit:10;}
	.st3{fill:none;stroke:#333333;stroke-width:40;stroke-miterlimit:10;}
</style>
<g>
	<rect x="-4" class="st0" width="152.1" height="216"/>
</g>
<path class="st1" d="M-106.4,186.1h6.4v6.4c0,0.3,0.2,0.5,0.5,0.5h4.6c0.3,0,0.5-0.2,0.5-0.5v-6.4h6.4c0.3,0,0.5-0.2,0.5-0.5V181
	c0-0.3-0.2-0.5-0.5-0.5h-6.4v-6.4c0-0.3-0.2-0.5-0.5-0.5h-4.6c-0.3,0-0.5,0.2-0.5,0.5v6.4h-6.4c-0.3,0-0.5,0.2-0.5,0.5v4.6
	C-106.9,185.9-106.7,186.1-106.4,186.1z M-105.9,181.5h6.4c0.3,0,0.5-0.2,0.5-0.5v-6.4h3.6v6.4c0,0.3,0.2,0.5,0.5,0.5h6.4v3.6h-6.4
	c-0.3,0-0.5,0.2-0.5,0.5v6.4H-99v-6.4c0-0.3-0.2-0.5-0.5-0.5h-6.4V181.5z"/>
<path class="st1" d="M-103.1,219.8l7.1,7c0.1,0.1,0.2,0.1,0.4,0.1s0.3-0.1,0.4-0.1l7.2-7.2c1.7-1.1,2.8-3,2.8-5.1c0-3.3-2.7-6-6-6
	c-1.7,0-3.2,0.7-4.4,1.9c-1.1-1.2-2.7-1.9-4.4-1.9c-3.3,0-6,2.7-6,6C-106.2,216.7-105,218.7-103.1,219.8z M-100.1,209.6
	c1.6,0,3,0.7,4,2c0.2,0.2,0.6,0.2,0.8,0c1-1.2,2.4-2,4-2c2.8,0,5,2.3,5,5c0,1.7-0.9,3.3-2.4,4.3c0,0-0.1,0-0.1,0.1l-6.9,6.9
	l-6.7-6.7l-0.1-0.1c-1.6-0.9-2.6-2.6-2.6-4.4C-105.2,211.8-102.9,209.6-100.1,209.6z"/>
<g>
	<path class="st1" d="M14.2,32.4V19.5h4.7c1,0,1.9,0.3,2.6,1c0.7,0.7,1.1,1.5,1.1,2.5c0,1.3-0.6,2.2-1.7,2.7v0.1
		c0.7,0.2,1.2,0.6,1.6,1.1c0.4,0.5,0.6,1.1,0.6,1.8c0,1.1-0.4,1.9-1.2,2.6c-0.7,0.7-1.7,1-2.8,1H14.2z M15.9,21.1V25h3
		c0.6,0,1.1-0.2,1.5-0.6c0.4-0.4,0.6-0.9,0.6-1.4c0-0.5-0.2-1-0.6-1.4c-0.4-0.4-0.9-0.6-1.4-0.6H15.9z M15.9,26.6v4.2h3.3
		c0.6,0,1.1-0.2,1.5-0.6c0.4-0.4,0.6-0.9,0.6-1.5c0-0.6-0.2-1.1-0.6-1.5c-0.4-0.4-0.9-0.6-1.6-0.6H15.9z"/>
	<path class="st1" d="M28.6,32.7c-1.3,0-2.4-0.4-3.2-1.3c-0.8-0.9-1.3-2-1.3-3.4c0-1.3,0.4-2.5,1.2-3.4c0.8-0.9,1.9-1.3,3.1-1.3
		c1.3,0,2.3,0.4,3.1,1.3c0.8,0.8,1.2,2,1.2,3.6l0,0.2h-6.9c0,0.9,0.3,1.6,0.9,2.1c0.6,0.5,1.2,0.8,2,0.8c1.1,0,1.9-0.5,2.5-1.6
		l1.5,0.7c-0.4,0.7-0.9,1.3-1.6,1.7S29.5,32.7,28.6,32.7z M25.9,26.9H31c0-0.6-0.3-1.1-0.7-1.5c-0.4-0.4-1.1-0.6-1.8-0.6
		c-0.6,0-1.2,0.2-1.6,0.6C26.4,25.8,26.1,26.3,25.9,26.9z"/>
	<path class="st1" d="M35.9,19.5v12.9h-1.7V19.5H35.9z"/>
	<path class="st1" d="M40.1,20.5c0,0.3-0.1,0.6-0.3,0.8c-0.2,0.2-0.5,0.3-0.8,0.3s-0.6-0.1-0.8-0.3c-0.2-0.2-0.3-0.5-0.3-0.8
		c0-0.3,0.1-0.6,0.3-0.8s0.5-0.3,0.8-0.3s0.6,0.1,0.8,0.3C40,19.9,40.1,20.2,40.1,20.5z M39.8,23.6v8.8h-1.7v-8.8H39.8z"/>
	<path class="st1" d="M45.8,32.7c-1.3,0-2.4-0.4-3.2-1.3c-0.8-0.9-1.3-2-1.3-3.4c0-1.3,0.4-2.5,1.2-3.4c0.8-0.9,1.9-1.3,3.1-1.3
		c1.3,0,2.3,0.4,3.1,1.3c0.8,0.8,1.2,2,1.2,3.6l0,0.2H43c0,0.9,0.3,1.6,0.9,2.1c0.6,0.5,1.2,0.8,2,0.8c1.1,0,1.9-0.5,2.5-1.6
		l1.5,0.7c-0.4,0.7-0.9,1.3-1.6,1.7S46.7,32.7,45.8,32.7z M43.1,26.9h5.1c0-0.6-0.3-1.1-0.7-1.5c-0.4-0.4-1.1-0.6-1.8-0.6
		c-0.6,0-1.2,0.2-1.6,0.6C43.6,25.8,43.3,26.3,43.1,26.9z"/>
	<path class="st1" d="M55.6,32.4h-1.7l-3.6-8.8h1.8l2.6,6.8h0l2.6-6.8h1.8L55.6,32.4z"/>
	<path class="st1" d="M63.9,32.7c-1.3,0-2.4-0.4-3.2-1.3c-0.8-0.9-1.3-2-1.3-3.4c0-1.3,0.4-2.5,1.2-3.4c0.8-0.9,1.9-1.3,3.1-1.3
		c1.3,0,2.3,0.4,3.1,1.3c0.8,0.8,1.2,2,1.2,3.6l0,0.2h-6.9c0,0.9,0.3,1.6,0.9,2.1c0.6,0.5,1.2,0.8,2,0.8c1.1,0,1.9-0.5,2.5-1.6
		l1.5,0.7c-0.4,0.7-0.9,1.3-1.6,1.7S64.8,32.7,63.9,32.7z M61.3,26.9h5.1c0-0.6-0.3-1.1-0.7-1.5c-0.4-0.4-1.1-0.6-1.8-0.6
		c-0.6,0-1.2,0.2-1.6,0.6C61.7,25.8,61.4,26.3,61.3,26.9z"/>
	<path class="st1" d="M75.7,20.5c0,0.3-0.1,0.6-0.3,0.8c-0.2,0.2-0.5,0.3-0.8,0.3s-0.6-0.1-0.8-0.3c-0.2-0.2-0.3-0.5-0.3-0.8
		c0-0.3,0.1-0.6,0.3-0.8c0.2-0.2,0.5-0.3,0.8-0.3s0.6,0.1,0.8,0.3S75.7,20.2,75.7,20.5z M75.4,23.6v8.8h-1.7v-8.8H75.4z"/>
	<path class="st1" d="M77.6,23.6h1.6v1.2h0.1c0.3-0.4,0.6-0.8,1.2-1.1c0.5-0.3,1.1-0.4,1.6-0.4c1.1,0,1.9,0.3,2.5,0.9
		c0.6,0.6,0.9,1.5,0.9,2.6v5.5h-1.7V27c0-1.4-0.8-2.2-2.2-2.2c-0.7,0-1.2,0.3-1.7,0.8c-0.4,0.5-0.7,1.2-0.7,1.9v4.9h-1.7V23.6z"/>
	<path class="st1" d="M17.6,54.3c-1.2,0-2.1-0.5-3-1.4c-0.8-0.9-1.2-2-1.2-3.3c0-1.3,0.4-2.4,1.2-3.3c0.8-0.9,1.8-1.4,3-1.4
		c0.6,0,1.2,0.1,1.8,0.4c0.5,0.3,0.9,0.6,1.2,1.1h0.1l-0.1-1.2v-4.1h1.7V54h-1.6v-1.2h-0.1c-0.3,0.5-0.7,0.8-1.2,1.1
		C18.9,54.1,18.3,54.3,17.6,54.3z M17.9,52.8c0.8,0,1.5-0.3,2-0.9c0.5-0.6,0.8-1.4,0.8-2.3c0-0.9-0.3-1.7-0.8-2.3
		c-0.5-0.6-1.2-0.9-2-0.9c-0.8,0-1.5,0.3-2,0.9c-0.5,0.6-0.8,1.4-0.8,2.3c0,0.9,0.3,1.7,0.8,2.3C16.4,52.5,17.1,52.8,17.9,52.8z"/>
	<path class="st1" d="M26,54h-1.7v-8.8h1.6v1.4H26c0.2-0.5,0.5-0.9,1-1.2c0.5-0.3,1-0.5,1.5-0.5c0.5,0,0.9,0.1,1.2,0.2l-0.5,1.6
		c-0.2-0.1-0.5-0.1-1-0.1c-0.6,0-1.2,0.3-1.6,0.8S26,48.5,26,49.1V54z"/>
	<path class="st1" d="M34.3,54.3c-1.3,0-2.4-0.4-3.2-1.3c-0.8-0.9-1.3-2-1.3-3.4c0-1.3,0.4-2.5,1.2-3.4c0.8-0.9,1.9-1.3,3.1-1.3
		c1.3,0,2.3,0.4,3.1,1.3c0.8,0.8,1.2,2,1.2,3.6l0,0.2h-6.9c0,0.9,0.3,1.6,0.9,2.1c0.6,0.5,1.2,0.8,2,0.8c1.1,0,1.9-0.5,2.5-1.6
		l1.5,0.7c-0.4,0.7-0.9,1.3-1.6,1.7S35.1,54.3,34.3,54.3z M31.6,48.5h5.1c0-0.6-0.3-1.1-0.7-1.5c-0.4-0.4-1.1-0.6-1.8-0.6
		c-0.6,0-1.2,0.2-1.6,0.6C32.1,47.4,31.8,47.9,31.6,48.5z"/>
	<path class="st1" d="M43.4,44.9c1.2,0,2.2,0.3,2.9,1c0.7,0.7,1.1,1.6,1.1,2.7V54h-1.6v-1.2h-0.1c-0.7,1-1.6,1.5-2.7,1.5
		c-1,0-1.8-0.3-2.4-0.9c-0.7-0.6-1-1.3-1-2.2c0-0.9,0.3-1.6,1-2.2c0.7-0.5,1.6-0.8,2.8-0.8c1,0,1.8,0.2,2.4,0.5v-0.4
		c0-0.6-0.2-1.1-0.7-1.5s-1-0.6-1.6-0.6c-0.9,0-1.7,0.4-2.2,1.2l-1.5-0.9C40.6,45.5,41.8,44.9,43.4,44.9z M41.2,51.3
		c0,0.4,0.2,0.8,0.5,1.1c0.4,0.3,0.8,0.4,1.3,0.4c0.7,0,1.3-0.3,1.9-0.8c0.5-0.5,0.8-1.1,0.8-1.8c-0.5-0.4-1.2-0.6-2.2-0.6
		c-0.7,0-1.2,0.2-1.7,0.5C41.5,50.4,41.2,50.8,41.2,51.3z"/>
	<path class="st1" d="M50.9,54h-1.7v-8.8h1.6v1.2h0.1c0.3-0.4,0.6-0.8,1.2-1.1c0.5-0.3,1-0.4,1.6-0.4c0.6,0,1.2,0.1,1.7,0.4
		c0.5,0.3,0.9,0.7,1.1,1.2c0.7-1.1,1.7-1.7,3-1.7c1,0,1.8,0.3,2.4,0.9c0.6,0.6,0.8,1.5,0.8,2.7V54H61v-5.3c0-0.8-0.2-1.4-0.5-1.8
		s-0.8-0.5-1.5-0.5c-0.6,0-1.2,0.3-1.6,0.8c-0.4,0.5-0.6,1.2-0.6,1.9V54h-1.7v-5.3c0-0.8-0.2-1.4-0.5-1.8s-0.8-0.5-1.5-0.5
		c-0.6,0-1.2,0.3-1.6,0.8s-0.6,1.2-0.6,1.9V54z"/>
	<path class="st1" d="M71.2,51.6c0,0.8-0.3,1.4-1,1.9c-0.7,0.5-1.5,0.8-2.5,0.8c-0.9,0-1.7-0.2-2.3-0.7c-0.7-0.5-1.2-1.1-1.4-1.8
		l1.5-0.6c0.2,0.5,0.5,0.9,0.9,1.2s0.9,0.4,1.4,0.4c0.5,0,1-0.1,1.3-0.3c0.4-0.2,0.5-0.5,0.5-0.8c0-0.6-0.4-1-1.3-1.2L66.7,50
		c-1.7-0.4-2.6-1.3-2.6-2.5c0-0.8,0.3-1.4,1-1.9c0.7-0.5,1.5-0.7,2.5-0.7c0.8,0,1.5,0.2,2.1,0.6s1.1,0.9,1.3,1.5l-1.5,0.6
		c-0.2-0.4-0.4-0.7-0.8-0.9s-0.8-0.3-1.3-0.3c-0.4,0-0.8,0.1-1.2,0.3c-0.3,0.2-0.5,0.5-0.5,0.8c0,0.5,0.5,0.9,1.4,1.1l1.3,0.3
		C70.3,49.3,71.2,50.2,71.2,51.6z"/>
	<path class="st1" d="M80.1,54.1c-0.7,0-1.3-0.2-1.8-0.7c-0.5-0.4-0.7-1.1-0.7-1.9v-4.9H76v-1.5h1.5v-2.7h1.7v2.7h2.2v1.5h-2.2v4.4
		c0,0.6,0.1,1,0.3,1.2c0.2,0.2,0.5,0.3,0.8,0.3c0.1,0,0.3,0,0.4,0c0.1,0,0.2-0.1,0.4-0.1l0.5,1.5C81.2,54.1,80.7,54.1,80.1,54.1z"/>
	<path class="st1" d="M90.7,54h-1.6v-1.2h-0.1c-0.3,0.4-0.6,0.8-1.2,1.1c-0.5,0.3-1.1,0.4-1.6,0.4c-1.1,0-1.9-0.3-2.5-0.9
		c-0.6-0.6-0.9-1.5-0.9-2.6v-5.5h1.7v5.4c0,1.4,0.8,2.2,2.2,2.2c0.7,0,1.2-0.3,1.7-0.8c0.4-0.5,0.7-1.2,0.7-1.9v-4.9h1.7V54z"/>
	<path class="st1" d="M94.4,54h-1.7v-8.8h1.6v1.4h0.1c0.2-0.5,0.5-0.9,1-1.2c0.5-0.3,1-0.5,1.5-0.5c0.5,0,0.9,0.1,1.2,0.2l-0.5,1.6
		c-0.2-0.1-0.5-0.1-1-0.1c-0.6,0-1.2,0.3-1.6,0.8s-0.7,1.1-0.7,1.8V54z"/>
	<path class="st1" d="M99.3,45.2h1.6v1.2h0.1c0.3-0.4,0.6-0.8,1.2-1.1c0.5-0.3,1.1-0.4,1.6-0.4c1.1,0,1.9,0.3,2.5,0.9
		c0.6,0.6,0.9,1.5,0.9,2.6V54h-1.7v-5.4c0-1.4-0.8-2.2-2.2-2.2c-0.7,0-1.2,0.3-1.7,0.8c-0.4,0.5-0.7,1.2-0.7,1.9V54h-1.7V45.2z"/>
	<path class="st1" d="M111.2,42.1c0,0.3-0.1,0.6-0.3,0.8c-0.2,0.2-0.5,0.3-0.8,0.3s-0.6-0.1-0.8-0.3c-0.2-0.2-0.3-0.5-0.3-0.8
		c0-0.3,0.1-0.6,0.3-0.8c0.2-0.2,0.5-0.3,0.8-0.3s0.6,0.1,0.8,0.3S111.2,41.8,111.2,42.1z M110.8,45.2V54h-1.7v-8.8H110.8z"/>
	<path class="st1" d="M113,45.2h1.6v1.2h0.1c0.3-0.4,0.6-0.8,1.2-1.1c0.5-0.3,1.1-0.4,1.6-0.4c1.1,0,1.9,0.3,2.5,0.9
		c0.6,0.6,0.9,1.5,0.9,2.6V54h-1.7v-5.4c0-1.4-0.8-2.2-2.2-2.2c-0.7,0-1.2,0.3-1.7,0.8c-0.4,0.5-0.7,1.2-0.7,1.9V54H113V45.2z"/>
	<path class="st1" d="M126.6,58.2c-0.5,0-1-0.1-1.4-0.2s-0.8-0.3-1.2-0.5c-0.4-0.2-0.7-0.5-0.9-0.8s-0.4-0.7-0.6-1l1.6-0.6
		c0.2,0.5,0.5,0.9,0.9,1.2c0.4,0.3,1,0.5,1.5,0.5c0.9,0,1.6-0.3,2.1-0.8s0.8-1.3,0.8-2.2v-0.8h-0.1c-0.3,0.5-0.7,0.8-1.3,1.1
		c-0.5,0.3-1.1,0.4-1.7,0.4c-1.2,0-2.1-0.5-3-1.4c-0.8-0.9-1.2-2-1.2-3.3c0-1.3,0.4-2.4,1.2-3.3c0.8-0.9,1.8-1.4,3-1.4
		c0.6,0,1.2,0.1,1.7,0.4c0.5,0.3,1,0.6,1.3,1.1h0.1v-1.2h1.6v8.4c0,1.4-0.4,2.5-1.2,3.3C129,57.8,127.9,58.2,126.6,58.2z
		 M126.6,52.8c0.8,0,1.5-0.3,2-0.9c0.5-0.6,0.8-1.4,0.8-2.3c0-0.9-0.3-1.7-0.8-2.3c-0.5-0.6-1.2-0.9-2-0.9c-0.8,0-1.5,0.3-2,0.9
		c-0.5,0.6-0.8,1.4-0.8,2.3c0,0.9,0.3,1.7,0.8,2.3C125.2,52.5,125.8,52.8,126.6,52.8z"/>
	<path class="st1" d="M16.1,63.7c0,0.3-0.1,0.6-0.3,0.8c-0.2,0.2-0.5,0.3-0.8,0.3s-0.6-0.1-0.8-0.3c-0.2-0.2-0.3-0.5-0.3-0.8
		c0-0.3,0.1-0.6,0.3-0.8s0.5-0.3,0.8-0.3s0.6,0.1,0.8,0.3C16,63.1,16.1,63.4,16.1,63.7z M15.7,66.8v8.8h-1.7v-8.8H15.7z"/>
	<path class="st1" d="M17.9,66.8h1.6V68h0.1c0.3-0.4,0.6-0.8,1.2-1.1c0.5-0.3,1.1-0.4,1.6-0.4c1.1,0,1.9,0.3,2.5,0.9
		c0.6,0.6,0.9,1.5,0.9,2.6v5.5h-1.7v-5.4c0-1.4-0.8-2.2-2.2-2.2c-0.7,0-1.2,0.3-1.7,0.8c-0.4,0.5-0.7,1.2-0.7,1.9v4.9h-1.7V66.8z"/>
	<path class="st1" d="M30.7,75.7c-0.7,0-1.3-0.2-1.8-0.7s-0.7-1.1-0.7-1.9v-4.9h-1.5v-1.5h1.5v-2.7h1.7v2.7H32v1.5h-2.2v4.4
		c0,0.6,0.1,1,0.3,1.2c0.2,0.2,0.5,0.3,0.8,0.3c0.1,0,0.3,0,0.4,0c0.1,0,0.2-0.1,0.4-0.1l0.5,1.5C31.8,75.7,31.3,75.7,30.7,75.7z"/>
	<path class="st1" d="M33,71.2c0-1.4,0.4-2.5,1.3-3.4c0.9-0.9,1.9-1.3,3.3-1.3c1.3,0,2.4,0.4,3.2,1.3c0.9,0.9,1.3,2,1.3,3.4
		c0,1.4-0.4,2.5-1.3,3.4c-0.9,0.9-1.9,1.3-3.2,1.3c-1.3,0-2.4-0.4-3.3-1.3C33.4,73.7,33,72.5,33,71.2z M34.6,71.2
		c0,0.9,0.3,1.7,0.8,2.3c0.6,0.6,1.2,0.9,2.1,0.9c0.8,0,1.5-0.3,2.1-0.9c0.6-0.6,0.8-1.4,0.8-2.3c0-0.9-0.3-1.7-0.8-2.3
		C39,68.3,38.3,68,37.5,68c-0.8,0-1.5,0.3-2.1,0.9C34.9,69.5,34.6,70.3,34.6,71.2z"/>
	<path class="st1" d="M49.2,75.6h-1.7v-8.8h1.6v1.4h0.1c0.2-0.5,0.5-0.9,1-1.2c0.5-0.3,1-0.5,1.5-0.5c0.5,0,0.9,0.1,1.2,0.2
		l-0.5,1.6c-0.2-0.1-0.5-0.1-1-0.1c-0.6,0-1.2,0.3-1.6,0.8s-0.7,1.1-0.7,1.8V75.6z"/>
	<path class="st1" d="M57.5,75.9c-1.3,0-2.4-0.4-3.2-1.3c-0.8-0.9-1.3-2-1.3-3.4c0-1.3,0.4-2.5,1.2-3.4c0.8-0.9,1.9-1.3,3.1-1.3
		c1.3,0,2.3,0.4,3.1,1.3c0.8,0.8,1.2,2,1.2,3.6l0,0.2h-6.9c0,0.9,0.3,1.6,0.9,2.1c0.6,0.5,1.2,0.8,2,0.8c1.1,0,1.9-0.5,2.5-1.6
		l1.5,0.7c-0.4,0.7-0.9,1.3-1.6,1.7S58.4,75.9,57.5,75.9z M54.8,70.1h5.1c0-0.6-0.3-1.1-0.7-1.5c-0.4-0.4-1.1-0.6-1.8-0.6
		c-0.6,0-1.2,0.2-1.6,0.6C55.3,69,55,69.5,54.8,70.1z"/>
	<path class="st1" d="M66.6,66.5c1.2,0,2.2,0.3,2.9,1c0.7,0.7,1.1,1.6,1.1,2.7v5.4H69v-1.2h-0.1c-0.7,1-1.6,1.5-2.7,1.5
		c-1,0-1.8-0.3-2.4-0.9c-0.7-0.6-1-1.3-1-2.2c0-0.9,0.3-1.6,1-2.2c0.7-0.5,1.6-0.8,2.8-0.8c1,0,1.8,0.2,2.4,0.5V70
		c0-0.6-0.2-1.1-0.7-1.5s-1-0.6-1.6-0.6c-0.9,0-1.7,0.4-2.2,1.2L63,68.2C63.8,67.1,65,66.5,66.6,66.5z M64.5,72.9
		c0,0.4,0.2,0.8,0.5,1.1c0.4,0.3,0.8,0.4,1.3,0.4c0.7,0,1.3-0.3,1.9-0.8c0.5-0.5,0.8-1.1,0.8-1.8c-0.5-0.4-1.2-0.6-2.2-0.6
		c-0.7,0-1.2,0.2-1.7,0.5C64.7,72,64.5,72.4,64.5,72.9z"/>
	<path class="st1" d="M74.1,62.7v12.9h-1.7V62.7H74.1z"/>
	<path class="st1" d="M78.3,63.7c0,0.3-0.1,0.6-0.3,0.8c-0.2,0.2-0.5,0.3-0.8,0.3s-0.6-0.1-0.8-0.3c-0.2-0.2-0.3-0.5-0.3-0.8
		c0-0.3,0.1-0.6,0.3-0.8c0.2-0.2,0.5-0.3,0.8-0.3s0.6,0.1,0.8,0.3C78.1,63.1,78.3,63.4,78.3,63.7z M77.9,66.8v8.8h-1.7v-8.8H77.9z"
		/>
	<path class="st1" d="M83.5,75.7c-0.7,0-1.3-0.2-1.8-0.7C81.2,74.6,81,74,81,73.2v-4.9h-1.5v-1.5H81v-2.7h1.7v2.7h2.2v1.5h-2.2v4.4
		c0,0.6,0.1,1,0.3,1.2c0.2,0.2,0.5,0.3,0.8,0.3c0.1,0,0.3,0,0.4,0c0.1,0,0.2-0.1,0.4-0.1l0.5,1.5C84.6,75.7,84,75.7,83.5,75.7z"/>
	<path class="st1" d="M94.3,66.8l-5.5,12.7h-1.7l2.1-4.4l-3.6-8.3h1.8l2.6,6.3h0l2.6-6.3H94.3z"/>
	<path class="st1" d="M96.5,74.5c0,0.3-0.1,0.6-0.4,0.9c-0.2,0.2-0.5,0.4-0.9,0.4c-0.3,0-0.6-0.1-0.9-0.4c-0.2-0.2-0.4-0.5-0.4-0.9
		c0-0.3,0.1-0.6,0.4-0.9c0.2-0.2,0.5-0.4,0.9-0.4c0.3,0,0.6,0.1,0.9,0.4C96.3,73.8,96.5,74.1,96.5,74.5z"/>
</g>
<rect x="-13.5" y="150.1" transform="matrix(0.7071 -0.7071 0.7071 0.7071 -145.5004 119.915)" class="st2" width="171.1" height="171.1"/>
<rect x="-13.5" y="208.2" transform="matrix(0.7071 -0.7071 0.7071 0.7071 -186.5798 136.9306)" class="st3" width="171.1" height="171.1"/>
<g>
	<path class="st1" d="M19.3,201.6h-1.8c-0.2,0-0.3,0.1-0.3,0.3c0,0.2,0.1,0.3,0.3,0.3h1.8c0.2,0,0.3-0.1,0.3-0.3
		C19.6,201.7,19.5,201.6,19.3,201.6z"/>
	<path class="st1" d="M21.5,200.6c0-0.1-0.2-0.2-0.3-0.2h-5.5c-0.1,0-0.3,0.1-0.3,0.2l-0.6,2.4c0,0.1,0,0.2,0.1,0.3
		c0.1,0.1,0.1,0.1,0.2,0.1h6.7c0.1,0,0.2,0,0.2-0.1c0.1-0.1,0.1-0.2,0.1-0.3L21.5,200.6z M15.5,202.8L16,201h5l0.5,1.8H15.5z"/>
	<path class="st1" d="M22.1,187.6h-2.2l-1.2-2.3c-0.1-0.2-0.4-0.2-0.5,0l-1.2,2.3h-2.2c-0.1,0-0.2,0.1-0.3,0.2c0,0.1,0,0.2,0.1,0.3
		l1.8,1.9l-1,2.7c0,0.1,0,0.3,0.1,0.3c0.1,0,0.1,0.1,0.2,0.1c0.1,0,0.1,0,0.1,0l2.6-1.4L21,193c0.1,0.1,0.2,0,0.3,0
		c0.1-0.1,0.1-0.2,0.1-0.3l-1-2.7l1.8-1.8c0.1-0.1,0.1-0.2,0.1-0.3C22.3,187.7,22.2,187.6,22.1,187.6z M19.9,189.7
		c-0.1,0.1-0.1,0.2-0.1,0.3l0.8,2.1l-2-1.1c0,0-0.1,0-0.1,0c-0.1,0-0.1,0-0.1,0l-2,1.1l0.8-2.1c0-0.1,0-0.2-0.1-0.3l-1.5-1.5h1.6
		c0.1,0,0.2-0.1,0.3-0.2l1-1.9l1,1.9c0.1,0.1,0.2,0.2,0.3,0.2h1.6L19.9,189.7z"/>
	<path class="st1" d="M17.5,199.8c0.2,0,0.3-0.1,0.3-0.3c0,0,0.3-2.8,0.3-4.9v-1.8c0-0.2-0.1-0.3-0.3-0.3c-0.2,0-0.3,0.1-0.3,0.3
		v1.8c0,2.1-0.3,4.8-0.3,4.8C17.2,199.6,17.3,199.7,17.5,199.8C17.5,199.8,17.5,199.8,17.5,199.8z"/>
	<path class="st1" d="M19.1,192.5c-0.2,0-0.3,0.1-0.3,0.3v1.8c0,2.1,0.3,4.9,0.3,4.9c0,0.2,0.1,0.3,0.3,0.3c0,0,0,0,0,0
		c0.2,0,0.3-0.2,0.3-0.3c0,0-0.3-2.7-0.3-4.8v-1.8C19.4,192.6,19.2,192.5,19.1,192.5z"/>
</g>
</svg>
