<?xml version="1.0" encoding="utf-8"?>
<!-- Generator: Adobe Illustrator 24.0.0, SVG Export Plug-In . SVG Version: 6.00 Build 0)  -->
<svg version="1.1" id="Layer_1" xmlns="http://www.w3.org/2000/svg" xmlns:xlink="http://www.w3.org/1999/xlink" x="0px" y="0px"
	 viewBox="0 0 144 216" style="enable-background:new 0 0 144 216;" xml:space="preserve">
<style type="text/css">
	.st0{fill:#FFC5AE;}
	.st1{fill:#FFFFFF;}
	.st2{fill:#F9F9F9;}
	.st3{opacity:0.1;fill:#F26522;}
	.st4{opacity:0.2;fill:#F26522;}
</style>
<g>
	<rect class="st0" width="144" height="216"/>
</g>
<path class="st1" d="M17.3,194.4l7,6.9c0.1,0.1,0.2,0.1,0.4,0.1s0.3-0.1,0.4-0.1l7.1-7.1c1.7-1.1,2.8-3,2.8-5c0-3.3-2.7-5.9-5.9-5.9
	c-1.7,0-3.2,0.7-4.4,1.9c-1.1-1.2-2.7-1.9-4.4-1.9c-3.3,0-5.9,2.7-5.9,5.9C14.2,191.3,15.4,193.3,17.3,194.4z M20.3,184.3
	c1.6,0,3,0.7,4,2c0.2,0.2,0.6,0.2,0.8,0c1-1.2,2.4-2,4-2c2.8,0,4.9,2.3,4.9,4.9c0,1.7-0.9,3.3-2.4,4.3c0,0-0.1,0-0.1,0.1l-6.8,6.8
	l-6.6-6.6l-0.1-0.1c-1.6-0.9-2.6-2.6-2.6-4.4C15.2,186.5,17.5,184.3,20.3,184.3z"/>
<g>
	<path class="st2" d="M21.1,33.5c-1.9,0-3.5-0.6-4.8-1.9c-1.3-1.3-1.9-2.9-1.9-4.8s0.6-3.5,1.9-4.8c1.3-1.3,2.9-1.9,4.8-1.9
		c1.9,0,3.5,0.7,4.7,2.1l-1.2,1.2c-0.9-1.1-2.1-1.7-3.5-1.7c-1.4,0-2.6,0.5-3.6,1.4c-0.9,0.9-1.4,2.2-1.4,3.7s0.5,2.8,1.4,3.7
		c1,1,2.2,1.4,3.6,1.4c1.5,0,2.8-0.6,3.9-1.9l1.2,1.2c-0.6,0.7-1.4,1.3-2.3,1.7C23.1,33.3,22.2,33.5,21.1,33.5z"/>
	<path class="st2" d="M30.9,24.1c1.2,0,2.2,0.3,2.9,1c0.7,0.7,1.1,1.6,1.1,2.7v5.4h-1.6V32h-0.1c-0.7,1-1.6,1.5-2.7,1.5
		c-1,0-1.8-0.3-2.4-0.9c-0.7-0.6-1-1.3-1-2.2c0-0.9,0.3-1.6,1-2.2c0.7-0.5,1.6-0.8,2.8-0.8c1,0,1.8,0.2,2.4,0.5v-0.4
		c0-0.6-0.2-1.1-0.7-1.5s-1-0.6-1.6-0.6c-0.9,0-1.7,0.4-2.2,1.2l-1.5-0.9C28.1,24.7,29.3,24.1,30.9,24.1z M28.8,30.5
		c0,0.4,0.2,0.8,0.5,1.1s0.8,0.4,1.3,0.4c0.7,0,1.3-0.3,1.9-0.8s0.8-1.1,0.8-1.8c-0.5-0.4-1.2-0.6-2.2-0.6c-0.7,0-1.2,0.2-1.7,0.5
		C29,29.6,28.8,30,28.8,30.5z"/>
	<path class="st2" d="M38.4,33.2h-1.7v-8.8h1.6v1.4h0.1c0.2-0.5,0.5-0.9,1-1.2c0.5-0.3,1-0.5,1.5-0.5c0.5,0,0.9,0.1,1.2,0.2
		l-0.5,1.6c-0.2-0.1-0.5-0.1-1-0.1c-0.6,0-1.2,0.3-1.6,0.8c-0.5,0.5-0.7,1.1-0.7,1.8V33.2z"/>
	<path class="st2" d="M46.7,33.5c-1.3,0-2.4-0.4-3.2-1.3s-1.3-2-1.3-3.4c0-1.3,0.4-2.5,1.2-3.4c0.8-0.9,1.9-1.3,3.1-1.3
		c1.3,0,2.3,0.4,3.1,1.3c0.8,0.8,1.2,2,1.2,3.6l0,0.2h-6.9c0,0.9,0.3,1.6,0.9,2.1c0.6,0.5,1.2,0.8,2,0.8c1.1,0,1.9-0.5,2.5-1.6
		l1.5,0.7c-0.4,0.7-0.9,1.3-1.6,1.7C48.4,33.3,47.6,33.5,46.7,33.5z M44,27.7h5.1c0-0.6-0.3-1.1-0.7-1.5c-0.5-0.4-1.1-0.6-1.8-0.6
		c-0.6,0-1.2,0.2-1.6,0.6C44.5,26.6,44.2,27.1,44,27.7z"/>
	<path class="st2" d="M59.7,24.1c1.2,0,2.2,0.3,2.9,1c0.7,0.7,1.1,1.6,1.1,2.7v5.4h-1.6V32H62c-0.7,1-1.6,1.5-2.7,1.5
		c-1,0-1.8-0.3-2.4-0.9c-0.7-0.6-1-1.3-1-2.2c0-0.9,0.3-1.6,1-2.2c0.7-0.5,1.6-0.8,2.8-0.8c1,0,1.8,0.2,2.4,0.5v-0.4
		c0-0.6-0.2-1.1-0.7-1.5s-1-0.6-1.6-0.6c-0.9,0-1.7,0.4-2.2,1.2l-1.5-0.9C56.9,24.7,58.1,24.1,59.7,24.1z M57.5,30.5
		c0,0.4,0.2,0.8,0.5,1.1s0.8,0.4,1.3,0.4c0.7,0,1.3-0.3,1.9-0.8s0.8-1.1,0.8-1.8c-0.5-0.4-1.2-0.6-2.2-0.6c-0.7,0-1.2,0.2-1.7,0.5
		C57.8,29.6,57.5,30,57.5,30.5z"/>
	<path class="st2" d="M65.5,24.4h1.6v1.2h0.1c0.3-0.4,0.6-0.8,1.2-1.1c0.5-0.3,1.1-0.4,1.6-0.4c1.1,0,1.9,0.3,2.5,0.9
		c0.6,0.6,0.9,1.5,0.9,2.6v5.5h-1.7v-5.4c0-1.4-0.8-2.2-2.2-2.2c-0.7,0-1.2,0.3-1.7,0.8c-0.4,0.5-0.7,1.2-0.7,1.9v4.9h-1.7V24.4z"/>
	<path class="st2" d="M79,33.5c-1.2,0-2.1-0.5-3-1.4c-0.8-0.9-1.2-2-1.2-3.3c0-1.3,0.4-2.4,1.2-3.3c0.8-0.9,1.8-1.4,3-1.4
		c0.6,0,1.2,0.1,1.8,0.4s0.9,0.6,1.2,1.1H82L82,24.4v-4.1h1.7v12.9H82V32H82c-0.3,0.5-0.7,0.8-1.2,1.1S79.6,33.5,79,33.5z M79.2,32
		c0.8,0,1.5-0.3,2-0.9c0.5-0.6,0.8-1.4,0.8-2.3c0-0.9-0.3-1.7-0.8-2.3c-0.5-0.6-1.2-0.9-2-0.9c-0.8,0-1.5,0.3-2,0.9
		s-0.8,1.4-0.8,2.3c0,0.9,0.3,1.7,0.8,2.3C77.8,31.7,78.4,32,79.2,32z"/>
	<path class="st2" d="M96.3,30.8c0,0.8-0.3,1.4-1,1.9s-1.5,0.8-2.5,0.8c-0.9,0-1.7-0.2-2.3-0.7c-0.7-0.5-1.2-1.1-1.4-1.8l1.5-0.6
		c0.2,0.5,0.5,0.9,0.9,1.2c0.4,0.3,0.9,0.4,1.4,0.4c0.5,0,1-0.1,1.3-0.3c0.4-0.2,0.5-0.5,0.5-0.8c0-0.6-0.4-1-1.3-1.2l-1.5-0.4
		c-1.7-0.4-2.6-1.3-2.6-2.5c0-0.8,0.3-1.4,1-1.9c0.7-0.5,1.5-0.7,2.5-0.7c0.8,0,1.5,0.2,2.1,0.6s1.1,0.9,1.3,1.5l-1.5,0.6
		c-0.2-0.4-0.4-0.7-0.8-0.9s-0.8-0.3-1.3-0.3c-0.4,0-0.8,0.1-1.2,0.3c-0.3,0.2-0.5,0.5-0.5,0.8c0,0.5,0.5,0.9,1.4,1.1l1.3,0.3
		C95.5,28.5,96.3,29.4,96.3,30.8z"/>
	<path class="st2" d="M97.8,20.3h1.7v4.1l-0.1,1.2h0.1c0.3-0.4,0.6-0.8,1.2-1.1c0.5-0.3,1.1-0.4,1.6-0.4c1.1,0,1.9,0.3,2.5,0.9
		c0.6,0.6,0.9,1.5,0.9,2.6v5.5h-1.7V28c0-1.6-0.7-2.4-2.1-2.4c-0.7,0-1.2,0.3-1.7,0.8c-0.5,0.6-0.7,1.2-0.7,2v4.8h-1.7V20.3z"/>
	<path class="st2" d="M110.8,24.1c1.2,0,2.2,0.3,2.9,1c0.7,0.7,1.1,1.6,1.1,2.7v5.4h-1.6V32h-0.1c-0.7,1-1.6,1.5-2.7,1.5
		c-1,0-1.8-0.3-2.4-0.9c-0.7-0.6-1-1.3-1-2.2c0-0.9,0.3-1.6,1-2.2c0.7-0.5,1.6-0.8,2.8-0.8c1,0,1.8,0.2,2.4,0.5v-0.4
		c0-0.6-0.2-1.1-0.7-1.5s-1-0.6-1.6-0.6c-0.9,0-1.7,0.4-2.2,1.2l-1.5-0.9C108,24.7,109.2,24.1,110.8,24.1z M108.7,30.5
		c0,0.4,0.2,0.8,0.5,1.1s0.8,0.4,1.3,0.4c0.7,0,1.3-0.3,1.9-0.8s0.8-1.1,0.8-1.8c-0.5-0.4-1.2-0.6-2.2-0.6c-0.7,0-1.2,0.2-1.7,0.5
		C108.9,29.6,108.7,30,108.7,30.5z"/>
	<path class="st2" d="M118.3,33.2h-1.7v-8.8h1.6v1.4h0.1c0.2-0.5,0.5-0.9,1-1.2c0.5-0.3,1-0.5,1.5-0.5c0.5,0,0.9,0.1,1.2,0.2
		l-0.5,1.6c-0.2-0.1-0.5-0.1-1-0.1c-0.6,0-1.2,0.3-1.6,0.8c-0.5,0.5-0.7,1.1-0.7,1.8V33.2z"/>
	<path class="st2" d="M126.6,33.5c-1.3,0-2.4-0.4-3.2-1.3s-1.3-2-1.3-3.4c0-1.3,0.4-2.5,1.2-3.4c0.8-0.9,1.9-1.3,3.1-1.3
		c1.3,0,2.3,0.4,3.1,1.3c0.8,0.8,1.2,2,1.2,3.6l0,0.2h-6.9c0,0.9,0.3,1.6,0.9,2.1c0.6,0.5,1.2,0.8,2,0.8c1.1,0,1.9-0.5,2.5-1.6
		l1.5,0.7c-0.4,0.7-0.9,1.3-1.6,1.7C128.3,33.3,127.5,33.5,126.6,33.5z M123.9,27.7h5.1c0-0.6-0.3-1.1-0.7-1.5
		c-0.5-0.4-1.1-0.6-1.8-0.6c-0.6,0-1.2,0.2-1.6,0.6C124.4,26.6,124.1,27.1,123.9,27.7z"/>
	<path class="st2" d="M27.3,46l-2.8,8.8h-1.7L20.5,48l-2.2,6.8h-1.7L13.8,46h1.7l2,6.7h0l2.2-6.7h1.7l2.2,6.7h0l1.9-6.7H27.3z"/>
	<path class="st2" d="M30.5,42.9c0,0.3-0.1,0.6-0.3,0.8c-0.2,0.2-0.5,0.3-0.8,0.3c-0.3,0-0.6-0.1-0.8-0.3c-0.2-0.2-0.3-0.5-0.3-0.8
		c0-0.3,0.1-0.6,0.3-0.8c0.2-0.2,0.5-0.3,0.8-0.3c0.3,0,0.6,0.1,0.8,0.3C30.4,42.3,30.5,42.6,30.5,42.9z M30.2,46v8.8h-1.7V46H30.2z
		"/>
	<path class="st2" d="M35.7,54.9c-0.7,0-1.3-0.2-1.8-0.7c-0.5-0.4-0.7-1.1-0.7-1.9v-4.9h-1.5V46h1.5v-2.7h1.7V46H37v1.5h-2.2v4.4
		c0,0.6,0.1,1,0.3,1.2c0.2,0.2,0.5,0.3,0.8,0.3c0.1,0,0.3,0,0.4,0c0.1,0,0.2-0.1,0.4-0.1l0.5,1.5C36.8,54.9,36.3,54.9,35.7,54.9z"/>
	<path class="st2" d="M38.7,41.9h1.7V46l-0.1,1.2h0.1c0.3-0.4,0.6-0.8,1.2-1.1c0.5-0.3,1.1-0.4,1.6-0.4c1.1,0,1.9,0.3,2.5,0.9
		c0.6,0.6,0.9,1.5,0.9,2.6v5.5h-1.7v-5.2c0-1.6-0.7-2.4-2.1-2.4c-0.7,0-1.2,0.3-1.7,0.8c-0.5,0.6-0.7,1.2-0.7,2v4.8h-1.7V41.9z"/>
	<path class="st2" d="M55.9,54.9c-0.7,0-1.3-0.2-1.8-0.7c-0.5-0.4-0.7-1.1-0.7-1.9v-4.9h-1.5V46h1.5v-2.7H55V46h2.2v1.5H55v4.4
		c0,0.6,0.1,1,0.3,1.2c0.2,0.2,0.5,0.3,0.8,0.3c0.1,0,0.3,0,0.4,0c0.1,0,0.2-0.1,0.4-0.1l0.5,1.5C57,54.9,56.5,54.9,55.9,54.9z"/>
	<path class="st2" d="M58.9,41.9h1.7V46l-0.1,1.2h0.1c0.3-0.4,0.6-0.8,1.2-1.1c0.5-0.3,1.1-0.4,1.6-0.4c1.1,0,1.9,0.3,2.5,0.9
		c0.6,0.6,0.9,1.5,0.9,2.6v5.5H65v-5.2c0-1.6-0.7-2.4-2.1-2.4c-0.7,0-1.2,0.3-1.7,0.8c-0.5,0.6-0.7,1.2-0.7,2v4.8h-1.7V41.9z"/>
	<path class="st2" d="M72.6,55.1c-1.3,0-2.4-0.4-3.2-1.3s-1.3-2-1.3-3.4c0-1.3,0.4-2.5,1.2-3.4c0.8-0.9,1.9-1.3,3.1-1.3
		c1.3,0,2.3,0.4,3.1,1.3c0.8,0.8,1.2,2,1.2,3.6l0,0.2h-6.9c0,0.9,0.3,1.6,0.9,2.1c0.6,0.5,1.2,0.8,2,0.8c1.1,0,1.9-0.5,2.5-1.6
		l1.5,0.7c-0.4,0.7-0.9,1.3-1.6,1.7C74.3,54.9,73.5,55.1,72.6,55.1z M69.9,49.3H75c0-0.6-0.3-1.1-0.7-1.5c-0.5-0.4-1.1-0.6-1.8-0.6
		c-0.6,0-1.2,0.2-1.6,0.6C70.4,48.2,70.1,48.7,69.9,49.3z"/>
	<path class="st2" d="M83.9,41.9v12.9h-1.7V41.9H83.9z"/>
	<path class="st2" d="M89.8,55.1c-1.3,0-2.4-0.4-3.2-1.3s-1.3-2-1.3-3.4c0-1.3,0.4-2.5,1.2-3.4c0.8-0.9,1.9-1.3,3.1-1.3
		c1.3,0,2.3,0.4,3.1,1.3c0.8,0.8,1.2,2,1.2,3.6l0,0.2H87c0,0.9,0.3,1.6,0.9,2.1c0.6,0.5,1.2,0.8,2,0.8c1.1,0,1.9-0.5,2.5-1.6
		l1.5,0.7c-0.4,0.7-0.9,1.3-1.6,1.7C91.5,54.9,90.7,55.1,89.8,55.1z M87.1,49.3h5.1c0-0.6-0.3-1.1-0.7-1.5c-0.5-0.4-1.1-0.6-1.8-0.6
		c-0.6,0-1.2,0.2-1.6,0.6C87.6,48.2,87.3,48.7,87.1,49.3z"/>
	<path class="st2" d="M102.3,52.4c0,0.8-0.3,1.4-1,1.9s-1.5,0.8-2.5,0.8c-0.9,0-1.7-0.2-2.3-0.7c-0.7-0.5-1.2-1.1-1.4-1.8l1.5-0.6
		c0.2,0.5,0.5,0.9,0.9,1.2c0.4,0.3,0.9,0.4,1.4,0.4c0.5,0,1-0.1,1.3-0.3c0.4-0.2,0.5-0.5,0.5-0.8c0-0.6-0.4-1-1.3-1.2l-1.5-0.4
		c-1.7-0.4-2.6-1.3-2.6-2.5c0-0.8,0.3-1.4,1-1.9c0.7-0.5,1.5-0.7,2.5-0.7c0.8,0,1.5,0.2,2.1,0.6s1.1,0.9,1.3,1.5l-1.5,0.6
		c-0.2-0.4-0.4-0.7-0.8-0.9s-0.8-0.3-1.3-0.3c-0.4,0-0.8,0.1-1.2,0.3c-0.3,0.2-0.5,0.5-0.5,0.8c0,0.5,0.5,0.9,1.4,1.1l1.3,0.3
		C101.4,50.1,102.3,51,102.3,52.4z"/>
	<path class="st2" d="M110.5,52.4c0,0.8-0.3,1.4-1,1.9s-1.5,0.8-2.5,0.8c-0.9,0-1.7-0.2-2.3-0.7c-0.7-0.5-1.2-1.1-1.4-1.8l1.5-0.6
		c0.2,0.5,0.5,0.9,0.9,1.2c0.4,0.3,0.9,0.4,1.4,0.4c0.5,0,1-0.1,1.3-0.3c0.4-0.2,0.5-0.5,0.5-0.8c0-0.6-0.4-1-1.3-1.2l-1.5-0.4
		c-1.7-0.4-2.6-1.3-2.6-2.5c0-0.8,0.3-1.4,1-1.9c0.7-0.5,1.5-0.7,2.5-0.7c0.8,0,1.5,0.2,2.1,0.6s1.1,0.9,1.3,1.5l-1.5,0.6
		c-0.2-0.4-0.4-0.7-0.8-0.9s-0.8-0.3-1.3-0.3c-0.4,0-0.8,0.1-1.2,0.3c-0.3,0.2-0.5,0.5-0.5,0.8c0,0.5,0.5,0.9,1.4,1.1l1.3,0.3
		C109.6,50.1,110.5,51,110.5,52.4z"/>
	<path class="st2" d="M18.9,63.4c0.6,0,1.1,0.1,1.5,0.3l-0.5,1.5c-0.3-0.1-0.6-0.2-1-0.2c-0.4,0-0.7,0.1-1,0.4
		c-0.3,0.3-0.4,0.7-0.4,1.1v1.1h2.3v1.5h-2.3v7.3h-1.7v-7.3h-1.7v-1.5h1.7v-1.3c0-0.9,0.3-1.6,0.8-2.1C17.3,63.6,18,63.4,18.9,63.4z
		"/>
	<path class="st2" d="M20.4,72c0-1.4,0.4-2.5,1.3-3.4c0.9-0.9,1.9-1.3,3.3-1.3c1.3,0,2.4,0.4,3.2,1.3c0.9,0.9,1.3,2,1.3,3.4
		c0,1.4-0.4,2.5-1.3,3.4c-0.9,0.9-1.9,1.3-3.2,1.3c-1.3,0-2.4-0.4-3.3-1.3C20.8,74.5,20.4,73.3,20.4,72z M22,72
		c0,0.9,0.3,1.7,0.8,2.3c0.6,0.6,1.2,0.9,2.1,0.9c0.8,0,1.5-0.3,2.1-0.9s0.8-1.4,0.8-2.3c0-0.9-0.3-1.7-0.8-2.3
		c-0.6-0.6-1.2-0.9-2.1-0.9s-1.5,0.3-2.1,0.9C22.3,70.3,22,71.1,22,72z"/>
	<path class="st2" d="M30.8,67.6h1.6V69h0.1c0.5-1.1,1.5-1.7,3-1.7l0.3,0v1.7L35.1,69c-0.8,0-1.4,0.2-1.9,0.7s-0.7,1.1-0.7,1.8v4.9
		h-1.7V67.6z M41.1,76.5c-0.7,0-1.3-0.2-1.8-0.7s-0.7-1.1-0.7-1.9v-4.9H37v-1.5h1.5v-2.7h1.7v2.7h2.2v1.5h-2.2v4.4
		c0,0.6,0.1,1,0.3,1.2c0.2,0.2,0.5,0.3,0.8,0.3c0.1,0,0.3,0,0.4,0c0.1,0,0.2-0.1,0.4-0.1l0.5,1.5C42.2,76.5,41.7,76.5,41.1,76.5z"/>
	<path class="st2" d="M51.7,76.4h-1.6v-1.2h-0.1c-0.3,0.4-0.6,0.8-1.2,1.1c-0.5,0.3-1.1,0.4-1.6,0.4c-1.1,0-1.9-0.3-2.5-0.9
		c-0.6-0.6-0.9-1.5-0.9-2.6v-5.5h1.7V73c0,1.4,0.8,2.2,2.2,2.2c0.7,0,1.2-0.3,1.7-0.8c0.4-0.5,0.7-1.2,0.7-1.9v-4.9h1.7V76.4z"/>
	<path class="st2" d="M53.7,67.6h1.6v1.2h0.1c0.3-0.4,0.6-0.8,1.2-1.1c0.5-0.3,1.1-0.4,1.6-0.4c1.1,0,1.9,0.3,2.5,0.9
		c0.6,0.6,0.9,1.5,0.9,2.6v5.5h-1.7V71c0-1.4-0.8-2.2-2.2-2.2c-0.7,0-1.2,0.3-1.7,0.8c-0.4,0.5-0.7,1.2-0.7,1.9v4.9h-1.7V67.6z"/>
	<path class="st2" d="M66.8,67.3c1.2,0,2.2,0.3,2.9,1c0.7,0.7,1.1,1.6,1.1,2.7v5.4h-1.6v-1.2h-0.1c-0.7,1-1.6,1.5-2.7,1.5
		c-1,0-1.8-0.3-2.4-0.9c-0.7-0.6-1-1.3-1-2.2c0-0.9,0.3-1.6,1-2.2c0.7-0.5,1.6-0.8,2.8-0.8c1,0,1.8,0.2,2.4,0.5v-0.4
		c0-0.6-0.2-1.1-0.7-1.5s-1-0.6-1.6-0.6c-0.9,0-1.7,0.4-2.2,1.2L63.2,69C64,67.9,65.2,67.3,66.8,67.3z M64.6,73.7
		c0,0.4,0.2,0.8,0.5,1.1s0.8,0.4,1.3,0.4c0.7,0,1.3-0.3,1.9-0.8s0.8-1.1,0.8-1.8C68.6,72.2,67.9,72,67,72c-0.7,0-1.2,0.2-1.7,0.5
		C64.8,72.8,64.6,73.2,64.6,73.7z"/>
	<path class="st2" d="M75.9,76.5c-0.7,0-1.3-0.2-1.8-0.7c-0.5-0.4-0.7-1.1-0.7-1.9v-4.9h-1.5v-1.5h1.5v-2.7H75v2.7h2.2v1.5H75v4.4
		c0,0.6,0.1,1,0.3,1.2c0.2,0.2,0.5,0.3,0.8,0.3c0.1,0,0.3,0,0.4,0c0.1,0,0.2-0.1,0.4-0.1l0.5,1.5C77,76.5,76.5,76.5,75.9,76.5z"/>
	<path class="st2" d="M82.6,76.7c-1.3,0-2.4-0.4-3.2-1.3s-1.3-2-1.3-3.4c0-1.3,0.4-2.5,1.2-3.4c0.8-0.9,1.9-1.3,3.1-1.3
		c1.3,0,2.3,0.4,3.1,1.3c0.8,0.8,1.2,2,1.2,3.6l0,0.2h-6.9c0,0.9,0.3,1.6,0.9,2.1c0.6,0.5,1.2,0.8,2,0.8c1.1,0,1.9-0.5,2.5-1.6
		l1.5,0.7c-0.4,0.7-0.9,1.3-1.6,1.7C84.3,76.5,83.5,76.7,82.6,76.7z M80,70.9h5.1c0-0.6-0.3-1.1-0.7-1.5c-0.5-0.4-1.1-0.6-1.8-0.6
		c-0.6,0-1.2,0.2-1.6,0.6C80.4,69.8,80.1,70.3,80,70.9z"/>
	<path class="st2" d="M90.6,75.3c0,0.3-0.1,0.6-0.4,0.9c-0.2,0.2-0.5,0.4-0.9,0.4c-0.3,0-0.6-0.1-0.9-0.4c-0.2-0.2-0.4-0.5-0.4-0.9
		c0-0.3,0.1-0.6,0.4-0.9c0.2-0.2,0.5-0.4,0.9-0.4c0.3,0,0.6,0.1,0.9,0.4C90.5,74.6,90.6,74.9,90.6,75.3z"/>
</g>
<circle class="st3" cx="4.3" cy="166" r="85"/>
<circle class="st4" cx="144" cy="166" r="85"/>
</svg>
