<?xml version="1.0" encoding="utf-8"?>
<!-- Generator: Adobe Illustrator 24.0.0, SVG Export Plug-In . SVG Version: 6.00 Build 0)  -->
<svg version="1.1" id="Layer_1" xmlns="http://www.w3.org/2000/svg" xmlns:xlink="http://www.w3.org/1999/xlink" x="0px" y="0px"
	 viewBox="0 0 216 288" style="enable-background:new 0 0 216 288;" xml:space="preserve">
<style type="text/css">
	.st0{opacity:0.1;fill:#F26522;enable-background:new    ;}
	.st1{opacity:0.1;}
	.st2{fill:none;stroke:#F26522;stroke-width:15;stroke-linecap:round;stroke-linejoin:round;}
	.st3{fill:none;}
	.st4{opacity:0.15;}
	.st5{fill:none;stroke:#058182;stroke-width:25.2;stroke-linecap:round;stroke-linejoin:round;}
	.st6{clip-path:url(#SVGID_2_);}
	.st7{clip-path:url(#SVGID_6_);}
	.st8{clip-path:url(#SVGID_10_);}
	.st9{clip-path:url(#SVGID_14_);}
	.st10{clip-path:url(#SVGID_18_);}
	.st11{clip-path:url(#SVGID_22_);}
	.st12{clip-path:url(#SVGID_24_);}
	.st13{clip-path:url(#SVGID_28_);}
	.st14{clip-path:url(#SVGID_32_);}
	.st15{clip-path:url(#SVGID_36_);}
	.st16{clip-path:url(#SVGID_40_);}
	.st17{clip-path:url(#SVGID_44_);}
	.st18{clip-path:url(#SVGID_46_);}
	.st19{clip-path:url(#SVGID_50_);}
	.st20{clip-path:url(#SVGID_54_);}
	.st21{clip-path:url(#SVGID_58_);}
	.st22{clip-path:url(#SVGID_62_);}
	.st23{clip-path:url(#SVGID_66_);}
	.st24{clip-path:url(#SVGID_68_);}
	.st25{clip-path:url(#SVGID_72_);}
	.st26{clip-path:url(#SVGID_76_);}
	.st27{clip-path:url(#SVGID_80_);}
	.st28{clip-path:url(#SVGID_82_);}
	.st29{clip-path:url(#SVGID_86_);}
	.st30{clip-path:url(#SVGID_90_);}
	.st31{clip-path:url(#SVGID_92_);}
	.st32{clip-path:url(#SVGID_96_);}
	.st33{clip-path:url(#SVGID_100_);}
	.st34{clip-path:url(#SVGID_102_);}
	.st35{clip-path:url(#SVGID_106_);}
	.st36{clip-path:url(#SVGID_110_);}
	.st37{clip-path:url(#SVGID_112_);}
	.st38{clip-path:url(#SVGID_116_);}
	.st39{clip-path:url(#SVGID_120_);}
	.st40{clip-path:url(#SVGID_122_);}
	.st41{clip-path:url(#SVGID_126_);}
	.st42{clip-path:url(#SVGID_128_);}
	.st43{clip-path:url(#SVGID_132_);}
	.st44{clip-path:url(#SVGID_136_);}
	.st45{clip-path:url(#SVGID_138_);}
	.st46{clip-path:url(#SVGID_142_);}
	.st47{clip-path:url(#SVGID_146_);}
	.st48{clip-path:url(#SVGID_148_);}
	.st49{fill:#222222;}
	.st50{font-family:'ProductSans-Black';}
	.st51{font-size:18px;}
	.st52{fill:#058182;}
	.st53{enable-background:new    ;}
	.st54{fill:#F26522;}
	.st55{fill-rule:evenodd;clip-rule:evenodd;fill:#F26522;}
	.st56{fill-rule:evenodd;clip-rule:evenodd;fill:#222222;}
</style>
<symbol  id="a" viewBox="-8.2 -8 16.4 16">
	<path d="M8.2-0.1v1.4H-3.2c0.1,1.1,0.5,2,1.2,2.6s1.7,0.9,3,0.9c1,0,2.1-0.1,3.2-0.5c1-0.3,2.1-0.7,3.3-1.4v3.8
		C6.3,7.1,5.2,7.5,4,7.7C2.9,7.9,1.7,8,0.5,8C-2.3,8-4.4,7.3-6,5.9C-7.5,4.5-8.2,2.6-8.2,0c0-2.5,0.8-4.5,2.3-5.9S-2.4-8,0.3-8
		C2.7-8,4.6-7.3,6-5.9C7.5-4.4,8.2-2.5,8.2-0.1L8.2-0.1z M3.2-1.7c0-0.9-0.3-1.7-0.8-2.2C1.8-4.5,1.1-4.8,0.3-4.8
		C-0.6-4.8-1.4-4.5-2-4s-1,1.3-1.1,2.3H3.2z"/>
</symbol>
<symbol  id="b" viewBox="-6.1 -9.8 12.2 19.6">
	<path d="M1.1-9.8v4.3h5V-2h-5v6.5c0,0.7,0.1,1.2,0.4,1.4s0.8,0.4,1.7,0.4h2.5v3.5H1.6c-1.9,0-3.3-0.4-4.1-1.2s-1.2-2.2-1.2-4.1V-2
		h-2.4v-3.5h2.4v-4.3H1.1z"/>
</symbol>
<symbol  id="c" viewBox="-5.7 -7.9 11.4 15.8">
	<path d="M5.7-3.3C5.2-3.5,4.8-3.6,4.4-3.7C4-3.8,3.6-3.9,3.1-3.9c-1.3,0-2.2,0.4-2.9,1.2s-1,2-1,3.5v7.1h-4.9V-7.5h4.9V-5
		c0.6-1,1.3-1.7,2.2-2.2c0.8-0.5,1.8-0.7,2.9-0.7c0.2,0,0.3,0,0.5,0s0.5,0,0.8,0.1L5.7-3.3z"/>
</symbol>
<symbol  id="d" viewBox="-8.4 -8 16.8 16">
	<path d="M0-4.5c-1.1,0-1.9,0.4-2.5,1.2C-3-2.6-3.3-1.5-3.3,0S-3,2.6-2.5,3.4C-1.9,4.2-1.1,4.5,0,4.5s1.9-0.4,2.4-1.2
		C3,2.6,3.3,1.5,3.3,0S3-2.6,2.5-3.4C1.9-4.1,1.1-4.5,0-4.5z M0-8c2.6,0,4.7,0.7,6.2,2.1S8.4-2.5,8.4,0S7.7,4.5,6.2,5.9S2.7,8,0,8
		c-2.6,0-4.7-0.7-6.2-2.1S-8.4,2.5-8.4,0s0.7-4.5,2.2-5.9S-2.6-8,0-8z"/>
</symbol>
<symbol  id="e" viewBox="-7.7 -7.9 15.4 15.8">
	<path d="M7.7-1.5v9.3H2.8V0.7c0-1.3,0-2.2-0.1-2.7S2.5-2.9,2.4-3.1C2.2-3.5,1.9-3.7,1.6-3.9C1.3-4.1,0.9-4.1,0.5-4.1
		c-1,0-1.8,0.4-2.4,1.2S-2.8-1-2.8,0.4v7.5h-4.9V-7.5h4.9v2.2c0.7-0.9,1.5-1.5,2.3-2c0.8-0.4,1.8-0.6,2.8-0.6c1.8,0,3.1,0.5,4,1.6
		C7.2-5.1,7.7-3.5,7.7-1.5L7.7-1.5z"/>
</symbol>
<symbol  id="f" viewBox="-10 -10.2 20 20.4">
	<path d="M-10-10.2h5.3v7.4l7.6-7.4H9l-9.8,9.7L10,10.2H3.4l-8.1-8v8H-10V-10.2z"/>
</symbol>
<symbol  id="g" viewBox="-8.7 -10.6 17.4 21.3">
	<path d="M-8.7-10.6h4.9L0.3-0.3l3.5-10.4h4.9L2.3,6.1C1.6,7.8,0.9,9,0,9.6c-0.9,0.7-2,1-3.4,1h-2.8V7.5h1.5c0.8,0,1.4-0.1,1.8-0.4
		C-2.5,6.8-2.2,6.3-2,5.6l0.1-0.4L-8.7-10.6z"/>
</symbol>
<symbol  id="h" viewBox="-8.2 -10.9 16.4 21.7">
	<path d="M-0.1,7.2c1.1,0,1.9-0.4,2.4-1.1c0.6-0.8,0.8-1.9,0.8-3.3c0-1.5-0.3-2.6-0.8-3.3C1.8-1.4,1-1.8-0.1-1.8S-2-1.4-2.5-0.6
		C-3,0.1-3.3,1.3-3.3,2.7S-3,5.3-2.5,6C-1.9,6.8-1.1,7.2-0.1,7.2L-0.1,7.2z M-3.3-2.7c0.7-0.9,1.4-1.5,2.2-2
		c0.8-0.4,1.8-0.6,2.8-0.6c1.9,0,3.4,0.8,4.7,2.2c1.2,1.5,1.8,3.4,1.8,5.8S7.6,7,6.4,8.5s-2.8,2.3-4.7,2.3c-1.1,0-2-0.2-2.8-0.6
		c-0.8-0.4-1.6-1.1-2.2-2v2.2h-4.9v-21.3h4.9C-3.3-10.9-3.3-2.7-3.3-2.7z"/>
</symbol>
<symbol  id="i" viewBox="-8.1 -10.8 16.3 21.6">
	<path d="M3.3-2.6v-8.2h4.9v21.3H3.3V8.2c-0.7,0.9-1.4,1.6-2.2,2s-1.8,0.6-2.8,0.6c-1.9,0-3.4-0.8-4.6-2.3s-1.8-3.4-1.8-5.8
		s0.6-4.3,1.8-5.8s2.8-2.3,4.6-2.3c1.1,0,2,0.2,2.8,0.6C1.9-4.2,2.6-3.5,3.3-2.6L3.3-2.6z M0.1,7.3c1,0,1.8-0.4,2.4-1.1
		C3,5.4,3.3,4.3,3.3,2.8S3,0.2,2.5-0.5C1.9-1.3,1.1-1.7,0.1-1.7s-1.8,0.4-2.4,1.2s-0.8,1.9-0.8,3.3c0,1.5,0.3,2.6,0.8,3.3
		C-1.8,6.9-1,7.3,0.1,7.3z"/>
</symbol>
<symbol  id="j" viewBox="-7.8 -8 15.5 16">
	<path d="M0.3,0.8c-1,0-1.8,0.2-2.3,0.5s-0.8,0.9-0.8,1.5s0.2,1.1,0.6,1.5c0.4,0.3,1,0.5,1.7,0.5c0.9,0,1.7-0.3,2.3-1s1-1.5,1-2.5
		V0.8H0.3z M7.8-1.1v8.7H2.8V5.4C2.2,6.3,1.4,7,0.6,7.4S-1.2,8-2.4,8C-4,8-5.3,7.6-6.3,6.7s-1.5-2.1-1.5-3.6c0-1.8,0.6-3.1,1.8-3.9
		s3.2-1.3,5.8-1.3h2.9v-0.4c0-0.8-0.3-1.3-0.9-1.7C1.3-4.6,0.3-4.8-1-4.8c-1.1,0-2,0.1-2.9,0.3c-1,0.2-1.8,0.5-2.5,0.9v-3.7
		c1-0.3,2.1-0.4,3.1-0.6C-2.2-8-1.1-8-0.1-8c2.8,0,4.8,0.5,6,1.6S7.8-3.5,7.8-1.1L7.8-1.1z"/>
</symbol>
<symbol  id="k" viewBox="-6.8 -8 13.6 16">
	<path d="M6.8-7.2v4c-0.7-0.5-1.3-0.8-2-1C4.1-4.4,3.4-4.5,2.7-4.5c-1.4,0-2.4,0.4-3.2,1.2S-1.7-1.4-1.7,0s0.4,2.5,1.1,3.3
		c0.8,0.8,1.8,1.2,3.2,1.2c0.8,0,1.5-0.1,2.2-0.3c0.7-0.2,1.3-0.6,1.9-1v4C6,7.5,5.2,7.7,4.4,7.8C3.6,8,2.9,8,2.1,8
		c-2.8,0-4.9-0.7-6.5-2.1S-6.8,2.5-6.8,0S-6-4.5-4.5-5.9C-2.9-7.3-0.7-8,2.1-8c0.8,0,1.5,0,2.3,0.2C5.2-7.7,6-7.5,6.8-7.2L6.8-7.2z"
		/>
</symbol>
<symbol  id="l" viewBox="-4.1 -13.6 8.2 27.2">
	<path d="M-0.8-7.7h4.9v15c0,2.1-0.5,3.6-1.5,4.7s-2.4,1.6-4.3,1.6h-2.4v-3.2h0.9c0.9,0,1.6-0.2,1.9-0.6C-1,9.4-0.8,8.6-0.8,7.3
		V-7.7z M-0.8-13.6h4.9v4h-4.9L-0.8-13.6z"/>
</symbol>
<symbol  id="m" viewBox="-8.5 -10.1 17 20.3">
	<path d="M-8.3-10.1h8.7c2.6,0,4.6,0.6,6,1.7s2.1,2.8,2.1,4.9S7.8,0.2,6.3,1.3C4.9,2.5,2.9,3,0.3,3h-3.5v7.1h-5.3v-20.3L-8.3-10.1
		L-8.3-10.1z M-3-6.4v5.7h2.9c1,0,1.8-0.3,2.4-0.8c0.5-0.4,0.8-1.1,0.8-2S2.8-5.1,2.3-5.6C1.7-6.1,0.9-6.4-0.1-6.4H-3z"/>
</symbol>
<symbol  id="n" viewBox="-7.7 -7.8 15.4 15.6">
	<path d="M-7.7,1.5v-9.3h4.9v1.5c0,0.8,0,1.9,0,3.1c0,1.3,0,2.1,0,2.5c0,1.2,0,2.1,0.1,2.7c0.1,0.5,0.2,0.9,0.3,1.2
		C-2.2,3.5-1.9,3.8-1.6,4s0.7,0.3,1.1,0.3c1,0,1.8-0.4,2.4-1.2s0.9-1.9,0.9-3.3v-7.6h4.9V7.5H2.8V5.2c-0.7,0.9-1.5,1.6-2.3,2
		c-0.8,0.4-1.7,0.6-2.7,0.6c-1.8,0-3.1-0.5-4-1.6C-7.2,5.1-7.7,3.6-7.7,1.5L-7.7,1.5z"/>
</symbol>
<symbol  id="o" viewBox="-9.1 -10.2 18.3 20.4">
	<path d="M-9.1-10.2h5.9l7.4,14v-14h5v20.4H3.3l-7.4-14v14h-5V-10.2z"/>
</symbol>
<symbol  id="p" viewBox="-7.7 -10.6 15.4 21.3">
	<path d="M7.7,1.2v9.3H2.8V3.4c0-1.3,0-2.3-0.1-2.8s-0.2-0.8-0.3-1C2.2-0.8,1.9-1,1.6-1.2S0.9-1.4,0.5-1.4c-1,0-1.8,0.4-2.4,1.2
		s-0.9,1.9-0.9,3.3v7.5h-4.9v-21.3h4.9v8.2c0.7-0.9,1.5-1.5,2.3-2C0.4-4.8,1.3-5,2.3-5c1.8,0,3.1,0.5,4,1.6C7.2-2.4,7.7-0.9,7.7,1.2
		L7.7,1.2z"/>
</symbol>
<symbol  id="q" viewBox="-12.3 -7.9 24.6 15.8">
	<path d="M1.9-4.8C2.5-5.7,3.2-6.5,4.1-7s1.8-0.7,2.8-0.7c1.8,0,3.1,0.5,4,1.6s1.4,2.7,1.4,4.7v9.3H7.4v-8v-0.4c0-0.1,0-0.3,0-0.6
		c0-1.1-0.2-1.9-0.5-2.3S6.1-4,5.4-4C4.5-4,3.8-3.7,3.2-2.9C2.7-2.1,2.5-1,2.5,0.4v7.5h-4.9v-8c0-1.7-0.1-2.8-0.4-3.3
		s-0.8-0.7-1.6-0.7c-0.9,0-1.7,0.4-2.2,1.2S-7.4-1-7.4,0.4v7.5h-4.9V-7.4h4.9v2.2c0.6-0.9,1.3-1.5,2.1-2c0.8-0.4,1.6-0.7,2.6-0.7
		c1.1,0,2,0.3,2.8,0.8C0.9-6.5,1.5-5.7,1.9-4.8L1.9-4.8z"/>
</symbol>
<symbol  id="r" viewBox="-5.9 -10.7 11.8 21.4">
	<path d="M5.9-10.6v3.2H3.2C2.6-7.4,2.1-7.3,1.8-7C1.5-6.8,1.4-6.4,1.4-5.7v1.1h4.2v3.5H1.4v11.8h-4.9V-1.2h-2.4v-3.5h2.4v-1.1
		c0-1.7,0.5-2.9,1.4-3.7c0.9-0.8,2.4-1.2,4.3-1.2L5.9-10.6z"/>
</symbol>
<symbol  id="s" viewBox="-2.5 -10.6 4.9 21.2">
	<path d="M-2.5-4.7h4.9v15.3h-4.9V-4.7z M-2.5-10.6h4.9v4h-4.9V-10.6z"/>
</symbol>
<symbol  id="t" viewBox="-8.7 -7.7 17.4 15.3">
	<path d="M-8.7-7.7h4.9L0,2.9L3.8-7.7h4.9l-6,15.3h-5.4L-8.7-7.7z"/>
</symbol>
<symbol  id="u" viewBox="-8.7 -10.6 17.4 21.1">
	<path d="M8.7,9.1c-1,0.5-2,0.9-3,1.1c-1,0.3-2.1,0.4-3.3,0.4c-3.4,0-6.1-0.9-8.1-2.8s-3-4.5-3-7.7c0-3.3,1-5.8,3-7.7
		s4.7-2.9,8.1-2.9c1.1,0,2.2,0.1,3.3,0.4c1.1,0.3,2.1,0.6,3,1.1v4.2c-1-0.7-2-1.2-2.9-1.5s-1.9-0.5-3-0.5c-1.9,0-3.4,0.6-4.4,1.8
		c-1.1,1.2-1.6,2.9-1.6,5s0.5,3.8,1.6,5s2.5,1.8,4.4,1.8c1.1,0,2.1-0.1,3-0.5c0.9-0.3,1.9-0.8,2.9-1.4V9.1z"/>
</symbol>
<rect x="-0.1" y="-0.9" class="st0" width="216" height="288"/>
<g class="st1">
	<path class="st2" d="M64.9,226.9c3.2-1.6-56.5-81.9-55.6-82.3c14.8-7.3,18.6,13.8,33.4,6.5c3.2-1.6-12.5-12.9-9.7-14.3
		c11.1-5.5,13.1-1.7,24.2-7.2c3.2-1.6-43.7-27.2-40.5-28.8c12.1-6,44.4,32.8,56.4,26.8c3.2-1.6-38.9-53.4-35.7-55
		c19.5-9.6,92.2,102,121,87.8c3.2-1.6-123.3-147.2-122.2-147.8c66.1-32.6,88.3,137.8,154.4,105.1c3.2-1.6-10.7-83.4-39.7-99.1"/>
	<path class="st2" d="M117.5,188.3c0-35.1-126.6-12.8-102.8-24.5c22.1-10.9-14,152.7,66.1,113.2c3.2-1.6-48.3-123.3-45.1-124.9
		c60.5-29.8,24.1,136,84.6,106.2c3.2-1.6-7.1-28-3.8-29.6c15.8-7.8,37.8,47.7,40.7,47.2c30.5-6-12.4-46.8-11.7-47.2
		c5.9-2.9,44.5-1.2,45.5-1.7c3.2-1.6-33.1-18.4-30.8-19.5c11.1-5.5,13.1-1.7,24.2-7.2c3.2-1.6-12.9-12.7-9.7-14.3
		c11.1-5.5,13.1-1.7,24.2-7.2c41.5-20.5-15.6-164-11.2-166.2"/>
</g>
<path class="st3" d="M130.4,96.9c-1,2.1-2.4,3.6-4.6,4.6c2.2,1,3.6,2.5,4.6,4.6c1-2.2,2.5-3.6,4.6-4.6
	C132.8,100.5,131.4,99,130.4,96.9z"/>
<path class="st3" d="M69.9,92.4c1.9-2.8,1.9-2.8,4.5-4.5c-2-1-3.5-2.4-4.5-4.5c-1,2.1-2.5,3.6-4.5,4.6
	C67.9,89.4,68.2,89.7,69.9,92.4z"/>
<path class="st3" d="M85.9,69.5c1-2.2,2.5-3.6,4.6-4.6c-2.1-1-3.6-2.5-4.6-4.6c-1,2.2-2.5,3.6-4.6,4.6
	C83.4,65.9,84.9,67.4,85.9,69.5z"/>
<path class="st3" d="M105.9,79.3c0.8-1.7,2-2.8,3.6-3.7c-1.7-0.9-2.8-2-3.6-3.6c-0.8,1.6-2,2.8-3.6,3.6
	C103.9,76.5,105,77.6,105.9,79.3z"/>
<g class="st4">
	<polyline class="st5" points="-106.1,-172.8 -59.1,-147.8 -200.7,-147 -18,-49.7 -242.4,-93.1 -67.8,-0.1 -312.6,-54.3 
		-142.5,36.3 -309.3,23.6 -203.9,79.7 -365,70.1 -202.7,156.5 -409.6,122.5 -265,199.5 -438.9,183.1 -283.5,265.8 -485.4,234.4 
		-341.2,311.2 -566.4,267.5 -402.6,354.7 -569.8,341.8 -441.4,410.2 	"/>
</g>
<g>
	<g>
		<defs>
			<rect id="SVGID_1_" x="358.9" y="560.1" width="18" height="21"/>
		</defs>
		<clipPath id="SVGID_2_">
			<use xlink:href="#SVGID_1_"  style="overflow:visible;"/>
		</clipPath>
		<g transform="matrix(1 0 0 1 0 0)" class="st6">
			<g>
				<defs>
					<rect id="SVGID_3_" x="358.9" y="560.1" width="18" height="20.9"/>
				</defs>
				<clipPath id="SVGID_4_">
					<use xlink:href="#SVGID_3_"  style="overflow:visible;"/>
				</clipPath>
				<g transform="matrix(1 0 0 1 0 0)" style="clip-path:url(#SVGID_4_);">
					
						<use xlink:href="#u"  width="17.4" height="21.1" x="-8.7" y="-10.6" transform="matrix(1.036 0 0 0.9919 367.9194 570.7041)" style="overflow:visible;"/>
				</g>
			</g>
		</g>
	</g>
</g>
<g>
	<g>
		<defs>
			<rect id="SVGID_5_" x="348.6" y="561.3" width="11" height="16"/>
		</defs>
		<clipPath id="SVGID_6_">
			<use xlink:href="#SVGID_5_"  style="overflow:visible;"/>
		</clipPath>
		<g class="st7">
			<g>
				<defs>
					<rect id="SVGID_7_" x="348.6" y="561.2" width="11" height="16.1"/>
				</defs>
				<clipPath id="SVGID_8_">
					<use xlink:href="#SVGID_7_"  style="overflow:visible;"/>
				</clipPath>
				<g style="clip-path:url(#SVGID_8_);">
					
						<use xlink:href="#c"  width="11.4" height="15.8" x="-5.7" y="-7.9" transform="matrix(0.967 0 0 1.02 354.0855 569.2866)" style="overflow:visible;"/>
				</g>
			</g>
		</g>
	</g>
</g>
<g>
	<g>
		<defs>
			<rect id="SVGID_9_" x="364.6" y="564.7" width="16" height="16"/>
		</defs>
		<clipPath id="SVGID_10_">
			<use xlink:href="#SVGID_9_"  style="overflow:visible;"/>
		</clipPath>
		<g transform="matrix(1 0 0 1 0 0)" class="st8">
			<g>
				<defs>
					<rect id="SVGID_11_" x="364.6" y="564.7" width="16" height="15.9"/>
				</defs>
				<clipPath id="SVGID_12_">
					<use xlink:href="#SVGID_11_"  style="overflow:visible;"/>
				</clipPath>
				<g transform="matrix(1 0 0 1 0 0)" style="clip-path:url(#SVGID_12_);">
					
						<use xlink:href="#a"  width="16.4" height="16" x="-8.2" y="-8" transform="matrix(0.9734 0 0 0.9951 372.5577 572.6606)" style="overflow:visible;"/>
				</g>
			</g>
		</g>
	</g>
</g>
<g>
	<g>
		<defs>
			<rect id="SVGID_13_" x="381.4" y="564.7" width="15" height="16"/>
		</defs>
		<clipPath id="SVGID_14_">
			<use xlink:href="#SVGID_13_"  style="overflow:visible;"/>
		</clipPath>
		<g transform="matrix(1 0 0 1 0 0)" class="st9">
			<g>
				<defs>
					<rect id="SVGID_15_" x="381.3" y="564.7" width="15" height="15.9"/>
				</defs>
				<clipPath id="SVGID_16_">
					<use xlink:href="#SVGID_15_"  style="overflow:visible;"/>
				</clipPath>
				<g transform="matrix(1 0 0 1 0 0)" style="clip-path:url(#SVGID_16_);">
					
						<use xlink:href="#j"  width="15.5" height="16" x="-7.8" y="-8" transform="matrix(0.9687 0 0 0.9951 388.8685 572.6609)" style="overflow:visible;"/>
				</g>
			</g>
		</g>
	</g>
</g>
<g>
	<g>
		<defs>
			<rect id="SVGID_17_" x="399.8" y="557.7" width="12" height="20"/>
		</defs>
		<clipPath id="SVGID_18_">
			<use xlink:href="#SVGID_17_"  style="overflow:visible;"/>
		</clipPath>
		<g class="st10">
			<g>
				<defs>
					<rect id="SVGID_19_" x="399.9" y="557.7" width="11.8" height="19.9"/>
				</defs>
				<clipPath id="SVGID_20_">
					<use xlink:href="#SVGID_19_"  style="overflow:visible;"/>
				</clipPath>
				<g style="clip-path:url(#SVGID_20_);">
					
						<use xlink:href="#b"  width="12.2" height="19.6" x="-6.1" y="-9.8" transform="matrix(0.9697 0 0 1.0175 405.8304 567.622)" style="overflow:visible;"/>
				</g>
			</g>
		</g>
	</g>
</g>
<g>
	<g>
		<g>
			<defs>
				<rect id="SVGID_21_" x="427" y="580" width="700" height="700"/>
			</defs>
			<clipPath id="SVGID_22_">
				<use xlink:href="#SVGID_21_"  style="overflow:visible;"/>
			</clipPath>
			<g transform="matrix(1 0 0 1 0 0)" class="st11">
				<g>
					<g>
						<defs>
							<rect id="SVGID_23_" x="415.6" y="564.7" width="16" height="16"/>
						</defs>
						<clipPath id="SVGID_24_">
							<use xlink:href="#SVGID_23_"  style="overflow:visible;"/>
						</clipPath>
						<g transform="matrix(1 0 0 1 0 0)" class="st12">
							<g>
								<defs>
									<rect id="SVGID_25_" x="415.6" y="564.7" width="16" height="15.9"/>
								</defs>
								<clipPath id="SVGID_26_">
									<use xlink:href="#SVGID_25_"  style="overflow:visible;"/>
								</clipPath>
								<g transform="matrix(1 0 0 1 0 0)" style="clip-path:url(#SVGID_26_);">
									
										<use xlink:href="#a"  width="16.4" height="16" x="-8.2" y="-8" transform="matrix(0.9734 0 0 0.9951 423.5577 572.6606)" style="overflow:visible;"/>
								</g>
							</g>
						</g>
					</g>
				</g>
			</g>
		</g>
	</g>
</g>
<g>
	<g>
		<defs>
			<rect id="SVGID_27_" x="435" y="563.2" width="16" height="21"/>
		</defs>
		<clipPath id="SVGID_28_">
			<use xlink:href="#SVGID_27_"  style="overflow:visible;"/>
		</clipPath>
		<g transform="matrix(1 0 0 1 0 0)" class="st13">
			<g>
				<defs>
					<rect id="SVGID_29_" x="435.2" y="563.2" width="15.9" height="20.9"/>
				</defs>
				<clipPath id="SVGID_30_">
					<use xlink:href="#SVGID_29_"  style="overflow:visible;"/>
				</clipPath>
				<g transform="matrix(1 0 0 1 0 0)" style="clip-path:url(#SVGID_30_);">
					
						<use xlink:href="#i"  width="16.3" height="21.6" x="-8.1" y="-10.8" transform="matrix(0.9743 0 0 0.969 443.0916 573.7147)" style="overflow:visible;"/>
				</g>
			</g>
		</g>
	</g>
</g>
<g>
	<g>
		<defs>
			<rect id="SVGID_31_" x="466" y="563.2" width="16" height="21"/>
		</defs>
		<clipPath id="SVGID_32_">
			<use xlink:href="#SVGID_31_"  style="overflow:visible;"/>
		</clipPath>
		<g transform="matrix(1 0 0 1 0 0)" class="st14">
			<g>
				<defs>
					<rect id="SVGID_33_" x="466" y="563.2" width="16" height="21"/>
				</defs>
				<clipPath id="SVGID_34_">
					<use xlink:href="#SVGID_33_"  style="overflow:visible;"/>
				</clipPath>
				<g transform="matrix(1 0 0 1 0 0)" style="clip-path:url(#SVGID_34_);">
					
						<use xlink:href="#h"  width="16.4" height="21.7" x="-8.2" y="-10.9" transform="matrix(0.9743 0 0 0.969 473.9969 573.7147)" style="overflow:visible;"/>
				</g>
			</g>
		</g>
	</g>
</g>
<g>
	<g>
		<defs>
			<rect id="SVGID_35_" x="485.1" y="567.3" width="17" height="21"/>
		</defs>
		<clipPath id="SVGID_36_">
			<use xlink:href="#SVGID_35_"  style="overflow:visible;"/>
		</clipPath>
		<g class="st15">
			<g>
				<defs>
					<rect id="SVGID_37_" x="485.1" y="567.3" width="17" height="20.9"/>
				</defs>
				<clipPath id="SVGID_38_">
					<use xlink:href="#SVGID_37_"  style="overflow:visible;"/>
				</clipPath>
				<g style="clip-path:url(#SVGID_38_);">
					
						<use xlink:href="#g"  width="17.4" height="21.3" x="-8.7" y="-10.6" transform="matrix(0.9767 0 0 0.9832 493.5987 577.692)" style="overflow:visible;"/>
				</g>
			</g>
		</g>
	</g>
</g>
<g>
	<g>
		<defs>
			<rect id="SVGID_39_" x="526.8" y="562.7" width="20" height="20"/>
		</defs>
		<clipPath id="SVGID_40_">
			<use xlink:href="#SVGID_39_"  style="overflow:visible;"/>
		</clipPath>
		<g class="st16">
			<g>
				<defs>
					<rect id="SVGID_41_" x="526.8" y="562.7" width="20" height="20"/>
				</defs>
				<clipPath id="SVGID_42_">
					<use xlink:href="#SVGID_41_"  style="overflow:visible;"/>
				</clipPath>
				<g style="clip-path:url(#SVGID_42_);">
					
						<use xlink:href="#f"  width="20" height="20.4" x="-10" y="-10.2" transform="matrix(1.0015 0 0 0.9801 536.7704 572.7072)" style="overflow:visible;"/>
				</g>
			</g>
		</g>
	</g>
</g>
<g>
	<g>
		<g>
			<defs>
				<rect id="SVGID_43_" x="545" y="580" width="700" height="700"/>
			</defs>
			<clipPath id="SVGID_44_">
				<use xlink:href="#SVGID_43_"  style="overflow:visible;"/>
			</clipPath>
			<g transform="matrix(1 0 0 1 0 0)" class="st17">
				<g>
					<g>
						<defs>
							<rect id="SVGID_45_" x="562.1" y="564.7" width="17" height="16"/>
						</defs>
						<clipPath id="SVGID_46_">
							<use xlink:href="#SVGID_45_"  style="overflow:visible;"/>
						</clipPath>
						<g transform="matrix(1 0 0 1 0 0)" class="st18">
							<g>
								<defs>
									<rect id="SVGID_47_" x="562.1" y="564.7" width="17" height="15.9"/>
								</defs>
								<clipPath id="SVGID_48_">
									<use xlink:href="#SVGID_47_"  style="overflow:visible;"/>
								</clipPath>
								<g transform="matrix(1 0 0 1 0 0)" style="clip-path:url(#SVGID_48_);">
									
										<use xlink:href="#a"  width="16.4" height="16" x="-8.2" y="-8" transform="matrix(1.0342 0 0 0.9951 570.5925 572.6606)" style="overflow:visible;"/>
								</g>
							</g>
						</g>
					</g>
				</g>
			</g>
		</g>
	</g>
</g>
<g>
	<g>
		<defs>
			<rect id="SVGID_49_" x="553.7" y="567.7" width="17" height="15"/>
		</defs>
		<clipPath id="SVGID_50_">
			<use xlink:href="#SVGID_49_"  style="overflow:visible;"/>
		</clipPath>
		<g class="st19">
			<g>
				<defs>
					<rect id="SVGID_51_" x="553.7" y="567.7" width="17" height="15"/>
				</defs>
				<clipPath id="SVGID_52_">
					<use xlink:href="#SVGID_51_"  style="overflow:visible;"/>
				</clipPath>
				<g style="clip-path:url(#SVGID_52_);">
					
						<use xlink:href="#t"  width="17.4" height="15.3" x="-8.7" y="-7.7" transform="matrix(0.9758 0 0 0.9796 562.1885 575.1733)" style="overflow:visible;"/>
				</g>
			</g>
		</g>
	</g>
</g>
<g>
	<g>
		<defs>
			<rect id="SVGID_53_" x="595.6" y="560.8" width="5" height="21"/>
		</defs>
		<clipPath id="SVGID_54_">
			<use xlink:href="#SVGID_53_"  style="overflow:visible;"/>
		</clipPath>
		<g class="st20">
			<g>
				<defs>
					<rect id="SVGID_55_" x="595.5" y="560.8" width="5" height="20.9"/>
				</defs>
				<clipPath id="SVGID_56_">
					<use xlink:href="#SVGID_55_"  style="overflow:visible;"/>
				</clipPath>
				<g style="clip-path:url(#SVGID_56_);">
					
						<use xlink:href="#s"  width="4.9" height="21.2" x="-2.5" y="-10.6" transform="matrix(1.0224 0 0 0.9868 598.0369 571.2946)" style="overflow:visible;"/>
				</g>
			</g>
		</g>
	</g>
</g>
<g>
	<g>
		<defs>
			<rect id="SVGID_57_" x="612.6" y="561.3" width="16" height="16"/>
		</defs>
		<clipPath id="SVGID_58_">
			<use xlink:href="#SVGID_57_"  style="overflow:visible;"/>
		</clipPath>
		<g class="st21">
			<g>
				<defs>
					<rect id="SVGID_59_" x="612.6" y="561.2" width="16" height="16.1"/>
				</defs>
				<clipPath id="SVGID_60_">
					<use xlink:href="#SVGID_59_"  style="overflow:visible;"/>
				</clipPath>
				<g style="clip-path:url(#SVGID_60_);">
					
						<use xlink:href="#e"  width="15.4" height="15.8" x="-7.7" y="-7.9" transform="matrix(1.0396 0 0 1.0199 620.6166 569.2875)" style="overflow:visible;"/>
				</g>
			</g>
		</g>
	</g>
</g>
<g>
	<g>
		<defs>
			<rect id="SVGID_61_" x="307" y="588.8" width="11" height="21"/>
		</defs>
		<clipPath id="SVGID_62_">
			<use xlink:href="#SVGID_61_"  style="overflow:visible;"/>
		</clipPath>
		<g class="st22">
			<g>
				<defs>
					<rect id="SVGID_63_" x="307" y="588.7" width="10.9" height="21.1"/>
				</defs>
				<clipPath id="SVGID_64_">
					<use xlink:href="#SVGID_63_"  style="overflow:visible;"/>
				</clipPath>
				<g style="clip-path:url(#SVGID_64_);">
					
						<use xlink:href="#r"  width="11.8" height="21.4" x="-5.9" y="-10.7" transform="matrix(0.9251 0 0 0.9868 312.4152 599.2946)" style="overflow:visible;"/>
				</g>
			</g>
		</g>
	</g>
</g>
<g>
	<g>
		<g>
			<defs>
				<rect id="SVGID_65_" x="353" y="608" width="700" height="700"/>
			</defs>
			<clipPath id="SVGID_66_">
				<use xlink:href="#SVGID_65_"  style="overflow:visible;"/>
			</clipPath>
			<g class="st23">
				<g>
					<g>
						<defs>
							<rect id="SVGID_67_" x="340.6" y="589.3" width="11" height="16"/>
						</defs>
						<clipPath id="SVGID_68_">
							<use xlink:href="#SVGID_67_"  style="overflow:visible;"/>
						</clipPath>
						<g class="st24">
							<g>
								<defs>
									<rect id="SVGID_69_" x="340.6" y="589.2" width="11" height="16.1"/>
								</defs>
								<clipPath id="SVGID_70_">
									<use xlink:href="#SVGID_69_"  style="overflow:visible;"/>
								</clipPath>
								<g style="clip-path:url(#SVGID_70_);">
									
										<use xlink:href="#c"  width="11.4" height="15.8" x="-5.7" y="-7.9" transform="matrix(0.967 0 0 1.02 346.0855 597.2866)" style="overflow:visible;"/>
								</g>
							</g>
						</g>
					</g>
				</g>
			</g>
		</g>
	</g>
</g>
<g>
	<g>
		<defs>
			<rect id="SVGID_71_" x="372.8" y="592.7" width="17" height="16"/>
		</defs>
		<clipPath id="SVGID_72_">
			<use xlink:href="#SVGID_71_"  style="overflow:visible;"/>
		</clipPath>
		<g transform="matrix(1 0 0 1 0 0)" class="st25">
			<g>
				<defs>
					<rect id="SVGID_73_" x="372.8" y="592.7" width="17" height="15.9"/>
				</defs>
				<clipPath id="SVGID_74_">
					<use xlink:href="#SVGID_73_"  style="overflow:visible;"/>
				</clipPath>
				<g transform="matrix(1 0 0 1 0 0)" style="clip-path:url(#SVGID_74_);">
					
						<use xlink:href="#d"  width="16.8" height="16" x="-8.4" y="-8" transform="matrix(1.0102 0 0 0.9951 381.3331 600.6598)" style="overflow:visible;"/>
				</g>
			</g>
		</g>
	</g>
</g>
<g>
	<g>
		<defs>
			<rect id="SVGID_75_" x="376.9" y="589.3" width="24" height="16"/>
		</defs>
		<clipPath id="SVGID_76_">
			<use xlink:href="#SVGID_75_"  style="overflow:visible;"/>
		</clipPath>
		<g class="st26">
			<g>
				<defs>
					<rect id="SVGID_77_" x="376.9" y="589.1" width="24" height="16.1"/>
				</defs>
				<clipPath id="SVGID_78_">
					<use xlink:href="#SVGID_77_"  style="overflow:visible;"/>
				</clipPath>
				<g style="clip-path:url(#SVGID_78_);">
					
						<use xlink:href="#q"  width="24.6" height="15.8" x="-12.3" y="-7.9" transform="matrix(0.974 0 0 1.0199 388.85 597.1888)" style="overflow:visible;"/>
				</g>
			</g>
		</g>
	</g>
</g>
<g>
	<g>
		<g>
			<defs>
				<rect id="SVGID_79_" x="425" y="608" width="700" height="700"/>
			</defs>
			<clipPath id="SVGID_80_">
				<use xlink:href="#SVGID_79_"  style="overflow:visible;"/>
			</clipPath>
			<g class="st27">
				<g>
					<g>
						<defs>
							<rect id="SVGID_81_" x="411.8" y="585.7" width="12" height="20"/>
						</defs>
						<clipPath id="SVGID_82_">
							<use xlink:href="#SVGID_81_"  style="overflow:visible;"/>
						</clipPath>
						<g class="st28">
							<g>
								<defs>
									<rect id="SVGID_83_" x="411.9" y="585.7" width="11.8" height="19.9"/>
								</defs>
								<clipPath id="SVGID_84_">
									<use xlink:href="#SVGID_83_"  style="overflow:visible;"/>
								</clipPath>
								<g style="clip-path:url(#SVGID_84_);">
									
										<use xlink:href="#b"  width="12.2" height="19.6" x="-6.1" y="-9.8" transform="matrix(0.9697 0 0 1.0175 417.8304 595.622)" style="overflow:visible;"/>
								</g>
							</g>
						</g>
					</g>
				</g>
			</g>
		</g>
	</g>
</g>
<g>
	<g>
		<defs>
			<rect id="SVGID_85_" x="429.1" y="588.8" width="15" height="21"/>
		</defs>
		<clipPath id="SVGID_86_">
			<use xlink:href="#SVGID_85_"  style="overflow:visible;"/>
		</clipPath>
		<g class="st29">
			<g>
				<defs>
					<rect id="SVGID_87_" x="429.1" y="588.9" width="15" height="21"/>
				</defs>
				<clipPath id="SVGID_88_">
					<use xlink:href="#SVGID_87_"  style="overflow:visible;"/>
				</clipPath>
				<g style="clip-path:url(#SVGID_88_);">
					
						<use xlink:href="#p"  width="15.4" height="21.3" x="-7.7" y="-10.6" transform="matrix(0.9746 0 0 0.9868 436.6406 599.2964)" style="overflow:visible;"/>
				</g>
			</g>
		</g>
	</g>
</g>
<g>
	<g>
		<g>
			<defs>
				<rect id="SVGID_89_" x="459" y="608" width="700" height="700"/>
			</defs>
			<clipPath id="SVGID_90_">
				<use xlink:href="#SVGID_89_"  style="overflow:visible;"/>
			</clipPath>
			<g transform="matrix(1 0 0 1 0 0)" class="st30">
				<g>
					<g>
						<defs>
							<rect id="SVGID_91_" x="447.6" y="592.7" width="16" height="16"/>
						</defs>
						<clipPath id="SVGID_92_">
							<use xlink:href="#SVGID_91_"  style="overflow:visible;"/>
						</clipPath>
						<g transform="matrix(1 0 0 1 0 0)" class="st31">
							<g>
								<defs>
									<rect id="SVGID_93_" x="447.6" y="592.7" width="16" height="15.9"/>
								</defs>
								<clipPath id="SVGID_94_">
									<use xlink:href="#SVGID_93_"  style="overflow:visible;"/>
								</clipPath>
								<g transform="matrix(1 0 0 1 0 0)" style="clip-path:url(#SVGID_94_);">
									
										<use xlink:href="#a"  width="16.4" height="16" x="-8.2" y="-8" transform="matrix(0.9734 0 0 0.9951 455.5577 600.6606)" style="overflow:visible;"/>
								</g>
							</g>
						</g>
					</g>
				</g>
			</g>
		</g>
	</g>
</g>
<g>
	<g>
		<defs>
			<rect id="SVGID_95_" x="482.9" y="590.7" width="18" height="20"/>
		</defs>
		<clipPath id="SVGID_96_">
			<use xlink:href="#SVGID_95_"  style="overflow:visible;"/>
		</clipPath>
		<g class="st32">
			<g>
				<defs>
					<rect id="SVGID_97_" x="482.9" y="590.7" width="18" height="20"/>
				</defs>
				<clipPath id="SVGID_98_">
					<use xlink:href="#SVGID_97_"  style="overflow:visible;"/>
				</clipPath>
				<g style="clip-path:url(#SVGID_98_);">
					
						<use xlink:href="#o"  width="18.3" height="20.4" x="-9.1" y="-10.2" transform="matrix(0.9846 0 0 0.9801 491.9256 600.7059)" style="overflow:visible;"/>
				</g>
			</g>
		</g>
	</g>
</g>
<g>
	<g>
		<g>
			<defs>
				<rect id="SVGID_99_" x="511" y="608" width="700" height="700"/>
			</defs>
			<clipPath id="SVGID_100_">
				<use xlink:href="#SVGID_99_"  style="overflow:visible;"/>
			</clipPath>
			<g transform="matrix(1 0 0 1 0 0)" class="st33">
				<g>
					<g>
						<defs>
							<rect id="SVGID_101_" x="516.8" y="592.7" width="17" height="16"/>
						</defs>
						<clipPath id="SVGID_102_">
							<use xlink:href="#SVGID_101_"  style="overflow:visible;"/>
						</clipPath>
						<g transform="matrix(1 0 0 1 0 0)" class="st34">
							<g>
								<defs>
									<rect id="SVGID_103_" x="516.8" y="592.7" width="17" height="15.9"/>
								</defs>
								<clipPath id="SVGID_104_">
									<use xlink:href="#SVGID_103_"  style="overflow:visible;"/>
								</clipPath>
								<g transform="matrix(1 0 0 1 0 0)" style="clip-path:url(#SVGID_104_);">
									
										<use xlink:href="#d"  width="16.8" height="16" x="-8.4" y="-8" transform="matrix(1.0102 0 0 0.9951 525.3331 600.6598)" style="overflow:visible;"/>
								</g>
							</g>
						</g>
					</g>
				</g>
			</g>
		</g>
	</g>
</g>
<g>
	<g>
		<defs>
			<rect id="SVGID_105_" x="520.1" y="599" width="15" height="15"/>
		</defs>
		<clipPath id="SVGID_106_">
			<use xlink:href="#SVGID_105_"  style="overflow:visible;"/>
		</clipPath>
		<g transform="matrix(1 0 0 1 0 0)" class="st35">
			<g>
				<defs>
					<rect id="SVGID_107_" x="520.1" y="599.1" width="15" height="14.9"/>
				</defs>
				<clipPath id="SVGID_108_">
					<use xlink:href="#SVGID_107_"  style="overflow:visible;"/>
				</clipPath>
				<g transform="matrix(1 0 0 1 0 0)" style="clip-path:url(#SVGID_108_);">
					
						<use xlink:href="#n"  width="15.4" height="15.6" x="-7.7" y="-7.8" transform="matrix(0.9746 0 0 0.9553 527.6406 606.5852)" style="overflow:visible;"/>
				</g>
			</g>
		</g>
	</g>
</g>
<g>
	<g>
		<g>
			<defs>
				<rect id="SVGID_109_" x="550" y="608" width="700" height="700"/>
			</defs>
			<clipPath id="SVGID_110_">
				<use xlink:href="#SVGID_109_"  style="overflow:visible;"/>
			</clipPath>
			<g class="st36">
				<g>
					<g>
						<defs>
							<rect id="SVGID_111_" x="570.6" y="589.3" width="16" height="16"/>
						</defs>
						<clipPath id="SVGID_112_">
							<use xlink:href="#SVGID_111_"  style="overflow:visible;"/>
						</clipPath>
						<g transform="matrix(1 0 0 1 0 6.103516e-05)" class="st37">
							<g>
								<defs>
									<rect id="SVGID_113_" x="570.6" y="589.2" width="16" height="16.1"/>
								</defs>
								<clipPath id="SVGID_114_">
									<use xlink:href="#SVGID_113_"  style="overflow:visible;"/>
								</clipPath>
								<g transform="matrix(1 0 0 1 0 6.103516e-05)" style="clip-path:url(#SVGID_114_);">
									
										<use xlink:href="#e"  width="15.4" height="15.8" x="-7.7" y="-7.9" transform="matrix(1.0396 0 0 1.0199 578.6166 597.2875)" style="overflow:visible;"/>
								</g>
							</g>
						</g>
					</g>
				</g>
			</g>
		</g>
	</g>
</g>
<g>
	<g>
		<defs>
			<rect id="SVGID_115_" x="587.7" y="590.7" width="17" height="20"/>
		</defs>
		<clipPath id="SVGID_116_">
			<use xlink:href="#SVGID_115_"  style="overflow:visible;"/>
		</clipPath>
		<g class="st38">
			<g>
				<defs>
					<rect id="SVGID_117_" x="587.7" y="590.8" width="17.1" height="19.9"/>
				</defs>
				<clipPath id="SVGID_118_">
					<use xlink:href="#SVGID_117_"  style="overflow:visible;"/>
				</clipPath>
				<g style="clip-path:url(#SVGID_118_);">
					
						<use xlink:href="#m"  width="17" height="20.3" x="-8.5" y="-10.1" transform="matrix(1.0121 0 0 0.9801 596.1626 600.6098)" style="overflow:visible;"/>
				</g>
			</g>
		</g>
	</g>
</g>
<g>
	<g>
		<g>
			<defs>
				<rect id="SVGID_119_" x="600" y="608" width="700" height="700"/>
			</defs>
			<clipPath id="SVGID_120_">
				<use xlink:href="#SVGID_119_"  style="overflow:visible;"/>
			</clipPath>
			<g class="st39">
				<g>
					<g>
						<defs>
							<rect id="SVGID_121_" x="627.8" y="589.3" width="12" height="16"/>
						</defs>
						<clipPath id="SVGID_122_">
							<use xlink:href="#SVGID_121_"  style="overflow:visible;"/>
						</clipPath>
						<g class="st40">
							<g>
								<defs>
									<rect id="SVGID_123_" x="627.8" y="589.2" width="12" height="16.1"/>
								</defs>
								<clipPath id="SVGID_124_">
									<use xlink:href="#SVGID_123_"  style="overflow:visible;"/>
								</clipPath>
								<g style="clip-path:url(#SVGID_124_);">
									
										<use xlink:href="#c"  width="11.4" height="15.8" x="-5.7" y="-7.9" transform="matrix(1.055 0 0 1.02 633.8206 597.2866)" style="overflow:visible;"/>
								</g>
							</g>
						</g>
					</g>
				</g>
			</g>
		</g>
	</g>
</g>
<g>
	<g>
		<g>
			<defs>
				<rect id="SVGID_125_" x="614" y="608" width="700" height="700"/>
			</defs>
			<clipPath id="SVGID_126_">
				<use xlink:href="#SVGID_125_"  style="overflow:visible;"/>
			</clipPath>
			<g transform="matrix(1 0 0 1 0 0)" class="st41">
				<g>
					<g>
						<defs>
							<rect id="SVGID_127_" x="619.8" y="592.7" width="17" height="16"/>
						</defs>
						<clipPath id="SVGID_128_">
							<use xlink:href="#SVGID_127_"  style="overflow:visible;"/>
						</clipPath>
						<g transform="matrix(1 0 0 1 0 0)" class="st42">
							<g>
								<defs>
									<rect id="SVGID_129_" x="619.8" y="592.7" width="17" height="15.9"/>
								</defs>
								<clipPath id="SVGID_130_">
									<use xlink:href="#SVGID_129_"  style="overflow:visible;"/>
								</clipPath>
								<g transform="matrix(1 0 0 1 0 0)" style="clip-path:url(#SVGID_130_);">
									
										<use xlink:href="#d"  width="16.8" height="16" x="-8.4" y="-8" transform="matrix(1.0102 0 0 0.9951 628.3331 600.6598)" style="overflow:visible;"/>
								</g>
							</g>
						</g>
					</g>
				</g>
			</g>
		</g>
	</g>
</g>
<g>
	<g>
		<defs>
			<rect id="SVGID_131_" x="621.3" y="588.6" width="8" height="27"/>
		</defs>
		<clipPath id="SVGID_132_">
			<use xlink:href="#SVGID_131_"  style="overflow:visible;"/>
		</clipPath>
		<g class="st43">
			<g>
				<defs>
					<rect id="SVGID_133_" x="621.3" y="588.6" width="8" height="27"/>
				</defs>
				<clipPath id="SVGID_134_">
					<use xlink:href="#SVGID_133_"  style="overflow:visible;"/>
				</clipPath>
				<g style="clip-path:url(#SVGID_134_);">
					
						<use xlink:href="#l"  width="8.2" height="27.2" x="-4.1" y="-13.6" transform="matrix(0.9771 0 0 0.988 625.3031 602.0824)" style="overflow:visible;"/>
				</g>
			</g>
		</g>
	</g>
</g>
<g>
	<g>
		<g>
			<defs>
				<rect id="SVGID_135_" x="643" y="608" width="700" height="700"/>
			</defs>
			<clipPath id="SVGID_136_">
				<use xlink:href="#SVGID_135_"  style="overflow:visible;"/>
			</clipPath>
			<g transform="matrix(1 0 0 1 0 0)" class="st44">
				<g>
					<g>
						<defs>
							<rect id="SVGID_137_" x="631.6" y="592.7" width="16" height="16"/>
						</defs>
						<clipPath id="SVGID_138_">
							<use xlink:href="#SVGID_137_"  style="overflow:visible;"/>
						</clipPath>
						<g transform="matrix(1 0 0 1 0 0)" class="st45">
							<g>
								<defs>
									<rect id="SVGID_139_" x="631.6" y="592.7" width="16" height="15.9"/>
								</defs>
								<clipPath id="SVGID_140_">
									<use xlink:href="#SVGID_139_"  style="overflow:visible;"/>
								</clipPath>
								<g transform="matrix(1 0 0 1 0 0)" style="clip-path:url(#SVGID_140_);">
									
										<use xlink:href="#a"  width="16.4" height="16" x="-8.2" y="-8" transform="matrix(0.9734 0 0 0.9951 639.5577 600.6606)" style="overflow:visible;"/>
								</g>
							</g>
						</g>
					</g>
				</g>
			</g>
		</g>
	</g>
</g>
<g>
	<g>
		<defs>
			<rect id="SVGID_141_" x="645.1" y="592.7" width="13" height="16"/>
		</defs>
		<clipPath id="SVGID_142_">
			<use xlink:href="#SVGID_141_"  style="overflow:visible;"/>
		</clipPath>
		<g transform="matrix(1 0 0 1 0 0)" class="st46">
			<g>
				<defs>
					<rect id="SVGID_143_" x="645.1" y="592.7" width="13.1" height="15.9"/>
				</defs>
				<clipPath id="SVGID_144_">
					<use xlink:href="#SVGID_143_"  style="overflow:visible;"/>
				</clipPath>
				<g transform="matrix(1 0 0 1 0 0)" style="clip-path:url(#SVGID_144_);">
					
						<use xlink:href="#k"  width="13.6" height="16" x="-6.8" y="-8" transform="matrix(0.9619 0 0 0.9951 651.6512 600.6606)" style="overflow:visible;"/>
				</g>
			</g>
		</g>
	</g>
</g>
<g>
	<g>
		<g>
			<defs>
				<rect id="SVGID_145_" x="678" y="608" width="700" height="700"/>
			</defs>
			<clipPath id="SVGID_146_">
				<use xlink:href="#SVGID_145_"  style="overflow:visible;"/>
			</clipPath>
			<g class="st47">
				<g>
					<g>
						<defs>
							<rect id="SVGID_147_" x="664.8" y="585.7" width="12" height="20"/>
						</defs>
						<clipPath id="SVGID_148_">
							<use xlink:href="#SVGID_147_"  style="overflow:visible;"/>
						</clipPath>
						<g class="st48">
							<g>
								<defs>
									<rect id="SVGID_149_" x="664.9" y="585.7" width="11.8" height="19.9"/>
								</defs>
								<clipPath id="SVGID_150_">
									<use xlink:href="#SVGID_149_"  style="overflow:visible;"/>
								</clipPath>
								<g style="clip-path:url(#SVGID_150_);">
									
										<use xlink:href="#b"  width="12.2" height="19.6" x="-6.1" y="-9.8" transform="matrix(0.9697 0 0 1.0175 670.8303 595.622)" style="overflow:visible;"/>
								</g>
							</g>
						</g>
					</g>
				</g>
			</g>
		</g>
	</g>
</g>
<text transform="matrix(1 0 0 1 72.0942 212.6487)" class="st49 st50 st51">clarity</text>
<g>
	<path class="st52" d="M420.2,112.5L420.2,112.5c-3.1-0.5-6.3-1.4-9.5-2.4c-9.2-3-18.3-6.6-23.1-11.6c-0.4-0.4-0.8-0.6-1.3-0.6
		s-1,0.2-1.3,0.6c-4.8,5.1-13.9,8.6-23.1,11.6l0,0c-3.2,1.1-6.4,1.9-9.5,2.4c-0.9,0.2-1.5,0.9-1.5,1.8v23.1
		c0,18.9,14.1,35.2,34.8,43.5c0.2,0.1,0.5,0.1,0.7,0.1c0.2,0,0.5,0,0.7-0.1c20.7-8.3,34.8-24.7,34.8-43.5v-23.1
		C421.7,113.4,421.1,112.7,420.2,112.5z M402.8,132.9L402.8,132.9l-18.5,18.5c-0.7,0.7-1.7,1.1-2.7,1.1s-2-0.4-2.7-1.1l-9.3-9.3
		c-1.5-1.5-1.5-3.9,0-5.4s3.9-1.5,5.4,0l6.5,6.6l15.8-15.8c1.5-1.5,3.9-1.5,5.4,0C404.3,129,404.3,131.4,402.8,132.9z"/>
	<g>
		<path class="st49" d="M386.1,86.1L386.1,86.1c-2,0-3.6-1.6-3.6-3.6v-9.7c0-2,1.6-3.6,3.6-3.6l0,0c2,0,3.6,1.6,3.6,3.6v9.7
			C389.6,84.5,388,86.1,386.1,86.1z"/>
		<path class="st49" d="M370.9,90.6L370.9,90.6c-1.7,1-3.9,0.4-4.9-1.3l-4.8-8.4c-1-1.7-0.4-3.9,1.3-4.9l0,0c1.7-1,3.9-0.4,4.9,1.3
			l4.8,8.4C373.2,87.5,372.6,89.6,370.9,90.6z"/>
		<path class="st49" d="M359.7,101.8L359.7,101.8c-1,1.7-3.2,2.3-4.9,1.3l-8.3-4.8c-1.7-1-2.3-3.2-1.3-4.9l0,0
			c1-1.7,3.2-2.3,4.9-1.3l8.4,4.8C360.1,97.9,360.7,100.1,359.7,101.8z"/>
		<path class="st49" d="M401.5,90.6L401.5,90.6c1.7,1,3.9,0.4,4.9-1.3l4.8-8.4c1-1.7,0.4-3.9-1.3-4.9l0,0c-1.7-1-3.9-0.4-4.9,1.3
			l-4.8,8.4C399.2,87.5,399.8,89.6,401.5,90.6z"/>
		<path class="st49" d="M412.7,101.8L412.7,101.8c1,1.7,3.2,2.3,4.9,1.3l8.4-4.8c1.7-1,2.3-3.2,1.3-4.9l0,0c-1-1.7-3.2-2.3-4.9-1.3
			l-8.4,4.8C412.3,97.9,411.7,100.1,412.7,101.8z"/>
	</g>
</g>
<g class="st1">
	<path class="st52" d="M304.3,106.7L304.3,106.7c2.2-3.4,6.7-4.5,10.2-2.3l16.9,10.6c3.4,2.2,4.5,6.7,2.3,10.2l0,0
		c-2.2,3.4-6.7,4.5-10.2,2.3l-16.9-10.6C303.1,114.7,302.1,110.1,304.3,106.7z"/>
	<path class="st52" d="M313.1,75.3L313.1,75.3c0.2-4.1,3.6-7.2,7.6-7l19.9,0.8c4.1,0.2,7.2,3.6,7,7.6l0,0c-0.2,4.1-3.6,7.2-7.6,7
		l-19.9-0.8C316.2,82.8,313,79.3,313.1,75.3z"/>
	<path class="st52" d="M305.8,43.5L305.8,43.5c-1.9-3.6-0.5-8.1,3-9.9l17.7-9.3c3.6-1.9,8.1-0.5,9.9,3l0,0c1.9,3.6,0.5,8.1-3,9.9
		l-17.7,9.3C312.2,48.4,307.8,47.1,305.8,43.5z"/>
	<path class="st52" d="M279.5,128.7L279.5,128.7c-3.6,1.9-5,6.3-3,9.9l9.3,17.7c1.9,3.6,6.3,5,9.9,3l0,0c3.6-1.9,5-6.3,3-9.9
		l-9.3-17.7C287.6,128.1,283.1,126.7,279.5,128.7z"/>
	<path class="st52" d="M247.7,135.9L247.7,135.9c-4.1-0.2-7.4,3-7.6,7l-0.8,19.9c-0.2,4.1,3,7.4,7,7.6l0,0c4.1,0.2,7.4-3,7.6-7
		l0.8-19.9C254.9,139.5,251.8,136,247.7,135.9z"/>
</g>
<g>
	<g class="st53">
		<path class="st54" d="M92.7,145.9c-0.6-0.2-1.3,0.2-1.3,0.9c0,1.4,1,2.2,2.1,2.6c0.6,0.2,1-0.5,1.2-1.2
			C94.5,147.1,93.8,146.2,92.7,145.9z"/>
		<path class="st54" d="M139.7,131.4c-2.8-3.9-5.4-8-8.1-12.1c-0.7-1-1.2-1.8-2.8-1.8c-12.2,0.1-24.5,0.1-36.7,0
			c-1.4,0-2.2,0.4-2.9,1.5c-2.8,4.3-5.7,8.6-8.6,12.9c-0.7,1.1-0.9,1.8,0.1,2.9c2.6,2.8,5,5.8,7.6,8.7c0.6,0.7,1.3,1.9,2.4,0.9
			c1-1-0.1-1.8-0.7-2.6c-1.9-2.2-3.8-4.4-5.8-6.7c1.6-0.8,3.1-0.3,4.4-0.5c0.7-0.1,1.5-0.1,1.6-1.1c0.1-1.2-0.8-1.3-1.6-1.3
			c-1.6-0.1-3.1,0-5.2,0c2.7-4,5-7.5,7.5-11.3c2.6,3.9,4.9,7.4,7.2,11c0,0,0,0,0,0c0,0,0,0,0,0c-1.4,0.1-2.8,0.1-4.2,0.2
			c-0.8,0.1-1.7,0.3-1.8,1.3c0,1,0.9,1.3,1.7,1.3c1.8,0.1,3.6,0,5.5,0c0.4,0.8,0.5,1,1,1.8l0,0c2.2,7.9,4.4,15.7,6.6,23.6
			c-0.4,0.2-0.3,0.2-0.8,0.4c-2.7-3.1-5.4-6.2-8.1-9.4c-0.6-0.7-1.2-1.6-2.2-0.8c-0.9,0.8-0.2,1.7,0.4,2.4c2.8,3.3,5.7,6.6,8.5,9.9
			c1.4,1.7,4.5,4.1,5.7,6.4c1-1.3,2.7-2.9,3.3-3.6c8.6-10,17.1-20,25.7-29.9C140.6,134.1,140.9,133.1,139.7,131.4z M127.4,120.3
			c-2.5,3.7-4.8,7.1-7.3,10.9c-2.5-3.7-4.7-7.1-7.3-10.9H127.4z M111.1,122.1c2.1,3.4,4.9,6.4,6.3,10.2c-0.4-1.1-1.3-1.1-2.2-1.2
			c-3.2-0.2-6.4-0.2-9.6,0c-0.9,0-1.8,0.3-2.4,1.1c0,0,0,0,0,0c1.7-3.5,4.1-6.4,6.2-9.6C109.8,121.8,110.3,120.8,111.1,122.1z
			 M99.3,134.8C99.3,134.8,99.3,134.8,99.3,134.8C99.3,134.8,99.3,134.8,99.3,134.8C99.3,134.8,99.3,134.8,99.3,134.8z M101.3,130.2
			c-0.4-0.4-0.8-0.5-1.2,0c-2.1-3.2-4.2-6.3-6.7-9.9h14.5C105.6,123.7,103.5,127,101.3,130.2z M110,162.1c-2.5-9-5-18-7.5-27.1
			c-0.1,0-0.2,0-0.3-0.1c0.1-0.1,0.2-0.1,0.2-0.2c0.5,0.6,1.1,0.9,1.8,1c3.9,0.3,7.8,0.2,11.8,0c0.8,0,1.6-0.2,1.9-1.2c0,0,0,0,0,0
			c0.5,0.8,0.1,1.5-0.1,2.3C115.4,145.3,113,153.6,110,162.1z M114.3,161c-0.4-0.2-0.3-0.2-0.8-0.4c2.3-7.9,4.6-15.8,6.8-23.7
			c0.3-1.1,0.4-2.2,2-2.2c4.6,0.1,9.2,0,14.6,0C129.1,143.8,121.7,152.4,114.3,161z M122.5,132c2.3-3.4,4.4-6.6,6.5-9.8
			c0.8-1.3,1.3-0.8,1.9,0.1c2,3.1,4.1,6.2,6.4,9.6H122.5z"/>
	</g>
	<path class="st55" d="M84.8,109.4c-0.6,0-1,0.5-1,1c0,0,0,0,0,0c0,0.7-0.3,1-1,1c-1.4,0-1.4,2.1,0,2c0.7,0,1,0.2,1,1
		c0,1.4,2.1,1.4,2,0c0-0.7,0.3-1,1-1c1.4,0,1.4-2.1,0-2c-0.9,0-1-0.5-1-1C85.8,109.9,85.4,109.4,84.8,109.4
		C84.8,109.4,84.8,109.4,84.8,109.4L84.8,109.4z M53.7,130.4c-0.8,0-1.4,0.6-1.4,1.4c0,0,0,0,0,0c0,1-0.4,1.4-1.4,1.4
		c-1.9,0-1.9,2.8,0,2.8c0.9,0,1.4,0.3,1.4,1.3c0,1.9,2.8,1.9,2.8,0c0-1,0.5-1.3,1.4-1.3c1.9,0,1.9-2.8,0-2.8c-1.2,0-1.4-0.7-1.4-1.4
		C55.1,131.1,54.5,130.4,53.7,130.4C53.7,130.4,53.7,130.4,53.7,130.4L53.7,130.4z"/>
	<path class="st56" d="M61.1,153.1c-0.4,0-0.8,0.4-0.8,0.8c0,0.5-0.2,0.8-0.8,0.8c-1,0-1,1.5,0,1.5c0.5,0,0.8,0.1,0.8,0.7
		c0,1,1.5,1,1.5,0c0-0.5,0.3-0.7,0.8-0.7c1,0,1-1.5,0-1.5c-0.7,0-0.8-0.4-0.8-0.8C61.9,153.5,61.6,153.1,61.1,153.1
		C61.1,153.1,61.1,153.1,61.1,153.1z M52.9,93.6c-0.6,0-1,0.5-1,1c0,0,0,0,0,0c0,0.7-0.3,1-1,1c-1.4,0-1.4,2.1,0,2c0.7,0,1,0.2,1,1
		c0,1.4,2.1,1.4,2,0c0-0.7,0.3-1,1-1c1.4,0,1.4-2.1,0-2c-0.9,0-1-0.5-1-1C53.9,94.1,53.4,93.6,52.9,93.6
		C52.9,93.6,52.9,93.6,52.9,93.6z M141.7,89.1c-0.4,0-0.8,0.4-0.8,0.8c0,0.5-0.2,0.8-0.8,0.8c-1,0-1,1.5,0,1.5
		c0.5,0,0.8,0.1,0.8,0.7c0,1,1.5,1,1.5,0c0-0.5,0.3-0.7,0.8-0.7c1,0,1-1.5,0-1.5c-0.7,0-0.8-0.4-0.8-0.8
		C142.5,89.5,142.2,89.2,141.7,89.1C141.8,89.1,141.8,89.1,141.7,89.1L141.7,89.1z"/>
	<path class="st55" d="M117.4,101.2c-0.6,0-1,0.5-1,1c0,0,0,0,0,0c0,0.7-0.3,1-1,1c-1.4,0-1.4,2.1,0,2c0.7,0,1,0.2,1,1
		c0,1.4,2.1,1.4,2,0c0-0.7,0.3-1,1-1c1.4,0,1.4-2.1,0-2c-0.9,0-1-0.5-1-1C118.4,101.7,117.9,101.3,117.4,101.2
		C117.4,101.2,117.4,101.2,117.4,101.2L117.4,101.2z"/>
	<path class="st56" d="M159.6,128.3c-0.4,0-0.8,0.4-0.8,0.8c0,0.5-0.2,0.8-0.8,0.8c-1,0-1,1.5,0,1.5c0.5,0,0.8,0.1,0.8,0.7
		c0,1,1.5,1,1.5,0c0-0.5,0.3-0.7,0.8-0.7c1,0,1-1.5,0-1.5c-0.7,0-0.8-0.4-0.8-0.8C160.4,128.6,160.1,128.3,159.6,128.3
		C159.7,128.3,159.7,128.3,159.6,128.3L159.6,128.3z M166.7,163.5c-0.8,0-1.4,0.6-1.4,1.4c0,0,0,0,0,0c0,1-0.4,1.4-1.4,1.4
		c-1.9,0-1.9,2.8,0,2.8c0.9,0,1.4,0.3,1.4,1.3c0,1.9,2.8,1.9,2.8,0c0-1,0.5-1.3,1.4-1.3c1.9,0,1.9-2.8,0-2.8c-1.2,0-1.4-0.7-1.4-1.4
		C168.1,164.1,167.5,163.5,166.7,163.5C166.7,163.5,166.7,163.5,166.7,163.5L166.7,163.5z"/>
</g>
</svg>
