<?xml version="1.0" encoding="utf-8"?>
<!-- Generator: Adobe Illustrator 24.0.0, SVG Export Plug-In . SVG Version: 6.00 Build 0)  -->
<svg version="1.1" id="Layer_1" xmlns="http://www.w3.org/2000/svg" xmlns:xlink="http://www.w3.org/1999/xlink" x="0px" y="0px"
	 viewBox="0 0 120 160" style="enable-background:new 0 0 120 160;" xml:space="preserve">
<style type="text/css">
	.st0{opacity:0.1;fill:#058182;enable-background:new    ;}
	.st1{fill:none;}
	.st2{opacity:0.15;}
	.st3{fill:none;stroke:#058182;stroke-width:25.2;stroke-linecap:round;stroke-linejoin:round;}
	.st4{enable-background:new    ;}
	.st5{fill:#222222;}
	.st6{fill:#058182;}
	.st7{opacity:0.1;}
</style>
<rect x="-14.9" y="-33.4" class="st0" width="172.7" height="230.2"/>
<path class="st1" d="M75.7,52.1c-0.7,1.4-1.6,2.4-3.1,3.1c1.5,0.7,2.4,1.7,3.1,3.1c0.7-1.5,1.7-2.4,3.1-3.1
	C77.3,54.5,76.4,53.5,75.7,52.1z"/>
<path class="st1" d="M34.7,49.1c1.3-1.9,1.3-1.9,3-3c-1.4-0.7-2.4-1.6-3-3c-0.7,1.4-1.7,2.4-3,3.1C33.4,47,33.6,47.2,34.7,49.1z"/>
<path class="st1" d="M53.8,22.8c0.8-1.8,2-2.9,3.7-3.7c-1.7-0.8-2.9-2-3.7-3.7c-0.8,1.8-2,2.9-3.7,3.7C51.8,20,53,21.2,53.8,22.8z"
	/>
<path class="st1" d="M69.8,30.7c0.6-1.4,1.6-2.2,2.9-3c-1.4-0.7-2.2-1.6-2.9-2.9c-0.6,1.3-1.6,2.2-2.9,2.9
	C68.2,28.4,69.1,29.3,69.8,30.7z"/>
<g class="st2">
	<polyline class="st3" points="-12.9,-106.8 24.7,-86.8 -88.5,-86.2 57.5,-8.4 -121.9,-43.1 17.7,31.2 -178,-12.1 -42,60.3 
		-175.4,50.2 -91.1,95 -219.9,87.3 -90.1,156.4 -255.5,129.2 -140,190.8 -279,177.7 -154.7,243.8 -316.1,218.7 -200.9,280.1 
		-380.9,245.2 -250,314.9 -383.6,304.6 -281,359.2 	"/>
</g>
<g class="st2">
	<polyline class="st3" points="30.8,93.1 53.8,128.8 -45.3,74.2 44.2,213.3 -95.4,95.5 -9.9,228.5 -159.5,95.2 -76.2,224.8 
		-187.6,150.8 -136,231.1 -244.6,161.5 -165.1,285.1 -296.2,180.7 -225.3,290.9 -340.3,211.6 -264.1,329.9 -392.7,229.2 
		-322.1,339.1 -462.2,220.7 -381.9,345.5 -493.5,271.2 -430.6,369.1 	"/>
</g>
<g class="st4">
	<path class="st5" d="M21.1,136.3c-1,1.2-2.4,1.8-3.9,1.8c-0.7,0-1.5-0.1-2-0.4c-0.7-0.2-1.1-0.7-1.7-1.1c-0.6-0.4-0.8-1-1.1-1.6
		c-0.2-0.7-0.4-1.2-0.4-2c0-0.8,0.1-1.3,0.4-2c0.2-0.7,0.7-1.1,1.1-1.6c0.4-0.4,1-0.8,1.7-1.1c0.7-0.2,1.3-0.4,2-0.4
		c0.8,0,1.5,0.1,2.1,0.4c0.6,0.2,1.1,0.7,1.6,1.2l-1.5,1.5c-0.2-0.3-0.6-0.6-0.9-0.8c-0.3-0.2-0.8-0.3-1.2-0.3
		c-0.4,0-0.8,0.1-1.2,0.2c-0.4,0.1-0.7,0.3-1,0.7c-0.2,0.2-0.4,0.6-0.7,1s-0.2,0.8-0.2,1.2s0.1,0.9,0.2,1.2s0.3,0.7,0.7,1
		c0.2,0.2,0.6,0.4,1,0.7c0.4,0.2,0.8,0.2,1.2,0.2c0.6,0,1-0.1,1.3-0.3c0.3-0.2,0.7-0.6,1-0.9L21.1,136.3z"/>
	<path class="st5" d="M27.2,138.1c-0.8,0-1.5-0.1-2-0.4c-0.7-0.2-1.1-0.7-1.7-1.1c-0.6-0.4-0.8-1-1.1-1.6c-0.2-0.7-0.3-1.2-0.3-2
		c0-0.8,0.1-1.3,0.3-2c0.2-0.7,0.7-1.1,1.1-1.6c0.4-0.4,1-0.8,1.7-1.1c0.7-0.2,1.3-0.4,2-0.4c0.8,0,1.5,0.1,2,0.4
		c0.7,0.2,1.1,0.7,1.7,1.1c0.6,0.4,0.8,1,1.1,1.6c0.2,0.7,0.3,1.2,0.3,2c0,0.8-0.1,1.3-0.3,2c-0.2,0.7-0.7,1.1-1.1,1.6
		c-0.4,0.4-1,0.8-1.7,1.1C28.5,138,27.9,138.1,27.2,138.1z M27.2,136.1c0.4,0,0.8-0.1,1.2-0.2c0.3-0.1,0.7-0.3,1-0.7
		c0.2-0.2,0.4-0.6,0.7-1c0.2-0.4,0.2-0.8,0.2-1.2s-0.1-0.9-0.2-1.2c-0.1-0.3-0.3-0.7-0.7-1c-0.2-0.2-0.6-0.4-1-0.7
		c-0.3-0.1-0.8-0.2-1.2-0.2c-0.4,0-0.8,0.1-1.2,0.2c-0.3,0.1-0.7,0.3-1,0.7c-0.2,0.2-0.4,0.6-0.7,1s-0.2,0.8-0.2,1.2
		s0.1,0.9,0.2,1.2c0.1,0.3,0.3,0.7,0.7,1c0.2,0.2,0.6,0.4,1,0.7C26.3,136,26.7,136.1,27.2,136.1z"/>
	<path class="st5" d="M33.8,128.1h2.5l3.5,6.1h0.1l-0.1-1.9v-4.2h2.1v9.8h-2.2l-3.7-6.4h-0.1l0.1,1.9v4.5h-2.1V128.1z"/>
	<path class="st5" d="M47,138.1c-0.9,0-1.7-0.2-2.4-0.8s-1.1-1.2-1.3-2.1l2-0.8c0.1,0.4,0.3,0.9,0.6,1.1c0.2,0.3,0.7,0.4,1.1,0.4
		c0.1,0,0.3,0,0.4,0s0.3-0.1,0.4-0.2c0.1-0.1,0.2-0.2,0.3-0.3c0.1-0.1,0.1-0.2,0.1-0.4c0-0.1,0-0.3-0.1-0.4
		c-0.1-0.1-0.1-0.2-0.3-0.3c-0.1-0.1-0.3-0.2-0.6-0.3c-0.2-0.1-0.6-0.2-0.9-0.3l-0.6-0.2c-0.2-0.1-0.6-0.2-0.8-0.3
		c-0.2-0.1-0.6-0.3-0.8-0.6c-0.2-0.2-0.4-0.4-0.6-0.8c-0.1-0.3-0.2-0.7-0.2-1s0.1-0.8,0.2-1.1c0.1-0.3,0.3-0.7,0.7-0.9
		c0.3-0.2,0.7-0.4,1-0.6s0.9-0.2,1.3-0.2c0.6,0,0.9,0.1,1.3,0.2c0.3,0.1,0.7,0.3,0.9,0.6c0.2,0.2,0.4,0.4,0.6,0.7
		c0.1,0.2,0.2,0.4,0.3,0.8l-1.8,0.8c-0.1-0.3-0.2-0.6-0.4-0.7c-0.2-0.2-0.4-0.2-0.9-0.2c-0.3,0-0.7,0.1-0.9,0.2
		c-0.2,0.1-0.3,0.3-0.3,0.6c0,0.2,0.1,0.4,0.3,0.7c0.2,0.2,0.6,0.3,1.1,0.6l0.6,0.2c0.8,0.3,1.5,0.7,1.9,1.1
		c0.4,0.4,0.7,1.1,0.7,1.9c0,0.6-0.1,0.9-0.3,1.3c-0.2,0.3-0.4,0.7-0.8,0.9c-0.3,0.2-0.7,0.4-1.1,0.6
		C47.4,138.1,47.4,138.1,47,138.1z"/>
	<path class="st5" d="M51.9,128.1H54v9.8h-2.1V128.1z"/>
	<path class="st5" d="M59.1,138.1c-0.9,0-1.7-0.2-2.4-0.8s-1.1-1.2-1.3-2.1l2-0.8c0.1,0.4,0.3,0.9,0.6,1.1c0.2,0.3,0.7,0.4,1.1,0.4
		c0.1,0,0.3,0,0.4,0c0.1,0,0.3-0.1,0.4-0.2s0.2-0.2,0.3-0.3c0.1-0.1,0.1-0.2,0.1-0.4c0-0.1,0-0.3-0.1-0.4c-0.1-0.1-0.1-0.2-0.3-0.3
		c-0.2-0.1-0.3-0.2-0.6-0.3s-0.6-0.2-0.9-0.3l-0.6-0.2c-0.2-0.1-0.6-0.2-0.8-0.3c-0.2-0.1-0.6-0.3-0.8-0.6c-0.2-0.2-0.4-0.4-0.6-0.8
		c-0.1-0.3-0.2-0.7-0.2-1s0.1-0.8,0.2-1.1s0.3-0.7,0.7-0.9c0.3-0.2,0.7-0.4,1-0.6s0.9-0.2,1.3-0.2c0.6,0,0.9,0.1,1.3,0.2
		c0.3,0.1,0.7,0.3,0.9,0.6c0.2,0.2,0.4,0.4,0.6,0.7c0.1,0.2,0.2,0.4,0.3,0.8l-1.8,0.8c-0.1-0.3-0.2-0.6-0.4-0.7
		c-0.2-0.2-0.4-0.2-0.9-0.2c-0.3,0-0.7,0.1-0.9,0.2c-0.2,0.1-0.3,0.3-0.3,0.6c0,0.2,0.1,0.4,0.3,0.7c0.2,0.2,0.6,0.3,1.1,0.6
		l0.6,0.2c0.8,0.3,1.5,0.7,1.9,1.1c0.4,0.4,0.7,1.1,0.7,1.9c0,0.6-0.1,0.9-0.3,1.3c-0.2,0.3-0.4,0.7-0.8,0.9
		c-0.3,0.2-0.7,0.4-1.1,0.6C59.9,138,59.5,138.1,59.1,138.1z"/>
	<path class="st5" d="M65.9,137.9v-7.8h-2.7v-2h7.6v2h-2.7v7.8H65.9z"/>
	<path class="st5" d="M74.3,130.1v1.9h3.9v2h-3.9v1.9h4.3v2H72v-9.8h6.5v2h-4.3V130.1z"/>
	<path class="st5" d="M80.3,128.1h2.5l3.5,6.1h0.1l-0.1-1.9v-4.2h2.1v9.8h-2.2l-3.7-6.4h-0.1l0.1,1.9v4.5h-2.1
		C80.3,137.9,80.3,128.1,80.3,128.1z"/>
	<path class="st5" d="M98.9,136.3c-1,1.2-2.4,1.8-3.9,1.8c-0.8,0-1.5-0.1-2-0.4c-0.6-0.3-1.1-0.7-1.7-1.1c-0.6-0.4-0.8-1-1.1-1.6
		c-0.2-0.7-0.4-1.2-0.4-2c0-0.8,0.1-1.3,0.4-2c0.2-0.7,0.7-1.1,1.1-1.6c0.4-0.4,1-0.8,1.7-1.1s1.3-0.4,2-0.4c0.8,0,1.5,0.1,2.1,0.4
		c0.6,0.2,1.1,0.7,1.6,1.2l-1.5,1.5c-0.2-0.3-0.6-0.6-0.9-0.8c-0.3-0.2-0.8-0.3-1.2-0.3c-0.4,0-0.8,0.1-1.2,0.2
		c-0.3,0.1-0.7,0.3-1,0.7c-0.2,0.2-0.4,0.6-0.7,1c-0.1,0.3-0.2,0.8-0.2,1.2s0.1,0.9,0.2,1.2c0.1,0.3,0.3,0.7,0.7,1
		c0.2,0.2,0.6,0.4,1,0.7c0.3,0.1,0.8,0.2,1.2,0.2c0.6,0,1-0.1,1.3-0.3c0.3-0.2,0.7-0.6,1-0.9L98.9,136.3z"/>
	<path class="st5" d="M102.8,133.3l-3.3-5.3h2.6l1.7,2.9h0.1l1.7-2.9h2.6l-3.3,5.3v4.6h-2.1V133.3z"/>
</g>
<g>
	<path class="st6" d="M372.2,48.5L372.2,48.5c-3.1-0.5-6.3-1.4-9.5-2.4c-9.2-3-18.3-6.6-23.1-11.6c-0.4-0.4-0.8-0.6-1.3-0.6
		s-1,0.2-1.3,0.6c-4.8,5.1-13.9,8.6-23.1,11.6l0,0c-3.2,1.1-6.4,1.9-9.5,2.4c-0.9,0.2-1.5,0.9-1.5,1.8v23.1
		c0,18.9,14.1,35.2,34.8,43.5c0.2,0.1,0.5,0.1,0.7,0.1s0.5,0,0.7-0.1c20.7-8.3,34.8-24.7,34.8-43.5V50.3
		C373.7,49.4,373.1,48.7,372.2,48.5z M354.8,68.9L354.8,68.9l-18.5,18.5c-0.7,0.7-1.7,1.1-2.7,1.1s-2-0.4-2.7-1.1l-9.3-9.3
		c-1.5-1.5-1.5-3.9,0-5.4s3.9-1.5,5.4,0l6.5,6.6l15.8-15.8c1.5-1.5,3.9-1.5,5.4,0C356.3,65,356.3,67.4,354.8,68.9z"/>
	<g>
		<path class="st5" d="M338.1,22.1L338.1,22.1c-2,0-3.6-1.6-3.6-3.6V8.8c0-2,1.6-3.6,3.6-3.6l0,0c2,0,3.6,1.6,3.6,3.6v9.7
			C341.6,20.5,340,22.1,338.1,22.1z"/>
		<path class="st5" d="M322.9,26.6L322.9,26.6c-1.7,1-3.9,0.4-4.9-1.3l-4.8-8.4c-1-1.7-0.4-3.9,1.3-4.9l0,0c1.7-1,3.9-0.4,4.9,1.3
			l4.8,8.4C325.2,23.5,324.6,25.6,322.9,26.6z"/>
		<path class="st5" d="M311.7,37.8L311.7,37.8c-1,1.7-3.2,2.3-4.9,1.3l-8.3-4.8c-1.7-1-2.3-3.2-1.3-4.9l0,0c1-1.7,3.2-2.3,4.9-1.3
			l8.4,4.8C312.1,33.9,312.7,36.1,311.7,37.8z"/>
		<path class="st5" d="M353.5,26.6L353.5,26.6c1.7,1,3.9,0.4,4.9-1.3l4.8-8.4c1-1.7,0.4-3.9-1.3-4.9l0,0c-1.7-1-3.9-0.4-4.9,1.3
			l-4.8,8.4C351.2,23.5,351.8,25.6,353.5,26.6z"/>
		<path class="st5" d="M364.7,37.8L364.7,37.8c1,1.7,3.2,2.3,4.9,1.3l8.4-4.8c1.7-1,2.3-3.2,1.3-4.9l0,0c-1-1.7-3.2-2.3-4.9-1.3
			l-8.4,4.8C364.3,33.9,363.7,36.1,364.7,37.8z"/>
	</g>
</g>
<g class="st7">
	<path class="st6" d="M118.4,61.1L118.4,61.1c3.2-0.2,6.1,2.1,6.4,5.4l1.4,15.9c0.2,3.2-2.1,6.1-5.4,6.4l0,0
		c-3.2,0.2-6.1-2.1-6.4-5.4L113,67.5C112.7,64.2,115.2,61.4,118.4,61.1z"/>
	<path class="st6" d="M142.6,51.5L142.6,51.5c2.7-1.8,6.3-1.2,8.2,1.4l9.1,13c1.8,2.7,1.2,6.3-1.4,8.2l0,0c-2.7,1.8-6.3,1.2-8.2-1.4
		l-9.1-13C139.4,57.1,140.1,53.5,142.6,51.5z"/>
	<path class="st6" d="M159.4,31.5L159.4,31.5c1.4-3,4.9-4.2,7.8-2.9l14.5,6.8c3,1.4,4.2,4.9,2.9,7.8l0,0c-1.4,3-4.9,4.2-7.8,2.9
		l-14.5-6.8C159.4,37.9,158.1,34.6,159.4,31.5z"/>
	<path class="st6" d="M92.4,56L92.4,56c-3-1.4-6.4-0.2-7.8,2.9l-6.8,14.5c-1.4,3-0.2,6.4,2.9,7.8l0,0c3,1.4,6.4,0.2,7.8-2.9
		l6.8-14.5C96.8,60.9,95.5,57.3,92.4,56z"/>
	<path class="st6" d="M72.5,39.2L72.5,39.2c-1.8-2.7-5.5-3.3-8.2-1.4l-13,9.1c-2.7,1.8-3.3,5.5-1.4,8.2l0,0c1.8,2.7,5.5,3.3,8.2,1.4
		l13-9.1C73.7,45.5,74.4,41.9,72.5,39.2z"/>
</g>
<g>
	<path class="st5" d="M60,53.6c0.9,0,1.8,0.1,2.6,0.3c0.6,0.1,1.3-0.2,1.5-0.9c0.1-0.6-0.2-1.3-0.9-1.5c-1-0.2-2-0.3-3.1-0.3l0,0
		c-1,0-2.1,0.1-3.1,0.3c-0.6,0.1-1,0.7-0.9,1.3c0.1,0.6,0.6,1,1.2,1c0.1,0,0.1,0,0.3,0C58.2,53.7,59.1,53.6,60,53.6L60,53.6z"/>
	<path class="st5" d="M62.8,79.4c0.1,0,0.1,0,0.2,0c2-0.4,4-1.5,5.7-2.7c0.6-0.3,0.6-1.1,0.1-1.7c-0.3-0.6-1.1-0.6-1.7-0.1
		c-1.3,1.1-3,1.9-4.8,2.2c-0.6,0.1-1,0.8-0.9,1.5C61.9,79.1,62.4,79.4,62.8,79.4L62.8,79.4z"/>
	<path class="st5" d="M46.8,64.3c-0.7,0-1.2,0.6-1.2,1.2c0,2.1,0.4,4.3,1.5,6.2c0.1,0.3,0.3,0.6,0.7,0.6s0.6,0.1,0.9-0.1
		c0.3-0.1,0.6-0.3,0.6-0.7c0.1-0.3,0.1-0.6-0.1-0.9c-0.8-1.6-1.2-3.4-1.2-5.2C48.1,64.8,47.5,64.3,46.8,64.3L46.8,64.3z"/>
	<path class="st5" d="M67.3,56.2c1.3,1.1,2.5,2.5,3.4,4.2c0.3,0.6,1,0.8,1.6,0.6c0.3-0.1,0.6-0.3,0.6-0.7c0.1-0.3,0.1-0.6-0.1-0.9
		c-0.9-1.9-2.2-3.6-3.9-4.9c-0.2-0.2-0.6-0.3-0.9-0.2s-0.6,0.2-0.8,0.4C66.7,55.1,66.8,55.7,67.3,56.2L67.3,56.2z"/>
	<path class="st5" d="M52.5,56.2c0.6-0.3,0.6-1.1,0.1-1.7c-0.3-0.6-1.1-0.6-1.7-0.1c-1.7,1.3-3,3-3.9,4.9c-0.3,0.6,0,1.3,0.6,1.6
		c0.6,0.3,1.3,0,1.6-0.6C50,58.8,51.1,57.3,52.5,56.2L52.5,56.2z"/>
	<path class="st5" d="M73,64.3c-0.7,0-1.2,0.6-1.2,1.2c0,1.8-0.3,3.6-1.1,5.2c-0.3,0.6,0,1.3,0.6,1.6c0.6,0.3,1.3,0,1.6-0.6
		c0.9-1.9,1.5-4,1.5-6.2l0,0c0-0.3-0.1-0.6-0.3-0.8C73.7,64.4,73.4,64.3,73,64.3L73,64.3z"/>
	<path class="st5" d="M51.1,76.7c1.7,1.3,3.6,2.2,5.7,2.7c0.6,0.1,1.3-0.2,1.5-0.9c0.1-0.6-0.2-1.3-0.9-1.5
		c-1.8-0.3-3.4-1.2-4.8-2.2c-0.2-0.2-0.6-0.3-0.9-0.2c-0.3,0-0.6,0.2-0.8,0.4C50.4,75.5,50.6,76.2,51.1,76.7L51.1,76.7z"/>
	<path class="st6" d="M68.6,30.8c1.9,0.4,3.8,1.1,5.5,1.9c0.6,0.2,1.3,0,1.6-0.6c0.1-0.3,0.1-0.6,0-0.9c-0.1-0.3-0.3-0.6-0.6-0.7
		c-1.9-0.8-3.9-1.6-6-2c-0.6-0.1-1.3,0.2-1.5,0.8C67.5,30.1,68,30.7,68.6,30.8L68.6,30.8z"/>
	<path class="st5" d="M79.5,95.4c-1.7,1-3.4,2-5.2,2.8c-0.6,0.2-0.8,1-0.6,1.6c0.3,0.6,1,0.8,1.6,0.6c1.9-0.8,3.8-1.8,5.5-2.9
		c0.6-0.3,0.7-1,0.3-1.7C80.8,95.2,80,95.1,79.5,95.4L79.5,95.4z"/>
	<path class="st6" d="M68.8,100.1c-1.9,0.4-3.9,0.8-5.7,1c-0.7,0.1-1.1,0.6-1,1.3c0.1,0.7,0.6,1.1,1.3,1c2.1-0.1,4.2-0.6,6.2-1
		c0.6-0.1,1-0.8,0.8-1.5C70.1,100.3,69.4,100,68.8,100.1L68.8,100.1z"/>
	<path class="st5" d="M56.7,29.9L56.7,29.9L56.7,29.9c2-0.1,4-0.1,6,0c0.7,0.1,1.2-0.4,1.3-1c0.1-0.7-0.4-1.2-1-1.3
		c-2.1-0.1-4.2-0.1-6.3,0c-0.6,0.1-1.1,0.6-1,1.2C55.6,29.4,56.2,29.9,56.7,29.9L56.7,29.9z"/>
	<path class="st5" d="M79.3,35.5c1.7,1,3.1,2.2,4.6,3.6c0.4,0.4,1.2,0.3,1.7-0.1c0.2-0.2,0.3-0.6,0.3-0.8c0-0.2-0.1-0.6-0.3-0.8
		c-1.6-1.5-3.1-2.7-4.9-3.9c-0.6-0.3-1.3-0.2-1.7,0.3C78.6,34.4,78.9,35.2,79.3,35.5L79.3,35.5z"/>
	<path class="st6" d="M98,65.4c0-0.7-0.6-1.2-1.2-1.2c-0.7,0-1.2,0.6-1.2,1.2v0.1c0,2-0.1,3.9-0.4,5.8c-0.1,0.3,0.1,0.7,0.3,1
		c0.2,0.3,0.6,0.4,0.9,0.4c0.6,0,1-0.4,1.1-1c0.3-2,0.6-4.2,0.6-6.3L98,65.4z"/>
	<path class="st5" d="M95.3,76.3c-0.3-0.1-0.6-0.1-0.9,0.1c-0.3,0.1-0.6,0.3-0.6,0.7c-0.6,1.8-1.5,3.6-2.4,5.4
		c-0.3,0.6-0.1,1.3,0.4,1.6c0.6,0.3,1.3,0.1,1.6-0.4c1-1.8,1.8-3.8,2.5-5.7c0.1-0.3,0.1-0.6-0.1-0.9C95.8,76.7,95.6,76.5,95.3,76.3
		L95.3,76.3z"/>
	<path class="st6" d="M89.8,87.2c-0.2-0.2-0.6-0.3-0.9-0.2c-0.3,0.1-0.6,0.2-0.8,0.4c-1.2,1.6-2.5,2.9-4,4.4
		c-0.4,0.4-0.6,1.2-0.1,1.7c0.4,0.4,1.2,0.6,1.7,0.1c1.6-1.5,2.9-2.9,4.3-4.6c0.2-0.2,0.3-0.6,0.2-0.9
		C90.2,87.7,90.1,87.4,89.8,87.2L89.8,87.2z"/>
	<path class="st6" d="M45,32.9c0.1,0,0.3,0,0.4-0.1c1.8-0.8,3.6-1.5,5.5-1.9c0.6-0.1,1-0.8,0.8-1.5c-0.1-0.6-0.8-1-1.5-0.8
		c-2,0.6-4,1.2-6,2c-0.3,0.1-0.6,0.3-0.6,0.7c-0.1,0.3-0.1,0.6,0,0.9C44.2,32.7,44.6,32.9,45,32.9L45,32.9z"/>
	<path class="st6" d="M91.3,48.4c0.3,0.6,1,0.8,1.6,0.4c0.6-0.3,0.8-1,0.4-1.6c-1-1.8-2.1-3.6-3.4-5.3c-0.2-0.2-0.4-0.3-0.8-0.4
		c-0.3,0-0.6,0.1-0.9,0.2c-0.2,0.2-0.3,0.4-0.4,0.8c0,0.3,0.1,0.6,0.2,0.9C89.2,45.1,90.3,46.6,91.3,48.4L91.3,48.4z"/>
	<path class="st5" d="M26.2,77.2c-0.2-0.6-0.9-1-1.6-0.8c-0.6,0.2-1,0.9-0.8,1.6c0.7,2,1.6,3.9,2.5,5.7c0.3,0.6,1,0.8,1.6,0.4
		c0.6-0.3,0.8-1,0.4-1.6C27.6,80.8,26.8,79,26.2,77.2L26.2,77.2z"/>
	<path class="st6" d="M31.8,87.5c-0.3-0.6-1.1-0.6-1.7-0.2s-0.6,1.1-0.2,1.7c1.3,1.7,2.7,3.1,4.3,4.6c0.4,0.4,1.2,0.3,1.7-0.1
		c0.2-0.2,0.3-0.6,0.3-0.8s-0.1-0.6-0.3-0.8C34.4,90.4,33,89,31.8,87.5L31.8,87.5z"/>
	<path class="st5" d="M45.6,98.2c-1.8-0.8-3.6-1.7-5.2-2.8c-0.6-0.3-1.3-0.2-1.7,0.3c-0.3,0.6-0.2,1.3,0.3,1.7
		c1.8,1.1,3.6,2.1,5.5,2.9c0.6,0.2,1.3,0,1.6-0.6C46.5,99.2,46.2,98.4,45.6,98.2L45.6,98.2z"/>
	<path class="st5" d="M95.2,59.5c0.1,0.6,0.8,1,1.3,1c0.3-0.1,0.6-0.2,0.8-0.4c0.1-0.2,0.2-0.6,0.2-0.9c-0.3-2-0.8-4.2-1.6-6.1
		c-0.2-0.6-0.9-0.9-1.6-0.8c-0.6,0.2-0.9,0.9-0.8,1.6C94.4,55.6,94.8,57.5,95.2,59.5L95.2,59.5z"/>
	<path class="st6" d="M26.8,49c0.6,0.3,1.3,0.1,1.6-0.4c0.9-1.8,2-3.4,3.1-4.9c0.3-0.6,0.3-1.3-0.2-1.7s-1.3-0.3-1.7,0.2
		c-1.3,1.7-2.5,3.4-3.4,5.3c-0.1,0.3-0.1,0.6-0.1,0.9C26.4,48.6,26.6,48.9,26.8,49L26.8,49z"/>
	<path class="st5" d="M57,101.1c-2-0.1-3.9-0.4-5.7-1c-0.6-0.1-1.3,0.2-1.5,0.8c-0.1,0.6,0.2,1.3,0.8,1.5c2,0.6,4.2,0.8,6.2,1
		c0.3,0,0.6-0.1,0.8-0.3c0.2-0.2,0.3-0.6,0.3-0.8c0-0.3-0.1-0.6-0.3-0.8C57.6,101.2,57.3,101.1,57,101.1L57,101.1z"/>
	<path class="st6" d="M24.7,71.5c-0.3-2-0.4-3.9-0.4-5.8c0-0.7-0.6-1.2-1.2-1.2c-0.7,0-1.2,0.6-1.2,1.2c0,2.1,0.1,4.2,0.6,6.2
		c0.1,0.6,0.8,1,1.3,1C24.4,72.7,24.8,72,24.7,71.5L24.7,71.5z"/>
	<path class="st5" d="M34.8,39.5c0.3,0,0.6-0.1,0.8-0.3c1.5-1.3,2.9-2.6,4.6-3.6c0.6-0.3,0.7-1,0.3-1.7c-0.3-0.6-1-0.7-1.7-0.3
		c-1.8,1.1-3.4,2.5-4.9,3.9c-0.3,0.3-0.4,0.8-0.3,1.3C33.9,39.3,34.4,39.5,34.8,39.5L34.8,39.5z"/>
	<path class="st5" d="M23.4,60.7c0.7,0.1,1.3-0.3,1.3-1c0.3-2,0.8-3.9,1.5-5.7c0.2-0.6-0.1-1.3-0.8-1.6c-0.7-0.2-1.3,0.1-1.6,0.8
		c-0.7,2-1.2,4-1.6,6.1C22.2,60,22.7,60.6,23.4,60.7L23.4,60.7z"/>
	<path class="st6" d="M35.7,56.5c0.3,0.1,0.6,0.1,0.9,0c0.3-0.1,0.6-0.3,0.7-0.6c1.2-2.9,3-5.5,5.3-7.8c3.9-3.8,8.9-6.2,14.3-6.9
		l-1.2,1.2c-0.2,0.2-0.3,0.6-0.3,0.8c0,0.3,0.1,0.6,0.3,0.8c0.4,0.4,1.2,0.4,1.7,0c0.1-0.1,3.4-3.4,3.6-3.6c0.1-0.1,0.2-0.3,0.2-0.6
		c0.1-0.3-0.1-0.8-0.3-1l-3.6-3.6l0,0c-0.4-0.4-1.2-0.4-1.7,0c-0.4,0.4-0.4,1.2,0,1.7l1.7,1.7l0,0C51,39.3,45.3,42,40.9,46.3
		c-2.5,2.5-4.5,5.3-5.8,8.5C34.8,55.5,35,56.2,35.7,56.5L35.7,56.5z"/>
	<path class="st6" d="M50.9,89.8c0.2-0.6,0-1.3-0.6-1.6c-2.9-1.2-5.5-3-7.8-5.3c-2.2-2.2-4-5.1-5.2-8c-1-2.5-1.6-5.1-1.8-7.6
		l1.5,1.5c0.4,0.4,1.2,0.4,1.7,0c0.2-0.2,0.3-0.6,0.3-0.8c0-0.3-0.1-0.6-0.3-0.8l-3.6-3.6c-0.2-0.2-0.6-0.3-0.8-0.3
		s-0.6,0.1-0.8,0.3L30,67.2c-0.4,0.4-0.4,1.2,0,1.7c0.4,0.4,1.2,0.4,1.7,0l1.6-1.6l0,0c0.3,6.5,3,12.7,7.6,17.4
		c2.5,2.5,5.3,4.5,8.5,5.8C49.9,90.6,50.7,90.3,50.9,89.8L50.9,89.8z"/>
	<path class="st6" d="M84.8,76.1c0.2-0.6,0-1.3-0.6-1.6c-0.6-0.2-1.3,0-1.6,0.6c-1.2,2.9-3,5.5-5.3,7.8s-5.1,4-8,5.2
		c-2.7,1-5.5,1.7-8.3,1.8l1.6-1.6c0.4-0.4,0.4-1.2,0-1.7c-0.4-0.4-1.2-0.4-1.7,0l-3.6,3.6c-0.2,0.2-0.3,0.6-0.3,0.8
		c0,0.3,0.1,0.6,0.3,0.8l3.6,3.6c0.4,0.4,1.2,0.4,1.7,0c0.2-0.2,0.3-0.6,0.3-0.8c0-0.3-0.1-0.6-0.3-0.8l-1.6-1.6
		c3.1-0.1,6.3-0.8,9.3-2c3.3-1.3,6.2-3.3,8.8-5.7C81.5,82.1,83.5,79.3,84.8,76.1L84.8,76.1z"/>
	<path class="st6" d="M88.9,62.8l-1.6,1.6c-0.1-3.1-0.8-6.3-2-9.3c-1.3-3.3-3.3-6.2-5.7-8.8c-2.5-2.5-5.3-4.5-8.5-5.8
		c-0.3-0.1-0.6-0.1-0.9,0c-0.3,0.1-0.6,0.3-0.7,0.6c-0.1,0.3-0.1,0.6,0,0.9s0.3,0.6,0.6,0.7c2.9,1.2,5.5,3,7.8,5.3s4,5.1,5.2,8
		c1,2.7,1.7,5.5,1.8,8.3l-1.3-1.3c-0.4-0.4-1.2-0.4-1.7,0c-0.4,0.4-0.4,1.2,0,1.7l3.6,3.6c0.2,0.2,0.6,0.3,0.8,0.3s0.6-0.1,0.8-0.3
		l3.6-3.6c0.4-0.4,0.4-1.2,0-1.7C90.1,62.4,89.3,62.4,88.9,62.8L88.9,62.8z"/>
</g>
<polygon class="st0" points="188.8,199.7 171.7,285 89.2,312.9 23.8,255.5 40.9,170.1 123.4,142.2 "/>
<path class="st6" d="M-176.2,150.3c-12.5,12.5-29.8,20.2-48.9,20.2c-38.2,0-69.1-30.9-69.1-69.1c0-25.9,14.2-48.4,35.3-60.3"/>
<path class="st0" d="M85,0.8c2.7-5,6.7-9.3,11.9-12.5c16-9.8,36.9-4.9,46.8,11.1c5,8,6.2,17.3,4.2,25.7"/>
</svg>
