<?xml version="1.0" encoding="utf-8"?>
<!-- Generator: Adobe Illustrator 24.0.0, SVG Export Plug-In . SVG Version: 6.00 Build 0)  -->
<svg version="1.1" id="Layer_1" xmlns="http://www.w3.org/2000/svg" xmlns:xlink="http://www.w3.org/1999/xlink" x="0px" y="0px"
	 viewBox="0 0 216 288" style="enable-background:new 0 0 216 288;" xml:space="preserve">
<style type="text/css">
	.st0{opacity:0.1;fill:#058182;}
	.st1{fill:none;}
	.st2{opacity:0.15;}
	.st3{fill:none;stroke:#058182;stroke-width:25.2;stroke-linecap:round;stroke-linejoin:round;}
	.st4{fill:#222222;}
	.st5{font-family:'ProductSans-Black';}
	.st6{font-size:18px;}
	.st7{fill:#058182;}
	.st8{opacity:0.1;}
</style>
<rect x="-0.1" y="-0.9" class="st0" width="216" height="288"/>
<path class="st1" d="M130.4,96.9c-1,2.1-2.4,3.6-4.6,4.6c2.2,1,3.6,2.5,4.6,4.6c1-2.2,2.5-3.6,4.6-4.6
	C132.8,100.5,131.4,99,130.4,96.9z"/>
<path class="st1" d="M69.9,92.4c1.9-2.8,1.9-2.8,4.5-4.5c-2-1-3.5-2.4-4.5-4.5c-1,2.1-2.5,3.6-4.5,4.6
	C67.9,89.4,68.2,89.7,69.9,92.4z"/>
<path class="st1" d="M85.9,69.5c1-2.2,2.5-3.6,4.6-4.6c-2.1-1-3.6-2.5-4.6-4.6c-1,2.2-2.5,3.6-4.6,4.6
	C83.4,65.9,84.9,67.4,85.9,69.5z"/>
<path class="st1" d="M105.9,79.3c0.8-1.7,2-2.8,3.6-3.7c-1.7-0.9-2.8-2-3.6-3.6c-0.8,1.6-2,2.8-3.6,3.6
	C103.9,76.5,105,77.6,105.9,79.3z"/>
<g class="st2">
	<polyline class="st3" points="2.4,-92.7 49.4,-67.7 -92.2,-66.9 90.5,30.4 -133.9,-13 40.7,80 -204.1,25.8 -34,116.4 -200.8,103.7 
		-95.4,159.8 -256.5,150.2 -94.2,236.6 -301.1,202.6 -156.5,279.6 -330.4,263.2 -175,345.9 -376.9,314.5 -232.7,391.3 -457.9,347.6 
		-294.1,434.8 -461.3,421.9 -332.9,490.3 	"/>
</g>
<g class="st2">
	<polyline class="st3" points="57.1,157.4 85.9,202.1 -38.1,133.7 73.9,307.8 -100.8,160.4 6.2,326.8 -181,160 -76.7,322.1 
		-216.1,229.6 -151.5,330 -287.4,243 -187.9,397.6 -351.9,267 -263.3,404.8 -407.1,305.6 -311.8,453.6 -472.7,327.7 -384.3,465.1 
		-559.6,317 -459.2,473.1 -598.8,380.2 -520.1,502.6 	"/>
</g>
<text transform="matrix(1 0 0 1 43.4998 214.6487)" class="st4 st5 st6">consistency</text>
<g>
	<path class="st7" d="M420.2,112.5L420.2,112.5c-3.1-0.5-6.3-1.4-9.5-2.4c-9.2-3-18.3-6.6-23.1-11.6c-0.4-0.4-0.8-0.6-1.3-0.6
		s-1,0.2-1.3,0.6c-4.8,5.1-13.9,8.6-23.1,11.6l0,0c-3.2,1.1-6.4,1.9-9.5,2.4c-0.9,0.2-1.5,0.9-1.5,1.8v23.1
		c0,18.9,14.1,35.2,34.8,43.5c0.2,0.1,0.5,0.1,0.7,0.1c0.2,0,0.5,0,0.7-0.1c20.7-8.3,34.8-24.7,34.8-43.5v-23.1
		C421.7,113.4,421.1,112.7,420.2,112.5z M402.8,132.9L402.8,132.9l-18.5,18.5c-0.7,0.7-1.7,1.1-2.7,1.1s-2-0.4-2.7-1.1l-9.3-9.3
		c-1.5-1.5-1.5-3.9,0-5.4s3.9-1.5,5.4,0l6.5,6.6l15.8-15.8c1.5-1.5,3.9-1.5,5.4,0C404.3,129,404.3,131.4,402.8,132.9z"/>
	<g>
		<path class="st4" d="M386.1,86.1L386.1,86.1c-2,0-3.6-1.6-3.6-3.6v-9.7c0-2,1.6-3.6,3.6-3.6l0,0c2,0,3.6,1.6,3.6,3.6v9.7
			C389.6,84.5,388,86.1,386.1,86.1z"/>
		<path class="st4" d="M370.9,90.6L370.9,90.6c-1.7,1-3.9,0.4-4.9-1.3l-4.8-8.4c-1-1.7-0.4-3.9,1.3-4.9l0,0c1.7-1,3.9-0.4,4.9,1.3
			l4.8,8.4C373.2,87.5,372.6,89.6,370.9,90.6z"/>
		<path class="st4" d="M359.7,101.8L359.7,101.8c-1,1.7-3.2,2.3-4.9,1.3l-8.3-4.8c-1.7-1-2.3-3.2-1.3-4.9l0,0c1-1.7,3.2-2.3,4.9-1.3
			l8.4,4.8C360.1,97.9,360.7,100.1,359.7,101.8z"/>
		<path class="st4" d="M401.5,90.6L401.5,90.6c1.7,1,3.9,0.4,4.9-1.3l4.8-8.4c1-1.7,0.4-3.9-1.3-4.9l0,0c-1.7-1-3.9-0.4-4.9,1.3
			l-4.8,8.4C399.2,87.5,399.8,89.6,401.5,90.6z"/>
		<path class="st4" d="M412.7,101.8L412.7,101.8c1,1.7,3.2,2.3,4.9,1.3l8.4-4.8c1.7-1,2.3-3.2,1.3-4.9l0,0c-1-1.7-3.2-2.3-4.9-1.3
			l-8.4,4.8C412.3,97.9,411.7,100.1,412.7,101.8z"/>
	</g>
</g>
<g class="st8">
	<path class="st7" d="M166.7,117.4L166.7,117.4c4-0.3,7.6,2.6,8,6.7l1.8,19.9c0.3,4-2.6,7.6-6.7,8l0,0c-4,0.3-7.6-2.6-8-6.7
		l-1.8-19.9C159.6,121.3,162.7,117.7,166.7,117.4z"/>
	<path class="st7" d="M197,105.4L197,105.4c3.4-2.3,7.9-1.5,10.2,1.8l11.4,16.3c2.3,3.4,1.5,7.9-1.8,10.2l0,0
		c-3.4,2.3-7.9,1.5-10.2-1.8l-11.4-16.3C192.9,112.4,193.8,107.8,197,105.4z"/>
	<path class="st7" d="M217.9,80.4L217.9,80.4c1.7-3.7,6.1-5.3,9.7-3.6l18.1,8.5c3.7,1.7,5.3,6.1,3.6,9.7l0,0
		c-1.7,3.7-6.1,5.3-9.7,3.6l-18.1-8.5C217.9,88.4,216.3,84.2,217.9,80.4z"/>
	<path class="st7" d="M134.2,111L134.2,111c-3.7-1.7-8-0.2-9.7,3.6l-8.5,18.1c-1.7,3.7-0.2,8,3.6,9.7l0,0c3.7,1.7,8,0.2,9.7-3.6
		l8.5-18.1C139.6,117.1,138,112.6,134.2,111z"/>
	<path class="st7" d="M109.2,90L109.2,90c-2.3-3.4-6.9-4.1-10.2-1.8L82.7,99.6c-3.4,2.3-4.1,6.9-1.8,10.2l0,0
		c2.3,3.4,6.9,4.1,10.2,1.8l16.3-11.4C110.7,97.9,111.6,93.3,109.2,90z"/>
</g>
<g>
	<path class="st4" d="M107.2,103.8c1.2,0,2.3,0.1,3.4,0.4c0.8,0.2,1.7-0.3,1.9-1.2c0.2-0.8-0.3-1.7-1.2-1.9
		c-1.4-0.3-2.7-0.5-4.1-0.5h0c-1.4,0-2.8,0.2-4.2,0.5c-0.8,0.2-1.3,0.9-1.2,1.7c0.1,0.8,0.8,1.4,1.6,1.4c0.1,0,0.2,0,0.4,0
		C104.8,104,106,103.8,107.2,103.8L107.2,103.8z"/>
	<path class="st4" d="M111,137.8c0.1,0,0.2,0,0.3,0c2.7-0.6,5.3-1.9,7.5-3.6c0.7-0.5,0.8-1.5,0.2-2.2c-0.5-0.7-1.5-0.8-2.2-0.2
		c-1.8,1.5-4,2.5-6.3,3c-0.8,0.2-1.4,1-1.2,1.9C109.7,137.3,110.3,137.8,111,137.8L111,137.8z"/>
	<path class="st4" d="M89.9,117.9c-0.9,0-1.6,0.7-1.6,1.6c0,2.8,0.6,5.6,1.9,8.1c0.2,0.4,0.5,0.7,0.9,0.8c0.4,0.1,0.8,0.1,1.2-0.1
		c0.4-0.2,0.7-0.5,0.8-0.9c0.1-0.4,0.1-0.8-0.1-1.2c-1-2.1-1.6-4.4-1.6-6.8C91.5,118.6,90.8,117.9,89.9,117.9L89.9,117.9z"/>
	<path class="st4" d="M116.9,107.2c1.8,1.5,3.3,3.3,4.4,5.4c0.4,0.8,1.3,1.1,2.1,0.7c0.4-0.2,0.7-0.5,0.8-0.9
		c0.1-0.4,0.1-0.8-0.1-1.2c-1.2-2.5-3-4.8-5.2-6.5c-0.3-0.3-0.7-0.4-1.2-0.3s-0.8,0.3-1,0.6C116.1,105.7,116.2,106.7,116.9,107.2
		L116.9,107.2z"/>
	<path class="st4" d="M97.4,107.3c0.7-0.5,0.8-1.5,0.2-2.2c-0.5-0.7-1.5-0.8-2.2-0.2c-2.2,1.8-4,4-5.2,6.5c-0.4,0.8,0,1.7,0.7,2.1
		c0.8,0.4,1.7,0,2.1-0.7C94.1,110.6,95.5,108.7,97.4,107.3L97.4,107.3z"/>
	<path class="st4" d="M124.4,117.9c-0.9,0-1.6,0.7-1.6,1.6c0,2.4-0.5,4.7-1.5,6.8c-0.4,0.8,0,1.7,0.7,2.1c0.8,0.4,1.7,0,2.1-0.7
		c1.2-2.5,1.9-5.3,1.9-8.2v0c0-0.4-0.2-0.8-0.5-1.1C125.2,118,124.8,117.9,124.4,117.9L124.4,117.9z"/>
	<path class="st4" d="M95.5,134.2c2.2,1.8,4.8,3,7.5,3.6c0.8,0.2,1.7-0.3,1.9-1.2c0.2-0.8-0.3-1.7-1.2-1.9c-2.3-0.5-4.4-1.6-6.3-3
		c-0.3-0.3-0.7-0.4-1.2-0.3c-0.4,0-0.8,0.3-1,0.6C94.7,132.6,94.8,133.6,95.5,134.2L95.5,134.2z"/>
	<path class="st7" d="M118.6,73.9c2.5,0.6,5,1.5,7.3,2.5c0.8,0.3,1.7,0,2.1-0.8c0.2-0.4,0.2-0.8,0-1.2c-0.2-0.4-0.5-0.7-0.8-0.9
		c-2.5-1.1-5.2-2-7.8-2.7c-0.8-0.2-1.7,0.3-1.9,1.1C117.2,72.9,117.7,73.7,118.6,73.9L118.6,73.9z"/>
	<path class="st4" d="M132.9,158.8c-2.2,1.4-4.4,2.7-6.8,3.7c-0.8,0.3-1.1,1.3-0.8,2.1c0.4,0.8,1.3,1.1,2.1,0.8
		c2.5-1.1,5-2.4,7.3-3.9c0.7-0.5,0.9-1.4,0.5-2.2C134.6,158.5,133.6,158.3,132.9,158.8L132.9,158.8z"/>
	<path class="st7" d="M118.7,165c-2.5,0.6-5.1,1.1-7.6,1.3c-0.9,0.1-1.5,0.8-1.4,1.7c0.1,0.9,0.8,1.5,1.7,1.4
		c2.8-0.2,5.5-0.7,8.2-1.4c0.8-0.2,1.3-1.1,1.1-1.9S119.6,164.8,118.7,165L118.7,165z"/>
	<path class="st4" d="M103,72.7c0,0,0.1,0,0.1,0v0c2.6-0.2,5.2-0.2,7.8,0c0.9,0.1,1.6-0.6,1.7-1.4c0.1-0.9-0.6-1.6-1.4-1.7
		c-2.8-0.2-5.5-0.2-8.3,0c-0.8,0.1-1.5,0.8-1.4,1.6C101.5,72,102.2,72.7,103,72.7L103,72.7z"/>
	<path class="st4" d="M132.7,80.1c2.2,1.4,4.2,3,6.1,4.7c0.6,0.6,1.6,0.5,2.2-0.1c0.3-0.3,0.4-0.7,0.4-1.1c0-0.4-0.2-0.8-0.5-1.1
		c-2-1.9-4.2-3.6-6.5-5.1c-0.7-0.5-1.7-0.3-2.2,0.5C131.8,78.6,132,79.6,132.7,80.1L132.7,80.1z"/>
	<path class="st7" d="M157.2,119.3c0-0.9-0.7-1.6-1.6-1.6s-1.6,0.7-1.6,1.6l0,0.2c0,2.6-0.2,5.2-0.6,7.7c-0.1,0.5,0.1,0.9,0.4,1.3
		s0.7,0.6,1.2,0.6c0.8,0,1.4-0.6,1.5-1.3c0.4-2.7,0.7-5.5,0.7-8.3L157.2,119.3z"/>
	<path class="st4" d="M153.6,133.7c-0.4-0.1-0.8-0.1-1.2,0.1s-0.7,0.5-0.8,0.9c-0.8,2.4-1.9,4.8-3.1,7.1c-0.4,0.8-0.1,1.7,0.6,2.1
		c0.8,0.4,1.7,0.1,2.1-0.6c1.3-2.4,2.4-5,3.3-7.6c0.1-0.4,0.1-0.8-0.1-1.2C154.3,134.2,154,133.9,153.6,133.7L153.6,133.7z"/>
	<path class="st7" d="M146.4,148c-0.3-0.3-0.7-0.4-1.2-0.3c-0.4,0.1-0.8,0.3-1,0.6c-1.6,2-3.3,3.9-5.3,5.7c-0.6,0.6-0.7,1.6-0.1,2.2
		c0.6,0.6,1.6,0.7,2.2,0.1c2-1.9,3.9-3.9,5.6-6.1c0.3-0.3,0.4-0.7,0.3-1.2C147,148.7,146.8,148.3,146.4,148L146.4,148z"/>
	<path class="st7" d="M87.6,76.6c0.2,0,0.4,0,0.6-0.1c2.4-1,4.8-1.9,7.3-2.5c0.8-0.2,1.3-1.1,1.1-1.9c-0.2-0.8-1.1-1.3-1.9-1.1
		c-2.7,0.7-5.3,1.6-7.8,2.7c-0.4,0.2-0.7,0.5-0.8,0.9c-0.2,0.4-0.1,0.8,0,1.2C86.4,76.3,87,76.6,87.6,76.6L87.6,76.6z"/>
	<path class="st7" d="M148.4,97c0.4,0.7,1.4,1,2.1,0.6c0.8-0.4,1-1.4,0.6-2.1c-1.3-2.4-2.8-4.7-4.5-6.9c-0.3-0.3-0.6-0.5-1-0.6
		c-0.4,0-0.8,0.1-1.2,0.3c-0.3,0.3-0.5,0.6-0.6,1c0,0.4,0.1,0.8,0.3,1.2C145.7,92.6,147.2,94.7,148.4,97L148.4,97z"/>
	<path class="st4" d="M62.8,134.8c-0.3-0.8-1.2-1.3-2-1c-0.8,0.3-1.3,1.2-1,2c0.9,2.6,2,5.1,3.3,7.6c0.4,0.7,1.4,1,2.1,0.6
		c0.8-0.4,1-1.4,0.6-2.1C64.7,139.6,63.6,137.2,62.8,134.8L62.8,134.8z"/>
	<path class="st7" d="M70.1,148.4c-0.5-0.7-1.5-0.8-2.2-0.3c-0.7,0.5-0.8,1.5-0.3,2.2c1.7,2.2,3.6,4.2,5.6,6.1
		c0.6,0.6,1.6,0.5,2.2-0.1c0.3-0.3,0.4-0.7,0.4-1.1s-0.2-0.8-0.5-1.1C73.5,152.3,71.7,150.4,70.1,148.4L70.1,148.4z"/>
	<path class="st4" d="M88.3,162.5c-2.4-1-4.7-2.3-6.8-3.7c-0.7-0.5-1.7-0.3-2.2,0.5c-0.5,0.7-0.3,1.7,0.5,2.2
		c2.3,1.5,4.7,2.8,7.3,3.9c0.8,0.3,1.7,0,2.1-0.8C89.5,163.8,89.1,162.8,88.3,162.5L88.3,162.5z"/>
	<path class="st4" d="M153.5,111.6c0.2,0.8,1,1.4,1.8,1.3c0.4-0.1,0.8-0.3,1-0.6c0.2-0.3,0.3-0.8,0.3-1.2c-0.5-2.7-1.1-5.4-2.1-8
		c-0.3-0.8-1.2-1.2-2-1c-0.8,0.3-1.2,1.2-1,2C152.4,106.5,153,109,153.5,111.6L153.5,111.6z"/>
	<path class="st7" d="M63.7,97.8c0.8,0.4,1.7,0.1,2.1-0.6c1.2-2.3,2.6-4.4,4.2-6.5c0.5-0.7,0.4-1.7-0.3-2.2
		c-0.7-0.5-1.7-0.4-2.2,0.3c-1.7,2.2-3.2,4.5-4.5,6.9c-0.2,0.4-0.2,0.8-0.1,1.2C63.1,97.3,63.3,97.6,63.7,97.8L63.7,97.8z"/>
	<path class="st4" d="M103.3,166.3c-2.6-0.2-5.1-0.6-7.6-1.3c-0.8-0.2-1.7,0.3-1.9,1.1c-0.2,0.8,0.3,1.7,1.1,1.9
		c2.7,0.7,5.4,1.1,8.2,1.3c0.4,0,0.8-0.1,1.1-0.4c0.3-0.3,0.5-0.7,0.5-1.1c0-0.4-0.1-0.8-0.4-1.1
		C104.1,166.5,103.7,166.3,103.3,166.3L103.3,166.3z"/>
	<path class="st7" d="M60.9,127.3c-0.4-2.6-0.6-5.1-0.6-7.7c0-0.9-0.7-1.6-1.6-1.6c-0.9,0-1.6,0.7-1.6,1.6c0,2.8,0.2,5.5,0.7,8.2
		c0.2,0.8,1,1.4,1.8,1.3C60.4,128.9,61,128.1,60.9,127.3L60.9,127.3z"/>
	<path class="st4" d="M74.2,85.4c0.4,0,0.8-0.1,1.1-0.4c1.9-1.8,3.9-3.4,6.1-4.8c0.7-0.5,0.9-1.4,0.4-2.2c-0.5-0.7-1.4-0.9-2.2-0.4
		c-2.3,1.5-4.5,3.2-6.5,5.1c-0.5,0.4-0.6,1.1-0.4,1.7C73,85,73.6,85.4,74.2,85.4L74.2,85.4z"/>
	<path class="st4" d="M59,113.1c0.9,0.1,1.7-0.4,1.8-1.3c0.4-2.6,1-5.1,1.9-7.5c0.3-0.8-0.2-1.7-1-2c-0.8-0.3-1.7,0.2-2,1
		c-0.9,2.6-1.6,5.3-2,8C57.6,112.2,58.2,113,59,113.1L59,113.1z"/>
	<path class="st7" d="M75.3,107.6c0.4,0.2,0.8,0.2,1.2,0c0.4-0.2,0.7-0.5,0.9-0.8c1.6-3.8,4-7.3,7-10.2c5.1-5,11.7-8.1,18.8-9
		l-1.8,1.8c-0.3,0.3-0.5,0.7-0.5,1.1c0,0.4,0.2,0.8,0.5,1.1c0.6,0.6,1.6,0.6,2.2,0c0.2-0.2,4.5-4.5,4.8-4.8c0.2-0.2,0.3-0.5,0.3-0.8
		c0.1-0.5-0.1-1-0.4-1.3l-4.7-4.7h0c-0.6-0.6-1.6-0.6-2.2,0c-0.6,0.6-0.6,1.6,0,2.2l2.2,2.2l0,0c-8.1,0.8-15.6,4.3-21.4,9.9
		c-3.3,3.2-5.9,7-7.7,11.2C74.1,106.3,74.5,107.3,75.3,107.6L75.3,107.6z"/>
	<path class="st7" d="M95.3,151.4c0.3-0.8,0-1.7-0.8-2.1c-3.8-1.6-7.3-4-10.2-7c-2.9-3-5.3-6.6-6.8-10.5c-1.3-3.2-2.1-6.6-2.3-10.1
		l1.9,1.9c0.6,0.6,1.6,0.6,2.2,0c0.3-0.3,0.5-0.7,0.5-1.1s-0.2-0.8-0.5-1.1l-4.7-4.7c-0.3-0.3-0.7-0.5-1.1-0.5s-0.8,0.2-1.1,0.5
		l-4.7,4.7c-0.6,0.6-0.6,1.6,0,2.2c0.6,0.6,1.6,0.6,2.2,0l2.1-2.1h0c0.5,8.6,4,16.7,10,22.9c3.2,3.3,7,5.9,11.2,7.7
		C94,152.5,95,152.2,95.3,151.4L95.3,151.4z"/>
	<path class="st7" d="M139.9,133.4c0.3-0.8,0-1.7-0.8-2c-0.8-0.3-1.7,0-2.1,0.8c-1.6,3.8-4,7.3-7,10.2c-3,2.9-6.6,5.3-10.5,6.8
		c-3.5,1.4-7.2,2.2-10.9,2.4l2-2c0.6-0.6,0.6-1.6,0-2.2c-0.6-0.6-1.6-0.6-2.2,0l-4.7,4.7c-0.3,0.3-0.5,0.7-0.5,1.1s0.2,0.8,0.5,1.1
		l4.7,4.7c0.6,0.6,1.6,0.6,2.2,0c0.3-0.3,0.5-0.7,0.5-1.1s-0.2-0.8-0.5-1.1l-2.1-2.1c4.2-0.1,8.3-1,12.2-2.6
		c4.3-1.7,8.2-4.3,11.5-7.5C135.5,141.4,138.1,137.6,139.9,133.4L139.9,133.4z"/>
	<path class="st7" d="M145.2,116l-2.1,2.1c-0.1-4.2-1-8.3-2.6-12.2c-1.7-4.3-4.3-8.2-7.5-11.5c-3.2-3.3-7-5.9-11.2-7.7
		c-0.4-0.2-0.8-0.2-1.2,0c-0.4,0.2-0.7,0.5-0.9,0.8c-0.2,0.4-0.2,0.8,0,1.2c0.2,0.4,0.5,0.7,0.8,0.9c3.8,1.6,7.3,4,10.2,7
		c2.9,3,5.3,6.6,6.8,10.5c1.4,3.5,2.2,7.2,2.4,10.9l-2-2c-0.6-0.6-1.6-0.6-2.2,0c-0.6,0.6-0.6,1.6,0,2.2l4.7,4.7
		c0.3,0.3,0.7,0.5,1.1,0.5s0.8-0.2,1.1-0.5l4.7-4.7c0.6-0.6,0.6-1.6,0-2.2C146.8,115.4,145.8,115.4,145.2,116L145.2,116z"/>
</g>
<polygon class="st0" points="254.7,290.7 233.3,397.5 130.1,432.4 48.3,360.5 69.7,253.7 172.9,218.8 "/>
<path class="st7" d="M-128.2,214.3c-12.5,12.5-29.8,20.2-48.9,20.2c-38.2,0-69.1-30.9-69.1-69.1c0-25.9,14.2-48.4,35.3-60.3"/>
<path class="st0" d="M124.9,41.9c3.4-6.2,8.4-11.6,14.9-15.6c20-12.3,46.2-6.1,58.5,13.9c6.2,10,7.7,21.6,5.2,32.1"/>
</svg>
