<?xml version="1.0" encoding="utf-8"?>
<!-- Generator: Adobe Illustrator 24.0.0, SVG Export Plug-In . SVG Version: 6.00 Build 0)  -->
<svg version="1.1" id="Layer_1" xmlns="http://www.w3.org/2000/svg" xmlns:xlink="http://www.w3.org/1999/xlink" x="0px" y="0px"
	 viewBox="0 0 144 216" style="enable-background:new 0 0 144 216;" xml:space="preserve">
<style type="text/css">
	.st0{fill:#058182;}
	.st1{fill:#2EAAA7;}
	.st2{fill:#FFFFFF;}
	.st3{fill:#42BAB6;}
	.st4{fill:#F9F9F9;}
</style>
<g>
	<rect x="-36" y="62.8" class="st0" width="216" height="189.2"/>
</g>
<g>
	<polygon class="st1" points="-83.1,54.1 -18.5,-113.6 179,-21.1 114.3,146.5 	"/>
</g>
<path class="st2" d="M-106.4,186.1h6.4v6.4c0,0.3,0.2,0.5,0.5,0.5h4.6c0.3,0,0.5-0.2,0.5-0.5v-6.4h6.4c0.3,0,0.5-0.2,0.5-0.5V181
	c0-0.3-0.2-0.5-0.5-0.5h-6.4v-6.4c0-0.3-0.2-0.5-0.5-0.5h-4.6c-0.3,0-0.5,0.2-0.5,0.5v6.4h-6.4c-0.3,0-0.5,0.2-0.5,0.5v4.6
	C-106.9,185.9-106.7,186.1-106.4,186.1z M-105.9,181.5h6.4c0.3,0,0.5-0.2,0.5-0.5v-6.4h3.6v6.4c0,0.3,0.2,0.5,0.5,0.5h6.4v3.6h-6.4
	c-0.3,0-0.5,0.2-0.5,0.5v6.4H-99v-6.4c0-0.3-0.2-0.5-0.5-0.5h-6.4V181.5z"/>
<path class="st2" d="M-77.9,179.2c0.4,0,0.8-0.2,1.1-0.5c0.6-0.6,0.6-1.7,0-2.3s-1.7-0.6-2.3,0c-0.6,0.6-0.6,1.7,0,2.3
	C-78.8,179-78.3,179.2-77.9,179.2z M-78.4,177.1c0.1-0.1,0.3-0.2,0.4-0.2s0.3,0.1,0.4,0.2c0.2,0.2,0.2,0.6,0,0.9
	c-0.2,0.2-0.6,0.2-0.9,0C-78.6,177.8-78.6,177.4-78.4,177.1z"/>
<path class="st2" d="M-48.4,179.2c0.4,0,0.8-0.2,1.1-0.5c0.6-0.6,0.6-1.7,0-2.3s-1.7-0.6-2.3,0s-0.6,1.7,0,2.3
	C-49.2,179-48.8,179.2-48.4,179.2z M-48.8,177.1c0.1-0.1,0.3-0.2,0.4-0.2c0.2,0,0.3,0.1,0.4,0.2c0.2,0.2,0.2,0.6,0,0.9
	c-0.2,0.2-0.6,0.2-0.9,0C-49.1,177.8-49.1,177.4-48.8,177.1z"/>
<path class="st2" d="M-103.1,219.8l7.1,7c0.1,0.1,0.2,0.1,0.4,0.1s0.3-0.1,0.4-0.1l7.2-7.2c1.7-1.1,2.8-3,2.8-5.1c0-3.3-2.7-6-6-6
	c-1.7,0-3.2,0.7-4.4,1.9c-1.1-1.2-2.7-1.9-4.4-1.9c-3.3,0-6,2.7-6,6C-106.2,216.7-105,218.7-103.1,219.8z M-100.1,209.6
	c1.6,0,3,0.7,4,2c0.2,0.2,0.6,0.2,0.8,0c1-1.2,2.4-2,4-2c2.8,0,5,2.3,5,5c0,1.7-0.9,3.3-2.4,4.3c0,0-0.1,0-0.1,0.1l-6.9,6.9
	l-6.7-6.7l-0.1-0.1c-1.6-0.9-2.6-2.6-2.6-4.4C-105.2,211.8-102.9,209.6-100.1,209.6z"/>
<circle class="st3" cx="20.9" cy="194" r="29.3"/>
<path class="st2" d="M20.9,183.1c-3.7,0-6.7,3-6.7,6.7c0,2.6,1.8,5.7,4,7.3v2.2c0,0.7,0.5,1.2,1.2,1.2l0.8,0.8h1.6l0.8-0.8
	c0.7,0,1.2-0.5,1.2-1.2v-2.2c2.2-1.5,4-4.6,4-7.3C27.7,186.1,24.6,183.1,20.9,183.1z M20.9,183.9c3.3,0,5.9,2.7,5.9,5.9
	c0,2.3-1.8,5.4-3.8,6.7h-4.3c-2-1.3-3.8-4.4-3.8-6.7C15,186.5,17.6,183.9,20.9,183.9z M18.9,197.3h4v2c0,0.2-0.2,0.4-0.4,0.4h-3.2
	c-0.2,0-0.4-0.2-0.4-0.4V197.3z"/>
<g>
	<path class="st4" d="M15.5,31.2V18.3h4.7c1,0,1.9,0.3,2.6,1c0.7,0.7,1.1,1.5,1.1,2.5c0,1.3-0.6,2.2-1.7,2.7v0.1
		c0.7,0.2,1.2,0.6,1.6,1.1c0.4,0.5,0.6,1.1,0.6,1.8c0,1.1-0.4,1.9-1.2,2.6c-0.7,0.7-1.7,1-2.8,1H15.5z M17.2,19.9v3.9h3
		c0.6,0,1.1-0.2,1.5-0.6c0.4-0.4,0.6-0.9,0.6-1.4c0-0.5-0.2-1-0.6-1.4c-0.4-0.4-0.9-0.6-1.4-0.6H17.2z M17.2,25.4v4.2h3.3
		c0.6,0,1.1-0.2,1.5-0.6c0.4-0.4,0.6-0.9,0.6-1.5c0-0.6-0.2-1.1-0.6-1.5c-0.4-0.4-0.9-0.6-1.6-0.6H17.2z"/>
	<path class="st4" d="M29.9,31.5c-1.3,0-2.4-0.4-3.2-1.3c-0.8-0.9-1.3-2-1.3-3.4c0-1.3,0.4-2.5,1.2-3.4c0.8-0.9,1.9-1.3,3.1-1.3
		c1.3,0,2.3,0.4,3.1,1.3c0.8,0.8,1.2,2,1.2,3.6l0,0.2h-6.9c0,0.9,0.3,1.6,0.9,2.1c0.6,0.5,1.2,0.8,2,0.8c1.1,0,1.9-0.5,2.5-1.6
		l1.5,0.7c-0.4,0.7-0.9,1.3-1.6,1.7S30.7,31.5,29.9,31.5z M27.2,25.7h5.1c0-0.6-0.3-1.1-0.7-1.5c-0.4-0.4-1.1-0.6-1.8-0.6
		c-0.6,0-1.2,0.2-1.6,0.6C27.7,24.6,27.4,25.1,27.2,25.7z"/>
	<path class="st4" d="M43.5,31.5c-1.3,0-2.4-0.4-3.3-1.3c-0.9-0.9-1.3-2-1.3-3.4c0-1.4,0.4-2.5,1.3-3.4c0.9-0.9,1.9-1.3,3.3-1.3
		c0.9,0,1.7,0.2,2.4,0.7c0.7,0.5,1.2,1.1,1.5,1.9l-1.5,0.6c-0.5-1.1-1.3-1.7-2.5-1.7c-0.8,0-1.4,0.3-2,0.9c-0.5,0.6-0.8,1.4-0.8,2.3
		c0,0.9,0.3,1.7,0.8,2.3c0.6,0.6,1.2,0.9,2,0.9c1.2,0,2.1-0.6,2.6-1.7l1.5,0.6c-0.3,0.8-0.8,1.4-1.5,1.9
		C45.3,31.3,44.5,31.5,43.5,31.5z"/>
	<path class="st4" d="M50.5,31.2h-1.7v-8.8h1.6v1.4h0.1c0.2-0.5,0.5-0.9,1-1.2c0.5-0.3,1-0.5,1.5-0.5c0.5,0,0.9,0.1,1.2,0.2
		l-0.5,1.6c-0.2-0.1-0.5-0.1-1-0.1c-0.6,0-1.2,0.3-1.6,0.8s-0.7,1.1-0.7,1.8V31.2z"/>
	<path class="st4" d="M58.8,31.5c-1.3,0-2.4-0.4-3.2-1.3c-0.8-0.9-1.3-2-1.3-3.4c0-1.3,0.4-2.5,1.2-3.4c0.8-0.9,1.9-1.3,3.1-1.3
		c1.3,0,2.3,0.4,3.1,1.3c0.8,0.8,1.2,2,1.2,3.6l0,0.2H56c0,0.9,0.3,1.6,0.9,2.1c0.6,0.5,1.2,0.8,2,0.8c1.1,0,1.9-0.5,2.5-1.6
		l1.5,0.7c-0.4,0.7-0.9,1.3-1.6,1.7S59.7,31.5,58.8,31.5z M56.1,25.7h5.1c0-0.6-0.3-1.1-0.7-1.5c-0.4-0.4-1.1-0.6-1.8-0.6
		c-0.6,0-1.2,0.2-1.6,0.6C56.6,24.6,56.3,25.1,56.1,25.7z"/>
	<path class="st4" d="M67.9,22.1c1.2,0,2.2,0.3,2.9,1c0.7,0.7,1.1,1.6,1.1,2.7v5.4h-1.6V30h-0.1c-0.7,1-1.6,1.5-2.7,1.5
		c-1,0-1.8-0.3-2.4-0.9c-0.7-0.6-1-1.3-1-2.2c0-0.9,0.3-1.6,1-2.2c0.7-0.5,1.6-0.8,2.8-0.8c1,0,1.8,0.2,2.4,0.5v-0.4
		c0-0.6-0.2-1.1-0.7-1.5s-1-0.6-1.6-0.6c-0.9,0-1.7,0.4-2.2,1.2l-1.5-0.9C65.1,22.7,66.3,22.1,67.9,22.1z M65.8,28.5
		c0,0.4,0.2,0.8,0.5,1.1c0.4,0.3,0.8,0.4,1.3,0.4c0.7,0,1.3-0.3,1.9-0.8c0.5-0.5,0.8-1.1,0.8-1.8c-0.5-0.4-1.2-0.6-2.2-0.6
		c-0.7,0-1.2,0.2-1.7,0.5C66,27.6,65.8,28,65.8,28.5z"/>
	<path class="st4" d="M77,31.3c-0.7,0-1.3-0.2-1.8-0.7s-0.7-1.1-0.7-1.9v-4.9H73v-1.5h1.5v-2.7h1.7v2.7h2.2v1.5h-2.2v4.4
		c0,0.6,0.1,1,0.3,1.2c0.2,0.2,0.5,0.3,0.8,0.3c0.1,0,0.3,0,0.4,0c0.1,0,0.2-0.1,0.4-0.1l0.5,1.5C78.1,31.3,77.6,31.3,77,31.3z"/>
	<path class="st4" d="M82.1,19.3c0,0.3-0.1,0.6-0.3,0.8c-0.2,0.2-0.5,0.3-0.8,0.3s-0.6-0.1-0.8-0.3c-0.2-0.2-0.3-0.5-0.3-0.8
		c0-0.3,0.1-0.6,0.3-0.8c0.2-0.2,0.5-0.3,0.8-0.3s0.6,0.1,0.8,0.3C82,18.7,82.1,19,82.1,19.3z M81.8,22.4v8.8h-1.7v-8.8H81.8z"/>
	<path class="st4" d="M88.3,31.2h-1.7L83,22.4h1.8l2.6,6.8h0l2.6-6.8h1.8L88.3,31.2z"/>
	<path class="st4" d="M96.6,31.5c-1.3,0-2.4-0.4-3.2-1.3s-1.3-2-1.3-3.4c0-1.3,0.4-2.5,1.2-3.4c0.8-0.9,1.9-1.3,3.1-1.3
		c1.3,0,2.3,0.4,3.1,1.3c0.8,0.8,1.2,2,1.2,3.6l0,0.2h-6.9c0,0.9,0.3,1.6,0.9,2.1c0.6,0.5,1.2,0.8,2,0.8c1.1,0,1.9-0.5,2.5-1.6
		l1.5,0.7c-0.4,0.7-0.9,1.3-1.6,1.7C98.3,31.3,97.5,31.5,96.6,31.5z M94,25.7H99c0-0.6-0.3-1.1-0.7-1.5c-0.4-0.4-1.1-0.6-1.8-0.6
		c-0.6,0-1.2,0.2-1.6,0.6C94.4,24.6,94.1,25.1,94,25.7z"/>
	<path class="st4" d="M104.6,30.1c0,0.3-0.1,0.6-0.4,0.9c-0.2,0.2-0.5,0.4-0.9,0.4c-0.3,0-0.6-0.1-0.9-0.4c-0.2-0.2-0.4-0.5-0.4-0.9
		c0-0.3,0.1-0.6,0.4-0.9c0.2-0.2,0.5-0.4,0.9-0.4c0.3,0,0.6,0.1,0.9,0.4C104.5,29.4,104.6,29.7,104.6,30.1z M104,27.2h-1.3l-0.2-4.8
		v-4.1h1.7v4.1L104,27.2z"/>
	<path class="st4" d="M19.9,41.5v11.3h-1.7V41.5h-3.6v-1.6h8.9v1.6H19.9z"/>
	<path class="st4" d="M24.9,39.9h1.7V44l-0.1,1.2h0.1c0.3-0.4,0.6-0.8,1.2-1.1s1.1-0.4,1.6-0.4c1.1,0,1.9,0.3,2.5,0.9
		s0.9,1.5,0.9,2.6v5.5h-1.7v-5.2c0-1.6-0.7-2.4-2.1-2.4c-0.7,0-1.2,0.3-1.7,0.8c-0.5,0.6-0.7,1.2-0.7,2v4.8h-1.7V39.9z"/>
	<path class="st4" d="M36.8,40.9c0,0.3-0.1,0.6-0.3,0.8c-0.2,0.2-0.5,0.3-0.8,0.3s-0.6-0.1-0.8-0.3c-0.2-0.2-0.3-0.5-0.3-0.8
		c0-0.3,0.1-0.6,0.3-0.8c0.2-0.2,0.5-0.3,0.8-0.3s0.6,0.1,0.8,0.3C36.7,40.3,36.8,40.6,36.8,40.9z M36.5,44v8.8h-1.7V44H36.5z"/>
	<path class="st4" d="M38.6,44h1.6v1.2h0.1c0.3-0.4,0.6-0.8,1.2-1.1s1.1-0.4,1.6-0.4c1.1,0,1.9,0.3,2.5,0.9s0.9,1.5,0.9,2.6v5.5
		h-1.7v-5.4c0-1.4-0.8-2.2-2.2-2.2c-0.7,0-1.2,0.3-1.7,0.8c-0.4,0.5-0.7,1.2-0.7,1.9v4.9h-1.7V44z"/>
	<path class="st4" d="M56.2,52.8h-2l-2.8-4.2L50.1,50v2.8h-1.7V39.9h1.7v7.9l3.8-3.9H56v0.1l-3.4,3.4L56.2,52.8L56.2,52.8z"/>
	<path class="st4" d="M60.5,48.4c0-1.4,0.4-2.5,1.3-3.4c0.9-0.9,1.9-1.3,3.3-1.3c1.3,0,2.4,0.4,3.2,1.3c0.9,0.9,1.3,2,1.3,3.4
		c0,1.4-0.4,2.5-1.3,3.4c-0.9,0.9-1.9,1.3-3.2,1.3c-1.3,0-2.4-0.4-3.3-1.3C61,50.9,60.5,49.7,60.5,48.4z M62.2,48.4
		c0,0.9,0.3,1.7,0.8,2.3c0.6,0.6,1.2,0.9,2.1,0.9c0.8,0,1.5-0.3,2.1-0.9c0.6-0.6,0.8-1.4,0.8-2.3c0-0.9-0.3-1.7-0.8-2.3
		c-0.6-0.6-1.2-0.9-2.1-0.9c-0.8,0-1.5,0.3-2.1,0.9C62.5,46.7,62.2,47.5,62.2,48.4z"/>
	<path class="st4" d="M78.8,52.8h-1.6v-1.2h-0.1c-0.3,0.4-0.6,0.8-1.2,1.1c-0.5,0.3-1.1,0.4-1.6,0.4c-1.1,0-1.9-0.3-2.5-0.9
		S71,50.7,71,49.5V44h1.7v5.4c0,1.4,0.8,2.2,2.2,2.2c0.7,0,1.2-0.3,1.7-0.8c0.4-0.5,0.7-1.2,0.7-1.9V44h1.7V52.8z"/>
	<path class="st4" d="M84.4,52.9c-0.7,0-1.3-0.2-1.8-0.7c-0.5-0.4-0.7-1.1-0.7-1.9v-4.9h-1.5V44h1.5v-2.7h1.7V44h2.2v1.5h-2.2v4.4
		c0,0.6,0.1,1,0.3,1.2c0.2,0.2,0.5,0.3,0.8,0.3c0.1,0,0.3,0,0.4,0c0.1,0,0.2-0.1,0.4-0.1l0.5,1.5C85.5,52.9,85,52.9,84.4,52.9z"/>
	<path class="st4" d="M94.2,50.4c0,0.8-0.3,1.4-1,1.9c-0.7,0.5-1.5,0.8-2.5,0.8c-0.9,0-1.7-0.2-2.3-0.7s-1.2-1.1-1.4-1.8l1.5-0.6
		c0.2,0.5,0.5,0.9,0.9,1.2s0.9,0.4,1.4,0.4c0.5,0,1-0.1,1.3-0.3c0.4-0.2,0.5-0.5,0.5-0.8c0-0.6-0.4-1-1.3-1.2l-1.5-0.4
		c-1.7-0.4-2.6-1.3-2.6-2.5c0-0.8,0.3-1.4,1-1.9s1.5-0.7,2.5-0.7c0.8,0,1.5,0.2,2.1,0.6s1.1,0.9,1.3,1.5l-1.5,0.6
		c-0.2-0.4-0.4-0.7-0.8-0.9c-0.4-0.2-0.8-0.3-1.3-0.3c-0.4,0-0.8,0.1-1.2,0.3c-0.3,0.2-0.5,0.5-0.5,0.8c0,0.5,0.5,0.9,1.4,1.1
		l1.3,0.3C93.3,48.1,94.2,49,94.2,50.4z"/>
	<path class="st4" d="M97.7,40.9c0,0.3-0.1,0.6-0.3,0.8c-0.2,0.2-0.5,0.3-0.8,0.3s-0.6-0.1-0.8-0.3c-0.2-0.2-0.3-0.5-0.3-0.8
		c0-0.3,0.1-0.6,0.3-0.8c0.2-0.2,0.5-0.3,0.8-0.3s0.6,0.1,0.8,0.3C97.6,40.3,97.7,40.6,97.7,40.9z M97.3,44v8.8h-1.7V44H97.3z"/>
	<path class="st4" d="M103.1,53.1c-1.2,0-2.1-0.5-3-1.4c-0.8-0.9-1.2-2-1.2-3.3s0.4-2.4,1.2-3.3c0.8-0.9,1.8-1.4,3-1.4
		c0.6,0,1.2,0.1,1.8,0.4c0.5,0.3,0.9,0.6,1.2,1.1h0.1l-0.1-1.2v-4.1h1.7v12.9h-1.6v-1.2h-0.1c-0.3,0.5-0.7,0.8-1.2,1.1
		C104.3,52.9,103.7,53.1,103.1,53.1z M103.4,51.6c0.8,0,1.5-0.3,2-0.9c0.5-0.6,0.8-1.4,0.8-2.3c0-0.9-0.3-1.7-0.8-2.3
		c-0.5-0.6-1.2-0.9-2-0.9c-0.8,0-1.5,0.3-2,0.9c-0.5,0.6-0.8,1.4-0.8,2.3c0,0.9,0.3,1.7,0.8,2.3C101.9,51.3,102.6,51.6,103.4,51.6z"
		/>
	<path class="st4" d="M113.6,53.1c-1.3,0-2.4-0.4-3.2-1.3c-0.8-0.9-1.3-2-1.3-3.4c0-1.3,0.4-2.5,1.2-3.4c0.8-0.9,1.9-1.3,3.1-1.3
		c1.3,0,2.3,0.4,3.1,1.3c0.8,0.8,1.2,2,1.2,3.6l0,0.2h-6.9c0,0.9,0.3,1.6,0.9,2.1c0.6,0.5,1.2,0.8,2,0.8c1.1,0,1.9-0.5,2.5-1.6
		l1.5,0.7c-0.4,0.7-0.9,1.3-1.6,1.7C115.3,52.9,114.5,53.1,113.6,53.1z M111,47.3h5.1c0-0.6-0.3-1.1-0.7-1.5
		c-0.5-0.4-1.1-0.6-1.8-0.6c-0.6,0-1.2,0.2-1.6,0.6C111.4,46.2,111.1,46.7,111,47.3z"/>
	<path class="st4" d="M18.7,74.5c-0.7,0-1.3-0.2-1.8-0.7c-0.5-0.4-0.7-1.1-0.7-1.9v-4.9h-1.5v-1.5h1.5v-2.7h1.7v2.7H20v1.5h-2.2v4.4
		c0,0.6,0.1,1,0.3,1.2S18.7,73,19,73c0.1,0,0.3,0,0.4,0c0.1,0,0.2-0.1,0.4-0.1l0.5,1.5C19.8,74.5,19.3,74.5,18.7,74.5z"/>
	<path class="st4" d="M21.7,61.5h1.7v4.1l-0.1,1.2h0.1c0.3-0.4,0.6-0.8,1.2-1.1s1.1-0.4,1.6-0.4c1.1,0,1.9,0.3,2.5,0.9
		s0.9,1.5,0.9,2.6v5.5h-1.7v-5.2c0-1.6-0.7-2.4-2.1-2.4c-0.7,0-1.2,0.3-1.7,0.8c-0.5,0.6-0.7,1.2-0.7,2v4.8h-1.7V61.5z"/>
	<path class="st4" d="M35.4,74.7c-1.3,0-2.4-0.4-3.2-1.3c-0.8-0.9-1.3-2-1.3-3.4c0-1.3,0.4-2.5,1.2-3.4c0.8-0.9,1.9-1.3,3.1-1.3
		c1.3,0,2.3,0.4,3.1,1.3s1.2,2,1.2,3.6l0,0.2h-6.9c0,0.9,0.3,1.6,0.9,2.1c0.6,0.5,1.2,0.8,2,0.8c1.1,0,1.9-0.5,2.5-1.6l1.5,0.7
		c-0.4,0.7-0.9,1.3-1.6,1.7S36.3,74.7,35.4,74.7z M32.7,68.9h5.1c0-0.6-0.3-1.1-0.7-1.5c-0.4-0.4-1.1-0.6-1.8-0.6
		c-0.6,0-1.2,0.2-1.6,0.6C33.2,67.8,32.9,68.3,32.7,68.9z"/>
	<path class="st4" d="M49.7,74.7c-0.6,0-1.2-0.1-1.8-0.4c-0.5-0.3-0.9-0.6-1.2-1.1h-0.1v1.2H45V61.5h1.7v4.1l-0.1,1.2h0.1
		c0.3-0.5,0.7-0.8,1.2-1.1c0.5-0.3,1.1-0.4,1.8-0.4c1.2,0,2.1,0.5,3,1.4c0.8,0.9,1.2,2,1.2,3.3c0,1.3-0.4,2.4-1.2,3.3
		C51.8,74.2,50.9,74.7,49.7,74.7z M49.4,73.2c0.8,0,1.5-0.3,2-0.9c0.5-0.6,0.8-1.3,0.8-2.3c0-0.9-0.3-1.7-0.8-2.3
		c-0.5-0.6-1.2-0.9-2-0.9c-0.8,0-1.5,0.3-2,0.9c-0.5,0.6-0.8,1.4-0.8,2.3c0,0.9,0.3,1.7,0.8,2.3C47.9,72.9,48.6,73.2,49.4,73.2z"/>
	<path class="st4" d="M54.9,70c0-1.4,0.4-2.5,1.3-3.4c0.9-0.9,1.9-1.3,3.3-1.3c1.3,0,2.4,0.4,3.2,1.3c0.9,0.9,1.3,2,1.3,3.4
		c0,1.4-0.4,2.5-1.3,3.4c-0.9,0.9-1.9,1.3-3.2,1.3c-1.3,0-2.4-0.4-3.3-1.3C55.3,72.5,54.9,71.3,54.9,70z M56.6,70
		c0,0.9,0.3,1.7,0.8,2.3c0.6,0.6,1.2,0.9,2.1,0.9c0.8,0,1.5-0.3,2.1-0.9c0.6-0.6,0.8-1.4,0.8-2.3c0-0.9-0.3-1.7-0.8-2.3
		c-0.6-0.6-1.2-0.9-2.1-0.9c-0.8,0-1.5,0.3-2.1,0.9C56.8,68.3,56.6,69.1,56.6,70z"/>
	<path class="st4" d="M69.5,69.9l3.1,4.5h-1.9l-2.2-3.3l-2.1,3.3h-1.9l3.1-4.5l-3-4.3h1.9l2.2,3.1l2.1-3.1h1.9L69.5,69.9z"/>
	<path class="st4" d="M76.1,73.3c0,0.3-0.1,0.6-0.4,0.9s-0.5,0.4-0.9,0.4c-0.3,0-0.6-0.1-0.9-0.4c-0.2-0.2-0.4-0.5-0.4-0.9
		c0-0.3,0.1-0.6,0.4-0.9c0.2-0.2,0.5-0.4,0.9-0.4c0.3,0,0.6,0.1,0.9,0.4C76,72.6,76.1,72.9,76.1,73.3z M75.5,70.4h-1.3L74,65.6v-4.1
		h1.7v4.1L75.5,70.4z"/>
</g>
</svg>
