<?xml version="1.0" encoding="utf-8"?>
<!-- Generator: Adobe Illustrator 24.0.0, SVG Export Plug-In . SVG Version: 6.00 Build 0)  -->
<svg version="1.1" id="Layer_1" xmlns="http://www.w3.org/2000/svg" xmlns:xlink="http://www.w3.org/1999/xlink" x="0px" y="0px"
	 viewBox="0 0 216 288" style="enable-background:new 0 0 216 288;" xml:space="preserve">
<style type="text/css">
	.st0{opacity:0.1;fill:#058182;}
	.st1{fill:none;}
	.st2{fill:#058182;}
	.st3{fill:#222222;}
	.st4{font-family:'ProductSans-Black';}
	.st5{font-size:18px;}
	.st6{fill:#FFFFFF;}
	.st7{opacity:5.000000e-02;}
	.st8{fill:none;stroke:#222222;stroke-width:25.2;stroke-linecap:round;stroke-linejoin:round;}
</style>
<rect x="-0.7" y="-0.5" class="st0" width="216" height="288"/>
<path class="st1" d="M130.4,96.9c-1,2.1-2.4,3.6-4.6,4.6c2.2,1,3.6,2.5,4.6,4.6c1-2.2,2.5-3.6,4.6-4.6
	C132.8,100.5,131.4,99,130.4,96.9z"/>
<path class="st1" d="M69.9,92.4c1.9-2.8,1.9-2.8,4.5-4.5c-2-1-3.5-2.4-4.5-4.5c-1,2.1-2.5,3.6-4.5,4.6
	C67.9,89.4,68.2,89.7,69.9,92.4z"/>
<path class="st1" d="M85.9,69.5c1-2.2,2.5-3.6,4.6-4.6c-2.1-1-3.6-2.5-4.6-4.6c-1,2.2-2.5,3.6-4.6,4.6
	C83.4,65.9,84.9,67.4,85.9,69.5z"/>
<path class="st1" d="M105.9,79.3c0.8-1.7,2-2.8,3.6-3.7c-1.7-0.9-2.8-2-3.6-3.6c-0.8,1.6-2,2.8-3.6,3.6
	C103.9,76.5,105,77.6,105.9,79.3z"/>
<path class="st2" d="M139.1,118.7c0.4-0.1,0.8-0.3,1.2-0.4c0.7-0.3,1.1-0.9,1.1-1.7c0-0.9-0.4-1.5-1.1-1.8c-0.4-0.2-0.8-0.3-1.2-0.5
	c-2.2-0.7-3.7-2.2-4.4-4.4c-0.1-0.4-0.3-0.8-0.5-1.2c-0.3-0.7-0.9-1.1-1.8-1.1c-1,0-1.7,0.6-1.9,1.5c-0.8,3-2.7,4.8-5.7,5.6
	c0,0-0.1,0-0.1,0c-0.9,0.3-1.4,0.9-1.4,1.9c0,1,0.5,1.5,1.4,1.9c0.4,0.2,0.8,0.3,1.3,0.4c1.9,0.7,3.3,1.9,4,3.9
	c0.2,0.4,0.3,0.8,0.5,1.2c0.4,1.1,1,1.6,2,1.6c1,0,1.6-0.6,1.9-1.6c0.1-0.3,0.2-0.5,0.3-0.8C135.3,120.9,136.8,119.4,139.1,118.7z
	 M132.4,121.1c-1-2.1-2.4-3.6-4.6-4.6c2.1-1,3.6-2.5,4.6-4.6c1,2.1,2.4,3.6,4.6,4.6C134.8,117.4,133.4,118.9,132.4,121.1z"/>
<g>
	<text transform="matrix(1 0 0 1 58.5817 207.2162)" class="st3 st4 st5">Ingenuity</text>
	<g>
		<path class="st6" d="M120.5,141.6c-0.2-0.8-0.7-1.5-1.5-1.7c-0.9-0.3-1.7,0-2.4,0.7c-2.8,2.8-5.5,5.5-8.3,8.3
			c-1.3,1.3-2.5,2.5-3.8,3.8c-0.9,0.9-1.7,1-2.3,0.3c-0.6-0.6-0.5-1.4,0.3-2.2c5.1-5.1,10.2-10.2,15.3-15.3c0.4-0.4,0.8-0.8,1-1.3
			c0.3-0.9-0.1-2-0.9-2.5c-0.8-0.5-1.9-0.5-2.6,0.1c-0.6,0.5-1.1,1.1-1.7,1.7c-4.7,4.7-9.3,9.3-14,14c-0.1,0.1-0.1,0.1-0.2,0.2
			c-0.9,0.9-1.7,1-2.3,0.4c-0.7-0.6-0.6-1.4,0.3-2.3c3-3,6-6,8.9-8.9c3.3-3.3,6.7-6.7,10-10c0.7-0.7,1-1.5,0.7-2.4
			c-0.3-0.9-0.9-1.4-1.8-1.5c-0.9-0.1-1.6,0.3-2.2,0.9c-3.9,3.9-7.7,7.7-11.6,11.6c-2.4,2.4-4.8,4.8-7.2,7.2c-0.9,0.9-1.7,1-2.3,0.4
			c-0.7-0.6-0.5-1.4,0.4-2.4c0,0,0.1-0.1,0.1-0.1c4.4-4.4,8.9-8.9,13.3-13.3c0.6-0.6,1.1-1.3,1-2.2c-0.1-0.8-0.6-1.5-1.4-1.8
			c-0.9-0.4-1.7-0.2-2.4,0.5c-1,1-2,2-3.1,3c-0.1,0.1-0.2,0.2-0.3,0.3c-3.9,3.9-11.7,11.7-14.7,14.7c-0.5,0.5-1,0.7-1.7,0.4
			c-0.6-0.3-0.8-0.8-0.8-1.5c0-1.6,0-3.3,0-4.9c0-1.5-0.9-2.5-2.2-2.5c-1.3,0-2.2,0.9-2.2,2.5c0,3.2,0,6.3,0,9.5
			c0,2.8-0.2,5.5-0.6,8.3c-0.8,6.5,4.2,13,10.8,14c4.5,0.6,8.3-0.6,11.5-3.8c6.5-6.5,13-13,19.6-19.5
			C120.2,143.3,120.7,142.6,120.5,141.6z"/>
		<path class="st2" d="M147.6,107.6c-7.2-10.3-21.7-11.7-30.7-3.1c-2.6,2.5-5.2,5.2-7.8,7.8c-0.4,0.4-0.6,0.5-1,0
			c-0.8-0.9-1.6-1.6-2.4-2.4c-0.8-0.8-1.6-0.8-2.2-0.2c-0.7,0.6-0.6,1.5,0.2,2.3c1.2,1.2,2.3,2.4,3.5,3.5c1.1,1.1,1.7,1.1,2.9,0
			c2.9-2.9,5.7-5.8,8.7-8.7c4.9-4.7,10.7-6.2,17.1-4.3c12.5,3.6,16.6,19.2,7.7,28.6c-2,2.1-4.1,4.1-6.1,6.1
			c-0.7,0.7-0.8,1.6-0.2,2.2c0.6,0.6,1.4,0.6,2.1-0.1c2.3-2.3,4.6-4.5,6.7-6.8c3.4-3.8,5-8.3,5.1-13.4
			C151.1,115,149.9,110.9,147.6,107.6z"/>
		<path class="st2" d="M70,112.7c0.3,0.2,0.4,0.6,0.5,0.9c0.5,1.3,1.1,1.8,2,1.8c1,0,1.6-0.5,2-1.8c0.1-0.2,0.2-0.5,0.3-0.7
			c0.7-2.2,2.2-3.5,4.3-4.3c0.4-0.1,0.7-0.3,1.1-0.4c0.9-0.3,1.4-1,1.4-1.9c0-0.9-0.5-1.5-1.3-1.8c-0.7-0.3-1.3-0.5-2.2-0.8
			c2.3-1.2,4.5-1.8,6.9-2c5.2-0.3,9.6,1.4,13.4,5c0.7,0.7,1.6,0.8,2.2,0.2c0.6-0.6,0.5-1.5-0.2-2.2c-3.7-3.6-8.2-5.6-13.3-5.9
			c-3.9-0.2-7.5,0.7-10.8,2.6c-0.4,0.2-0.6,0.2-0.9-0.2c-0.4-0.7-0.7-1.5-0.9-2.3c-0.4-1-1.1-1.6-2-1.5c-1,0-1.6,0.6-1.9,1.5
			c-0.1,0.4-0.3,0.8-0.5,1.3c-0.7,1.8-1.9,3.1-3.7,3.8c-0.5,0.2-1,0.4-1.5,0.6c-0.9,0.3-1.4,0.9-1.4,1.9c0,1,0.5,1.6,1.4,1.9
			c0.9,0.3,1.7,0.6,2.5,1.1c0.6,0.3,0.6,0.6,0.4,1.2c-1.3,2.7-1.9,5.5-1.9,8.4h2.9C68.8,116.8,69.2,114.7,70,112.7z M72.5,101.8
			c1,2.1,2.5,3.6,4.5,4.5c-2.6,1.7-2.6,1.7-4.5,4.5c-1.6-2.6-2-3-4.5-4.5C70.1,105.4,71.6,104,72.5,101.8z"/>
		<path class="st2" d="M134.5,142.1c-0.5-0.5-1.1-0.6-1.8-0.2c-0.2,0.1-0.4,0.4-0.6,0.6c-2.7,2.7-5.5,5.5-8.2,8.2
			c-1.5,1.5-3,3-4.5,4.5c-3.4,3.4-6.8,6.8-10.2,10.2c-0.5,0.5-0.7,0.5-1.2,0c-0.6-0.7-1.3-1.4-2-2c-0.4-0.3-0.4-0.6,0-0.9
			c0.1-0.1,0.2-0.2,0.3-0.3c5.1-5.1,10.2-10.2,15.3-15.3c2.9-2.9,2.3-6.9-1.4-8.8c-0.1,0-0.1-0.1-0.2-0.2c2.9-3.6,2.4-6.5-1.6-9.1
			c0-0.1,0.1-0.1,0.1-0.2c2.1-2.4,2-5.5-0.1-7.5c-2.2-2.1-5.2-1.9-7.5,0.4c-0.6,0.6-1.2,1.3-1.8,2.1c-1.6-3.9-5.6-4.6-8.1-2.7
			c-1.3,1-2.5,2.3-3.7,3.5c-3,3-10.6,10.6-12.9,12.9c-0.2,0.2-0.4,0.4-0.7,0.7c0-0.8,0-1.4,0-2c0-2.2-0.9-3.9-2.9-4.9
			c-2-1-3.9-0.7-5.6,0.7c-0.4,0.3-0.5,0.3-0.8,0c-3.6-3.4-5.6-8.1-5.5-12.9h-2.9c0,1.9,0.2,3.8,0.8,5.7c1.1,3.9,3.2,7,6.1,9.8
			c0.3,0.3,0.6,0.6,0.6,1.1c0,4.2,0,8.5,0,12.7c0,1.4-0.1,2.7-0.3,4.1c-0.4,2.3-0.5,4.6,0,6.9c1.3,6.8,7.3,12.4,14,13
			c0.3,0.1,0.6,0,0.9,0.1c0.3,0,0.7-0.1,1,0.1h1.9c0.1-0.1,0.2-0.2,0.3-0.2c3.5-0.4,6.5-1.8,9.1-4.2c0.9-0.8,1.8-1.7,2.6-2.6
			c0.5-0.5,0.7-0.5,1.2,0c0.6,0.7,1.3,1.3,2,2c1.8,1.7,3.4,1.7,5.1,0c4.3-4.3,8.5-8.5,12.8-12.8c3.4-3.4,6.8-6.8,10.1-10.1
			c0.2-0.2,0.5-0.4,0.6-0.7C135.1,143.3,135,142.6,134.5,142.1z M99,165.4c-3.3,3.3-7.3,4.7-12,4c-6.9-1-12.2-7.8-11.3-14.6
			c0.4-2.9,0.7-5.8,0.6-8.7c-0.1-3.3,0-6.6,0-10c0-1.6,0.9-2.6,2.3-2.6c1.4,0,2.3,1,2.3,2.6c0,1.7,0,3.5,0,5.2
			c0,0.7,0.2,1.3,0.9,1.6c0.7,0.3,1.2,0.1,1.7-0.4c3.1-3.1,11.3-11.3,15.4-15.4c0.1-0.1,0.2-0.2,0.4-0.4c1.1-1.1,2.1-2.1,3.2-3.2
			c0.7-0.7,1.6-0.9,2.5-0.5c0.8,0.3,1.3,1,1.4,1.9c0.1,0.9-0.4,1.6-1,2.3c-4.7,4.6-9.3,9.3-14,14c0,0-0.1,0.1-0.1,0.1
			c-1,1-1.1,1.8-0.4,2.5c0.7,0.6,1.5,0.5,2.4-0.4c2.5-2.5,5-5,7.5-7.5c4-4,8.1-8.1,12.1-12.1c0.6-0.6,1.3-1.1,2.3-1
			c0.9,0.1,1.6,0.7,1.9,1.6c0.3,1,0,1.8-0.7,2.5c-3.5,3.5-7,7-10.5,10.5c-3.1,3.1-6.2,6.2-9.4,9.4c-0.9,0.9-1,1.7-0.3,2.4
			c0.7,0.7,1.5,0.5,2.4-0.4c0.1-0.1,0.1-0.1,0.2-0.2c4.9-4.9,9.8-9.8,14.6-14.6c0.6-0.6,1.2-1.2,1.8-1.7c0.8-0.7,1.9-0.7,2.8-0.1
			c0.8,0.6,1.2,1.6,0.9,2.6c-0.2,0.6-0.6,1-1,1.4c-5.4,5.4-10.7,10.7-16.1,16.1c-0.9,0.9-1,1.7-0.4,2.3c0.7,0.7,1.5,0.6,2.4-0.3
			c1.3-1.3,2.6-2.6,3.9-3.9c2.9-2.9,5.8-5.8,8.7-8.7c0.7-0.7,1.6-1,2.5-0.7c0.9,0.3,1.4,0.9,1.5,1.8c0.2,1-0.3,1.8-1,2.4
			C112.6,151.8,105.8,158.6,99,165.4z"/>
		<path class="st2" d="M81.3,85.4c2.7,0.8,4.5,2.5,5.2,5.2c0.1,0.3,0.2,0.5,0.3,0.8c0.4,0.7,1,1,1.7,1c0.8,0,1.3-0.3,1.7-1
			c0.1-0.2,0.2-0.4,0.2-0.6c0.8-2.8,2.5-4.7,5.4-5.4c0.2-0.1,0.4-0.2,0.6-0.3c0.7-0.4,1.1-1,1.1-1.8c0-0.8-0.4-1.4-1.1-1.7
			c-0.3-0.1-0.5-0.2-0.8-0.3c-2.6-0.7-4.3-2.4-5-5c-0.2-0.9-0.7-1.6-1.5-2c-0.4,0-0.8,0-1.2,0c-0.8,0.4-1.3,1.1-1.5,2
			c-0.7,2.6-2.4,4.3-5,5c-0.3,0.1-0.5,0.2-0.8,0.3c-0.8,0.4-1.2,1-1.1,1.9C79.6,84.7,80.3,85.1,81.3,85.4z M88.5,78.8
			c1,2.1,2.5,3.6,4.6,4.6c-2.1,1-3.6,2.4-4.6,4.6c-1-2.1-2.4-3.6-4.6-4.6C86,82.4,87.5,81,88.5,78.8z"/>
		<path class="st2" d="M102,96c2.4,0.7,3.9,2.1,4.6,4.6c0.1,0.2,0.1,0.4,0.2,0.6c0.3,0.7,0.9,1.1,1.7,1.1c0.8,0,1.4-0.3,1.7-1
			c0.2-0.5,0.4-1,0.6-1.5c0.6-1.6,1.7-2.7,3.3-3.3c0.4-0.2,0.9-0.3,1.3-0.5c0.8-0.3,1.2-0.9,1.2-1.8c0-0.8-0.4-1.4-1.2-1.8
			c-0.1-0.1-0.3-0.1-0.4-0.2c-2.4-0.7-3.9-2.2-4.6-4.5c-0.1-0.2-0.2-0.5-0.3-0.7c-0.3-0.7-0.9-1-1.6-1c-0.7,0-1.4,0.3-1.7,1
			c-0.1,0.3-0.2,0.6-0.3,0.9c-0.7,2.1-2,3.6-4.2,4.2c-0.3,0.1-0.6,0.2-0.9,0.3c-0.7,0.3-1,0.9-1.1,1.7C100.4,95,100.8,95.6,102,96z
			 M108.5,90.4c0.8,1.6,2,2.8,3.6,3.6c-1.6,0.9-2.8,2-3.6,3.7c-0.8-1.7-2-2.8-3.6-3.7C106.6,93.2,107.7,92,108.5,90.4z"/>
	</g>
</g>
<g class="st7">
	<polyline class="st8" points="63.4,-92.8 120.6,-100.9 3,-37.1 225.5,-68.3 7,9.6 219.5,-20.2 -23.7,61.2 183.4,32.1 35.1,100.2 
		163.3,82.2 22,149.3 219.6,121.5 22.5,196.5 198.5,171.8 41.6,241.1 230.8,214.5 39.7,288.6 215.3,263.9 -4.1,342 195.3,314 
		46.5,382.1 202.9,360.2 	"/>
</g>
</svg>
