<?xml version="1.0" encoding="utf-8"?>
<!-- Generator: Adobe Illustrator 24.0.0, SVG Export Plug-In . SVG Version: 6.00 Build 0)  -->
<svg version="1.1" id="Layer_1" xmlns="http://www.w3.org/2000/svg" xmlns:xlink="http://www.w3.org/1999/xlink" x="0px" y="0px"
	 viewBox="0 0 120 160" style="enable-background:new 0 0 120 160;" xml:space="preserve">
<style type="text/css">
	.st0{opacity:0.1;fill:#058182;enable-background:new    ;}
	.st1{fill:none;}
	.st2{fill:#058182;}
	.st3{enable-background:new    ;}
	.st4{fill:#222222;}
	.st5{fill:#FFFFFF;}
	.st6{opacity:5.000000e-02;}
	.st7{fill:none;stroke:#222222;stroke-width:25.2;stroke-linecap:round;stroke-linejoin:round;}
</style>
<rect x="-48.7" y="-64.5" class="st0" width="216" height="288"/>
<path class="st1" d="M79.7,42.3c-0.8,1.8-2,3-3.9,3.9c1.9,0.8,3,2.1,3.9,3.9c0.8-1.9,2.1-3,3.9-3.9C81.8,45.3,80.6,44.1,79.7,42.3z"
	/>
<path class="st2" d="M87.1,60.6c0.3-0.1,0.7-0.3,1-0.3c0.6-0.3,0.9-0.8,0.9-1.4c0-0.8-0.3-1.3-0.9-1.5c-0.3-0.2-0.7-0.3-1-0.4
	c-1.9-0.6-3.1-1.9-3.7-3.7c-0.1-0.3-0.3-0.7-0.4-1c-0.3-0.6-0.8-0.9-1.5-0.9c-0.8,0-1.4,0.5-1.6,1.3c-0.7,2.5-2.3,4-4.8,4.7h-0.1
	c-0.8,0.3-1.2,0.8-1.2,1.6s0.4,1.3,1.2,1.6c0.3,0.2,0.7,0.3,1.1,0.3c1.6,0.6,2.8,1.6,3.4,3.3c0.2,0.3,0.3,0.7,0.4,1
	c0.3,0.9,0.8,1.3,1.7,1.3c0.8,0,1.3-0.5,1.6-1.3c0.1-0.3,0.2-0.4,0.3-0.7C83.9,62.5,85.1,61.2,87.1,60.6z M81.4,62.7
	c-0.8-1.8-2-3-3.9-3.9c1.8-0.8,3-2.1,3.9-3.9c0.8,1.8,2,3,3.9,3.9C83.4,59.5,82.3,60.8,81.4,62.7z"/>
<g class="st3">
	<path class="st4" d="M20.4,124.3h2.4v10.8h-2.4V124.3z"/>
	<path class="st4" d="M25,124.3h2.7l3.9,6.7h0.2l-0.2-2.1v-4.6h2.3v10.8h-2.5l-4.1-7.1h-0.2l0.2,2.1v5H25V124.3z"/>
	<path class="st4" d="M41.1,129.1h5.3c0,0.1,0.1,0.3,0.1,0.5c0,0.2,0,0.4,0,0.5c0,0.8-0.1,1.4-0.3,2c-0.2,0.6-0.5,1.1-1,1.6
		c-0.5,0.5-1.1,0.9-1.8,1.2c-0.7,0.3-1.5,0.4-2.3,0.4c-0.8,0-1.5-0.1-2.2-0.4s-1.3-0.7-1.8-1.2s-0.9-1.1-1.2-1.8
		c-0.3-0.7-0.5-1.5-0.5-2.3c0-0.8,0.2-1.6,0.5-2.3s0.7-1.3,1.2-1.8s1.1-0.9,1.8-1.2c0.7-0.3,1.4-0.4,2.2-0.4c0.9,0,1.7,0.2,2.4,0.5
		s1.3,0.7,1.8,1.3l-1.6,1.6c-0.4-0.4-0.7-0.6-1.1-0.8s-0.9-0.3-1.5-0.3c-0.5,0-0.9,0.1-1.3,0.3c-0.4,0.2-0.8,0.4-1.1,0.7
		c-0.3,0.3-0.6,0.7-0.7,1.1s-0.3,0.9-0.3,1.4c0,0.5,0.1,1,0.3,1.4s0.4,0.8,0.7,1.1s0.7,0.5,1.1,0.7c0.4,0.2,0.9,0.3,1.3,0.3
		c0.9,0,1.7-0.2,2.2-0.7c0.2-0.2,0.3-0.3,0.5-0.6c0.1-0.2,0.3-0.5,0.4-0.8h-3.1V129.1z"/>
	<path class="st4" d="M50.6,126.5v2.1H55v2.2h-4.3v2.1h4.8v2.2h-7.1v-10.8h7.1v2.2H50.6z"/>
	<path class="st4" d="M57.3,124.3H60l3.9,6.7h0.2l-0.2-2.1v-4.6h2.3v10.8h-2.5l-4.1-7.1h-0.2l0.2,2.1v5h-2.3V124.3z"/>
	<path class="st4" d="M72.5,135.3c-0.7,0-1.3-0.1-1.8-0.3s-1-0.5-1.4-0.9c-0.4-0.4-0.7-0.9-0.9-1.5c-0.2-0.6-0.3-1.2-0.3-2v-6.4h2.4
		v6.5c0,0.7,0.2,1.2,0.5,1.7c0.3,0.4,0.8,0.7,1.5,0.7c0.6,0,1.1-0.2,1.5-0.7c0.3-0.4,0.5-1,0.5-1.7v-6.5h2.4v6.4
		c0,0.7-0.1,1.3-0.3,1.9c-0.2,0.6-0.5,1.1-0.9,1.5c-0.4,0.4-0.8,0.7-1.4,1C73.8,135.2,73.2,135.3,72.5,135.3z"/>
	<path class="st4" d="M78.8,124.3h2.4v10.8h-2.4V124.3z"/>
	<path class="st4" d="M85.6,135.1v-8.6h-3v-2.2H91v2.2h-3v8.6H85.6z"/>
	<path class="st4" d="M95.2,130.1l-3.6-5.8h2.8l1.9,3.2h0.2l1.8-3.2h2.9l-3.6,5.8v5h-2.4V130.1z"/>
</g>
<g>
	<path class="st5" d="M71.4,79.9c-0.2-0.7-0.6-1.3-1.3-1.4c-0.8-0.3-1.4,0-2,0.6c-2.4,2.4-4.6,4.6-7,7c-1.1,1.1-2.1,2.1-3.2,3.2
		c-0.8,0.8-1.4,0.8-1.9,0.3c-0.5-0.5-0.4-1.2,0.3-1.9c4.3-4.3,8.6-8.6,12.9-12.9c0.3-0.3,0.7-0.7,0.8-1.1c0.3-0.8-0.1-1.7-0.8-2.1
		c-0.7-0.4-1.6-0.4-2.2,0.1c-0.5,0.4-0.9,0.9-1.4,1.4c-4,4-7.8,7.8-11.8,11.8C53.7,85,53.7,85,53.7,85c-0.8,0.8-1.4,0.8-1.9,0.3
		c-0.6-0.5-0.5-1.2,0.3-1.9c2.5-2.5,5-5,7.5-7.5c2.8-2.8,5.6-5.6,8.4-8.4c0.6-0.6,0.8-1.3,0.6-2c-0.3-0.8-0.8-1.2-1.5-1.3
		c-0.8-0.1-1.3,0.3-1.9,0.8c-3.3,3.3-6.5,6.5-9.8,9.8c-2,2-4,4-6.1,6.1c-0.8,0.8-1.4,0.8-1.9,0.3c-0.6-0.5-0.4-1.2,0.3-2l0.1-0.1
		c3.7-3.7,7.5-7.5,11.2-11.2c0.5-0.5,0.9-1.1,0.8-1.9c-0.1-0.7-0.5-1.3-1.2-1.5c-0.8-0.3-1.4-0.2-2,0.4c-0.8,0.8-1.7,1.7-2.6,2.5
		c-0.1,0.1-0.2,0.2-0.3,0.3c-3.3,3.3-9.8,9.8-12.4,12.4c-0.4,0.4-0.8,0.6-1.4,0.3c-0.5-0.3-0.7-0.7-0.7-1.3c0-1.3,0-2.8,0-4.1
		c0-1.3-0.8-2.1-1.9-2.1c-1.1,0-1.9,0.8-1.9,2.1c0,2.7,0,5.3,0,8c0,2.4-0.2,4.6-0.5,7c-0.7,5.5,3.5,10.9,9.1,11.8
		c3.8,0.5,7-0.5,9.7-3.2c5.5-5.5,10.9-10.9,16.5-16.4C71.2,81.3,71.6,80.7,71.4,79.9z"/>
	<path class="st2" d="M94.2,51.3c-6.1-8.7-18.3-9.8-25.8-2.6c-2.2,2.1-4.4,4.4-6.6,6.6c-0.3,0.3-0.5,0.4-0.8,0c-0.7-0.8-1.3-1.3-2-2
		s-1.3-0.7-1.9-0.2c-0.6,0.5-0.5,1.3,0.2,1.9c1,1,1.9,2,2.9,2.9c0.9,0.9,1.4,0.9,2.4,0c2.4-2.4,4.8-4.9,7.3-7.3
		c4.1-4,9-5.2,14.4-3.6c10.5,3,14,16.2,6.5,24.1c-1.7,1.8-3.4,3.4-5.1,5.1c-0.6,0.6-0.7,1.3-0.2,1.9c0.5,0.5,1.2,0.5,1.8-0.1
		c1.9-1.9,3.9-3.8,5.6-5.7c2.9-3.2,4.2-7,4.3-11.3C97.2,57.5,96.1,54.1,94.2,51.3z"/>
	<path class="st2" d="M28.9,55.6c0.3,0.2,0.3,0.5,0.4,0.8c0.4,1.1,0.9,1.5,1.7,1.5c0.8,0,1.3-0.4,1.7-1.5c0.1-0.2,0.2-0.4,0.3-0.6
		c0.6-1.9,1.9-2.9,3.6-3.6c0.3-0.1,0.6-0.3,0.9-0.3c0.8-0.3,1.2-0.8,1.2-1.6c0-0.8-0.4-1.3-1.1-1.5c-0.6-0.3-1.1-0.4-1.9-0.7
		c1.9-1,3.8-1.5,5.8-1.7c4.4-0.3,8.1,1.2,11.3,4.2c0.6,0.6,1.3,0.7,1.9,0.2c0.5-0.5,0.4-1.3-0.2-1.9c-3.1-3-6.9-4.7-11.2-5
		c-3.3-0.2-6.3,0.6-9.1,2.2c-0.3,0.2-0.5,0.2-0.8-0.2c-0.3-0.6-0.6-1.3-0.8-1.9c-0.3-0.8-0.9-1.3-1.7-1.3c-0.8,0-1.3,0.5-1.6,1.3
		c-0.1,0.3-0.3,0.7-0.4,1.1c-0.6,1.5-1.6,2.6-3.1,3.2c-0.4,0.2-0.8,0.3-1.3,0.5c-0.8,0.3-1.2,0.8-1.2,1.6s0.4,1.3,1.2,1.6
		c0.8,0.3,1.4,0.5,2.1,0.9c0.5,0.3,0.5,0.5,0.3,1c-1.1,2.3-1.6,4.6-1.6,7.1h2.4C27.9,59,28.3,57.3,28.9,55.6z M31,46.4
		c0.8,1.8,2.1,3,3.8,3.8c-2.2,1.4-2.2,1.4-3.8,3.8c-1.3-2.2-1.7-2.5-3.8-3.8C29,49.4,30.3,48.3,31,46.4z"/>
	<path class="st2" d="M83.2,80.3c-0.4-0.4-0.9-0.5-1.5-0.2c-0.2,0.1-0.3,0.3-0.5,0.5c-2.3,2.3-4.6,4.6-6.9,6.9
		c-1.3,1.3-2.5,2.5-3.8,3.8c-2.9,2.9-5.7,5.7-8.6,8.6c-0.4,0.4-0.6,0.4-1,0c-0.5-0.6-1.1-1.2-1.7-1.7c-0.3-0.3-0.3-0.5,0-0.8
		c0.1-0.1,0.2-0.2,0.3-0.3c4.3-4.3,8.6-8.6,12.9-12.9c2.4-2.4,1.9-5.8-1.2-7.4c-0.1,0-0.1-0.1-0.2-0.2c2.4-3,2-5.5-1.3-7.7
		c0-0.1,0.1-0.1,0.1-0.2c1.8-2,1.7-4.6-0.1-6.3c-1.9-1.8-4.4-1.6-6.3,0.3c-0.5,0.5-1,1.1-1.5,1.8c-1.3-3.3-4.7-3.9-6.8-2.3
		c-1.1,0.8-2.1,1.9-3.1,2.9C49.4,68,43,74.4,41,76.3c-0.2,0.2-0.3,0.3-0.6,0.6c0-0.7,0-1.2,0-1.7c0-1.9-0.8-3.3-2.4-4.1
		c-1.7-0.8-3.3-0.6-4.7,0.6c-0.3,0.3-0.4,0.3-0.7,0c-3-2.9-4.7-6.8-4.6-10.9h-2.4c0,1.6,0.2,3.2,0.7,4.8c0.9,3.3,2.7,5.9,5.1,8.2
		c0.3,0.3,0.5,0.5,0.5,0.9c0,3.5,0,7.2,0,10.7c0,1.2-0.1,2.3-0.3,3.4c-0.3,1.9-0.4,3.9,0,5.8c1.1,5.7,6.1,10.4,11.8,10.9
		c0.3,0.1,0.5,0,0.8,0.1c0.3,0,0.6-0.1,0.8,0.1h1.6c0.1-0.1,0.2-0.2,0.3-0.2c2.9-0.3,5.5-1.5,7.7-3.5c0.8-0.7,1.5-1.4,2.2-2.2
		c0.4-0.4,0.6-0.4,1,0c0.5,0.6,1.1,1.1,1.7,1.7c1.5,1.4,2.9,1.4,4.3,0c3.6-3.6,7.2-7.2,10.8-10.8c2.9-2.9,5.7-5.7,8.5-8.5
		c0.2-0.2,0.4-0.3,0.5-0.6C83.7,81.3,83.6,80.7,83.2,80.3z M53.3,99.9c-2.8,2.8-6.1,4-10.1,3.4c-5.8-0.8-10.3-6.6-9.5-12.3
		c0.3-2.4,0.6-4.9,0.5-7.3c-0.1-2.8,0-5.6,0-8.4c0-1.3,0.8-2.2,1.9-2.2s1.9,0.8,1.9,2.2c0,1.4,0,2.9,0,4.4c0,0.6,0.2,1.1,0.8,1.3
		c0.6,0.3,1,0.1,1.4-0.3c2.6-2.6,9.5-9.5,13-13c0.1-0.1,0.2-0.2,0.3-0.3c0.9-0.9,1.8-1.8,2.7-2.7c0.6-0.6,1.3-0.8,2.1-0.4
		c0.7,0.3,1.1,0.8,1.2,1.6c0.1,0.8-0.3,1.3-0.8,1.9c-4,3.9-7.8,7.8-11.8,11.8l-0.1,0.1c-0.8,0.8-0.9,1.5-0.3,2.1
		c0.6,0.5,1.3,0.4,2-0.3c2.1-2.1,4.2-4.2,6.3-6.3c3.4-3.4,6.8-6.8,10.2-10.2c0.5-0.5,1.1-0.9,1.9-0.8c0.8,0.1,1.3,0.6,1.6,1.3
		c0.3,0.8,0,1.5-0.6,2.1c-2.9,2.9-5.9,5.9-8.8,8.8c-2.6,2.6-5.2,5.2-7.9,7.9c-0.8,0.8-0.8,1.4-0.3,2c0.6,0.6,1.3,0.4,2-0.3
		c0.1-0.1,0.1-0.1,0.2-0.2c4.1-4.1,8.2-8.2,12.3-12.3c0.5-0.5,1-1,1.5-1.4c0.7-0.6,1.6-0.6,2.4-0.1c0.7,0.5,1,1.3,0.8,2.2
		c-0.2,0.5-0.5,0.8-0.8,1.2c-4.5,4.5-9,9-13.5,13.5c-0.8,0.8-0.8,1.4-0.3,1.9c0.6,0.6,1.3,0.5,2-0.3c1.1-1.1,2.2-2.2,3.3-3.3
		c2.4-2.4,4.9-4.9,7.3-7.3c0.6-0.6,1.3-0.8,2.1-0.6c0.8,0.3,1.2,0.8,1.3,1.5c0.2,0.8-0.3,1.5-0.8,2C64.8,88.5,59,94.2,53.3,99.9z"/>
	<path class="st2" d="M38.4,32.6c2.3,0.7,3.8,2.1,4.4,4.4c0.1,0.3,0.2,0.4,0.3,0.7c0.3,0.6,0.8,0.8,1.4,0.8c0.7,0,1.1-0.3,1.4-0.8
		c0.1-0.2,0.2-0.3,0.2-0.5c0.7-2.4,2.1-4,4.5-4.5c0.2-0.1,0.3-0.2,0.5-0.3c0.6-0.3,0.9-0.8,0.9-1.5c0-0.7-0.3-1.2-0.9-1.4
		c-0.3-0.1-0.4-0.2-0.7-0.3c-2.2-0.6-3.6-2-4.2-4.2c-0.2-0.8-0.6-1.3-1.3-1.7c-0.3,0-0.7,0-1,0c-0.7,0.3-1.1,0.9-1.3,1.7
		c-0.6,2.2-2,3.6-4.2,4.2c-0.3,0.1-0.4,0.2-0.7,0.3c-0.7,0.3-1,0.8-0.9,1.6C37,32,37.6,32.4,38.4,32.6z M44.5,27.1
		c0.8,1.8,2.1,3,3.9,3.9c-1.8,0.8-3,2-3.9,3.9c-0.8-1.8-2-3-3.9-3.9C42.4,30.1,43.6,28.9,44.5,27.1z"/>
	<path class="st2" d="M55.8,41.5c2,0.6,3.3,1.8,3.9,3.9c0.1,0.2,0.1,0.3,0.2,0.5c0.3,0.6,0.8,0.9,1.4,0.9c0.7,0,1.2-0.3,1.4-0.8
		c0.2-0.4,0.3-0.8,0.5-1.3c0.5-1.3,1.4-2.3,2.8-2.8c0.3-0.2,0.8-0.3,1.1-0.4c0.7-0.3,1-0.8,1-1.5c0-0.7-0.3-1.2-1-1.5
		c-0.1-0.1-0.3-0.1-0.3-0.2c-2-0.6-3.3-1.9-3.9-3.8c-0.1-0.2-0.2-0.4-0.3-0.6c-0.3-0.6-0.8-0.8-1.3-0.8c-0.6,0-1.2,0.3-1.4,0.8
		c-0.1,0.3-0.2,0.5-0.3,0.8c-0.6,1.8-1.7,3-3.5,3.5c-0.3,0.1-0.5,0.2-0.8,0.3c-0.6,0.3-0.8,0.8-0.9,1.4
		C54.5,40.7,54.8,41.2,55.8,41.5z M61.3,36.8c0.7,1.3,1.7,2.4,3,3c-1.3,0.8-2.4,1.7-3,3.1c-0.7-1.4-1.7-2.4-3-3.1
		C59.7,39.2,60.6,38.2,61.3,36.8z"/>
</g>
<g class="st6">
	<polyline class="st7" points="15.4,-156.8 72.6,-164.9 -45,-101.1 177.5,-132.3 -41,-54.4 171.5,-84.2 -71.7,-2.8 135.4,-31.9 
		-12.9,36.2 115.3,18.2 -26,85.3 171.6,57.5 -25.5,132.5 150.5,107.8 -6.4,177.1 182.8,150.5 -8.3,224.6 167.3,199.9 -52.1,278 
		147.3,250 -1.5,318.1 154.9,296.2 	"/>
</g>
</svg>
