<?xml version="1.0" encoding="utf-8"?>
<!-- Generator: Adobe Illustrator 24.0.0, SVG Export Plug-In . SVG Version: 6.00 Build 0)  -->
<svg version="1.1" id="Layer_1" xmlns="http://www.w3.org/2000/svg" xmlns:xlink="http://www.w3.org/1999/xlink" x="0px" y="0px"
	 viewBox="0 0 120 160" style="enable-background:new 0 0 120 160;" xml:space="preserve">
<style type="text/css">
	.st0{opacity:0.1;fill:#F26522;enable-background:new    ;}
	.st1{fill:none;}
	.st2{opacity:5.000000e-02;}
	.st3{fill:none;stroke:#222222;stroke-width:25.2;stroke-linecap:round;stroke-linejoin:round;}
	.st4{fill:#CBCBCB;}
	.st5{fill:#222222;}
	.st6{fill:#FEFEFE;}
	.st7{enable-background:new    ;}
	.st8{fill:#F26522;}
	
		.st9{opacity:0.35;fill:none;stroke:#F26522;stroke-width:25.2;stroke-linecap:round;stroke-linejoin:round;stroke-miterlimit:10;enable-background:new    ;}
</style>
<rect x="-48" y="-65.1" class="st0" width="216" height="288"/>
<path class="st1" d="M81.3,35.4c-1,2-2.3,3.4-4.4,4.4c2.1,1,3.4,2.4,4.4,4.4c1-2.1,2.4-3.4,4.4-4.4C83.6,38.8,82.2,37.3,81.3,35.4z"
	/>
<g class="st2">
	<polyline class="st3" points="-123.4,-90.7 -76.8,-115 -157.2,-18.8 24.1,-113.5 -138.5,25.6 34.7,-64.8 -148,84.9 20.7,-3.2 
		-84.7,106 19.8,51.5 -79.9,157.8 81.1,73.7 -64.1,203.8 79.4,128.9 -33,241.8 121.1,161.3 -19.1,288.8 124,214.1 -39.4,353.6 
		123.1,268.8 17.3,378.2 144.7,311.7 	"/>
</g>
<path class="st4" d="M770.8,229.8c0.2,0,0.3,0,0.5,0c0,6.9,0,13.8,0,20.7c-0.2,0-0.4-0.1-0.7-0.1c-0.7-0.9-0.7-1.9-0.7-2.9
	c0-4.9,0-9.7,0-14.6C770,231.8,769.9,230.6,770.8,229.8z"/>
<path class="st5" d="M530.9,528.7c-4.3,0-8.5-0.4-12.8,0.2c7.8,0,15.5,0,23.3,0C537.9,528.4,534.4,528.7,530.9,528.7z"/>
<path class="st5" d="M539.7,528.4c-6.7,0-13.3,0-20,0c-0.6,0-1.2-0.1-1.6,0.5c4.2-0.6,8.5-0.2,12.8-0.2c3.5,0,7-0.4,10.5,0.2
	C541,528.3,540.3,528.4,539.7,528.4z"/>
<path class="st6" d="M55.7,43.1c-0.4,0-0.3,0.2-0.2,0.4c0.5,0.9,1,1.7,1.4,2.6c1,1.9,2.2,3.9,3.3,5.9c1.6-2.9,3.2-5.8,4.8-8.7
	C61.9,43.2,58.8,43.2,55.7,43.1z"/>
<g class="st7">
	<path class="st5" d="M15,124h2.3v10.4H15V124z"/>
	<path class="st5" d="M19.4,124H22l3.8,6.4h0.1l-0.1-2V124H28v10.4h-2.4l-4-6.8h-0.1l0.1,2v4.8h-2.2V124z"/>
	<path class="st5" d="M30.1,124h2.6l3.8,6.4h0.1l-0.1-2V124h2.2v10.4h-2.4l-4-6.8h-0.1l0.1,2v4.8h-2.2V124z"/>
	<path class="st5" d="M45.6,134.6c-0.8,0-1.5-0.1-2.2-0.4s-1.2-0.7-1.7-1.2c-0.5-0.5-0.9-1.1-1.1-1.7c-0.3-0.7-0.4-1.4-0.4-2.1
		s0.1-1.5,0.4-2.1c0.3-0.7,0.7-1.2,1.1-1.7c0.5-0.5,1.1-0.9,1.7-1.2c0.7-0.3,1.4-0.4,2.2-0.4s1.5,0.1,2.2,0.4
		c0.7,0.3,1.2,0.7,1.7,1.2c0.5,0.5,0.9,1.1,1.1,1.7c0.3,0.7,0.4,1.4,0.4,2.1s-0.1,1.5-0.4,2.1c-0.3,0.7-0.7,1.2-1.1,1.7
		c-0.5,0.5-1.1,0.9-1.7,1.2S46.4,134.6,45.6,134.6z M45.6,132.5c0.4,0,0.9-0.1,1.3-0.2c0.4-0.2,0.7-0.4,1-0.7c0.3-0.3,0.5-0.6,0.7-1
		s0.2-0.9,0.2-1.3c0-0.5-0.1-0.9-0.2-1.3s-0.4-0.8-0.7-1c-0.3-0.3-0.6-0.5-1-0.7c-0.4-0.2-0.8-0.2-1.3-0.2c-0.5,0-0.9,0.1-1.3,0.2
		c-0.4,0.2-0.7,0.4-1,0.7s-0.5,0.6-0.7,1c-0.2,0.4-0.2,0.9-0.2,1.3c0,0.5,0.1,0.9,0.2,1.3c0.2,0.4,0.4,0.7,0.7,1s0.6,0.5,1,0.7
		C44.7,132.4,45.1,132.5,45.6,132.5z"/>
	<path class="st5" d="M51.4,124h2.4l2,5.7l0.4,1.5h0.1l0.4-1.5l2.1-5.7h2.4l-3.8,10.4h-2.4L51.4,124z"/>
	<path class="st5" d="M64.5,124h2.6l3.9,10.4h-2.5l-0.8-2.3h-3.8l-0.8,2.3h-2.5L64.5,124z M67,130l-0.8-2.2l-0.3-1.3h-0.1l-0.3,1.3
		l-0.8,2.2H67z"/>
	<path class="st5" d="M73.5,134.4v-8.3h-2.9V124h8.1v2.2h-2.9v8.3H73.5z"/>
	<path class="st5" d="M80.1,124h2.3v10.4h-2.3V124z"/>
	<path class="st5" d="M89.3,134.6c-0.8,0-1.5-0.1-2.2-0.4c-0.7-0.3-1.3-0.7-1.7-1.2c-0.5-0.5-0.9-1.1-1.1-1.7
		c-0.3-0.7-0.4-1.4-0.4-2.1s0.1-1.5,0.4-2.1c0.3-0.7,0.7-1.2,1.1-1.7c0.5-0.5,1.1-0.9,1.7-1.2c0.7-0.3,1.4-0.4,2.2-0.4
		c0.8,0,1.5,0.1,2.2,0.4c0.7,0.3,1.2,0.7,1.7,1.2c0.5,0.5,0.9,1.1,1.1,1.7c0.3,0.7,0.4,1.4,0.4,2.1s-0.1,1.5-0.4,2.1
		c-0.3,0.7-0.7,1.2-1.1,1.7c-0.5,0.5-1.1,0.9-1.7,1.2C90.8,134.5,90.1,134.6,89.3,134.6z M89.3,132.5c0.4,0,0.9-0.1,1.3-0.2
		c0.4-0.2,0.7-0.4,1-0.7s0.5-0.6,0.7-1s0.2-0.9,0.2-1.3c0-0.5-0.1-0.9-0.2-1.3s-0.4-0.8-0.7-1s-0.6-0.5-1-0.7
		c-0.4-0.2-0.8-0.2-1.3-0.2c-0.5,0-0.9,0.1-1.3,0.2s-0.7,0.4-1,0.7s-0.5,0.6-0.7,1s-0.2,0.9-0.2,1.3c0,0.5,0.1,0.9,0.2,1.3
		s0.4,0.7,0.7,1s0.6,0.5,1,0.7S88.8,132.5,89.3,132.5z"/>
	<path class="st5" d="M96.3,124H99l3.8,6.4h0.1l-0.1-2V124h2.2v10.4h-2.4l-4-6.8h-0.1l0.1,2v4.8h-2.2V124z"/>
</g>
<g>
	<path class="st6" d="M63.5,100.2c-1,0-2,0-3,0c-1.1,0-2,0-3.1,0c-0.2,0-0.4,0.1-0.3,0.3c0,0.5,0,1,0,1.4c0,0.8,0.6,1.4,1.3,1.4
		c1.4,0,2.7,0,4.1,0c0.8,0,1.3-0.6,1.3-1.4c0-0.5,0-1,0-1.5C63.9,100.3,63.7,100.2,63.5,100.2z"/>
	<g>
		<path class="st6" d="M66,91.2c-2,0-4,0-6.1,0c-2,0-4,0-6.1,0c-0.2,0-0.3,0.1-0.3,0.3c0,1.1,0,2.2,0,3.3c0,1.7,1.4,3.2,3.2,3.2
			c2.2,0.1,4.4,0.1,6.5,0c1.7-0.1,3.1-1.4,3.2-3.1c0.1-1.1,0-2.3,0.1-3.4C66.3,91.3,66.2,91.2,66,91.2z"/>
		<g>
			<path class="st5" d="M25.2,61.8c-1.3,0-2.7,0-4,0c-0.3,0-0.4-0.1-0.4-0.4c0-0.9,0-1.8,0-2.7c0-0.2,0-0.3,0.3-0.3
				c2.7,0,5.4,0,8.1,0c0.2,0,0.3,0.1,0.3,0.3c0,0.9,0,1.9,0,2.7c0,0.2-0.1,0.3-0.3,0.3C27.8,61.8,26.5,61.8,25.2,61.8z"/>
			<path class="st5" d="M99.1,58.5c0,1.1,0,2.2,0,3.3c-2.7,0-5.5,0-8.2,0c-0.4,0-0.5-0.1-0.4-0.5c0-0.9,0-1.8,0-2.6
				c0-0.2,0-0.3,0.2-0.3C93.6,58.4,96.3,58.4,99.1,58.5C99.1,58.5,99.1,58.5,99.1,58.5z"/>
			<path class="st5" d="M40.6,40.1c-0.1,0.1-0.1,0.1-0.2,0.2c-0.6,0.6-1.4,1.4-2,2c-0.2,0.2-0.2,0.1-0.3,0c-1.9-1.9-3.8-3.9-5.7-5.7
				c-0.2-0.2-0.2-0.2,0-0.4c0.6-0.6,1.3-1.3,1.9-1.9c0.2-0.2,0.2-0.2,0.4,0c1.9,1.9,3.8,3.9,5.7,5.7C40.5,40,40.5,40,40.6,40.1z"/>
			<path class="st5" d="M81.8,42.5c-0.1-0.1-0.2-0.2-0.2-0.2c-0.6-0.6-1.3-1.3-1.9-1.9c-0.2-0.2-0.2-0.2,0-0.4
				c1.9-1.9,3.9-3.8,5.7-5.7c0.2-0.2,0.2-0.2,0.4,0c0.6,0.6,1.3,1.3,1.9,1.9c0.2,0.2,0.2,0.2,0,0.4c-1.9,1.9-3.9,3.9-5.7,5.7
				C81.9,42.3,81.9,42.4,81.8,42.5z"/>
			<path class="st5" d="M61.7,29.4c0,1.3,0,2.6,0,3.9c0,0.3,0,0.4-0.4,0.4c-0.9,0-1.8,0-2.7,0c-0.2,0-0.3-0.1-0.3-0.3
				c0-2.7,0-5.3,0-8c0-0.2,0-0.3,0.3-0.3c0.9,0,1.9,0,2.7,0c0.2,0,0.3,0.1,0.3,0.3C61.7,26.7,61.7,28.1,61.7,29.4z"/>
			<path class="st6" d="M62.5,47.6c-4.9-0.5-9.2,0.6-13.1,3.6c-5.3,4-7.8,9.5-7.3,16.1c0.3,3.5,1.6,6.5,3.7,9.3
				c2.1,2.7,4.7,4.5,7.8,5.7c0.2,0.1,0.3,0.2,0.3,0.5c0,1.3,0,2.6,0,3.9c0,0.2,0,0.3,0.3,0.3c1.5,0,2.8,0,4.3,0
				c0.2,0,0.3-0.1,0.3-0.3c0-2.7,0-5.4,0-8.2c0-0.1,0.1-0.2-0.1-0.3c-0.6-0.6-1-1.4-1.4-2.1c-1.2-2.1-2.4-4.3-3.6-6.4
				c-0.3-0.5-0.4-1.1-0.2-1.6c0.2-1,1.2-1.7,2.3-1.7c1.5,0,2.9,0,4.4,0c1.5,0,2.9,0,4.4,0c1.8,0,3.1,1.7,2.1,3.4
				c-1.5,2.4-2.7,4.9-4.1,7.4c-0.2,0.3-0.4,0.7-0.7,1C62,78.1,62,78.2,62,78.4c0,2.7,0,5.5,0,8.2c0,0.2,0.1,0.2,0.3,0.2
				c1.5,0,2.8,0,4.3,0c0.2,0,0.3-0.1,0.3-0.3c0-1.1,0-2.3,0-3.5c0-0.7,0-0.7,0.7-1.1c8.4-3.5,12.9-12.2,10.9-20.9
				C76.7,53.9,70.3,48.4,62.5,47.6z"/>
			<path class="st8" d="M82,54.9c-4.4-11.6-17.3-17.7-29-13.8c-10.7,3.6-17.2,14.2-15.5,25.4c1.2,7.8,5.4,13.4,12.3,17.1
				c0.3,0.2,0.4,0.3,0.4,0.6c0,3.2-0.1,6.5,0,9.7c0.1,2.7,1.4,4.7,3.8,6c0.2,0.1,0.3,0.2,0.2,0.5c0,0.6,0,1.2,0,1.9
				c0.1,1.9,1.2,3.6,3.1,4.1c0.2,0.1,0.4,0,0.6,0.2c0.2,0,0.3,0,0.5,0c0.1-0.1,0.2-0.1,0.2-0.1c1.1,0,2.2,0,3.2,0
				c0.1,0,0.2,0,0.2,0.1c0.1,0,0.2,0,0.3,0l0.1-0.1c1.9-0.2,3.3-1.5,3.7-3.4c0.2-0.9,0.1-1.9,0.1-2.7c0-0.2,0.1-0.4,0.3-0.6
				c2.3-1.3,3.7-3.3,3.8-6c0.1-3.2,0-6.5,0-9.7c0-0.4,0.1-0.6,0.5-0.7C81.4,78.3,86.2,65.9,82,54.9z M63.1,102.3
				c0,0.6-0.4,1.1-1.1,1.1c-1.1,0-2.3,0-3.4,0c-0.6,0-1.1-0.5-1.1-1.1c0-0.4,0-0.8,0-1.2c0-0.2,0.1-0.3,0.3-0.3c0.8,0,1.7,0,2.5,0
				c0.8,0,1.7,0,2.5,0c0.2,0,0.3,0.1,0.2,0.2C63.1,101.5,63.1,101.9,63.1,102.3z M67.2,94.1c-0.1,1.8-1.6,3.3-3.4,3.4
				c-2.3,0.1-4.7,0.1-7,0c-1.9-0.1-3.3-1.7-3.3-3.6c0-1.2,0-2.4,0-3.6c0-0.2,0.1-0.3,0.3-0.3c2.2,0,4.4,0,6.5,0c2.2,0,4.4,0,6.5,0
				c0.3,0,0.4,0.1,0.4,0.4C67.2,91.6,67.2,92.8,67.2,94.1z M60.3,73.7c-0.8-1.5-1.6-2.9-2.3-4.3c-0.3-0.6-0.6-1.2-1.1-1.9
				c-0.1-0.2-0.2-0.2,0.1-0.2c2.2,0,4.4,0,6.7,0C62.6,69.4,61.5,71.5,60.3,73.7z M67.9,81.3c-0.8,0.3-0.8,0.3-0.8,1.1
				c0,1.3,0,2.5,0,3.8c0,0.2-0.1,0.3-0.3,0.3c-1.5,0-3.1,0-4.6,0c-0.2,0-0.3-0.1-0.3-0.3c0-3,0-6.1,0-9.1c0-0.1,0-0.2,0.1-0.3
				c0.3-0.2,0.6-0.6,0.8-1.1c1.5-2.7,2.9-5.5,4.4-8.2c1.1-1.9-0.3-3.8-2.3-3.8c-1.6,0-3.2,0-4.8,0s-3.2,0-4.8,0
				c-1.2,0-2.2,0.7-2.5,1.9c-0.2,0.6,0,1.2,0.2,1.8c1.3,2.3,2.6,4.7,3.9,7c0.5,0.8,0.7,1.7,1.5,2.3c0.1,0.1,0.1,0.2,0.1,0.3
				c0,3,0,6,0,9c0,0.2-0.1,0.3-0.3,0.3c-1.5,0-3.1,0-4.6,0c-0.3,0-0.3-0.1-0.3-0.3c0-1.5,0-2.8,0-4.3c0-0.3-0.1-0.4-0.3-0.5
				c-3.4-1.4-6.2-3.4-8.5-6.3c-2.3-3-3.7-6.4-4-10.2c-0.6-7.3,2-13.3,7.8-17.8c4.1-3.2,8.9-4.4,14.1-4c8.2,0.9,15.3,7,17.2,15
				C81.9,67.9,77,77.5,67.9,81.3z"/>
		</g>
	</g>
</g>
<path class="st9" d="M77.6-32.7c11.3-5.5,23.4-7.8,35.6-6.3c44.3,5.5,74.1,59.5,66.5,120.5c-1.4,11.5-4.1,22.5-7.8,32.6"/>
</svg>
