<?xml version="1.0" encoding="utf-8"?>
<!-- Generator: Adobe Illustrator 24.0.0, SVG Export Plug-In . SVG Version: 6.00 Build 0)  -->
<svg version="1.1" id="Layer_1" xmlns="http://www.w3.org/2000/svg" xmlns:xlink="http://www.w3.org/1999/xlink" x="0px" y="0px"
	 viewBox="0 0 216 288" style="enable-background:new 0 0 216 288;" xml:space="preserve">
<style type="text/css">
	.st0{opacity:0.1;fill:#F26522;}
	.st1{fill:none;}
	.st2{opacity:5.000000e-02;}
	.st3{fill:none;stroke:#222222;stroke-width:25.2;stroke-linecap:round;stroke-linejoin:round;}
	.st4{fill:#CBCBCB;}
	.st5{fill:#222222;}
	.st6{fill:#FEFEFE;}
	.st7{font-family:'ProductSans-Black';}
	.st8{font-size:18px;}
	.st9{fill:#F26522;}
	.st10{opacity:0.35;fill:none;stroke:#F26522;stroke-width:25.2;stroke-linecap:round;stroke-linejoin:round;stroke-miterlimit:10;}
</style>
<rect x="0" y="-1.1" class="st0" width="216" height="288"/>
<path class="st1" d="M130.4,96.9c-1,2.1-2.4,3.6-4.6,4.6c2.2,1,3.6,2.5,4.6,4.6c1-2.2,2.5-3.6,4.6-4.6
	C132.8,100.5,131.4,99,130.4,96.9z"/>
<path class="st1" d="M69.9,92.4c1.9-2.8,1.9-2.8,4.5-4.5c-2-1-3.5-2.4-4.5-4.5c-1,2.1-2.5,3.6-4.5,4.6
	C67.9,89.4,68.2,89.7,69.9,92.4z"/>
<path class="st1" d="M85.9,69.5c1-2.2,2.5-3.6,4.6-4.6c-2.1-1-3.6-2.5-4.6-4.6c-1,2.2-2.5,3.6-4.6,4.6
	C83.4,65.9,84.9,67.4,85.9,69.5z"/>
<path class="st1" d="M105.9,79.3c0.8-1.7,2-2.8,3.6-3.7c-1.7-0.9-2.8-2-3.6-3.6c-0.8,1.6-2,2.8-3.6,3.6
	C103.9,76.5,105,77.6,105.9,79.3z"/>
<g class="st2">
	<polyline class="st3" points="-75.4,-26.7 -28.8,-51 -109.2,45.2 72.1,-49.5 -90.5,89.6 82.7,-0.8 -100,148.9 68.7,60.8 -36.7,170 
		67.8,115.5 -31.9,221.8 129.1,137.7 -16.1,267.8 127.4,192.9 15,305.8 169.1,225.3 28.9,352.8 172,278.1 8.6,417.6 171.1,332.8 
		65.3,442.2 192.7,375.7 	"/>
</g>
<path class="st4" d="M818.8,293.8c0.2,0,0.3,0,0.5,0c0,6.9,0,13.8,0,20.7c-0.2,0-0.4-0.1-0.7-0.1c-0.7-0.9-0.7-1.9-0.7-2.9
	c0-4.9,0-9.7,0-14.6C818,295.8,817.9,294.6,818.8,293.8z"/>
<path class="st5" d="M578.9,592.7c-4.3,0-8.5-0.4-12.8,0.2c7.8,0,15.5,0,23.3,0C585.9,592.4,582.4,592.7,578.9,592.7z"/>
<path class="st5" d="M587.7,592.4c-6.7,0-13.3,0-20,0c-0.6,0-1.2-0.1-1.6,0.5c4.2-0.6,8.5-0.2,12.8-0.2c3.5,0,7-0.4,10.5,0.2
	C589,592.3,588.3,592.4,587.7,592.4z"/>
<path class="st6" d="M103.5,105.1c-0.4,0-0.3,0.2-0.2,0.4c0.5,0.9,1,1.8,1.5,2.7c1.1,2,2.3,4.1,3.5,6.2c1.7-3.1,3.4-6.1,5.1-9.2
	C110,105.2,106.7,105.2,103.5,105.1z"/>
<g>
	<text transform="matrix(1 0 0 1 51.0473 207.7993)" class="st5 st7 st8">innovation</text>
	<g>
		<path class="st6" d="M112.3,165.5c-1.2,0-2.5,0-3.7,0c-1.3,0-2.5,0-3.8,0c-0.3,0-0.5,0.1-0.4,0.4c0,0.6,0,1.2,0,1.7
			c0,1,0.7,1.7,1.6,1.7c1.7,0,3.4,0,5.1,0c1,0,1.6-0.7,1.6-1.7c0-0.6,0-1.2,0-1.8C112.8,165.6,112.6,165.5,112.3,165.5z"/>
		<g>
			<path class="st6" d="M115.4,154.4c-2.5,0-5,0-7.5,0c-2.5,0-5,0-7.5,0c-0.3,0-0.4,0.1-0.4,0.4c0,1.4,0,2.7,0,4.1
				c0,2.1,1.7,3.9,3.9,4c2.7,0.1,5.4,0.1,8,0c2.1-0.1,3.8-1.7,3.9-3.8c0.1-1.4,0-2.8,0.1-4.2C115.8,154.5,115.7,154.4,115.4,154.4z"
				/>
			<g>
				<path class="st5" d="M64.9,118c-1.6,0-3.3,0-4.9,0c-0.4,0-0.5-0.1-0.5-0.5c0-1.1,0-2.2,0-3.3c0-0.3,0-0.4,0.4-0.4
					c3.3,0,6.7,0,10,0c0.3,0,0.4,0.1,0.4,0.4c0,1.1,0,2.3,0,3.4c0,0.3-0.1,0.4-0.4,0.4C68.2,118,66.6,118,64.9,118z"/>
				<path class="st5" d="M156.4,113.9c0,1.4,0,2.7,0,4.1c-3.4,0-6.8,0-10.1,0c-0.5,0-0.6-0.1-0.5-0.6c0-1.1,0-2.2,0-3.2
					c0-0.3,0-0.4,0.3-0.4c3.4,0,6.8,0,10.3,0C156.3,113.9,156.4,113.9,156.4,113.9z"/>
				<path class="st5" d="M84,91.2c-0.1,0.1-0.1,0.1-0.2,0.2c-0.8,0.8-1.7,1.7-2.5,2.5c-0.2,0.2-0.3,0.1-0.4,0
					c-2.4-2.4-4.7-4.8-7.1-7.1c-0.2-0.2-0.2-0.3,0-0.5c0.8-0.8,1.6-1.6,2.4-2.4c0.2-0.2,0.3-0.2,0.5,0c2.4,2.4,4.7,4.8,7.1,7.1
					C83.9,91,83.9,91.1,84,91.2z"/>
				<path class="st5" d="M135,94.1c-0.1-0.1-0.2-0.2-0.2-0.2c-0.8-0.8-1.6-1.6-2.4-2.4c-0.2-0.2-0.2-0.3,0-0.5
					c2.4-2.4,4.8-4.7,7.1-7.1c0.2-0.2,0.3-0.2,0.5,0c0.8,0.8,1.6,1.6,2.4,2.4c0.2,0.2,0.2,0.3,0,0.5c-2.4,2.4-4.8,4.8-7.1,7.1
					C135.1,93.9,135.1,94,135,94.1z"/>
				<path class="st5" d="M110.1,78c0,1.6,0,3.2,0,4.8c0,0.4,0,0.5-0.5,0.5c-1.1,0-2.2,0-3.3,0c-0.3,0-0.4-0.1-0.4-0.4
					c0-3.3,0-6.6,0-9.9c0-0.3,0-0.4,0.4-0.4c1.1,0,2.3,0,3.4,0c0.3,0,0.4,0.1,0.4,0.4C110.1,74.6,110.1,76.3,110.1,78z"/>
				<path class="st6" d="M111.1,100.4c-6-0.6-11.4,0.8-16.2,4.4c-6.6,5-9.7,11.7-9,19.9c0.4,4.3,2,8.1,4.6,11.5
					c2.6,3.3,5.8,5.6,9.7,7.1c0.3,0.1,0.4,0.3,0.4,0.6c0,1.6,0,3.2,0,4.8c0,0.3,0,0.4,0.4,0.4c1.8,0,3.5,0,5.3,0
					c0.3,0,0.4-0.1,0.4-0.4c0-3.4,0-6.7,0-10.1c0-0.1,0.1-0.3-0.1-0.4c-0.8-0.7-1.2-1.7-1.7-2.6c-1.5-2.6-3-5.3-4.5-7.9
					c-0.4-0.6-0.5-1.3-0.3-2c0.3-1.2,1.5-2.1,2.9-2.1c1.8,0,3.6,0,5.5,0c1.8,0,3.6,0,5.5,0c2.2,0,3.8,2.1,2.6,4.2
					c-1.8,3-3.4,6.1-5.1,9.1c-0.2,0.4-0.5,0.9-0.9,1.2c-0.1,0.1-0.1,0.2-0.1,0.4c0,3.4,0,6.8,0,10.2c0,0.3,0.1,0.3,0.4,0.3
					c1.8,0,3.5,0,5.3,0c0.3,0,0.4-0.1,0.4-0.4c0-1.4,0-2.8,0-4.3c0-0.9,0-0.9,0.9-1.3c10.4-4.3,16-15.1,13.5-25.8
					C128.7,108.3,120.7,101.4,111.1,100.4z"/>
				<path class="st9" d="M135.2,109.5c-5.5-14.4-21.4-21.9-35.9-17.1C86.1,96.8,78,110,80.1,123.8c1.5,9.6,6.7,16.6,15.2,21.2
					c0.4,0.2,0.5,0.4,0.5,0.8c0,4-0.1,8,0,12c0.1,3.4,1.7,5.8,4.7,7.4c0.3,0.1,0.4,0.3,0.3,0.6c0,0.8,0,1.5,0,2.3
					c0.1,2.4,1.5,4.4,3.8,5.1c0.2,0.1,0.5,0,0.7,0.3c0.2,0,0.4,0,0.6,0c0.1-0.1,0.2-0.1,0.3-0.1c1.3,0,2.7,0,4,0
					c0.1,0,0.2,0,0.3,0.1c0.1,0,0.3,0,0.4,0c0,0,0.1-0.1,0.1-0.1c2.3-0.3,4.1-1.9,4.6-4.2c0.3-1.1,0.1-2.3,0.1-3.4
					c0-0.3,0.1-0.5,0.4-0.7c2.9-1.6,4.6-4.1,4.7-7.4c0.1-4,0-8,0-12c0-0.5,0.1-0.7,0.6-0.9C134.5,138.4,140.4,123.1,135.2,109.5z
					 M111.8,168.1c0,0.8-0.5,1.4-1.3,1.4c-1.4,0-2.8,0-4.2,0c-0.8,0-1.3-0.6-1.4-1.4c0-0.5,0-1,0-1.5c0-0.3,0.1-0.4,0.4-0.4
					c1,0,2.1,0,3.1,0c1,0,2.1,0,3.1,0c0.3,0,0.4,0.1,0.3,0.3C111.8,167.1,111.8,167.6,111.8,168.1z M116.9,158
					c-0.1,2.2-2,4.1-4.2,4.2c-2.9,0.1-5.8,0.1-8.6,0c-2.3-0.1-4.1-2.1-4.1-4.4c0-1.5,0-3,0-4.5c0-0.3,0.1-0.4,0.4-0.4
					c2.7,0,5.4,0,8.1,0c2.7,0,5.4,0,8.1,0c0.4,0,0.5,0.1,0.5,0.5C116.9,154.9,116.9,156.4,116.9,158z M108.3,132.7
					c-1-1.8-2-3.6-2.9-5.3c-0.4-0.8-0.8-1.5-1.3-2.3c-0.1-0.2-0.2-0.3,0.1-0.3c2.7,0,5.5,0,8.3,0C111.2,127.4,109.8,130,108.3,132.7
					z M117.8,142.2c-1,0.4-1,0.4-1,1.4c0,1.6,0,3.1,0,4.7c0,0.3-0.1,0.4-0.4,0.4c-1.9,0-3.8,0-5.7,0c-0.3,0-0.4-0.1-0.4-0.4
					c0-3.7,0-7.5,0-11.2c0-0.1,0-0.3,0.1-0.4c0.4-0.3,0.7-0.8,1-1.3c1.8-3.4,3.6-6.8,5.5-10.1c1.3-2.3-0.4-4.7-2.8-4.7
					c-2,0-3.9,0-5.9,0c-2,0-3.9,0-5.9,0c-1.5,0-2.7,0.9-3.1,2.3c-0.2,0.8,0,1.5,0.3,2.2c1.6,2.9,3.2,5.8,4.8,8.7
					c0.6,1,0.9,2.1,1.8,2.9c0.1,0.1,0.1,0.3,0.1,0.4c0,3.7,0,7.4,0,11.1c0,0.3-0.1,0.4-0.4,0.4c-1.9,0-3.8,0-5.7,0
					c-0.4,0-0.4-0.1-0.4-0.4c0-1.8,0-3.5,0-5.3c0-0.4-0.1-0.5-0.4-0.6c-4.2-1.7-7.7-4.2-10.5-7.8c-2.9-3.7-4.6-7.9-5-12.6
					c-0.7-9,2.5-16.4,9.6-22c5.1-4,11-5.5,17.4-4.9c10.2,1.1,18.9,8.7,21.3,18.6C135.1,125.6,129,137.5,117.8,142.2z"/>
			</g>
		</g>
	</g>
</g>
<path class="st10" d="M125.6,31.3c11.3-5.5,23.4-7.8,35.6-6.3c44.3,5.5,74.1,59.5,66.5,120.5c-1.4,11.5-4.1,22.5-7.8,32.6"/>
</svg>
