<?xml version="1.0" encoding="utf-8"?>
<!-- Generator: Adobe Illustrator 24.0.0, SVG Export Plug-In . SVG Version: 6.00 Build 0)  -->
<svg version="1.1" id="Layer_1" xmlns="http://www.w3.org/2000/svg" xmlns:xlink="http://www.w3.org/1999/xlink" x="0px" y="0px"
	 viewBox="0 0 144 216" style="enable-background:new 0 0 144 216;" xml:space="preserve">
<style type="text/css">
	.st0{fill:#222222;}
	.st1{fill:#FFFFFF;}
	.st2{fill:#333333;}
	.st3{fill:#444444;}
</style>
<g>
	<rect x="-4" class="st0" width="152.1" height="216"/>
</g>
<path class="st1" d="M-106.4,186.1h6.4v6.4c0,0.3,0.2,0.5,0.5,0.5h4.6c0.3,0,0.5-0.2,0.5-0.5v-6.4h6.4c0.3,0,0.5-0.2,0.5-0.5V181
	c0-0.3-0.2-0.5-0.5-0.5h-6.4v-6.4c0-0.3-0.2-0.5-0.5-0.5h-4.6c-0.3,0-0.5,0.2-0.5,0.5v6.4h-6.4c-0.3,0-0.5,0.2-0.5,0.5v4.6
	C-106.9,185.9-106.7,186.1-106.4,186.1z M-105.9,181.5h6.4c0.3,0,0.5-0.2,0.5-0.5v-6.4h3.6v6.4c0,0.3,0.2,0.5,0.5,0.5h6.4v3.6h-6.4
	c-0.3,0-0.5,0.2-0.5,0.5v6.4H-99v-6.4c0-0.3-0.2-0.5-0.5-0.5h-6.4V181.5z"/>
<path class="st1" d="M-103.1,219.8l7.1,7c0.1,0.1,0.2,0.1,0.4,0.1s0.3-0.1,0.4-0.1l7.2-7.2c1.7-1.1,2.8-3,2.8-5.1c0-3.3-2.7-6-6-6
	c-1.7,0-3.2,0.7-4.4,1.9c-1.1-1.2-2.7-1.9-4.4-1.9c-3.3,0-6,2.7-6,6C-106.2,216.7-105,218.7-103.1,219.8z M-100.1,209.6
	c1.6,0,3,0.7,4,2c0.2,0.2,0.6,0.2,0.8,0c1-1.2,2.4-2,4-2c2.8,0,5,2.3,5,5c0,1.7-0.9,3.3-2.4,4.3c0,0-0.1,0-0.1,0.1l-6.9,6.9
	l-6.7-6.7l-0.1-0.1c-1.6-0.9-2.6-2.6-2.6-4.4C-105.2,211.8-102.9,209.6-100.1,209.6z"/>
<rect x="-13.5" y="116.6" class="st2" width="171.1" height="171.1"/>
<path class="st1" d="M27.1,185.2c-0.4,0-0.7,0.1-1,0.3c-0.2-0.7-0.9-1.2-1.7-1.2c-0.4,0-0.8,0.2-1.1,0.4c-0.3-0.5-0.9-0.9-1.5-0.9
	c-0.5,0-0.9,0.2-1.2,0.5c-0.1,0.1-0.2,0.2-0.3,0.4c-0.3-0.3-0.7-0.4-1.1-0.4c-0.5,0-0.9,0.2-1.2,0.5c-0.3,0.3-0.5,0.8-0.5,1.2v1.2
	c-0.2,0.1-0.4,0.2-0.5,0.4c-0.2,0.2-0.3,0.3-0.4,0.6l-1.4,2.5c-0.5,1-0.4,2.1,0.4,2.9l3.3,3.6v4.4c0,0.2,0.2,0.4,0.4,0.4
	s0.4-0.2,0.4-0.4v-4.6c0-0.1,0-0.2-0.1-0.3l-3.4-3.7l0,0c-0.5-0.5-0.6-1.3-0.2-1.9l1.4-2.5c0.3-0.5,0.9-0.8,1.4-0.7l3.3,0.6
	c0.4,0.1,0.6,0.4,0.6,0.8c-0.1,0.4-0.4,0.6-0.8,0.6l-1.9-0.2c-0.2,0-0.3,0.1-0.4,0.2l-0.7,1c-0.1,0.1-0.1,0.3,0,0.4
	c0.1,0.1,0.2,0.2,0.3,0.3c0,0,1,0.1,2.1,0.5s2.3,1,2.7,1.7c0.1,0.2,0.2,0.3,0.4,0.3c0.2,0,0.3-0.1,0.4-0.2c0.1-0.2,0.1-0.3,0-0.5
	c-0.6-1.1-2-1.7-3.2-2.1c-0.8-0.3-1.2-0.3-1.6-0.4l0.2-0.3l1.7,0.2c0.7,0.1,1.3-0.3,1.5-0.9c0.3,0.3,0.8,0.5,1.3,0.5
	c0.4,0,0.8-0.2,1.1-0.4c0.3,0.5,0.9,0.9,1.5,0.9c0.9,0,1.7-0.7,1.7-1.6c0,0,0,0.1,0,0.1l0,4.1c0,1.2-0.7,2.3-1.8,2.8l-1.7,0.8
	c-0.2,0.1-0.3,0.4-0.2,0.6c0.1,0.2,0.4,0.3,0.6,0.2l1.4-0.7l0,4.4c0,0.2,0.2,0.4,0.4,0.4c0.2,0,0.4-0.2,0.4-0.4l0-4.8
	c1.1-0.7,1.8-2,1.8-3.3l0-4.1c0-1.2-0.6-1.9-0.9-2.2l0-0.2C28.9,186,28.1,185.2,27.1,185.2z M20.1,187.3l-1.2-0.2
	c-0.2,0-0.4,0-0.5,0l0-0.9c0-0.2,0.1-0.5,0.3-0.6c0.2-0.2,0.4-0.3,0.6-0.3c0.5,0,0.9,0.4,0.9,0.9c0,0,0,0,0,0v0.1c0,0,0,0.1,0,0.1
	L20.1,187.3z M21,187.5l0-1.1l0,0c0,0,0,0,0-0.1v-0.1l0-0.4c0-0.2,0.1-0.5,0.3-0.6c0.2-0.2,0.4-0.3,0.6-0.3c0.5,0,0.9,0.4,0.9,0.9
	v0.4c0,0,0,0,0,0v1.8c-0.2-0.1-0.4-0.2-0.6-0.3L21,187.5z M24.5,189.6c-0.5,0-0.8-0.4-0.9-0.8c0,0,0,0,0-0.1v-2.6
	c0-0.2,0.1-0.5,0.3-0.6c0.2-0.2,0.4-0.3,0.6-0.3c0.5,0,0.9,0.4,0.9,0.9l0,2.6C25.4,189.2,25,189.6,24.5,189.6z M28,187l0,0.3
	c0,0.1,0,0.2,0,0.3v1.7c0,0.5-0.4,0.9-0.9,0.9c-0.5,0-0.9-0.4-0.9-0.9l0-0.4l0-1.8c0-0.2,0.1-0.5,0.3-0.6c0.2-0.2,0.4-0.3,0.6-0.3
	C27.6,186.1,28,186.5,28,187z"/>
<g>
	<path class="st1" d="M27.3,26c0,1.9-0.6,3.5-1.9,4.8c-1.3,1.3-2.9,1.9-4.7,1.9c-1.9,0-3.4-0.6-4.7-1.9c-1.3-1.3-1.9-2.9-1.9-4.8
		c0-1.9,0.6-3.5,1.9-4.8c1.3-1.3,2.8-1.9,4.7-1.9s3.4,0.7,4.7,2C26.7,22.5,27.3,24.1,27.3,26z M15.8,26c0,1.5,0.5,2.7,1.4,3.7
		c0.9,1,2.1,1.5,3.5,1.5s2.6-0.5,3.5-1.5c0.9-1,1.4-2.2,1.4-3.7s-0.5-2.7-1.4-3.7c-0.9-1-2.1-1.5-3.5-1.5s-2.6,0.5-3.5,1.5
		C16.3,23.2,15.8,24.5,15.8,26z"/>
	<path class="st1" d="M41.5,23.6l-2.8,8.8H37l-2.2-6.8l-2.2,6.8h-1.7l-2.8-8.8h1.7l2,6.7h0l2.2-6.7h1.7l2.2,6.7h0l1.9-6.7H41.5z"/>
	<path class="st1" d="M42.6,23.6h1.6v1.2h0.1c0.3-0.4,0.6-0.8,1.2-1.1c0.5-0.3,1.1-0.4,1.6-0.4c1.1,0,1.9,0.3,2.5,0.9
		c0.6,0.6,0.9,1.5,0.9,2.6v5.5h-1.7V27c0-1.4-0.8-2.2-2.2-2.2c-0.7,0-1.2,0.3-1.7,0.8c-0.4,0.5-0.7,1.2-0.7,1.9v4.9h-1.7V23.6z"/>
	<path class="st1" d="M58.5,20.5c0,0.3-0.1,0.6-0.3,0.8c-0.2,0.2-0.5,0.3-0.8,0.3s-0.6-0.1-0.8-0.3c-0.2-0.2-0.3-0.5-0.3-0.8
		c0-0.3,0.1-0.6,0.3-0.8s0.5-0.3,0.8-0.3s0.6,0.1,0.8,0.3C58.3,19.9,58.5,20.2,58.5,20.5z M58.1,23.6v8.8h-1.7v-8.8H58.1z"/>
	<path class="st1" d="M63.7,32.5c-0.7,0-1.3-0.2-1.8-0.7s-0.7-1.1-0.7-1.9v-4.9h-1.5v-1.5h1.5v-2.7h1.7v2.7H65v1.5h-2.2v4.4
		c0,0.6,0.1,1,0.3,1.2c0.2,0.2,0.5,0.3,0.8,0.3c0.1,0,0.3,0,0.4,0c0.1,0,0.2-0.1,0.4-0.1l0.5,1.5C64.8,32.5,64.2,32.5,63.7,32.5z"/>
	<path class="st1" d="M68.9,31.3c0,0.3-0.1,0.6-0.4,0.9c-0.2,0.2-0.5,0.4-0.9,0.4c-0.3,0-0.6-0.1-0.9-0.4c-0.2-0.2-0.4-0.5-0.4-0.9
		c0-0.3,0.1-0.6,0.4-0.9c0.2-0.2,0.5-0.4,0.9-0.4c0.3,0,0.6,0.1,0.9,0.4C68.7,30.6,68.9,30.9,68.9,31.3z M68.3,28.4H67l-0.2-4.8
		v-4.1h1.7v4.1L68.3,28.4z"/>
	<path class="st1" d="M22.3,41.1v1.6h-5.9v4.1h5.3v1.5h-5.3v4.1h5.9V54h-7.5V41.1H22.3z"/>
	<path class="st1" d="M28.1,54h-1.7l-3.6-8.8h1.8l2.6,6.8h0l2.6-6.8h1.8L28.1,54z"/>
	<path class="st1" d="M36.5,54.3c-1.3,0-2.4-0.4-3.2-1.3c-0.8-0.9-1.3-2-1.3-3.4c0-1.3,0.4-2.5,1.2-3.4c0.8-0.9,1.9-1.3,3.1-1.3
		c1.3,0,2.3,0.4,3.1,1.3c0.8,0.8,1.2,2,1.2,3.6l0,0.2h-6.9c0,0.9,0.3,1.6,0.9,2.1c0.6,0.5,1.2,0.8,2,0.8c1.1,0,1.9-0.5,2.5-1.6
		l1.5,0.7c-0.4,0.7-0.9,1.3-1.6,1.7S37.4,54.3,36.5,54.3z M33.8,48.5h5.1c0-0.6-0.3-1.1-0.7-1.5c-0.4-0.4-1.1-0.6-1.8-0.6
		c-0.6,0-1.2,0.2-1.6,0.6C34.3,47.4,34,47.9,33.8,48.5z"/>
	<path class="st1" d="M42.2,45.2h1.6v1.2h0.1c0.3-0.4,0.6-0.8,1.2-1.1c0.5-0.3,1.1-0.4,1.6-0.4c1.1,0,1.9,0.3,2.5,0.9
		c0.6,0.6,0.9,1.5,0.9,2.6V54h-1.7v-5.4c0-1.4-0.8-2.2-2.2-2.2c-0.7,0-1.2,0.3-1.7,0.8c-0.4,0.5-0.7,1.2-0.7,1.9V54h-1.7V45.2z"/>
	<path class="st1" d="M58,42.1c0,0.3-0.1,0.6-0.3,0.8c-0.2,0.2-0.5,0.3-0.8,0.3S56.3,43.2,56,43c-0.2-0.2-0.3-0.5-0.3-0.8
		c0-0.3,0.1-0.6,0.3-0.8s0.5-0.3,0.8-0.3s0.6,0.1,0.8,0.3C57.9,41.5,58,41.8,58,42.1z M57.7,45.2V54H56v-8.8H57.7z"/>
	<path class="st1" d="M63.9,41c0.6,0,1.1,0.1,1.5,0.3L65,42.7c-0.3-0.1-0.6-0.2-1-0.2c-0.4,0-0.7,0.1-1,0.4
		c-0.3,0.3-0.4,0.7-0.4,1.1v1.1h2.3v1.5h-2.3V54h-1.7v-7.3h-1.7v-1.5h1.7v-1.3c0-0.9,0.3-1.6,0.8-2.1C62.3,41.2,63,41,63.9,41z"/>
	<path class="st1" d="M72.6,42.1c0,0.3-0.1,0.6-0.3,0.8c-0.2,0.2-0.5,0.3-0.8,0.3s-0.6-0.1-0.8-0.3c-0.2-0.2-0.3-0.5-0.3-0.8
		c0-0.3,0.1-0.6,0.3-0.8s0.5-0.3,0.8-0.3s0.6,0.1,0.8,0.3C72.5,41.5,72.6,41.8,72.6,42.1z M72.2,45.2V54h-1.7v-8.8H72.2z"/>
	<path class="st1" d="M77.8,54.1c-0.7,0-1.3-0.2-1.8-0.7c-0.5-0.4-0.7-1.1-0.7-1.9v-4.9h-1.5v-1.5h1.5v-2.7h1.7v2.7h2.2v1.5h-2.2
		v4.4c0,0.6,0.1,1,0.3,1.2c0.2,0.2,0.5,0.3,0.8,0.3c0.1,0,0.3,0,0.4,0c0.1,0,0.2-0.1,0.4-0.1l0.5,1.5C78.9,54.1,78.4,54.1,77.8,54.1
		z"/>
	<path class="st1" d="M81.3,45l-0.8-0.5l0.9-1.4c-0.3,0-0.5-0.2-0.6-0.4s-0.3-0.5-0.3-0.7c0-0.3,0.1-0.6,0.4-0.9
		c0.2-0.2,0.5-0.4,0.9-0.4c0.3,0,0.6,0.1,0.9,0.4c0.2,0.2,0.4,0.5,0.4,0.9c0,0.3-0.1,0.7-0.4,1.1L81.3,45z"/>
	<path class="st1" d="M90.7,51.6c0,0.8-0.3,1.4-1,1.9c-0.7,0.5-1.5,0.8-2.5,0.8c-0.9,0-1.7-0.2-2.3-0.7c-0.7-0.5-1.2-1.1-1.4-1.8
		l1.5-0.6c0.2,0.5,0.5,0.9,0.9,1.2s0.9,0.4,1.4,0.4c0.5,0,1-0.1,1.3-0.3c0.4-0.2,0.5-0.5,0.5-0.8c0-0.6-0.4-1-1.3-1.2L86.2,50
		c-1.7-0.4-2.6-1.3-2.6-2.5c0-0.8,0.3-1.4,1-1.9c0.7-0.5,1.5-0.7,2.5-0.7c0.8,0,1.5,0.2,2.1,0.6s1.1,0.9,1.3,1.5l-1.5,0.6
		c-0.2-0.4-0.4-0.7-0.8-0.9c-0.4-0.2-0.8-0.3-1.3-0.3c-0.4,0-0.8,0.1-1.2,0.3c-0.3,0.2-0.5,0.5-0.5,0.8c0,0.5,0.5,0.9,1.4,1.1
		l1.3,0.3C89.8,49.3,90.7,50.2,90.7,51.6z"/>
	<path class="st1" d="M99.5,44.9c1.2,0,2.2,0.3,2.9,1c0.7,0.7,1.1,1.6,1.1,2.7V54h-1.6v-1.2h-0.1c-0.7,1-1.6,1.5-2.7,1.5
		c-1,0-1.8-0.3-2.4-0.9c-0.7-0.6-1-1.3-1-2.2c0-0.9,0.3-1.6,1-2.2c0.7-0.5,1.6-0.8,2.8-0.8c1,0,1.8,0.2,2.4,0.5v-0.4
		c0-0.6-0.2-1.1-0.7-1.5s-1-0.6-1.6-0.6c-0.9,0-1.7,0.4-2.2,1.2l-1.5-0.9C96.7,45.5,97.9,44.9,99.5,44.9z M97.3,51.3
		c0,0.4,0.2,0.8,0.5,1.1c0.4,0.3,0.8,0.4,1.3,0.4c0.7,0,1.3-0.3,1.9-0.8s0.8-1.1,0.8-1.8c-0.5-0.4-1.2-0.6-2.2-0.6
		c-0.7,0-1.2,0.2-1.7,0.5C97.5,50.4,97.3,50.8,97.3,51.3z"/>
	<path class="st1" d="M16.1,75.6h-1.7v-8.8H16V68h0.1c0.3-0.4,0.6-0.8,1.2-1.1c0.5-0.3,1-0.4,1.6-0.4c0.6,0,1.2,0.1,1.7,0.4
		c0.5,0.3,0.9,0.7,1.1,1.2c0.7-1.1,1.7-1.7,3-1.7c1,0,1.8,0.3,2.4,0.9c0.6,0.6,0.8,1.5,0.8,2.7v5.5h-1.7v-5.3c0-0.8-0.2-1.4-0.5-1.8
		S24.9,68,24.2,68c-0.6,0-1.2,0.3-1.6,0.8C22.2,69.4,22,70,22,70.7v4.9h-1.7v-5.3c0-0.8-0.2-1.4-0.5-1.8S19.1,68,18.3,68
		c-0.6,0-1.2,0.3-1.6,0.8s-0.6,1.2-0.6,1.9V75.6z"/>
	<path class="st1" d="M31.9,63.7c0,0.3-0.1,0.6-0.3,0.8c-0.2,0.2-0.5,0.3-0.8,0.3s-0.6-0.1-0.8-0.3c-0.2-0.2-0.3-0.5-0.3-0.8
		c0-0.3,0.1-0.6,0.3-0.8s0.5-0.3,0.8-0.3s0.6,0.1,0.8,0.3C31.8,63.1,31.9,63.4,31.9,63.7z M31.6,66.8v8.8h-1.7v-8.8H31.6z"/>
	<path class="st1" d="M40.5,73.2c0,0.8-0.3,1.4-1,1.9c-0.7,0.5-1.5,0.8-2.5,0.8c-0.9,0-1.7-0.2-2.3-0.7c-0.7-0.5-1.2-1.1-1.4-1.8
		l1.5-0.6c0.2,0.5,0.5,0.9,0.9,1.2s0.9,0.4,1.4,0.4c0.5,0,1-0.1,1.3-0.3c0.4-0.2,0.5-0.5,0.5-0.8c0-0.6-0.4-1-1.3-1.2L36,71.6
		c-1.7-0.4-2.6-1.3-2.6-2.5c0-0.8,0.3-1.4,1-1.9c0.7-0.5,1.5-0.7,2.5-0.7c0.8,0,1.5,0.2,2.1,0.6s1.1,0.9,1.3,1.5l-1.5,0.6
		c-0.2-0.4-0.4-0.7-0.8-0.9S37.2,68,36.8,68c-0.4,0-0.8,0.1-1.2,0.3c-0.3,0.2-0.5,0.5-0.5,0.8c0,0.5,0.5,0.9,1.4,1.1l1.3,0.3
		C39.6,70.9,40.5,71.8,40.5,73.2z"/>
	<path class="st1" d="M45.3,75.7c-0.7,0-1.3-0.2-1.8-0.7s-0.7-1.1-0.7-1.9v-4.9h-1.5v-1.5h1.5v-2.7h1.7v2.7h2.2v1.5h-2.2v4.4
		c0,0.6,0.1,1,0.3,1.2c0.2,0.2,0.5,0.3,0.8,0.3c0.1,0,0.3,0,0.4,0c0.1,0,0.2-0.1,0.4-0.1l0.5,1.5C46.4,75.7,45.9,75.7,45.3,75.7z"/>
	<path class="st1" d="M51.4,66.5c1.2,0,2.2,0.3,2.9,1c0.7,0.7,1.1,1.6,1.1,2.7v5.4h-1.6v-1.2h-0.1c-0.7,1-1.6,1.5-2.7,1.5
		c-1,0-1.8-0.3-2.4-0.9c-0.7-0.6-1-1.3-1-2.2c0-0.9,0.3-1.6,1-2.2c0.7-0.5,1.6-0.8,2.8-0.8c1,0,1.8,0.2,2.4,0.5V70
		c0-0.6-0.2-1.1-0.7-1.5s-1-0.6-1.6-0.6c-0.9,0-1.7,0.4-2.2,1.2l-1.5-0.9C48.6,67.1,49.8,66.5,51.4,66.5z M49.2,72.9
		c0,0.4,0.2,0.8,0.5,1.1c0.4,0.3,0.8,0.4,1.3,0.4c0.7,0,1.3-0.3,1.9-0.8c0.5-0.5,0.8-1.1,0.8-1.8c-0.5-0.4-1.2-0.6-2.2-0.6
		c-0.7,0-1.2,0.2-1.7,0.5C49.5,72,49.2,72.4,49.2,72.9z"/>
	<path class="st1" d="M65,75.6h-2l-2.8-4.2l-1.4,1.3v2.8h-1.7V62.7h1.7v7.9l3.8-3.9h2.1v0.1l-3.4,3.4L65,75.6L65,75.6z"/>
	<path class="st1" d="M69.6,75.9c-1.3,0-2.4-0.4-3.2-1.3c-0.8-0.9-1.3-2-1.3-3.4c0-1.3,0.4-2.5,1.2-3.4c0.8-0.9,1.9-1.3,3.1-1.3
		c1.3,0,2.3,0.4,3.1,1.3c0.8,0.8,1.2,2,1.2,3.6l0,0.2h-6.9c0,0.9,0.3,1.6,0.9,2.1c0.6,0.5,1.2,0.8,2,0.8c1.1,0,1.9-0.5,2.5-1.6
		l1.5,0.7c-0.4,0.7-0.9,1.3-1.6,1.7S70.5,75.9,69.6,75.9z M66.9,70.1H72c0-0.6-0.3-1.1-0.7-1.5c-0.4-0.4-1.1-0.6-1.8-0.6
		c-0.6,0-1.2,0.2-1.6,0.6C67.4,69,67.1,69.5,66.9,70.1z"/>
	<path class="st1" d="M77.6,74.5c0,0.3-0.1,0.6-0.4,0.9c-0.2,0.2-0.5,0.4-0.9,0.4c-0.3,0-0.6-0.1-0.9-0.4c-0.2-0.2-0.4-0.5-0.4-0.9
		c0-0.3,0.1-0.6,0.4-0.9c0.2-0.2,0.5-0.4,0.9-0.4c0.3,0,0.6,0.1,0.9,0.4C77.5,73.8,77.6,74.1,77.6,74.5z"/>
</g>
<rect x="-32" y="84.6" transform="matrix(0.7071 -0.7071 0.7071 0.7071 -82.4232 34.1408)" class="st3" width="64" height="64"/>
</svg>
