<?xml version="1.0" encoding="utf-8"?>
<!-- Generator: Adobe Illustrator 24.0.0, SVG Export Plug-In . SVG Version: 6.00 Build 0)  -->
<svg version="1.1" id="Layer_1" xmlns="http://www.w3.org/2000/svg" xmlns:xlink="http://www.w3.org/1999/xlink" x="0px" y="0px"
	 viewBox="0 0 120 160" style="enable-background:new 0 0 120 160;" xml:space="preserve">
<style type="text/css">
	.st0{opacity:0.1;fill:#058182;enable-background:new    ;}
	.st1{opacity:0.15;}
	.st2{fill:none;stroke:#058182;stroke-width:25.2;stroke-linecap:round;stroke-linejoin:round;}
	.st3{enable-background:new    ;}
	.st4{fill:#222222;}
	.st5{fill:#058182;}
	.st6{opacity:0.1;}
</style>
<rect x="-49.1" y="-64.9" class="st0" width="216" height="288"/>
<g class="st1">
	<polyline class="st2" points="110.3,-118.5 157.3,-93.5 15.7,-92.7 198.4,4.6 -26,-38.8 148.6,54.2 -96.2,0 73.9,90.6 -92.9,77.9 
		12.5,134 -148.6,124.4 13.7,210.8 -193.2,176.8 -48.6,253.8 -222.5,237.4 -67.1,320.1 -269,288.7 -124.8,365.5 -350,321.8 
		-186.2,409 -353.4,396.1 -225,464.5 	"/>
</g>
<g>
	<g class="st3">
		<path class="st4" d="M24.7,126.6h2.2v9.9h-2.2V126.6z"/>
		<path class="st4" d="M28.8,126.6h2.5l3.6,6.1H35l-0.1-1.9v-4.2H37v9.9h-2.3l-3.8-6.5h-0.1l0.1,1.9v4.6h-2.1V126.6z"/>
		<path class="st4" d="M41.1,136.6v-7.9h-2.8v-2H46v2h-2.8v7.9H41.1z"/>
		<path class="st4" d="M49.5,128.7v1.9h3.9v2h-3.9v1.9h4.4v2h-6.5v-9.9h6.5v2H49.5z"/>
		<path class="st4" d="M60.1,131H65c0,0.1,0.1,0.3,0.1,0.4c0,0.2,0,0.3,0,0.5c0,0.7-0.1,1.3-0.3,1.9c-0.2,0.5-0.5,1-0.9,1.4
			c-0.4,0.5-1,0.8-1.6,1.1c-0.6,0.3-1.3,0.4-2.1,0.4c-0.7,0-1.4-0.1-2-0.4c-0.6-0.3-1.2-0.6-1.7-1.1c-0.5-0.5-0.9-1-1.1-1.6
			c-0.3-0.6-0.4-1.3-0.4-2.1c0-0.8,0.1-1.5,0.4-2.1c0.3-0.6,0.7-1.2,1.1-1.6c0.5-0.5,1-0.8,1.7-1.1c0.6-0.3,1.3-0.4,2-0.4
			c0.8,0,1.6,0.1,2.2,0.4c0.6,0.3,1.2,0.7,1.6,1.2l-1.5,1.4c-0.3-0.3-0.7-0.6-1-0.7c-0.4-0.2-0.8-0.3-1.4-0.3
			c-0.4,0-0.8,0.1-1.2,0.2c-0.4,0.2-0.7,0.4-1,0.6c-0.3,0.3-0.5,0.6-0.7,1c-0.2,0.4-0.2,0.8-0.2,1.3c0,0.5,0.1,0.9,0.2,1.3
			c0.2,0.4,0.4,0.7,0.7,1c0.3,0.3,0.6,0.5,1,0.6c0.4,0.2,0.8,0.2,1.2,0.2c0.8,0,1.5-0.2,2-0.7c0.2-0.1,0.3-0.3,0.4-0.5
			c0.1-0.2,0.2-0.4,0.3-0.7h-2.9V131z"/>
		<path class="st4" d="M66.6,126.6h3.7c0.5,0,1,0.1,1.4,0.2c0.4,0.2,0.8,0.4,1.1,0.7c0.3,0.3,0.5,0.6,0.7,1c0.2,0.4,0.2,0.8,0.2,1.3
			c0,0.3-0.1,0.6-0.2,0.9c-0.1,0.3-0.2,0.5-0.4,0.8c-0.2,0.2-0.4,0.4-0.6,0.6c-0.2,0.2-0.5,0.3-0.8,0.4v0.1l2.6,3.7v0.1h-2.5
			l-2.5-3.6h-0.6v3.6h-2.2V126.6z M70.4,131c0.4,0,0.7-0.1,0.9-0.3c0.2-0.2,0.3-0.5,0.3-0.8c0-0.3-0.1-0.6-0.3-0.8
			c-0.2-0.2-0.5-0.3-0.9-0.3h-1.6v2.4H70.4z"/>
		<path class="st4" d="M75.5,126.6h2.2v9.9h-2.2V126.6z"/>
		<path class="st4" d="M81.8,136.6v-7.9H79v-2h7.7v2h-2.8v7.9H81.8z"/>
		<path class="st4" d="M90.5,131.9l-3.3-5.3h2.6l1.7,2.9h0.1l1.7-2.9H96l-3.3,5.3v4.6h-2.2V131.9z"/>
	</g>
	<g>
		<path class="st5" d="M86.4,58.5L86.4,58.5c-2.4-0.4-4.8-1.1-7.3-1.8C72,54.4,65,51.6,61.4,47.8c-0.3-0.3-0.6-0.5-1-0.5
			c-0.4,0-0.8,0.2-1,0.5c-3.7,3.9-10.7,6.6-17.8,8.9l0,0c-2.5,0.8-4.9,1.5-7.3,1.8c-0.7,0.2-1.2,0.7-1.2,1.4v17.8
			c0,14.5,10.8,27.1,26.8,33.5c0.2,0.1,0.4,0.1,0.5,0.1s0.4,0,0.5-0.1c15.9-6.4,26.8-19,26.8-33.5V59.9
			C87.6,59.2,87.1,58.7,86.4,58.5z M73,74.2L73,74.2L58.8,88.4c-0.5,0.5-1.3,0.8-2.1,0.8s-1.5-0.3-2.1-0.8l-7.2-7.2
			c-1.2-1.2-1.2-3,0-4.2c1.2-1.2,3-1.2,4.2,0l5,5.1l12.2-12.2c1.2-1.2,3-1.2,4.2,0C74.2,71.2,74.2,73.1,73,74.2z"/>
		<g>
			<path class="st4" d="M60.2,38.2L60.2,38.2c-1.5,0-2.8-1.2-2.8-2.8V28c0-1.5,1.2-2.8,2.8-2.8l0,0c1.5,0,2.8,1.2,2.8,2.8v7.5
				C62.9,37,61.7,38.2,60.2,38.2z"/>
			<path class="st4" d="M48.5,41.7L48.5,41.7c-1.3,0.8-3,0.3-3.8-1L41,34.2c-0.8-1.3-0.3-3,1-3.8l0,0c1.3-0.8,3-0.3,3.8,1l3.7,6.5
				C50.3,39.3,49.8,40.9,48.5,41.7z"/>
			<path class="st4" d="M39.9,50.3L39.9,50.3c-0.8,1.3-2.5,1.8-3.8,1l-6.4-3.7c-1.3-0.8-1.8-2.5-1-3.8l0,0c0.8-1.3,2.5-1.8,3.8-1
				l6.5,3.7C40.2,47.3,40.7,49,39.9,50.3z"/>
			<path class="st4" d="M72,41.7L72,41.7c1.3,0.8,3,0.3,3.8-1l3.7-6.5c0.8-1.3,0.3-3-1-3.8l0,0c-1.3-0.8-3-0.3-3.8,1L71,37.9
				C70.3,39.3,70.7,40.9,72,41.7z"/>
			<path class="st4" d="M80.7,50.3L80.7,50.3c0.8,1.3,2.5,1.8,3.8,1l6.5-3.7c1.3-0.8,1.8-2.5,1-3.8l0,0c-0.8-1.3-2.5-1.8-3.8-1
				l-6.5,3.7C80.4,47.3,79.9,49,80.7,50.3z"/>
		</g>
	</g>
</g>
<g class="st6">
	<path class="st5" d="M85,183.1L85,183.1c2.2-3.4,6.7-4.5,10.2-2.3l16.9,10.6c3.4,2.2,4.5,6.7,2.3,10.2l0,0
		c-2.2,3.4-6.7,4.5-10.2,2.3l-16.9-10.6C83.8,191.1,82.8,186.5,85,183.1z"/>
	<path class="st5" d="M93.8,151.7L93.8,151.7c0.2-4.1,3.6-7.2,7.6-7l19.9,0.8c4.1,0.2,7.2,3.6,7,7.6l0,0c-0.2,4.1-3.6,7.2-7.6,7
		l-19.9-0.8C96.9,159.2,93.7,155.7,93.8,151.7z"/>
	<path class="st5" d="M86.5,119.9L86.5,119.9c-1.9-3.6-0.5-8.1,3-9.9l17.7-9.3c3.6-1.9,8.1-0.5,9.9,3l0,0c1.9,3.6,0.5,8.1-3,9.9
		l-17.7,9.3C92.9,124.8,88.5,123.5,86.5,119.9z"/>
	<path class="st5" d="M60.2,205.1L60.2,205.1c-3.6,1.9-5,6.3-3,9.9l9.3,17.7c1.9,3.6,6.3,5,9.9,3l0,0c3.6-1.9,5-6.3,3-9.9l-9.3-17.7
		C68.3,204.5,63.8,203.1,60.2,205.1z"/>
	<path class="st5" d="M28.4,212.3L28.4,212.3c-4.1-0.2-7.4,3-7.6,7L20,239.2c-0.2,4.1,3,7.4,7,7.6l0,0c4.1,0.2,7.4-3,7.6-7l0.8-19.9
		C35.6,215.9,32.5,212.4,28.4,212.3z"/>
</g>
</svg>
