<?xml version="1.0" encoding="utf-8"?>
<!-- Generator: Adobe Illustrator 24.0.0, SVG Export Plug-In . SVG Version: 6.00 Build 0)  -->
<svg version="1.1" id="Layer_1" xmlns="http://www.w3.org/2000/svg" xmlns:xlink="http://www.w3.org/1999/xlink" x="0px" y="0px"
	 viewBox="0 0 144 216" style="enable-background:new 0 0 144 216;" xml:space="preserve">
<style type="text/css">
	.st0{fill:#FFC5AE;}
	.st1{opacity:0.2;fill:#F26522;}
	.st2{opacity:0.4;fill:#F26522;}
	.st3{fill:#F9F9F9;}
	.st4{fill:#FFFFFF;}
</style>
<g>
	<rect class="st0" width="144" height="216"/>
</g>
<circle class="st1" cx="39.8" cy="125.9" r="62.6"/>
<circle class="st2" cx="109.5" cy="186.3" r="24.8"/>
<g>
	<path class="st3" d="M15.9,33.5h-1.8l4.9-12.9h1.9l4.9,12.9h-1.8L22.6,30h-5.4L15.9,33.5z M19.8,22.6l-2.1,5.8H22L19.8,22.6
		L19.8,22.6z"/>
	<path class="st3" d="M28.5,20.6v12.9h-1.7V20.6H28.5z"/>
	<path class="st3" d="M43,24.7l-2.8,8.8h-1.7l-2.2-6.8l-2.2,6.8h-1.7l-2.8-8.8h1.7l2,6.7h0l2.2-6.7h1.7l2.2,6.7h0l1.9-6.7H43z"/>
	<path class="st3" d="M47.3,24.4c1.2,0,2.2,0.3,2.9,1s1.1,1.6,1.1,2.7v5.4h-1.6v-1.2h-0.1c-0.7,1-1.6,1.5-2.7,1.5
		c-1,0-1.8-0.3-2.4-0.9s-1-1.3-1-2.2c0-0.9,0.3-1.6,1-2.2c0.7-0.5,1.6-0.8,2.8-0.8c1,0,1.8,0.2,2.4,0.5v-0.4c0-0.6-0.2-1.1-0.7-1.5
		c-0.5-0.4-1-0.6-1.6-0.6c-0.9,0-1.7,0.4-2.2,1.2l-1.5-0.9C44.5,25,45.7,24.4,47.3,24.4z M45.1,30.8c0,0.4,0.2,0.8,0.5,1.1
		c0.4,0.3,0.8,0.4,1.3,0.4c0.7,0,1.3-0.3,1.9-0.8c0.5-0.5,0.8-1.1,0.8-1.8c-0.5-0.4-1.2-0.6-2.2-0.6c-0.7,0-1.2,0.2-1.7,0.5
		C45.4,29.9,45.1,30.3,45.1,30.8z"/>
	<path class="st3" d="M60.8,24.7l-5.5,12.7h-1.7l2.1-4.4L52,24.7h1.8l2.6,6.3h0l2.6-6.3H60.8z"/>
	<path class="st3" d="M68.5,31c0,0.8-0.3,1.4-1,1.9c-0.7,0.5-1.5,0.8-2.5,0.8c-0.9,0-1.7-0.2-2.3-0.7c-0.7-0.5-1.2-1.1-1.4-1.8
		l1.5-0.6c0.2,0.5,0.5,0.9,0.9,1.2s0.9,0.4,1.4,0.4c0.5,0,1-0.1,1.3-0.3c0.4-0.2,0.5-0.5,0.5-0.8c0-0.6-0.4-1-1.3-1.2L64,29.5
		c-1.7-0.4-2.6-1.3-2.6-2.5c0-0.8,0.3-1.4,1-1.9c0.7-0.5,1.5-0.7,2.5-0.7c0.8,0,1.5,0.2,2.1,0.6s1.1,0.9,1.3,1.5L66.9,27
		c-0.2-0.4-0.4-0.7-0.8-0.9c-0.4-0.2-0.8-0.3-1.3-0.3c-0.4,0-0.8,0.1-1.2,0.3c-0.3,0.2-0.5,0.5-0.5,0.8c0,0.5,0.5,0.9,1.4,1.1
		l1.3,0.3C67.6,28.8,68.5,29.7,68.5,31z"/>
	<path class="st3" d="M18.9,55.4c-1.3,0-2.4-0.4-3.3-1.3c-0.9-0.9-1.3-2-1.3-3.4c0-1.4,0.4-2.5,1.3-3.4c0.9-0.9,1.9-1.3,3.3-1.3
		c0.9,0,1.7,0.2,2.4,0.7c0.7,0.4,1.2,1.1,1.5,1.9l-1.5,0.6c-0.5-1.1-1.3-1.7-2.5-1.7c-0.8,0-1.4,0.3-2,0.9C16.3,49,16,49.8,16,50.7
		c0,0.9,0.3,1.7,0.8,2.3c0.6,0.6,1.2,0.9,2,0.9c1.2,0,2.1-0.6,2.6-1.7l1.5,0.6c-0.3,0.8-0.8,1.4-1.5,1.9S19.8,55.4,18.9,55.4z"/>
	<path class="st3" d="M32,55.1h-1.6v-1.2h-0.1c-0.3,0.4-0.6,0.8-1.2,1.1c-0.5,0.3-1.1,0.4-1.6,0.4c-1.1,0-1.9-0.3-2.5-0.9
		s-0.9-1.5-0.9-2.6v-5.5h1.7v5.4c0,1.4,0.8,2.2,2.2,2.2c0.7,0,1.2-0.3,1.7-0.8c0.4-0.5,0.7-1.2,0.7-1.9v-4.9H32V55.1z"/>
	<path class="st3" d="M35.7,42.2v12.9H34V42.2H35.7z"/>
	<path class="st3" d="M41.3,55.2c-0.7,0-1.3-0.2-1.8-0.7c-0.5-0.4-0.7-1.1-0.7-1.9v-4.9h-1.5v-1.5h1.5v-2.7h1.7v2.7h2.2v1.5h-2.2
		v4.4c0,0.6,0.1,1,0.3,1.2s0.5,0.3,0.8,0.3c0.1,0,0.3,0,0.4,0c0.1,0,0.2-0.1,0.4-0.1l0.5,1.5C42.3,55.2,41.8,55.2,41.3,55.2z"/>
	<path class="st3" d="M46.4,43.2c0,0.3-0.1,0.6-0.3,0.8c-0.2,0.2-0.5,0.3-0.8,0.3s-0.6-0.1-0.8-0.3c-0.2-0.2-0.3-0.5-0.3-0.8
		c0-0.3,0.1-0.6,0.3-0.8c0.2-0.2,0.5-0.3,0.8-0.3s0.6,0.1,0.8,0.3C46.3,42.6,46.4,42.9,46.4,43.2z M46,46.3v8.8h-1.7v-8.8H46z"/>
	<path class="st3" d="M52.5,55.1h-1.7l-3.6-8.8h1.8l2.6,6.8h0l2.6-6.8h1.8L52.5,55.1z"/>
	<path class="st3" d="M60.3,46c1.2,0,2.2,0.3,2.9,1s1.1,1.6,1.1,2.7v5.4h-1.6v-1.2h-0.1c-0.7,1-1.6,1.5-2.7,1.5
		c-1,0-1.8-0.3-2.4-0.9s-1-1.3-1-2.2c0-0.9,0.3-1.6,1-2.2c0.7-0.5,1.6-0.8,2.8-0.8c1,0,1.8,0.2,2.4,0.5v-0.4c0-0.6-0.2-1.1-0.7-1.5
		c-0.5-0.4-1-0.6-1.6-0.6c-0.9,0-1.7,0.4-2.2,1.2l-1.5-0.9C57.6,46.6,58.8,46,60.3,46z M58.2,52.4c0,0.4,0.2,0.8,0.5,1.1
		c0.4,0.3,0.8,0.4,1.3,0.4c0.7,0,1.3-0.3,1.9-0.8c0.5-0.5,0.8-1.1,0.8-1.8c-0.5-0.4-1.2-0.6-2.2-0.6c-0.7,0-1.2,0.2-1.7,0.5
		C58.4,51.5,58.2,51.9,58.2,52.4z"/>
	<path class="st3" d="M69.5,55.2c-0.7,0-1.3-0.2-1.8-0.7c-0.5-0.4-0.7-1.1-0.7-1.9v-4.9h-1.5v-1.5h1.5v-2.7h1.7v2.7h2.2v1.5h-2.2
		v4.4c0,0.6,0.1,1,0.3,1.2s0.5,0.3,0.8,0.3c0.1,0,0.3,0,0.4,0c0.1,0,0.2-0.1,0.4-0.1L71,55C70.5,55.2,70,55.2,69.5,55.2z"/>
	<path class="st3" d="M76.2,55.4c-1.3,0-2.4-0.4-3.2-1.3c-0.8-0.9-1.3-2-1.3-3.4c0-1.3,0.4-2.5,1.2-3.4c0.8-0.9,1.9-1.3,3.1-1.3
		c1.3,0,2.3,0.4,3.1,1.3s1.2,2,1.2,3.6l0,0.2h-6.9c0,0.9,0.3,1.6,0.9,2.1c0.6,0.5,1.2,0.8,2,0.8c1.1,0,1.9-0.5,2.5-1.6l1.5,0.7
		c-0.4,0.7-0.9,1.3-1.6,1.7S77.1,55.4,76.2,55.4z M73.6,49.6h5.1c0-0.6-0.3-1.1-0.7-1.5c-0.4-0.4-1.1-0.6-1.8-0.6
		c-0.6,0-1.2,0.2-1.6,0.6C74,48.5,73.7,49,73.6,49.6z"/>
	<path class="st3" d="M89.2,46c1.2,0,2.2,0.3,2.9,1s1.1,1.6,1.1,2.7v5.4h-1.6v-1.2h-0.1c-0.7,1-1.6,1.5-2.7,1.5
		c-1,0-1.8-0.3-2.4-0.9c-0.7-0.6-1-1.3-1-2.2c0-0.9,0.3-1.6,1-2.2s1.6-0.8,2.8-0.8c1,0,1.8,0.2,2.4,0.5v-0.4c0-0.6-0.2-1.1-0.7-1.5
		c-0.5-0.4-1-0.6-1.6-0.6c-0.9,0-1.7,0.4-2.2,1.2l-1.5-0.9C86.5,46.6,87.6,46,89.2,46z M87.1,52.4c0,0.4,0.2,0.8,0.5,1.1
		c0.4,0.3,0.8,0.4,1.3,0.4c0.7,0,1.3-0.3,1.9-0.8c0.5-0.5,0.8-1.1,0.8-1.8c-0.5-0.4-1.2-0.6-2.2-0.6c-0.7,0-1.2,0.2-1.7,0.5
		C87.3,51.5,87.1,51.9,87.1,52.4z"/>
	<path class="st3" d="M95,46.3h1.6v1.2h0.1c0.3-0.4,0.6-0.8,1.2-1.1s1.1-0.4,1.6-0.4c1.1,0,1.9,0.3,2.5,0.9s0.9,1.5,0.9,2.6v5.5
		h-1.7v-5.4c0-1.4-0.8-2.2-2.2-2.2c-0.7,0-1.2,0.3-1.7,0.8s-0.7,1.2-0.7,1.9v4.9H95V46.3z"/>
	<path class="st3" d="M108.5,55.4c-1.2,0-2.1-0.5-3-1.4c-0.8-0.9-1.2-2-1.2-3.3s0.4-2.4,1.2-3.3c0.8-0.9,1.8-1.4,3-1.4
		c0.6,0,1.2,0.1,1.8,0.4c0.5,0.3,0.9,0.6,1.2,1.1h0.1l-0.1-1.2v-4.1h1.7v12.9h-1.6v-1.2h-0.1c-0.3,0.5-0.7,0.8-1.2,1.1
		C109.7,55.2,109.1,55.4,108.5,55.4z M108.8,53.9c0.8,0,1.5-0.3,2-0.9c0.5-0.6,0.8-1.4,0.8-2.3c0-0.9-0.3-1.7-0.8-2.3
		c-0.5-0.6-1.2-0.9-2-0.9c-0.8,0-1.5,0.3-2,0.9c-0.5,0.6-0.8,1.4-0.8,2.3c0,0.9,0.3,1.7,0.8,2.3C107.3,53.6,108,53.9,108.8,53.9z"/>
	<path class="st3" d="M16.5,63.8v12.9h-1.7V63.8H16.5z"/>
	<path class="st3" d="M22.4,77c-1.3,0-2.4-0.4-3.2-1.3c-0.8-0.9-1.3-2-1.3-3.4c0-1.3,0.4-2.5,1.2-3.4c0.8-0.9,1.9-1.3,3.1-1.3
		c1.3,0,2.3,0.4,3.1,1.3s1.2,2,1.2,3.6l0,0.2h-6.9c0,0.9,0.3,1.6,0.9,2.1c0.6,0.5,1.2,0.8,2,0.8c1.1,0,1.9-0.5,2.5-1.6l1.5,0.7
		c-0.4,0.7-0.9,1.3-1.6,1.7S23.3,77,22.4,77z M19.8,71.2h5.1c0-0.6-0.3-1.1-0.7-1.5c-0.4-0.4-1.1-0.6-1.8-0.6
		c-0.6,0-1.2,0.2-1.6,0.6C20.2,70.1,19.9,70.6,19.8,71.2z"/>
	<path class="st3" d="M31.5,67.6c1.2,0,2.2,0.3,2.9,1s1.1,1.6,1.1,2.7v5.4h-1.6v-1.2h-0.1c-0.7,1-1.6,1.5-2.7,1.5
		c-1,0-1.8-0.3-2.4-0.9s-1-1.3-1-2.2c0-0.9,0.3-1.6,1-2.2c0.7-0.5,1.6-0.8,2.8-0.8c1,0,1.8,0.2,2.4,0.5v-0.4c0-0.6-0.2-1.1-0.7-1.5
		c-0.5-0.4-1-0.6-1.6-0.6c-0.9,0-1.7,0.4-2.2,1.2L28,69.3C28.8,68.2,30,67.6,31.5,67.6z M29.4,74c0,0.4,0.2,0.8,0.5,1.1
		c0.4,0.3,0.8,0.4,1.3,0.4c0.7,0,1.3-0.3,1.9-0.8c0.5-0.5,0.8-1.1,0.8-1.8c-0.5-0.4-1.2-0.6-2.2-0.6c-0.7,0-1.2,0.2-1.7,0.5
		C29.6,73.1,29.4,73.5,29.4,74z"/>
	<path class="st3" d="M39,76.7h-1.7v-8.8h1.6v1.4H39c0.2-0.5,0.5-0.9,1-1.2c0.5-0.3,1-0.5,1.5-0.5c0.5,0,0.9,0.1,1.2,0.2l-0.5,1.6
		c-0.2-0.1-0.5-0.1-1-0.1c-0.6,0-1.2,0.3-1.6,0.8S39,71.2,39,71.8V76.7z"/>
	<path class="st3" d="M43.9,67.9h1.6v1.2h0.1c0.3-0.4,0.6-0.8,1.2-1.1s1.1-0.4,1.6-0.4c1.1,0,1.9,0.3,2.5,0.9s0.9,1.5,0.9,2.6v5.5
		H50v-5.4c0-1.4-0.8-2.2-2.2-2.2c-0.7,0-1.2,0.3-1.7,0.8c-0.4,0.5-0.7,1.2-0.7,1.9v4.9h-1.7V67.9z"/>
	<path class="st3" d="M61.3,77c-1.2,0-2.1-0.5-3-1.4c-0.8-0.9-1.2-2-1.2-3.3s0.4-2.4,1.2-3.3c0.8-0.9,1.8-1.4,3-1.4
		c0.6,0,1.2,0.1,1.8,0.4c0.5,0.3,0.9,0.6,1.2,1.1h0.1l-0.1-1.2v-4.1H66v12.9h-1.6v-1.2h-0.1c-0.3,0.5-0.7,0.8-1.2,1.1
		C62.5,76.8,61.9,77,61.3,77z M61.6,75.5c0.8,0,1.5-0.3,2-0.9c0.5-0.6,0.8-1.4,0.8-2.3c0-0.9-0.3-1.7-0.8-2.3
		c-0.5-0.6-1.2-0.9-2-0.9c-0.8,0-1.5,0.3-2,0.9c-0.5,0.6-0.8,1.4-0.8,2.3c0,0.9,0.3,1.7,0.8,2.3C60.1,75.2,60.8,75.5,61.6,75.5z"/>
	<path class="st3" d="M71.2,67.6c1.2,0,2.2,0.3,2.9,1c0.7,0.7,1.1,1.6,1.1,2.7v5.4h-1.6v-1.2h-0.1c-0.7,1-1.6,1.5-2.7,1.5
		c-1,0-1.8-0.3-2.4-0.9s-1-1.3-1-2.2c0-0.9,0.3-1.6,1-2.2c0.7-0.5,1.6-0.8,2.8-0.8c1,0,1.8,0.2,2.4,0.5v-0.4c0-0.6-0.2-1.1-0.7-1.5
		c-0.5-0.4-1-0.6-1.6-0.6c-0.9,0-1.7,0.4-2.2,1.2l-1.5-0.9C68.5,68.2,69.7,67.6,71.2,67.6z M69.1,74c0,0.4,0.2,0.8,0.5,1.1
		c0.4,0.3,0.8,0.4,1.3,0.4c0.7,0,1.3-0.3,1.9-0.8c0.5-0.5,0.8-1.1,0.8-1.8c-0.5-0.4-1.2-0.6-2.2-0.6c-0.7,0-1.2,0.2-1.7,0.5
		C69.3,73.1,69.1,73.5,69.1,74z"/>
	<path class="st3" d="M79.2,64.8c0,0.3-0.1,0.6-0.3,0.8C78.6,65.9,78.4,66,78,66s-0.6-0.1-0.8-0.3c-0.2-0.2-0.3-0.5-0.3-0.8
		c0-0.3,0.1-0.6,0.3-0.8c0.2-0.2,0.5-0.3,0.8-0.3s0.6,0.1,0.8,0.3C79.1,64.2,79.2,64.5,79.2,64.8z M78.9,67.9v8.8h-1.7v-8.8H78.9z"
		/>
	<path class="st3" d="M82.7,63.8v12.9H81V63.8H82.7z"/>
	<path class="st3" d="M92.6,67.9l-5.5,12.7h-1.7l2.1-4.4l-3.6-8.3h1.8l2.6,6.3h0l2.6-6.3H92.6z"/>
</g>
<path class="st4" d="M16.1,197.2h12.7v-14.6H16.1c-1.3,0-2.4,1.1-2.4,2.4v13.6c0,1.3,1.1,2.2,2.4,2.2h12.7V200H16.1
	c-0.9,0-1.6-0.6-1.6-1.4C14.5,197.8,15.2,197.2,16.1,197.2z M14.5,184.9c0-0.9,0.7-1.6,1.6-1.6H28v13.1H16.1c-0.6,0-1.1,0.2-1.6,0.6
	V184.9z"/>
</svg>
