<?xml version="1.0" encoding="utf-8"?>
<!-- Generator: Adobe Illustrator 24.0.0, SVG Export Plug-In . SVG Version: 6.00 Build 0)  -->
<svg version="1.1" id="Layer_1" xmlns="http://www.w3.org/2000/svg" xmlns:xlink="http://www.w3.org/1999/xlink" x="0px" y="0px"
	 viewBox="0 0 144 216" style="enable-background:new 0 0 144 216;" xml:space="preserve">
<style type="text/css">
	.st0{fill:#058182;}
	.st1{fill:#3DBFB8;}
	.st2{fill:#2EAAA7;}
	.st3{fill:#F9F9F9;}
	.st4{fill:#FFFFFF;}
</style>
<g>
	<rect x="-36" y="101" class="st0" width="216" height="151"/>
</g>
<rect x="67" y="150" transform="matrix(0.2818 -0.9595 0.9595 0.2818 -105.255 285.396)" class="st1" width="142" height="126"/>
<g>
	<rect x="-17" y="-104" transform="matrix(0.3125 -0.9499 0.9499 0.3125 24.5633 113.9425)" class="st2" width="216" height="288"/>
</g>
<g>
	<path class="st3" d="M16.6,32.4h-1.8l4.9-12.9h1.9l4.9,12.9h-1.8l-1.2-3.5h-5.4L16.6,32.4z M20.5,21.5l-2.1,5.8h4.3L20.5,21.5
		L20.5,21.5z"/>
	<path class="st3" d="M29.2,19.5v12.9h-1.7V19.5H29.2z"/>
	<path class="st3" d="M43.7,23.6l-2.8,8.8h-1.7L37,25.6l-2.2,6.8h-1.7l-2.8-8.8H32l2,6.7l0,0l2.2-6.7h1.7l2.2,6.7l0,0l1.9-6.7
		C42,23.6,43.7,23.6,43.7,23.6z"/>
	<path class="st3" d="M48,23.3c1.2,0,2.2,0.3,2.9,1S52,25.9,52,27v5.4h-1.6v-1.2h-0.1c-0.7,1-1.6,1.5-2.7,1.5c-1,0-1.8-0.3-2.4-0.9
		c-0.7-0.6-1-1.3-1-2.2c0-0.9,0.3-1.6,1-2.2c0.7-0.5,1.6-0.8,2.8-0.8c1,0,1.8,0.2,2.4,0.5v-0.4c0-0.6-0.2-1.1-0.7-1.5
		s-1-0.6-1.6-0.6c-0.9,0-1.7,0.4-2.2,1.2L44.4,25C45.2,23.9,46.4,23.3,48,23.3z M45.9,29.7c0,0.4,0.2,0.8,0.5,1.1
		c0.4,0.3,0.8,0.4,1.3,0.4c0.7,0,1.3-0.3,1.9-0.8c0.5-0.5,0.8-1.1,0.8-1.8c-0.5-0.4-1.2-0.6-2.2-0.6c-0.7,0-1.2,0.2-1.7,0.5
		C46.1,28.8,45.9,29.2,45.9,29.7z"/>
	<path class="st3" d="M61.5,23.6L56,36.3h-1.7l2.1-4.4l-3.6-8.3h1.8l2.6,6.3l0,0l2.6-6.3C59.8,23.6,61.5,23.6,61.5,23.6z"/>
	<path class="st3" d="M69.2,30c0,0.8-0.3,1.4-1,1.9c-0.7,0.5-1.5,0.8-2.5,0.8c-0.9,0-1.7-0.2-2.3-0.7c-0.7-0.5-1.2-1.1-1.4-1.8
		l1.5-0.6c0.2,0.5,0.5,0.9,0.9,1.2c0.4,0.3,0.9,0.4,1.4,0.4s1-0.1,1.3-0.3c0.4-0.2,0.5-0.5,0.5-0.8c0-0.6-0.4-1-1.3-1.2l-1.5-0.4
		C63,28,62.1,27.2,62.1,26c0-0.8,0.3-1.4,1-1.9s1.5-0.7,2.5-0.7c0.8,0,1.5,0.2,2.1,0.6s1.1,0.9,1.3,1.5L67.6,26
		c-0.2-0.4-0.4-0.7-0.8-0.9s-0.8-0.3-1.3-0.3c-0.4,0-0.8,0.1-1.2,0.3c-0.3,0.2-0.5,0.5-0.5,0.8c0,0.5,0.5,0.9,1.4,1.1l1.3,0.3
		C68.3,27.7,69.2,28.6,69.2,30z"/>
	<path class="st3" d="M79.2,32.7c-0.6,0-1.2-0.1-1.8-0.4c-0.5-0.3-0.9-0.6-1.2-1.1h-0.1v1.2h-1.6V19.5h1.7v4.1l-0.1,1.2h0.1
		c0.3-0.5,0.7-0.8,1.2-1.1c0.5-0.3,1.1-0.4,1.8-0.4c1.2,0,2.1,0.5,3,1.4c0.8,0.9,1.2,2,1.2,3.3s-0.4,2.4-1.2,3.3
		C81.4,32.2,80.4,32.7,79.2,32.7z M79,31.2c0.8,0,1.5-0.3,2-0.9s0.8-1.4,0.8-2.3s-0.3-1.7-0.8-2.3s-1.2-0.9-2-0.9s-1.5,0.3-2,0.9
		s-0.8,1.4-0.8,2.3s0.3,1.7,0.8,2.3S78.2,31.2,79,31.2z"/>
	<path class="st3" d="M88.9,32.7c-1.3,0-2.4-0.4-3.2-1.3c-0.8-0.9-1.3-2-1.3-3.4c0-1.3,0.4-2.5,1.2-3.4c0.8-0.9,1.9-1.3,3.1-1.3
		c1.3,0,2.3,0.4,3.1,1.3c0.8,0.8,1.2,2,1.2,3.6v0.2h-6.9c0,0.9,0.3,1.6,0.9,2.1s1.2,0.8,2,0.8c1.1,0,1.9-0.5,2.5-1.6l1.5,0.7
		c-0.4,0.7-0.9,1.3-1.6,1.7C90.7,32.5,89.8,32.7,88.9,32.7z M86.3,26.9h5.1c0-0.6-0.3-1.1-0.7-1.5c-0.4-0.4-1.1-0.6-1.8-0.6
		c-0.6,0-1.2,0.2-1.6,0.6C86.7,25.8,86.4,26.3,86.3,26.9z"/>
	<path class="st3" d="M98.6,23.6h1.6v1.2h0.1c0.3-0.4,0.6-0.8,1.2-1.1c0.5-0.3,1.1-0.4,1.6-0.4c1.1,0,1.9,0.3,2.5,0.9
		s0.9,1.5,0.9,2.6v5.5h-1.7V27c0-1.4-0.8-2.2-2.2-2.2c-0.7,0-1.2,0.3-1.7,0.8c-0.4,0.5-0.7,1.2-0.7,1.9v4.9h-1.7L98.6,23.6
		L98.6,23.6z"/>
	<path class="st3" d="M110.5,20.5c0,0.3-0.1,0.6-0.3,0.8c-0.2,0.2-0.5,0.3-0.8,0.3s-0.6-0.1-0.8-0.3c-0.2-0.2-0.3-0.5-0.3-0.8
		s0.1-0.6,0.3-0.8s0.5-0.3,0.8-0.3s0.6,0.1,0.8,0.3C110.3,19.9,110.5,20.2,110.5,20.5z M110.1,23.6v8.8h-1.7v-8.8
		C108.4,23.6,110.1,23.6,110.1,23.6z"/>
	<path class="st3" d="M116.2,32.7c-1.3,0-2.4-0.4-3.3-1.3c-0.9-0.9-1.3-2-1.3-3.4s0.4-2.5,1.3-3.4s1.9-1.3,3.3-1.3
		c0.9,0,1.7,0.2,2.4,0.7c0.7,0.5,1.2,1.1,1.5,1.9l-1.5,0.6c-0.5-1.1-1.3-1.7-2.5-1.7c-0.8,0-1.4,0.3-2,0.9c-0.5,0.6-0.8,1.4-0.8,2.3
		s0.3,1.7,0.8,2.3c0.6,0.6,1.2,0.9,2,0.9c1.2,0,2.1-0.6,2.6-1.7l1.5,0.6c-0.3,0.8-0.8,1.4-1.5,1.9C117.9,32.5,117.1,32.7,116.2,32.7
		z"/>
	<path class="st3" d="M125.4,32.7c-1.3,0-2.4-0.4-3.2-1.3c-0.8-0.9-1.3-2-1.3-3.4c0-1.3,0.4-2.5,1.2-3.4c0.8-0.9,1.9-1.3,3.1-1.3
		c1.3,0,2.3,0.4,3.1,1.3c0.8,0.8,1.2,2,1.2,3.6v0.2h-6.9c0,0.9,0.3,1.6,0.9,2.1s1.2,0.8,2,0.8c1.1,0,1.9-0.5,2.5-1.6l1.5,0.7
		c-0.4,0.7-0.9,1.3-1.6,1.7C127.2,32.5,126.3,32.7,125.4,32.7z M122.8,26.9h5.1c0-0.6-0.3-1.1-0.7-1.5c-0.4-0.4-1.1-0.6-1.8-0.6
		c-0.6,0-1.2,0.2-1.6,0.6C123.2,25.8,122.9,26.3,122.8,26.9z"/>
	<path class="st3" d="M18.9,44.9c1.2,0,2.2,0.3,2.9,1c0.7,0.7,1.1,1.6,1.1,2.7V54h-1.6v-1.2h-0.1c-0.7,1-1.6,1.5-2.7,1.5
		c-1,0-1.8-0.3-2.4-0.9c-0.7-0.6-1-1.3-1-2.2s0.3-1.6,1-2.2c0.7-0.5,1.6-0.8,2.8-0.8c1,0,1.8,0.2,2.4,0.5v-0.4
		c0-0.6-0.2-1.1-0.7-1.5s-1-0.6-1.6-0.6c-0.9,0-1.7,0.4-2.2,1.2l-1.5-0.9C16.1,45.5,17.3,44.9,18.9,44.9z M16.8,51.3
		c0,0.4,0.2,0.8,0.5,1.1c0.4,0.3,0.8,0.4,1.3,0.4c0.7,0,1.3-0.3,1.9-0.8c0.5-0.5,0.8-1.1,0.8-1.8c-0.5-0.4-1.2-0.6-2.2-0.6
		c-0.7,0-1.2,0.2-1.7,0.5C17,50.4,16.8,50.8,16.8,51.3z"/>
	<path class="st3" d="M24.7,45.2h1.6v1.2h0.1c0.3-0.4,0.6-0.8,1.2-1.1c0.5-0.3,1.1-0.4,1.6-0.4c1.1,0,1.9,0.3,2.5,0.9
		c0.6,0.6,0.9,1.5,0.9,2.6V54h-1.7v-5.4c0-1.4-0.8-2.2-2.2-2.2c-0.7,0-1.2,0.3-1.7,0.8c-0.4,0.5-0.7,1.2-0.7,1.9V54h-1.7v-8.8H24.7z
		"/>
	<path class="st3" d="M38.2,54.3c-1.2,0-2.1-0.5-3-1.4c-0.8-0.9-1.2-2-1.2-3.3s0.4-2.4,1.2-3.3c0.8-0.9,1.8-1.4,3-1.4
		c0.6,0,1.2,0.1,1.8,0.4c0.5,0.3,0.9,0.6,1.2,1.1h0.1l-0.1-1.2v-4.1h1.7V54h-1.6v-1.2h-0.1c-0.3,0.5-0.7,0.8-1.2,1.1
		C39.4,54.2,38.8,54.3,38.2,54.3z M38.5,52.8c0.8,0,1.5-0.3,2-0.9c0.5-0.6,0.8-1.4,0.8-2.3c0-0.9-0.3-1.7-0.8-2.3s-1.2-0.9-2-0.9
		s-1.5,0.3-2,0.9c-0.5,0.6-0.8,1.4-0.8,2.3c0,0.9,0.3,1.7,0.8,2.3C37,52.5,37.7,52.8,38.5,52.8z"/>
	<path class="st3" d="M50.5,54h-1.7v-8.8h1.6v1.4h0.1c0.2-0.5,0.5-0.9,1-1.2s1-0.5,1.5-0.5s0.9,0.1,1.2,0.2l-0.5,1.6
		c-0.2-0.1-0.5-0.1-1-0.1c-0.6,0-1.2,0.3-1.6,0.8s-0.7,1.1-0.7,1.8V54H50.5z"/>
	<path class="st3" d="M58.8,54.3c-1.3,0-2.4-0.4-3.2-1.3c-0.8-0.9-1.3-2-1.3-3.4c0-1.3,0.4-2.5,1.2-3.4s1.9-1.3,3.1-1.3
		c1.3,0,2.3,0.4,3.1,1.3c0.8,0.8,1.2,2,1.2,3.6V50H56c0,0.9,0.3,1.6,0.9,2.1c0.6,0.5,1.2,0.8,2,0.8c1.1,0,1.9-0.5,2.5-1.6l1.5,0.7
		c-0.4,0.7-0.9,1.3-1.6,1.7S59.7,54.3,58.8,54.3z M56.1,48.5h5.1c0-0.6-0.3-1.1-0.7-1.5s-1.1-0.6-1.8-0.6c-0.6,0-1.2,0.2-1.6,0.6
		C56.6,47.4,56.3,47.9,56.1,48.5z"/>
	<path class="st3" d="M71.3,51.6c0,0.8-0.3,1.4-1,1.9s-1.5,0.8-2.5,0.8c-0.9,0-1.7-0.2-2.3-0.7c-0.7-0.5-1.2-1.1-1.4-1.8l1.5-0.6
		c0.2,0.5,0.5,0.9,0.9,1.2s0.9,0.4,1.4,0.4s1-0.1,1.3-0.3c0.4-0.2,0.5-0.5,0.5-0.8c0-0.6-0.4-1-1.3-1.2L66.8,50
		c-1.7-0.4-2.6-1.3-2.6-2.5c0-0.8,0.3-1.4,1-1.9s1.5-0.7,2.5-0.7c0.8,0,1.5,0.2,2.1,0.6s1.1,0.9,1.3,1.5l-1.5,0.6
		c-0.2-0.4-0.4-0.7-0.8-0.9s-0.8-0.3-1.3-0.3c-0.4,0-0.8,0.1-1.2,0.3c-0.3,0.2-0.5,0.5-0.5,0.8c0,0.5,0.5,0.9,1.4,1.1l1.3,0.3
		C70.4,49.3,71.3,50.2,71.3,51.6z"/>
	<path class="st3" d="M77.2,54.3c-0.6,0-1.2-0.1-1.8-0.4c-0.5-0.3-0.9-0.6-1.2-1.1h-0.1l0.1,1.2v3.9h-1.7V45.2h1.6v1.2h0.1
		c0.3-0.5,0.7-0.8,1.2-1.1s1.1-0.4,1.8-0.4c1.2,0,2.1,0.5,3,1.4c0.8,0.9,1.2,2,1.2,3.3S81,52,80.2,52.9S78.4,54.3,77.2,54.3z
		 M77,52.8c0.8,0,1.5-0.3,2-0.9c0.5-0.6,0.8-1.4,0.8-2.3c0-0.9-0.3-1.7-0.8-2.3s-1.2-0.9-2-0.9s-1.5,0.3-2,0.9
		c-0.5,0.6-0.8,1.4-0.8,2.3c0,0.9,0.3,1.7,0.8,2.3C75.5,52.5,76.2,52.8,77,52.8z"/>
	<path class="st3" d="M86.9,54.3c-1.3,0-2.4-0.4-3.2-1.3c-0.8-0.9-1.3-2-1.3-3.4c0-1.3,0.4-2.5,1.2-3.4c0.8-0.9,1.9-1.3,3.1-1.3
		c1.3,0,2.3,0.4,3.1,1.3c0.8,0.8,1.2,2,1.2,3.6V50h-6.9c0,0.9,0.3,1.6,0.9,2.1s1.2,0.8,2,0.8c1.1,0,1.9-0.5,2.5-1.6L91,52
		c-0.4,0.7-0.9,1.3-1.6,1.7S87.8,54.3,86.9,54.3z M84.3,48.5h5.1c0-0.6-0.3-1.1-0.7-1.5c-0.4-0.4-1.1-0.6-1.8-0.6
		c-0.6,0-1.2,0.2-1.6,0.6C84.7,47.4,84.4,47.9,84.3,48.5z"/>
	<path class="st3" d="M96.7,54.3c-1.3,0-2.4-0.4-3.3-1.3c-0.9-0.9-1.3-2-1.3-3.4s0.4-2.5,1.3-3.4s1.9-1.3,3.3-1.3
		c0.9,0,1.7,0.2,2.4,0.7c0.7,0.5,1.2,1.1,1.5,1.9l-1.5,0.6c-0.5-1.1-1.3-1.7-2.5-1.7c-0.8,0-1.4,0.3-2,0.9c-0.5,0.6-0.8,1.4-0.8,2.3
		c0,0.9,0.3,1.7,0.8,2.3c0.6,0.6,1.2,0.9,2,0.9c1.2,0,2.1-0.6,2.6-1.7l1.5,0.6c-0.3,0.8-0.8,1.4-1.5,1.9
		C98.4,54.1,97.6,54.3,96.7,54.3z"/>
	<path class="st3" d="M105.5,54.1c-0.7,0-1.3-0.2-1.8-0.7s-0.7-1.1-0.7-1.9v-4.9h-1.5v-1.5h1.5v-2.7h1.7v2.7h4v-1.3
		c0-0.9,0.3-1.6,0.8-2.1s1.3-0.8,2.2-0.8c0.6,0,1.1,0.1,1.5,0.3l-0.5,1.5c-0.3-0.1-0.6-0.2-1-0.2s-0.7,0.1-1,0.4
		c-0.3,0.3-0.4,0.7-0.4,1.1v1.1h2.3v1.5h-2.3V54h-1.7v-7.3h-4v4.4c0,0.5,0.1,0.9,0.3,1.1c0.2,0.2,0.5,0.3,0.7,0.3
		c0.3,0,0.5-0.1,0.8-0.2l0.5,1.5C106.6,54.1,106.1,54.1,105.5,54.1z"/>
	<path class="st3" d="M121.7,54h-1.6v-1.2H120c-0.3,0.4-0.6,0.8-1.2,1.1s-1.1,0.4-1.6,0.4c-1.1,0-1.9-0.3-2.5-0.9
		c-0.6-0.6-0.9-1.5-0.9-2.6v-5.5h1.7v5.4c0,1.4,0.8,2.2,2.2,2.2c0.7,0,1.2-0.3,1.7-0.8c0.4-0.5,0.7-1.2,0.7-1.9v-4.9h1.7L121.7,54
		L121.7,54z"/>
	<path class="st3" d="M125.4,41.1V54h-1.7V41.1H125.4z"/>
</g>
<path class="st4" d="M-106.4,186.1h6.4v6.4c0,0.3,0.2,0.5,0.5,0.5h4.6c0.3,0,0.5-0.2,0.5-0.5v-6.4h6.4c0.3,0,0.5-0.2,0.5-0.5V181
	c0-0.3-0.2-0.5-0.5-0.5h-6.4v-6.4c0-0.3-0.2-0.5-0.5-0.5h-4.6c-0.3,0-0.5,0.2-0.5,0.5v6.4h-6.4c-0.3,0-0.5,0.2-0.5,0.5v4.6
	C-106.9,185.9-106.7,186.1-106.4,186.1z M-105.9,181.5h6.4c0.3,0,0.5-0.2,0.5-0.5v-6.4h3.6v6.4c0,0.3,0.2,0.5,0.5,0.5h6.4v3.6h-6.4
	c-0.3,0-0.5,0.2-0.5,0.5v6.4H-99v-6.4c0-0.3-0.2-0.5-0.5-0.5h-6.4V181.5z"/>
<path class="st4" d="M16.6,191.6c0.2,0.2,0.5,0.3,0.8,0.3s0.6-0.1,0.8-0.3l0.4-0.4l0.9,0.9c-0.6,1.3-0.4,2.8,0.6,3.8l4.4,4.4
	c0.6,0.6,1.5,1,2.3,1l0,0l0,0l0,0c0.9,0,1.7-0.3,2.3-1l4.4-4.4c1-1,1.3-2.5,0.6-3.8l0.9-0.9l0.4,0.4c0.2,0.2,0.5,0.3,0.8,0.3
	s0.6-0.1,0.8-0.3l2-2c0.4-0.4,0.4-1.1,0-1.5l-4.5-4.5c-0.4-0.4-1.1-0.4-1.5,0l-2,2c-0.4,0.4-0.4,1.1,0,1.5l0.6,0.6l-0.9,0.9
	c-1.3-0.7-2.9-0.6-3.9,0.4c0,0,0,0-0.1-0.1c-1.1-1-2.6-1.1-3.9-0.4l-0.9-0.9l0.6-0.6c0.2-0.2,0.3-0.5,0.3-0.8s-0.1-0.6-0.3-0.8l-2-2
	c-0.4-0.4-1.1-0.4-1.5,0l-4.5,4.5c-0.4,0.4-0.4,1.1,0,1.5L16.6,191.6z M31.5,186.1l2-2c0.1-0.1,0.2-0.1,0.3-0.1s0.2,0,0.3,0.1
	l4.5,4.5c0.2,0.2,0.2,0.4,0,0.6l-2,2c-0.2,0.2-0.4,0.2-0.6,0l-2.2-2.2l-1.5-1.5l0,0l-0.8-0.8C31.4,186.5,31.4,186.2,31.5,186.1z
	 M30.6,189.3c0.1,0.1,0.3,0.1,0.4,0l1.1-1.1l1.3,1.3l1.3,1.3l-1.1,1.1c-0.1,0.1-0.1,0.3-0.1,0.4c0.6,1,0.4,2.4-0.4,3.2l-0.9,0.9
	c0-0.2,0-0.3,0-0.5c0-0.4-0.1-0.8-0.2-1.2l0,0c-0.1-0.2-0.2-0.3-0.3-0.5c0,0,0-0.1-0.1-0.1c-0.1-0.2-0.3-0.4-0.4-0.5l-2.7-2.7l0,0
	l0,0c-0.1-0.1-0.3-0.1-0.5,0l-2.8,2.8c-0.7,0.7-1.7,0.7-2.4,0.2l4.1-4.1l0,0l0,0l0.1-0.1C28.1,188.6,29.6,188.5,30.6,189.3z
	 M21.6,188.2l1.1,1.1c0.1,0.1,0.3,0.1,0.4,0c1-0.7,2.4-0.6,3.3,0.2l0,0l-4.1,4.1c-0.1,0.1-0.1,0.3,0,0.5c0.5,0.5,1.2,0.7,1.8,0.7
	c0.7,0,1.3-0.2,1.8-0.7l2.6-2.6L31,194c0.1,0.1,0.2,0.3,0.3,0.4v0.1c0.1,0.1,0.1,0.2,0.2,0.4l0,0c0.2,0.6,0.2,1.3,0,1.9l0,0
	c-0.1,0.1-0.1,0.3-0.2,0.4v0.1c-0.1,0.1-0.2,0.3-0.3,0.4l-2.2,2.2c-0.5,0.5-1.2,0.8-1.9,0.8l0,0c-0.7,0-1.4-0.3-1.9-0.8l-4.4-4.4
	c-0.9-0.9-1-2.2-0.4-3.2c0.1-0.1,0.1-0.3-0.1-0.4l-1.1-1.1l1.3-1.3L21.6,188.2z M15.1,188.6l4.5-4.5c0.1-0.1,0.2-0.1,0.3-0.1
	c0.1,0,0.2,0,0.3,0.1l2,2c0.1,0.1,0.1,0.2,0.1,0.3s0,0.2-0.1,0.3l-2.3,2.3l-1.6,1.6l0,0l-0.6,0.6c-0.2,0.2-0.4,0.2-0.6,0l-2-2
	C14.9,189,14.9,188.7,15.1,188.6z"/>
<path class="st4" d="M-77.9,179.2c0.4,0,0.8-0.2,1.1-0.5c0.6-0.6,0.6-1.7,0-2.3s-1.7-0.6-2.3,0c-0.6,0.6-0.6,1.7,0,2.3
	C-78.8,179-78.3,179.2-77.9,179.2z M-78.4,177.1c0.1-0.1,0.3-0.2,0.4-0.2s0.3,0.1,0.4,0.2c0.2,0.2,0.2,0.6,0,0.9
	c-0.2,0.2-0.6,0.2-0.9,0C-78.6,177.8-78.6,177.4-78.4,177.1z"/>
<path class="st4" d="M-48.4,179.2c0.4,0,0.8-0.2,1.1-0.5c0.6-0.6,0.6-1.7,0-2.3s-1.7-0.6-2.3,0s-0.6,1.7,0,2.3
	C-49.2,179-48.8,179.2-48.4,179.2z M-48.8,177.1c0.1-0.1,0.3-0.2,0.4-0.2c0.2,0,0.3,0.1,0.4,0.2c0.2,0.2,0.2,0.6,0,0.9
	c-0.2,0.2-0.6,0.2-0.9,0C-49.1,177.8-49.1,177.4-48.8,177.1z"/>
<path class="st4" d="M-103.1,219.8l7.1,7c0.1,0.1,0.2,0.1,0.4,0.1s0.3-0.1,0.4-0.1l7.2-7.2c1.7-1.1,2.8-3,2.8-5.1c0-3.3-2.7-6-6-6
	c-1.7,0-3.2,0.7-4.4,1.9c-1.1-1.2-2.7-1.9-4.4-1.9c-3.3,0-6,2.7-6,6C-106.2,216.7-105,218.7-103.1,219.8z M-100.1,209.6
	c1.6,0,3,0.7,4,2c0.2,0.2,0.6,0.2,0.8,0c1-1.2,2.4-2,4-2c2.8,0,5,2.3,5,5c0,1.7-0.9,3.3-2.4,4.3c0,0-0.1,0-0.1,0.1l-6.9,6.9
	l-6.7-6.7l-0.1-0.1c-1.6-0.9-2.6-2.6-2.6-4.4C-105.2,211.8-102.9,209.6-100.1,209.6z"/>
</svg>
