<?xml version="1.0" encoding="utf-8"?>
<!-- Generator: Adobe Illustrator 24.0.0, SVG Export Plug-In . SVG Version: 6.00 Build 0)  -->
<svg version="1.1" id="Layer_1" xmlns="http://www.w3.org/2000/svg" xmlns:xlink="http://www.w3.org/1999/xlink" x="0px" y="0px"
	 viewBox="0 0 48 48" style="enable-background:new 0 0 48 48;" xml:space="preserve">
<style type="text/css">
	.st0{fill:#058182;}
</style>
<path class="st0" d="M2.1,0C0.9,0,0,0.9,0,2v29.5c0,1.1,0.9,2,2.1,2h43.8c1.2,0,2.1-0.9,2.1-2V2c0-1.1-0.9-2-2.1-2H2.1z M2.1,2h43.8
	v23.4H2.1V2z M41.7,28.5c0.6,0,1,0.5,1,1c0,0.6-0.5,1-1,1c-0.6,0-1-0.5-1-1S41.2,28.5,41.7,28.5z M16.6,36.8v4.6h-4
	c-2.2,0-4,1.8-4,3.9v1.3c0,0.7,0.6,1.3,1.3,1.3h29.5c0.7,0,1.3-0.6,1.3-1.3v-1.3c0-2.2-1.8-3.9-4-3.9h-4v-4.6H16.6z"/>
<path class="st0" d="M17.7,7.9c-0.4,0.4-0.5,1-0.1,1.4l3.7,4.5l-3.7,4.5c-0.4,0.4-0.3,1.1,0.2,1.4c0.5,0.4,1.1,0.3,1.5-0.2l4.2-5.1
	c0.3-0.4,0.3-0.9,0-1.3L19.2,8c-0.2-0.2-0.5-0.4-0.8-0.4C18.1,7.6,17.9,7.7,17.7,7.9z"/>
<path class="st0" d="M22.7,18.9L22.7,18.9c0,0.5,0.4,1,1,1h8.4c0.5,0,1-0.4,1-1l0,0c0-0.5-0.4-1-1-1h-8.4
	C23.2,17.9,22.7,18.4,22.7,18.9z"/>
</svg>
