<?xml version="1.0" encoding="utf-8"?>
<!-- Generator: Adobe Illustrator 24.0.0, SVG Export Plug-In . SVG Version: 6.00 Build 0)  -->
<svg version="1.1" id="Layer_1" xmlns="http://www.w3.org/2000/svg" xmlns:xlink="http://www.w3.org/1999/xlink" x="0px" y="0px"
	 viewBox="0 0 48 48" style="enable-background:new 0 0 48 48;" xml:space="preserve">
<style type="text/css">
	.st0{fill:#058182;}
</style>
<path class="st0" d="M19.9,5.5C13.3,6.6,6.8,12.7,5.5,19.8c1,0,1.2,0.7,1.1,1.6c0,0.8,0,1.6,0,2.4c0,0.7-0.3,1-1,1c-1,0-2,0-2.9,0
	c-0.7,0-1-0.3-1-1c0-0.9,0-1.9,0-2.8c0-0.8,0.4-1.2,1.1-1.1c0.8,0.1,1-0.3,1.2-1C5.6,12.8,9.2,8.4,14.8,5.5C15,5.4,15.2,5.3,15.6,5
	C15.2,5,14.9,5,14.7,5c-3,0-6.1,0-9.1,0C5.1,5,4.8,5,4.5,5.5c-0.6,1-1.7,1.3-2.8,1C0.7,6.2,0,5.2,0,4.2c0-1.1,0.7-2.1,1.7-2.4
	c1-0.3,2.1,0.1,2.8,1C4.7,3,5.1,3.3,5.3,3.3c4.7,0,9.4,0,14.1,0c0.1,0,0.2,0,0.4-0.1c0-0.7,0-1.4,0-2.2c0-0.7,0.3-1.1,1-1.1
	C23,0,25,0,27.1,0c0.7,0,1,0.3,1,1c0,0.7,0,1.4,0,2.3c0.3,0,0.6,0,0.9,0c4.5,0,9,0,13.5,0c0.5,0,0.8-0.1,1.1-0.6
	c0.6-1,1.7-1.3,2.8-1C47.3,2.1,48,3,48,4.1c0,1.1-0.7,2.1-1.7,2.4c-1.1,0.3-2.1-0.1-2.8-1C43.3,5.3,42.9,5,42.6,5
	c-3.3,0-6.5,0-9.8,0c-0.1,0-0.2,0-0.4,0.1c0.3,0.2,0.4,0.3,0.6,0.4c5.7,2.9,9.4,7.5,11,13.7c0.2,0.6,0.4,0.8,1,0.8
	c1.1,0,1.3,0.2,1.3,1.2c0,0.9,0,1.8,0,2.7c0,0.7-0.3,1-1,1c-1,0-2,0-3,0c-0.7,0-1-0.3-1-1c0-1,0-2,0-3c0-0.7,0.4-1,1.1-1
	c0-5.6-8.5-14.1-14.3-14.3c0,0.6,0,1.2,0,1.7c0,0.7-0.3,1-1,1c-2.1,0-4.2,0-6.4,0c-0.7,0-1-0.4-0.9-1C19.9,6.7,19.9,6.1,19.9,5.5z
	 M26.4,6.6c0-1.7,0-3.3,0-4.9c-1.7,0-3.3,0-4.8,0c0,1.6,0,3.2,0,4.9C23.2,6.6,24.7,6.6,26.4,6.6z M4.9,21.6c-0.6,0-1.1,0-1.6,0
	c0,0.6,0,1,0,1.5c0.5,0,1,0,1.6,0C4.9,22.6,4.9,22.1,4.9,21.6z M44.7,21.6c-0.6,0-1.1,0-1.6,0c0,0.5,0,1,0,1.5c0.6,0,1.1,0,1.6,0
	C44.7,22.6,44.7,22.1,44.7,21.6z M3.4,4.3c0-0.1,0-0.2,0-0.3c-0.3-0.2-0.7-0.6-1-0.5C2.1,3.4,1.6,4,1.7,4.2c0.1,0.3,0.5,0.7,0.8,0.8
	C2.8,4.9,3.1,4.5,3.4,4.3z M46.5,4.3c0-0.1,0-0.2,0-0.4c-0.3-0.2-0.7-0.6-0.9-0.5c-0.3,0.1-0.6,0.5-0.8,0.8c0.3,0.3,0.5,0.7,0.8,0.7
	C45.8,4.9,46.2,4.5,46.5,4.3z"/>
<g>
	<path class="st0" d="M23.3,14.2c0,3.7,0,7.5,0,11.2c0,0.3-0.3,0.7-0.6,0.9c-1.5,1.1-2.1,2.6-1.5,4.2c0.5,1.4,1.8,2.4,3.4,2.4
		c1.5,0,2.9-1,3.4-2.4c0.5-1.6-0.1-3.1-1.5-4.1c-0.3-0.2-0.6-0.5-0.6-0.8c0-3.8,0-7.5,0-11.6c0.3,0.5,0.5,0.6,0.6,0.9
		c3.1,6,6.2,11.9,9.3,17.9c0.2,0.5,0.4,0.8,0,1.4c-4.2,4.7-4.4,4.9-6.3,10.7c-3.2,0-6.3,0-9.6,0c-0.3-0.9-0.5-1.9-0.9-2.8
		c-1.1-3-3-5.5-5.2-7.7c-0.5-0.4-0.6-0.8-0.3-1.4c3.2-6,6.3-12.1,9.5-18.2c0.1-0.1,0.2-0.3,0.3-0.4C23.1,14.2,23.2,14.2,23.3,14.2z"
		/>
	<path class="st0" d="M18.6,48c0-0.8,0-1.4,0-2.2c3.9,0,7.8,0,11.7,0c0,0.7,0,1.4,0,2.2C26.4,48,22.6,48,18.6,48z"/>
	<circle class="st0" cx="24.5" cy="29.3" r="1.9"/>
</g>
</svg>
