<?xml version="1.0" encoding="utf-8"?>
<!-- Generator: Adobe Illustrator 24.0.0, SVG Export Plug-In . SVG Version: 6.00 Build 0)  -->
<svg version="1.1" id="Layer_1" xmlns="http://www.w3.org/2000/svg" xmlns:xlink="http://www.w3.org/1999/xlink" x="0px" y="0px"
	 viewBox="0 0 48 48" style="enable-background:new 0 0 48 48;" xml:space="preserve">
<style type="text/css">
	.st0{fill:#058182;}
</style>
<path class="st0" d="M42.5,17.8c-0.4,0-0.7-0.2-0.8-0.5c-0.2-0.4-0.1-0.7,0.2-1c0.1-0.1,0.3-0.2,0.4-0.3c1.4-0.8,2.8-1.6,4.2-2.4
	c0.3-0.1,0.5-0.3,0.8-0.2c0.4,0.1,0.6,0.3,0.7,0.7c0.1,0.4,0,0.7-0.3,0.9c-1.6,1-3.2,1.9-4.9,2.9C42.7,17.8,42.6,17.8,42.5,17.8z"/>
<path class="st0" d="M42.8,22c0-0.5,0.5-0.9,1-0.8c1,0.2,1.9,0.4,2.8,0.8c0.5,0.2,0.7,0.6,0.5,1.1c-0.1,0.5-0.6,0.8-1.1,0.6
	c-0.9-0.2-1.7-0.4-2.6-0.7C43,22.8,42.8,22.5,42.8,22z"/>
<path class="st0" d="M37.6,12.8c0.2-0.8,0.4-1.8,0.8-2.7c0.2-0.4,0.6-0.6,1-0.5c0.4,0.1,0.8,0.5,0.7,0.9c-0.1,1-0.4,1.9-0.8,2.9
	c-0.2,0.4-0.6,0.6-1,0.5C37.8,13.8,37.6,13.4,37.6,12.8z"/>
<path class="st0" d="M37.5,22.1c-0.7-1.2-1.4-2.4-2.1-3.6c0.8-0.2,1.8,0.4,2.2,1C38.2,20.3,38.1,21.3,37.5,22.1z"/>
<path class="st0" d="M41.8,29.6c-1-1.8-2.1-3.6-3.1-5.4c-0.1-0.2-0.2-0.4,0-0.6c1.2-1.4,1.5-3.3,0.6-4.9c-0.9-1.6-2.7-2.4-4.5-2
	c-0.3,0.1-0.4,0-0.6-0.3c-1-1.8-2-3.6-3.1-5.4c-0.5-0.9-1.2-1-1.9-0.2c-3.4,4.4-6.9,8.8-10.3,13.2c-0.1,0.2-0.3,0.3-0.5,0.5
	c-1.4,0.8-2.8,1.6-4.1,2.4c-2,1.2-2.9,3.1-2.7,5.4c0.3,2.4,2.5,4.5,4.9,4.6c1.2,0.1,2.3-0.2,3.3-0.8c0.1-0.1,0.3-0.3,0.5,0
	c0.6,1,1.1,2,1.7,3c-0.2,0-0.4,0-0.5,0c-6.3,0-12.7,0-19,0C2,39.2,2,39.1,2,38.7C2,28.6,2,18.5,2,8.4C2,8,2.1,7.9,2.5,7.9
	c8.5,0,17,0,25.5,0c0.1,0,0.2,0,0.3,0c0.2,0,0.2,0,0.2,0.2c0.1,0.6,0.4,1,1,1c0.5,0,0.9-0.5,0.9-1.1c0-1.4,0-2.8,0-4.2
	c0-2.2-1.6-3.8-3.8-3.8C19.1,0,11.5,0,3.9,0C2.6,0,1.6,0.5,0.8,1.5C0.4,2,0.3,2.6,0.1,3.2c0,13.9,0,27.8,0,41.7
	c0.1,0.4,0.1,0.8,0.3,1.1c0.7,1.2,1.6,2,3,2c0,0,0,0,0,0c0.3,0,0.5,0,0.8,0c7.5,0,15.1,0,22.6,0c0.1,0,0.3,0,0.4,0c0,0,0,0,0,0
	c0,0,0,0,0,0c0.2,0,0.3,0,0.5-0.1c1.7-0.5,2.7-1.9,2.7-3.7c0-3.7,0-7.3,0-11c0-0.3,0.1-0.4,0.4-0.5c3.4-0.5,6.8-1,10.2-1.5
	C42.1,31.1,42.4,30.5,41.8,29.6z M18.4,34.8c-0.5,0.3-1,0.4-1.5,0.4c-1.5,0-2.9-0.9-3.3-2.4c-0.5-1.4,0-3.1,1.2-3.9
	c1.3-0.9,2.7-1.6,4-2.4c0.2-0.1,0.3,0,0.4,0.1c1.1,1.9,2.1,3.8,3.2,5.6c0.1,0.2,0.1,0.3-0.1,0.4C21,33.3,19.7,34,18.4,34.8z
	 M21.9,35.2c-0.1-0.2,0-0.2,0.1-0.3c0.4-0.2,0.8-0.5,1.2-0.7c0.2-0.1,0.3-0.1,0.4,0.1c0.7,1.1,1.3,2.3,2,3.4
	c0.1,0.1,0.1,0.2-0.1,0.3c-0.5,0.3-0.9,0.5-1.4,0.8c0,0-0.1,0-0.1,0c-0.1,0-0.1-0.1-0.2-0.1C23.2,37.5,22.5,36.4,21.9,35.2z
	 M28.5,38.8c0,0.3,0,0.4-0.3,0.4c-0.3,0-0.6,0-1,0c0.8-0.7,0.8-1,0.3-1.8c-0.7-1.3-1.5-2.5-2.2-3.9c1.1-0.2,2.1-0.3,3.2-0.5
	c0,0.4,0,0.8,0,1.2C28.5,35.8,28.5,37.3,28.5,38.8z M2,5.6C2,5,2,4.5,2,3.9c0-1.3,0.7-2,2-2c3.7,0,7.4,0,11.1,0c3.8,0,7.5,0,11.3,0
	c1.4,0,2.1,0.7,2.1,2.1c0,0.5,0,1.1,0,1.6C28.6,6,28.4,6,28.1,6c-4.3,0-8.6,0-12.9,0C11,6,6.7,6,2.4,6C2,6,1.9,5.9,2,5.6z
	 M28.6,41.6c0,0.9,0,1.8,0,2.7c0,1.2-0.8,1.9-1.9,1.9c-7.6,0-15.2,0-22.8,0c-1.1,0-1.9-0.8-1.9-1.9c0-0.9,0-1.8,0-2.8
	c0-0.4,0.1-0.4,0.4-0.4c4.3,0,8.6,0,12.9,0c4.3,0,8.5,0,12.8,0C28.5,41.1,28.6,41.2,28.6,41.6z M27.9,31.2c-1,0.1-2,0.3-3,0.4
	c-0.4,0.1-0.6,0-0.8-0.4c-1.1-2-2.2-3.9-3.4-5.9c-0.1-0.2-0.2-0.3-0.1-0.5c2.2-2.8,4.4-5.7,6.7-8.5c2.6,4.6,5.3,9.2,7.9,13.8
	C32.7,30.6,30.3,30.9,27.9,31.2z M37.4,29.9c-0.3,0-0.3-0.2-0.4-0.3c-1.4-2.5-2.8-4.9-4.2-7.4c-1.4-2.3-2.7-4.7-4.1-7
	c-0.1-0.2-0.2-0.4,0-0.6c0.4-0.5,0.9-1.1,1.3-1.7c3.2,5.6,6.4,11.1,9.6,16.7C38.9,29.7,38.1,29.8,37.4,29.9z"/>
</svg>
