<?xml version="1.0" encoding="utf-8"?>
<!-- Generator: Adobe Illustrator 24.0.0, SVG Export Plug-In . SVG Version: 6.00 Build 0)  -->
<svg version="1.1" id="Layer_1" xmlns="http://www.w3.org/2000/svg" xmlns:xlink="http://www.w3.org/1999/xlink" x="0px" y="0px"
	 viewBox="0 0 48 48" style="enable-background:new 0 0 48 48;" xml:space="preserve">
<style type="text/css">
	.st0{fill:#058182;}
</style>
<g>
	<path class="st0" d="M44,0c-1.1,0-2,0.9-2,2c0,0.3,0.1,0.6,0.2,0.8l-7.9,10.7c-0.1,0-0.1,0-0.2,0c-0.4,0-0.8,0.1-1.1,0.3l-6.9-3.4
		c-0.1-1-0.9-1.9-2-1.9c-1.1,0-2,0.9-2,2c0,0.1,0,0.2,0,0.3l-7.3,5.8c-0.2-0.1-0.5-0.1-0.7-0.1c-1,0-1.8,0.7-2,1.7L5.3,21
		c-0.3-0.3-0.8-0.4-1.2-0.4c-1.1,0-2,0.9-2,2s0.9,2,2,2c1,0,1.8-0.7,2-1.7l6.8-2.7c0.3,0.3,0.8,0.4,1.2,0.4c1.1,0,2-0.9,2-2
		c0-0.1,0-0.2,0-0.3l7.3-5.8c0.2,0.1,0.5,0.1,0.7,0.1c0.4,0,0.8-0.1,1.1-0.3l6.9,3.4c0.1,1,0.9,1.9,2,1.9c1.1,0,2-0.9,2-2
		c0-0.3-0.1-0.6-0.2-0.8L43.8,4c0.1,0,0.1,0,0.2,0c1.1,0,2-0.9,2-2S45.1,0,44,0z M40,13v35h8V13H40z M20,22v26h8V22H20z M30,27v21h8
		V27H30z M10,30v18h8V30H10z M0,34v14h8V34H0z"/>
</g>
</svg>
