<svg xmlns="http://www.w3.org/2000/svg" xmlns:xlink="http://www.w3.org/1999/xlink" viewBox="0 0 50 50" fill="#058182">
  <path d="M42 0L42 2.1269531C39.917087 2.4237378 38.561993 3.5335442 37.925781 4.6816406C37.188787 6.0116088 37.199219 7.3300781 37.199219 7.3300781C37.199219 9.1175116 38.112046 10.485836 39.294922 11.355469C40.477798 12.225102 41.903906 12.730766 43.253906 13.228516C44.603906 13.726266 45.878579 14.216819 46.720703 14.835938C47.562827 15.455055 48 16.068933 48 17.25C48 17.25 47.9936 18.158781 47.404297 19.091797C46.815023 20.024813 45.736111 21 43 21C40.329889 21 39.271581 19.825084 38.642578 18.580078C38.013576 17.335073 38 16.0625 38 16.0625L36 16.0625C36 16.0625 35.98642 17.758427 36.857422 19.482422C37.631305 21.014195 39.312929 22.52841 42 22.863281L42 25L44 25L44 22.890625C46.626561 22.624428 48.288416 21.436408 49.095703 20.158203C50.00643 18.716219 50 17.25 50 17.25C50 15.462567 49.087173 14.094242 47.904297 13.224609C46.721421 12.354977 45.295313 11.849312 43.945312 11.351562C42.595312 10.853813 41.322593 10.363258 40.480469 9.7441406C39.638345 9.1250234 39.199219 8.5111447 39.199219 7.3300781C39.199219 7.3300781 39.210819 6.4859224 39.673828 5.6503906C40.136834 4.8148588 40.900764 4 43 4C45.166667 4 45.974726 4.9357795 46.480469 5.9472656C46.986212 6.9587517 47 8 47 8L49 8C49 8 49.013788 6.5412483 48.269531 5.0527344C47.622494 3.7586607 46.206835 2.471585 44 2.140625L44 0L42 0 z M 8 8C5.794 8 4 9.794 4 12L4 34C4 34.732221 4.2118795 35.409099 4.5566406 36L2 36C1.447 36 1 36.448 1 37C1 39.757 3.243 42 6 42L44 42C46.757 42 49 39.757 49 37C49 36.448 48.553 36 48 36L45.439453 36C45.786352 35.40837 46 34.730688 46 34L46 27L44 27L44 34C44 35.116666 43.116666 36 42 36L8 36C6.897 36 6 35.103 6 34L6 12C6 10.897 6.897 10 8 10L35.701172 10C35.459172 9.407 35.298328 8.743 35.236328 8L8 8 z" fill="#058182" />
</svg>