<?xml version="1.0" encoding="utf-8"?>
<!-- Generator: Adobe Illustrator 24.0.0, SVG Export Plug-In . SVG Version: 6.00 Build 0)  -->
<svg version="1.1" id="Layer_1" xmlns="http://www.w3.org/2000/svg" xmlns:xlink="http://www.w3.org/1999/xlink" x="0px" y="0px"
	 viewBox="0 0 48 48" style="enable-background:new 0 0 48 48;" xml:space="preserve">
<style type="text/css">
	.st0{fill:#058182;}
</style>
<path class="st0" d="M2.1,0C0.9,0,0,0.9,0,2v29.5c0,1.1,0.9,2,2.1,2h43.8c1.2,0,2.1-0.9,2.1-2V2c0-1.1-0.9-2-2.1-2H2.1z M2.1,2h43.8
	l0,23.4H2.1V2z M27.1,5.1c-0.4,0-0.8,0.3-0.9,0.7l-6.3,16.3c-0.2,0.5,0,1.1,0.6,1.3s1.1,0,1.4-0.5c0,0,0,0,0-0.1l6.3-16.3
	c0.2-0.5-0.1-1.1-0.6-1.3C27.4,5.1,27.2,5.1,27.1,5.1z M31.3,8.1c-0.6,0-1,0.4-1.1,1c0,0.2,0.1,0.5,0.2,0.7l3.7,4.5l-3.7,4.5
	c-0.4,0.4-0.3,1.1,0.2,1.4c0.5,0.4,1.1,0.3,1.5-0.2l4.2-5.1c0.3-0.4,0.3-0.9,0-1.3l-4.2-5.1C31.9,8.3,31.6,8.1,31.3,8.1z M16.7,8.1
	c-0.3,0-0.6,0.2-0.8,0.4l-4.2,5.1c-0.3,0.4-0.3,0.9,0,1.3l4.2,5.1c0.4,0.4,1,0.5,1.5,0.2c0.5-0.4,0.5-1,0.2-1.4l-3.7-4.5l3.7-4.5
	c0.4-0.4,0.3-1.1-0.1-1.4C17.2,8.2,16.9,8.1,16.7,8.1z M41.7,28.5c0.6,0,1,0.5,1,1c0,0.6-0.5,1-1,1c-0.6,0-1-0.5-1-1
	C40.7,29,41.2,28.5,41.7,28.5z M16.6,36.8v4.6h-4c-2.2,0-4,1.8-4,3.9v1.3c0,0.7,0.6,1.3,1.3,1.3h29.5c0.7,0,1.3-0.6,1.3-1.3v-1.3
	c0-2.2-1.8-3.9-4-3.9h-4v-4.6H16.6z"/>
</svg>
