<?xml version="1.0" encoding="utf-8"?>
<!-- Generator: Adobe Illustrator 24.0.0, SVG Export Plug-In . SVG Version: 6.00 Build 0)  -->
<svg version="1.1" id="Layer_1" xmlns="http://www.w3.org/2000/svg" xmlns:xlink="http://www.w3.org/1999/xlink" x="0px" y="0px"
	 viewBox="0 0 48 48" style="enable-background:new 0 0 48 48;" xml:space="preserve">
<style type="text/css">
	.st0{fill:#058081;}
	.st1{fill:#068182;}
	.st2{fill:#17898A;}
	.st3{fill:#188A8B;}
</style>
<path class="st0" d="M47.8,20.8c-0.3-1.2-0.9-1.7-2.2-1.8c-1.7,0-1.8-0.2-1.8-1.9c0-3.7,0-7.5,0-11.2c0-3-1.3-4.6-4.1-5.2H3.8
	c-0.3,0.2-0.7,0.2-1,0.2C1.4,1.2,0.6,2,0.4,3.4c0,0.3,0,0.6-0.2,0.9v26.1c0.2,0.8,0.3,1.7,1,2.4c1.7,1.7,3.8,2.2,6.7,1.3
	c2.2-0.7,4.4-0.3,6.6,0.4c0.6,0.2,1.7-0.3,2,0.6c0.3,0.7-0.1,1.4-0.6,2c-0.2,0.3-0.6,0.4-0.9,0.6c-0.5,0.2-1,0.5-0.9,1.1
	c0.1,0.6,0.7,0.7,1.2,0.7c4.2,0.1,8.4,0.1,12.5,0c0.6,0,1.2-0.1,1.3-0.8c0.1-0.6-0.4-0.9-0.9-1.1c-0.9-0.4-1.4-1.1-1.5-2
	c-0.1-0.4,0-0.8,0.5-1c0,0,2.8-0.2,2.8,0.1c0.1,3,0,7.6,0,10.6c0,0.9,0.2,1.6,1,2c5.1,0,10.1,0,15.2,0c0.9,0,1.6-0.7,1.6-1.6
	C47.8,37.4,47.8,29.1,47.8,20.8z M3.9,4.1c0.5-0.4,1-0.6,1.7-0.6c10.8,0,21.5,0,32.3,0c1.1,0,1.9,0.4,2.3,1.6
	c0.4,0.9,0.1,1.1-0.7,1.1c-5.9,0-11.9,0-17.8,0c-5.7,0-11.5,0-17.2,0C4,6.2,3.3,6.5,3.1,5.9C2.9,5.2,3.4,4.5,3.9,4.1z M21.6,31.4
	c-0.5,0.1-0.9-0.5-1.1-1.1c0.1-0.6,0.5-0.9,1.1-0.9c0.6,0,1,0.3,1,0.9C22.7,31,22.1,31.4,21.6,31.4z M30.6,21.8c0,1.4,0,2.8,0,4.2
	c0,0.6-0.2,0.8-0.8,0.8c-8.1-0.5-16.3-0.1-24.4-0.3c-1.2,0-2.3-0.9-2.3-2.4c0.1-5.3,0.1-10.7,0-16c0-0.9,0.2-1.2,1.2-1.2
	c5.9,0.1,11.7,0,17.6,0s11.7,0,17.6,0c0.8,0,1.1,0.1,1.1,1c-0.1,3.6,0,7.2,0,10.7c0,0.7-0.1,1-0.9,0.9c-2.2-0.1-4.5,0-6.7,0
	C31.5,19.6,30.6,20.5,30.6,21.8z M39.6,46.1c-0.2,0-0.5-0.2-0.4-0.5c0-0.2,0.2-0.4,0.5-0.4c0.2,0.1,0.5,0.2,0.4,0.5
	C40.1,45.9,39.9,46.1,39.6,46.1z M44.2,43.7c-3.3,0-6.6,0-9.9,0c-1.1,0-1.5-0.7-1.5-1.5c0-6.3,0-12.6,0-18.9c0-1,0.3-1.6,1.6-1.6
	c3.4,0.1,6.8,0.1,10.2,0c0.9,0,1.2,0.3,1.2,1.2c0,3.3,0,6.5,0,9.8c0,3.2,0,6.4,0,9.6C45.7,43.3,45.2,43.7,44.2,43.7z"/>
<path class="st1" d="M41.2,36.1c-2.4,0-4.8,0-7.3,0c0-0.1,0-0.2,0-0.2c2.4,0,4.9,0,7.3,0C41.2,35.9,41.2,36,41.2,36.1z"/>
<path class="st1" d="M41.2,37.5c-2.4,0-4.8,0-7.3,0c0-0.1,0-0.2,0-0.2c2.4,0,4.9,0,7.3,0C41.2,37.4,41.2,37.5,41.2,37.5z"/>
<path class="st1" d="M42.6,34.7c-2.9,0-5.7,0-8.6,0c0-0.1,0-0.2,0-0.2c2.9,0,5.8,0,8.6,0C42.6,34.6,42.6,34.6,42.6,34.7z"/>
<path class="st1" d="M33.1,13.9c-3.8,0-7.6,0-11.4,0c0-0.1,0-0.3,0-0.4c3.8,0,7.6,0,11.4,0C33.1,13.6,33.1,13.8,33.1,13.9z"/>
<path class="st1" d="M33.1,16.4c-3.8,0-7.6,0-11.4,0c0-0.1,0-0.3,0-0.4c3.8,0,7.6,0,11.4,0C33.1,16.1,33.1,16.2,33.1,16.4z"/>
<path class="st1" d="M35.3,11.6c-4.5,0-9,0-13.5,0c0-0.1,0-0.3,0-0.4c4.5,0,9,0,13.5,0C35.3,11.3,35.3,11.5,35.3,11.6z"/>
<path class="st2" d="M19.9,16.3c0-2.1,0-4.2,0-6.3c0-0.8-0.2-1.2-1.1-1.2c-4.2,0.1-8.4,0-12.6,0c-0.9,0-1.1,0.3-1.1,1.1
	c0,4.3,0,8.6,0,12.9c0,0.8,0.2,1.1,1,1.1c4.2,0,8.4,0,12.7,0c0.8,0,1-0.3,1-1C19.9,20.7,19.9,18.5,19.9,16.3z M18.6,23.4
	c-4,0-8,0-11.9,0c-0.7,0-0.9-0.2-0.9-0.9c0-4.1,0-8.3,0-12.4c0-0.6,0.2-0.8,0.8-0.8c4,0,8,0,12.1,0c0.7,0,0.8,0.3,0.8,0.9
	c0,2.1,0,4.1,0,6.2c0,2,0,4.1,0,6.1C19.5,23.2,19.2,23.4,18.6,23.4z"/>
<path class="st3" d="M44.4,23.8c0-0.7-0.2-0.9-0.9-0.9c-2.9,0-5.8,0-8.7,0c-0.6,0-0.8,0.3-0.8,0.8c0,2.6,0,5.2,0,7.8
	c0,0.7,0.3,0.9,0.9,0.8c1.4,0,2.9,0,4.3,0c1.4,0,2.8,0,4.2,0c0.7,0,1-0.1,1-0.9C44.4,28.8,44.4,26.3,44.4,23.8z M43.9,31
	c0,0.6-0.2,0.8-0.8,0.8c-1.3,0-2.5,0-3.8,0c-1.3,0-2.6,0-3.9,0c-0.6,0-0.8-0.2-0.8-0.8c0-2.3,0-4.5,0-6.8c0-0.6,0.2-0.8,0.8-0.8
	c2.6,0,5.2,0,7.8,0c0.6,0,0.8,0.2,0.8,0.8C43.9,26.4,43.9,28.7,43.9,31z"/>
</svg>
