<?xml version="1.0" encoding="utf-8"?>
<!-- Generator: Adobe Illustrator 24.0.0, SVG Export Plug-In . SVG Version: 6.00 Build 0)  -->
<svg version="1.1" id="Layer_1" xmlns="http://www.w3.org/2000/svg" xmlns:xlink="http://www.w3.org/1999/xlink" x="0px" y="0px"
	 viewBox="0 0 48 48" style="enable-background:new 0 0 48 48;" xml:space="preserve">
<style type="text/css">
	.st0{fill:#058182;}
</style>
<path class="st0" d="M36.4,12.5c-0.8-0.1-1.4,0.3-1.3,1.1c0,0.4-0.1,0.6-0.4,0.8c-2.7,1.9-5.3,3.8-8,5.6c-0.2,0.1-0.3,0.5-0.6,0.2
	c-0.2-0.3-0.6-0.5-0.2-1c1.3-1.8,2.5-3.6,3.8-5.4c1.2-1.7,2.3-3.3,3.5-5C33.5,8,34.2,7.6,35,7.4c1.9-0.5,3.8-1,5.6-1.6
	c0.4-0.1,0.6,0,0.8,0.3c1.2,1.8,2.4,3.5,3.7,5.2c0.2,0.3,0.2,0.5,0,0.8c-1.2,1.7-2.3,3.4-3.5,5.2c-0.4,0.5-0.9,0.9-1.5,1
	c-4.2,1.1-8.4,2.2-12.6,3.3c-0.6,0.1-0.6-0.3-0.8-0.6c-0.2-0.3,0.1-0.4,0.3-0.5c2.7-1.9,5.4-3.8,8.2-5.8c0.3-0.2,0.5-0.1,0.8,0
	c0.6,0.2,1.3-0.2,1.5-0.8C37.5,13.2,37.1,12.6,36.4,12.5z"/>
<path class="st0" d="M43.9,3.7C44,3.8,44.1,3.9,44.1,4c1.2,1.8,2.5,3.6,3.7,5.3c0.2,0.3,0.2,0.4-0.1,0.6c-0.5,0.3-1,0.7-1.5,1.1
	c-0.3,0.2-0.4,0.2-0.6-0.1c-1.2-1.8-2.5-3.6-3.8-5.4C41.7,5.3,41.7,5.2,42,5c0.5-0.3,1.1-0.7,1.6-1.1C43.6,3.8,43.8,3.7,43.9,3.7z"
	/>
<g>
	<rect x="17.1" y="23.3" transform="matrix(0.5339 0.8456 -0.8456 0.5339 29.4177 -4.0916)" class="st0" width="2.7" height="2.7"/>
	<rect x="33.8" y="45" transform="matrix(0.5339 0.8456 -0.8456 0.5339 55.5357 -8.1531)" class="st0" width="2.7" height="2.7"/>
	<rect x="0.4" y="0.6" transform="matrix(0.5339 0.8456 -0.8456 0.5339 2.4182 -0.5895)" class="st0" width="2.7" height="2.7"/>
</g>
<g>
	<path class="st0" d="M21.3,38.4c0-0.1-0.1-0.1-0.1-0.2c-2.4-3.9-3.4-8.4-3.1-13.5c0.4-7.1-2.1-13.1-7.6-17.8C6.4,3.4,2.2,2,2.1,1.9
		l0.2-0.8C2.6,1.2,6.8,2.7,11,6.3c2.5,2.1,4.4,4.6,5.7,7.2c1.7,3.4,2.4,7.1,2.1,11.2c-0.7,12.9,7.6,18.6,10.2,20
		c3,1.6,5.3,1.8,5.9,1.3l0.5,0.6c-1.1,0.8-3.9,0.2-6.7-1.3C25.7,43.7,23.1,41.3,21.3,38.4z"/>
</g>
<path class="st0" d="M14.4,37.7c-0.1-0.2-0.2-0.3-0.4-0.4l9.2-25.9c0.3,0.1,0.5,0,0.8-0.1c0.5-0.3,0.6-0.9,0.3-1.4
	c-0.3-0.5-0.9-0.6-1.4-0.3c-0.5,0.3-0.6,0.9-0.3,1.4c0.1,0.1,0.2,0.3,0.4,0.3l-9.2,25.9c-0.2-0.1-0.5,0-0.7,0.1
	c-0.5,0.3-0.6,0.9-0.3,1.4c0.3,0.5,0.9,0.6,1.4,0.3C14.5,38.8,14.7,38.2,14.4,37.7z"/>
</svg>
