<svg xmlns="http://www.w3.org/2000/svg" xmlns:xlink="http://www.w3.org/1999/xlink" viewBox="0 0 26 26" fill="#058182">
  <path d="M13 0C5.832031 0 0 5.832031 0 13C0 20.167969 5.832031 26 13 26C20.167969 26 26 20.167969 26 13C26 5.832031 20.167969 0 13 0 Z M 13 2C19.085938 2 24 6.914063 24 13C24 15.859375 22.90625 18.453125 21.125 20.40625C20.375 19.027344 18.167969 17.894531 15.8125 17.40625C15.8125 17.40625 14.6875 17.101563 15.1875 16C15.886719 15.101563 16.3125 14.113281 16.3125 13.8125C16.3125 13.8125 17.304688 13.011719 17.40625 11.8125C17.507813 10.710938 17.1875 10.59375 17.1875 10.59375C17.585938 9.292969 17.695313 4.398438 14.59375 5C14.09375 4 10.8125 3.207031 9.3125 5.90625C8.613281 7.207031 8.300781 9.101563 9 10.5C9 10.601563 8.789063 10.394531 8.6875 11.09375C8.6875 11.792969 9.011719 12.789063 9.3125 13.1875C9.414063 13.386719 9.613281 13.492188 9.8125 13.59375C9.8125 13.59375 10.007813 14.804688 10.90625 15.90625C11.105469 16.804688 10.1875 17.3125 10.1875 17.3125C7.75 17.800781 5.535156 18.933594 4.78125 20.3125C3.050781 18.371094 2 15.8125 2 13C2 6.914063 6.914063 2 13 2Z" fill="#058182" />
</svg>