<?xml version="1.0" encoding="utf-8"?>
<!-- Generator: Adobe Illustrator 24.0.0, SVG Export Plug-In . SVG Version: 6.00 Build 0)  -->
<svg version="1.1" id="Layer_1" xmlns="http://www.w3.org/2000/svg" xmlns:xlink="http://www.w3.org/1999/xlink" x="0px" y="0px"
	 viewBox="0 0 48 48" style="enable-background:new 0 0 48 48;" xml:space="preserve">
<style type="text/css">
	.st0{fill:#F7F7F7;}
	.st1{fill:#222222;}
</style>
<g>
	<polygon class="st0" points="43,48 0,48 0,5 	"/>
</g>
<g>
	<polygon class="st1" points="39,23 25,23 25,9 23,9 23,23 9,23 9,25 23,25 23,39 25,39 25,25 39,25 	"/>
	<g>
		<rect x="12.1" y="30.4" transform="matrix(0.7071 -0.7071 0.7071 0.7071 -17.3657 20.9246)" class="st1" width="9" height="2"/>
		<rect x="15.6" y="12.1" transform="matrix(0.7071 -0.7071 0.7071 0.7071 -6.8657 16.5754)" class="st1" width="2" height="9"/>
		<rect x="30.4" y="26.9" transform="matrix(0.7071 -0.7071 0.7071 0.7071 -13.0165 31.4246)" class="st1" width="2" height="9"/>
		<rect x="26.9" y="15.6" transform="matrix(0.7071 -0.7071 0.7071 0.7071 -2.5165 27.0754)" class="st1" width="9" height="2"/>
	</g>
</g>
</svg>
