<svg xmlns="http://www.w3.org/2000/svg" xmlns:xlink="http://www.w3.org/1999/xlink" viewBox="0 0 32 32" fill="#FFFFFF">
  <path d="M4 4L4 15L15 15L15 4 Z M 17 4L17 15L28 15L28 4 Z M 19 6L26 6L26 13L19 13 Z M 4 17L4 28L15 28L15 17 Z M 17 17L17 28L28 28L28 17 Z M 6 19L13 19L13 26L6 26 Z M 19 19L19.5625 19L19 19.5625 Z M 22.4375 19L24.5625 19L19 24.5625L19 22.4375 Z M 8 20C7.449219 20 7 20.449219 7 21C7 21.550781 7.449219 22 8 22C8.550781 22 9 21.550781 9 21C9 20.449219 8.550781 20 8 20 Z M 11 20C10.449219 20 10 20.449219 10 21C10 21.550781 10.449219 22 11 22C11.550781 22 12 21.550781 12 21C12 20.449219 11.550781 20 11 20 Z M 26 20.4375L26 22.5625L22.5625 26L20.4375 26 Z M 8 23C7.449219 23 7 23.449219 7 24C7 24.550781 7.449219 25 8 25C8.550781 25 9 24.550781 9 24C9 23.449219 8.550781 23 8 23 Z M 11 23C10.449219 23 10 23.449219 10 24C10 24.550781 10.449219 25 11 25C11.550781 25 12 24.550781 12 24C12 23.449219 11.550781 23 11 23 Z M 26 25.4375L26 26L25.4375 26Z" fill="#FFFFFF" />
</svg>