<?xml version="1.0" encoding="utf-8"?>
<!-- Generator: Adobe Illustrator 24.0.0, SVG Export Plug-In . SVG Version: 6.00 Build 0)  -->
<svg version="1.1" id="Layer_1" xmlns="http://www.w3.org/2000/svg" xmlns:xlink="http://www.w3.org/1999/xlink" x="0px" y="0px"
	 viewBox="0 0 250 250" style="enable-background:new 0 0 250 250;" xml:space="preserve">
<style type="text/css">
	.st0{fill:#1A1A1A;}
	.st1{fill:#058182;}
</style>
<title>course</title>
<path class="st0" d="M201.2,233.6c0,3.3,0.1,6.3,0,9.4c-0.1,4.3-2.1,6.3-6.4,6.5c-0.9,0-1.7,0-2.6,0H58.3c-7.6,0-9-1.3-9-8.9
	c0-7,0-13.9,0-21.2c-5.1,0.7-9.8,1.4-14.4,2c-6.1,0.8-8.1-0.6-8.9-6.5c-4.3-29.4-8.4-59-12.5-88.4c-4.2-29.3-8.2-58.7-12.4-88
	c-0.3-1.7-0.5-3.4-0.7-5.2C0,29.6,2,27.1,5.7,26.6C30.6,23,55.6,19.5,80.5,16c20.4-2.9,40.7-5.7,61.1-8.7c6.7-1,8.8,0.5,9.7,7.3
	c0.5,3.4,1.1,6.9,1.4,10.3c0.2,2.2,1.1,2.9,3.2,3.2c20.8,2.9,41.7,5.8,62.5,8.8c8.4,1.2,16.8,2.4,25.2,3.6c5.2,0.7,7.1,3.2,6.3,8.6
	c-1.4,11.3-3.2,22.7-4.7,34.1L232,176.8c-2.5,17.8-5,35.5-7.5,53.3c-0.6,4.3-3.1,6.3-7.5,5.8C211.7,235.2,206.7,234.5,201.2,233.6z
	 M60.4,237.9h128.9V64.2H60.4V237.9z M48.9,208.1c0-1.9,0-3.5,0-5.1c0-47.4,0-94.7,0-142.1c0-6.8,1.5-8.3,8.3-8.3h87.9l-4.8-33.5
	l-128.2,18l24.2,172.6L48.9,208.1z M156.5,52.6h4.3c11.1,0,22.2,0,33.2,0c4.6,0,6.5,1.9,6.8,6.5c0.1,1.3,0,2.5,0,3.7
	c0,51.2,0,102.4,0,153.6c-0.1,1.1-0.1,2.3,0.1,3.4c0.3,0.9,1.1,2.1,1.8,2.3c3.4,0.7,7,1.1,10.8,1.6L238,51.1l-83.2-11.8L156.5,52.6z
	"/>
<path class="st1" d="M133.3,108.8c0,7,0,13.9,0,20.9c0,5.3-1.9,7.2-7.2,7.2c-13.9,0-27.9,0-41.8,0c-5.1,0-7.1-2.1-7.1-7.1
	c0-14.1,0-28.2,0-42.2c0-4.9,2-6.9,6.7-7c14.2-0.1,28.4-0.1,42.7,0c4.9,0,6.8,1.9,6.8,6.8C133.4,94.6,133.3,101.8,133.3,108.8z
	 M121.9,92.2H88.6v33.2h33.3C121.9,125.4,121.9,92.2,121.9,92.2z"/>
<path class="st0" d="M124.6,165c-13.6,0-27.2,0-40.8,0c-4.1,0-6.6-2.2-6.7-5.4c-0.1-3.1,2.3-5.4,5.7-5.7c2.1-0.2,4.3-0.1,6.3-0.1
	h74.5c1,0,2,0,3,0c3.7,0.3,6.2,2.5,6.1,5.8s-2.5,5.4-6.3,5.4C152.5,165,138.5,165,124.6,165z"/>
<path class="st0" d="M124.8,182c13.6,0,27.1,0,40.7,0c4.6,0,7.2,2.2,7.2,5.7c-0.1,3.5-2.7,5.5-7.1,5.5c-27.2,0-54.3,0-81.4,0
	c-4.5,0-7.2-2.3-7.2-5.8c0.1-3.4,2.6-5.4,7.1-5.4C97.8,181.9,111.3,181.9,124.8,182z"/>
<path class="st0" d="M124.8,221.3c-13,0-26.2,0-39.2,0c-1.4,0-3.1,0.4-4-0.4c-1.7-1.4-4-3.3-4.1-5s1.9-4,3.5-5.3
	c1-0.8,3.1-0.5,4.7-0.5c26.2,0,52.4,0,78.5,0c0.7,0,1.4,0,2.3,0c3.8,0.3,6.3,2.4,6.3,5.5c0.1,3.2-2.4,5.7-6.4,5.7
	C152.4,221.3,138.6,221.2,124.8,221.3z"/>
</svg>
