<?xml version="1.0" encoding="utf-8"?>
<!-- Generator: Adobe Illustrator 24.0.0, SVG Export Plug-In . SVG Version: 6.00 Build 0)  -->
<svg version="1.1" id="Layer_1" xmlns="http://www.w3.org/2000/svg" xmlns:xlink="http://www.w3.org/1999/xlink" x="0px" y="0px"
	 viewBox="0 0 48 48" style="enable-background:new 0 0 48 48;" xml:space="preserve">
<style type="text/css">
	.st0{fill:#FFFFFF;}
</style>
<path class="st0" d="M19.9,5.5C13.3,6.6,6.8,12.7,5.5,19.8c1,0,1.2,0.7,1.1,1.6c0,0.8,0,1.6,0,2.4c0,0.7-0.3,1-1,1c-1,0-2,0-2.9,0
	c-0.7,0-1-0.3-1-1c0-0.9,0-1.9,0-2.8c0-0.8,0.4-1.2,1.1-1.1c0.8,0.1,1-0.3,1.2-1C5.6,12.8,9.2,8.4,14.8,5.5C15,5.4,15.2,5.3,15.6,5
	c-0.4,0-0.7,0-0.9,0c-3,0-6.1,0-9.1,0C5.1,5,4.8,5,4.5,5.5c-0.6,1-1.7,1.3-2.8,1C0.7,6.2,0,5.2,0,4.2c0-1.1,0.7-2.1,1.7-2.4
	s2.1,0.1,2.8,1C4.7,3,5.1,3.3,5.3,3.3c4.7,0,9.4,0,14.1,0c0.1,0,0.2,0,0.4-0.1c0-0.7,0-1.4,0-2.2c0-0.7,0.3-1.1,1-1.1
	C23,0,25,0,27.1,0c0.7,0,1,0.3,1,1s0,1.4,0,2.3c0.3,0,0.6,0,0.9,0c4.5,0,9,0,13.5,0c0.5,0,0.8-0.1,1.1-0.6c0.6-1,1.7-1.3,2.8-1
	C47.3,2.1,48,3,48,4.1s-0.7,2.1-1.7,2.4c-1.1,0.3-2.1-0.1-2.8-1C43.3,5.3,42.9,5,42.6,5c-3.3,0-6.5,0-9.8,0c-0.1,0-0.2,0-0.4,0.1
	c0.3,0.2,0.4,0.3,0.6,0.4c5.7,2.9,9.4,7.5,11,13.7c0.2,0.6,0.4,0.8,1,0.8c1.1,0,1.3,0.2,1.3,1.2c0,0.9,0,1.8,0,2.7c0,0.7-0.3,1-1,1
	c-1,0-2,0-3,0c-0.7,0-1-0.3-1-1c0-1,0-2,0-3c0-0.7,0.4-1,1.1-1c0-5.6-8.5-14.1-14.3-14.3c0,0.6,0,1.2,0,1.7c0,0.7-0.3,1-1,1
	c-2.1,0-4.2,0-6.4,0c-0.7,0-1-0.4-0.9-1C19.9,6.7,19.9,6.1,19.9,5.5z M26.4,6.6c0-1.7,0-3.3,0-4.9c-1.7,0-3.3,0-4.8,0
	c0,1.6,0,3.2,0,4.9C23.2,6.6,24.7,6.6,26.4,6.6z M4.9,21.6c-0.6,0-1.1,0-1.6,0c0,0.6,0,1,0,1.5c0.5,0,1,0,1.6,0
	C4.9,22.6,4.9,22.1,4.9,21.6z M44.7,21.6c-0.6,0-1.1,0-1.6,0c0,0.5,0,1,0,1.5c0.6,0,1.1,0,1.6,0C44.7,22.6,44.7,22.1,44.7,21.6z
	 M3.4,4.3c0-0.1,0-0.2,0-0.3c-0.3-0.2-0.7-0.6-1-0.5C2.1,3.4,1.6,4,1.7,4.2C1.8,4.5,2.2,4.9,2.5,5C2.8,4.9,3.1,4.5,3.4,4.3z
	 M46.5,4.3c0-0.1,0-0.2,0-0.4c-0.3-0.2-0.7-0.6-0.9-0.5c-0.3,0.1-0.6,0.5-0.8,0.8c0.3,0.3,0.5,0.7,0.8,0.7
	C45.8,4.9,46.2,4.5,46.5,4.3z"/>
<g>
	<path class="st0" d="M17.9,48.1l12.2,0c0.7,0,1.3-0.5,1.3-1.2l0-8.2l3.5-5.6c1.3-2.1,1.3-4.7-0.1-6.8l-7.5-11.1
		c-0.6-1-1.7-1.4-2.8-1.5c-0.1,0-0.3-0.1-0.4-0.1c-0.1,0-0.1,0-0.2,0c0,0,0,0,0,0c-0.1,0-0.3,0-0.4,0.1c-1.1,0.1-2.2,0.6-2.8,1.5
		l-7.5,11.1c-1.4,2.1-1.4,4.7-0.1,6.8l3.5,5.6l0,8.2c0,0.3,0.1,0.6,0.4,0.8C17.2,48,17.5,48.1,17.9,48.1z M19.2,42.5l9.6,0v3.2
		l-9.6,0V42.5z M19.2,38.4c0-0.2-0.1-0.4-0.2-0.6L15.3,32c-0.9-1.4-0.8-3.1,0.1-4.4l7.3-10.9l0,12c-0.1,0.1-0.2,0.1-0.2,0.2
		c-0.8,0.8-0.8,2,0,2.8c0.8,0.8,2.2,0.8,3.1,0c0.8-0.8,0.8-2,0-2.8c-0.1-0.1-0.1-0.1-0.2-0.2l0-12l7.3,10.9c0.9,1.3,0.9,3,0.1,4.4
		L29,37.8c-0.1,0.2-0.2,0.4-0.2,0.6l0,1.8l-9.6,0V38.4z"/>
</g>
</svg>
