<svg xmlns="http://www.w3.org/2000/svg" xmlns:xlink="http://www.w3.org/1999/xlink" viewBox="0 0 24 24" fill="#FFFFFF">
  <path d="M3 3C2.448 3 2 3.448 2 4L2 14C2 14.552 2.448 15 3 15L21 15C21.552 15 22 14.552 22 14L22 4C22 3.448 21.552 3 21 3L3 3 z M 4.9121094 5L19.087891 5 A 1.5 1.5 0 0 0 20 5.9121094L20 12.087891 A 1.5 1.5 0 0 0 19.087891 13L4.9121094 13 A 1.5 1.5 0 0 0 4 12.087891L4 5.9121094 A 1.5 1.5 0 0 0 4.9121094 5 z M 12 6 A 3 3 0 0 0 9 9 A 3 3 0 0 0 12 12 A 3 3 0 0 0 15 9 A 3 3 0 0 0 12 6 z M 7 8C6.448 8 6 8.447 6 9C6 9.553 6.448 10 7 10C7.552 10 8 9.553 8 9C8 8.447 7.552 8 7 8 z M 17 8C16.448 8 16 8.447 16 9C16 9.553 16.448 10 17 10C17.552 10 18 9.553 18 9C18 8.447 17.552 8 17 8 z M 2 16L2 18L22 18L22 16L2 16 z M 2 19L2 21L22 21L22 19L2 19 z" fill="#FFFFFF" />
</svg>