<?xml version="1.0" encoding="utf-8"?>
<!-- Generator: Adobe Illustrator 24.0.0, SVG Export Plug-In . SVG Version: 6.00 Build 0)  -->
<svg version="1.1" id="Layer_1" xmlns="http://www.w3.org/2000/svg" xmlns:xlink="http://www.w3.org/1999/xlink" x="0px" y="0px"
	 viewBox="0 0 250 250" style="enable-background:new 0 0 250 250;" xml:space="preserve">
<style type="text/css">
	.st0{fill:none;stroke:#000000;stroke-width:10;stroke-linecap:round;stroke-linejoin:round;}
	.st1{fill:none;stroke:#058182;stroke-width:10;stroke-linecap:round;stroke-linejoin:round;}
</style>
<title>environ</title>
<path class="st0" d="M205.1,75.4v-66H33.4v99.9H205l2.3-14.8"/>
<path class="st0" d="M170.4,196.9l1-14.6l12.2-11.1c2.8-14.7-4-26.1-16.3-27c-11.9-0.9-21,7.2-21.2,19.2c-0.1,2.4,0,4.8,0,7"/>
<path class="st0" d="M132.1,170.7c-0.3-3.6-0.3-7.5-1-11.1c-2.1-9-10-15.1-19.1-15.1c-10.1,0-16,5.1-18.1,16.2
	c-0.6,3.2-0.7,6.8-1,10.1"/>
<path class="st0" d="M8.7,196.9c0.2-19.2,8.9-26.1,29.6-23.1c7.2,10.7,17.3,12.2,30.1,7.2l7.6-8.9c-0.2-10.6-0.7-20.7-12.2-25.9
	c-18.1-3-25.9,4.5-27,26.4"/>
<path class="st1" d="M245.6,36.4c-8.8,6.1-13.5,13.9-9.6,25.1l-1.7,1.1l11.3,7.9l-4.6,14c-21.1,1.7-38.1-9.3-56.3-17.4l-4.9,4.1
	c-4.5-2-9.2-3.9-13.8-6c-13.7-6.3-27.2-12.6-40.8-18.9"/>
<path class="st1" d="M236.7,106.1c-0.1,4.8,0,9.5,0.3,14.2c0.9,13.3,3.6,26.3,9.7,38.7"/>
<path class="st0" d="M120.9,196.9c-0.3-4.8-0.7-9.4-1-14.2c9.9-11.8,12.9-13,26.2-11.3l11.7,11.7v18l-8.5,7
	c-0.5,9.8-1,19.8,8.2,26.3l-15.3,23"/>
<path class="st0" d="M184.6,171.7c4.4,0.7,9.1,0.5,13,2.2c11.1,4.8,12.1,14.7,11.1,25.5l-6.9,8.8l-13.1,4"/>
<path class="st1" d="M242.6,105.2c-7.6-2.7-15.4-4.9-22.8-8.1c-13.9-6-27.6-12.6-41.2-18.8l1.2-6.1"/>
<path class="st0" d="M158.3,200c8.4-1.6,16.7-4.1,24.4,2.2c10.8,8.9,10.4,20.9-1.3,35.9l10.2,11.9"/>
<path class="st0" d="M47.2,183.7v14.2h18.2l11.7,11.8c1.7,8.1,0.4,17-6.8,23.6l16.4,28.9h1.7l15.4-28.1c-2-2.5-6.4-6.3-8-10.9
	c-1.9-5.3-4.3-12.2,1.8-17c7.7-6.3,10-14,5.5-27.2c-4-7.6-13.9-9.9-25.9-7.2"/>
<path class="st0" d="M250,205.1c-12.7-12-27.1-7.2-41.2-3.4"/>
<path class="st0" d="M39.1,211.1c-1.5,9.5,3,16.7,9.9,23.2l-9,12.1"/>
<path class="st0" d="M105.7,197.9c4.8-0.3,10.1-2.4,14-0.7c13.9,5.7,17.5,17.4,9.2,31c-0.9,1.4-1.9,2.7-3,3.9l16.3,29.5"/>
<path class="st0" d="M202.9,206.8c0.2,15.8-3.6,36.3,14.8,44.9"/>
<path class="st0" d="M23.2,212.8L11.4,250"/>
<path class="st0" d="M4.8,203.2c9-6.7,18.6-2.4,24.2,8l12.7-0.8l6.7-8.6"/>
<path class="st0" d="M78.5,209l15.1,1"/>
<path class="st0" d="M148.2,209l-14.2,1"/>
<path class="st0" d="M67.3,182.8l-1,14.2"/>
<path class="st0" d="M106.8,182.8h12.1"/>
<path class="st0" d="M159.3,182.8h11.1"/>
</svg>
