<?xml version="1.0" encoding="utf-8"?>
<!-- Generator: Adobe Illustrator 24.0.0, SVG Export Plug-In . SVG Version: 6.00 Build 0)  -->
<svg version="1.1" id="Layer_1" xmlns="http://www.w3.org/2000/svg" xmlns:xlink="http://www.w3.org/1999/xlink" x="0px" y="0px"
	 viewBox="0 0 250 250" style="enable-background:new 0 0 250 250;" xml:space="preserve">
<style type="text/css">
	.st0{fill:#1A1A1A;}
	.st1{fill:#058182;}
</style>
<title>recruit</title>
<path class="st0" d="M168.2,193.8c-55.4,35.7-117.4,15.7-146.7-25.6c-29.6-41.7-24.9-99.8,11.6-136c37.1-36.6,95.3-40.8,137.2-9.9
	c40.7,30.1,58.7,91.5,23.2,146.4c4.8,4.2,10.2,8.5,15.1,13.4c11.9,11.6,23.6,23.3,35.2,35.2c8,8.2,8.1,19.8,0.6,27.2
	c-7.4,7.1-18.7,6.9-26.6-1C201.3,227.1,184.9,210.5,168.2,193.8z M107.8,14.4c-51.4,0-93,41.7-93,93.1c0,0,0,0,0,0
	c0,50.6,41.7,92.5,92,92.5c52.1,0,93.7-41.3,93.7-93.1C200.5,56,158.7,14.3,107.8,14.4z M177.8,186.1l48.1,48.1c3,3,6.8,4.7,9.5,0.9
	c1.4-1.9,1.3-7.1-0.3-8.8c-15.9-16.5-32.3-32.5-48.8-49L177.8,186.1z"/>
<path class="st1" d="M92.1,107.9c-10.4-12.8-10.5-26.9-0.2-36.4c9.5-8.6,24.1-8.5,33.4,0.4c7.9,7.5,11.9,23.1-0.9,36.2
	c9.7,6.1,16.2,14.4,17.7,26.1c0.9,7-0.6,9-7.5,9c-17.5,0.1-35,0.1-52.5,0c-6.9,0-8.5-2-7.5-9C76.1,123.2,79.7,117.7,92.1,107.9z
	 M131.4,133c-1.6-11.3-11.6-19.2-23.8-19c-11.5,0.2-21.3,8.5-22.3,19H131.4z M108.5,104c8,0,14.4-6.5,14.4-14.4c0,0,0-0.1,0-0.1
	c-0.1-8.1-6.7-14.5-14.8-14.4c-8.1,0.1-14.5,6.7-14.4,14.8C93.9,97.8,100.5,104.1,108.5,104z"/>
</svg>
