<?xml version="1.0" encoding="utf-8"?>
<!-- Generator: Adobe Illustrator 24.0.0, SVG Export Plug-In . SVG Version: 6.00 Build 0)  -->
<svg version="1.1" id="Layer_1" xmlns="http://www.w3.org/2000/svg" xmlns:xlink="http://www.w3.org/1999/xlink" x="0px" y="0px"
	 viewBox="0 0 250 250" style="enable-background:new 0 0 250 250;" xml:space="preserve">
<style type="text/css">
	.st0{fill:#1A1A1A;stroke:#1A1A1A;stroke-width:3;stroke-miterlimit:10;}
	.st1{fill:#058182;stroke:#058182;stroke-width:3;stroke-miterlimit:10;}
	.st2{fill:#1A1A1A;}
</style>
<title>register</title>
<path class="st0" d="M195.3,7c4.2,1.6,7.6,4.1,8.5,8.8c0.2,0.9,0.4,1.9,0.4,2.8c0,31.9,0,63.8,0,95.7v1.5h-7.5v-7.3H16.4
	c0,0.8,0,1.6,0,2.5c0,41.2,0,82.5,0,123.7c0,4,1.2,5.2,5.2,5.2h169.9c4,0,5.2-1.2,5.2-5.2c0-6.2,0-12.5,0-18.8
	c0-0.8,0.1-1.5,0.1-2.4h7.4c0,2,0,3.9,0,5.8c0,5.2,0,10.3,0,15.5c0,6.3-2.5,9.9-8.4,12.1c-0.2,0.1-0.4,0.3-0.5,0.4H17.8
	c-0.3-0.2-0.4-0.4-0.7-0.4c-5.4-2-8.2-5.8-8.2-11.6c0-72.1,0-144.2,0-216.3c0-1.1,0.1-2.2,0.4-3.3c1-4.7,4.4-7.1,8.5-8.7
	C17.8,7,195.3,7,195.3,7z M196.7,100.8c0-1,0-1.7,0-2.5c0-26.1,0-52.3,0-78.4c0-4.4-1.1-5.4-5.3-5.4H21.6c-4.2,0-5.2,1.2-5.2,5.3
	c0,26.1,0,52.3,0,78.4c0,0.8,0,1.7,0,2.6H196.7z"/>
<path class="st1" d="M200.3,206.1c-22.8-0.1-41.2-18.7-41.2-41.4c0.1-22.8,18.7-41.2,41.4-41.2c22.8,0.1,41.2,18.6,41.2,41.3
	C241.7,187.7,223.2,206.1,200.3,206.1z M166.6,164.6c-0.1,18.7,14.9,33.9,33.6,34s33.9-14.9,34-33.6c0.1-18.6-14.8-33.8-33.5-34
	S166.7,145.9,166.6,164.6z"/>
<path class="st2" d="M165,130.9c-1.9,2.4-3.3,4.5-5.1,6.5c-0.8,0.7-1.8,1.1-2.8,1c-26.3,0.1-52.6,0.1-78.8,0c-16.5,0-33,0-49.5-0.1
	c-1.3,0-2.8-0.4-3.8-1.2c-0.8-1-1.1-2.3-0.8-3.6c0.4-1.1,1.7-1.8,2.8-2.5c0.4-0.3,1.2-0.1,1.9-0.1H165L165,130.9z"/>
<path class="st2" d="M155.3,146l-2.4,7.5H29c-0.5,0-1.1,0-1.6,0c-2-0.2-3.6-2-3.4-4c0.2-1.9,1.7-3.3,3.6-3.5c0.5-0.1,1.1,0,1.6,0
	H155.3L155.3,146z"/>
<path class="st2" d="M152.9,176.1l2.4,7.6H29.3c-0.7,0.1-1.4,0-2.1,0c-1.9-0.2-3.4-1.8-3.3-3.6c0-2,1.2-3.3,3.2-3.7
	c0.4-0.1,1-0.1,1.4-0.1L152.9,176.1L152.9,176.1z"/>
<path class="st2" d="M140.3,217.3H96.7c-0.7,0-1.4,0-2.1-0.1c-1.9-0.3-3.2-2-3.1-3.8c0-1.8,1.3-3.3,3.2-3.6c0.6-0.1,1.2-0.1,1.9-0.1
	c27.6,0,55.4-0.1,83,0.1c2.9,0,5.9,1.3,8.7,2.2c0.4,0.1,0.8,1.2,0.7,1.9c-0.2,2.1-1.9,3.3-4.6,3.3L140.3,217.3z"/>
<path class="st2" d="M50.5,161c7.1,0,14.2,0,21.3,0c3,0,4.7,1.3,4.7,3.7c0,2.4-1.7,3.8-4.6,3.8c-14.5,0-28.9,0-43.4,0
	c-2.9,0-4.6-1.5-4.6-3.8c0-2.3,1.7-3.6,4.5-3.6C35.8,161,43.1,161,50.5,161z"/>
<path class="st2" d="M65.1,51.9c1.8,0.4,3.6,0.9,5.3,1.5c8.7,3.6,12.9,10.7,13.5,19.7c0.4,5.3,0.1,10.8,0.1,16.2
	c0,2.4-1.5,4-3.6,4.1c-2.1,0.1-3.8-1.6-3.8-4.1c-0.1-5.1,0.1-10.1,0-15.3c-0.1-6.8-4.4-12.8-10.2-14.1c-1.2-0.3-2.5-0.4-3.7-0.3
	c-5.5,0-10.9,0-16.4,0c-8.7,0-14.5,5.6-14.7,14.4c-0.1,4.9,0,9.9,0,14.8c0,2.9-1.5,4.6-3.8,4.5c-2.3-0.1-3.6-1.7-3.6-4.5
	c0.1-5.9-0.3-11.7,0.4-17.6c1-10.2,8.8-18.1,18-19.1c0.2-0.1,0.4-0.2,0.6-0.3c-7.6-9.6-7.7-18.8-0.4-25.4c6.5-6,16.5-6,23,0.2
	C72.8,33.4,72.6,42.5,65.1,51.9z M63.4,39c0.1-5.2-4.1-9.4-9.3-9.4c-5.2-0.1-9.4,4.1-9.4,9.3c-0.1,5.2,4.1,9.4,9.2,9.4
	C59,48.3,63.3,44.2,63.4,39z"/>
<path class="st2" d="M140.3,63.4H97c-0.7,0.1-1.4,0.1-2.1,0c-1.9-0.2-3.3-1.8-3.3-3.6c-0.1-2,1.4-3.6,3.4-3.8c0.7,0,1.4,0,2.1,0
	h86.6c0.7,0,1.4,0,2.1,0c2,0.2,3.6,2,3.4,4.1c-0.2,1.8-1.6,3.2-3.5,3.4c-0.7,0.1-1.4,0-2.1,0H140.3z"/>
<path class="st2" d="M163.1,70.8h21.3c3,0,4.7,1.3,4.7,3.7c0,2.4-1.7,3.8-4.6,3.8c-14.5,0-28.9,0-43.4,0c-2.9,0-4.6-1.4-4.6-3.8
	c0-2.4,1.7-3.6,4.7-3.6L163.1,70.8z"/>
<path class="st2" d="M194.8,167.1l15.2-11.8c0.4-0.4,0.9-0.7,1.3-1c1.6-1.2,3.9-0.9,5.2,0.7c0,0,0,0,0.1,0.1c1.2,1.6,1,3.8-0.5,5.1
	c-0.1,0-0.1,0.1-0.2,0.1c-6.4,5.1-12.8,10-19.3,14.9c-1.4,1.3-3.6,1.2-4.9-0.2c-0.1-0.1-0.2-0.3-0.3-0.4c-2.4-2.7-4.7-5.5-6.9-8.3
	c-1.3-1.5-1.2-3.7,0.3-5.1c0.1-0.1,0.1-0.1,0.2-0.2c1.7-1.4,3.8-1.2,5.4,0.6C192,163.6,193.2,165.1,194.8,167.1z"/>
</svg>
