<?xml version="1.0" encoding="utf-8"?>
<!-- Generator: Adobe Illustrator 24.0.0, SVG Export Plug-In . SVG Version: 6.00 Build 0)  -->
<svg version="1.1" id="Layer_1" xmlns="http://www.w3.org/2000/svg" xmlns:xlink="http://www.w3.org/1999/xlink" x="0px" y="0px"
	 viewBox="0 0 45 45" style="enable-background:new 0 0 45 45;" xml:space="preserve">
<style type="text/css">
	.st0{fill:#058182;}
</style>
<path class="st0" d="M22.5,0C21.9,0,21.3,0.4,21,1l-6.8,11.6L1.4,15.8c-0.9,0.2-1.6,1-1.4,2c0.1,0.4,0.2,0.7,0.5,0.9L10,29.2L6.8,43
	c-0.2,0.9,0.5,1.8,1.4,1.9c0.4,0.1,0.8,0,1-0.2l13.2-8.2l13.1,8.4c0.8,0.5,1.9,0.1,2.3-0.8c0.2-0.3,0.2-0.7,0.2-1L35,29.2l9.5-10.5
	c0.7-0.7,0.7-1.7,0-2.4c-0.3-0.3-0.6-0.4-0.9-0.5l-12.8-3.2L24,1C23.8,0.4,23.2,0,22.5,0z M22.5,5.5l5.7,9.4
	c0.3,0.5,0.8,0.8,1.2,0.9l10.4,2.8L32,27.5c-0.4,0.4-0.6,0.9-0.5,1.4l2.8,11.4l-11-7.2c-0.5-0.3-1-0.3-1.6,0l-11,7.2l2.8-11.4
	c0.1-0.6-0.1-1-0.5-1.4l-7.8-8.8l10.4-2.8c0.6-0.1,1-0.5,1.2-0.9L22.5,5.5z"/>
</svg>
