<?xml version="1.0" encoding="utf-8"?>
<!-- Generator: Adobe Illustrator 24.0.0, SVG Export Plug-In . SVG Version: 6.00 Build 0)  -->
<svg version="1.1" id="Layer_1" xmlns="http://www.w3.org/2000/svg" xmlns:xlink="http://www.w3.org/1999/xlink" x="0px" y="0px"
	 viewBox="0 0 45 45" style="enable-background:new 0 0 45 45;" xml:space="preserve">
<style type="text/css">
	.st0{fill:#058182;}
</style>
<g>
	<path class="st0" d="M35,45H18.2c-3.3,0-6.2-1.2-8.7-3.3H0.1c0,0,0-24.9,0-24.9c2.5,0,5,0,7.4-0.5c2.1-0.5,3.9-1.6,5.3-3.2
		c1.6-1.8,2.3-4.2,3.1-6.4c0-0.1,0.1-0.3,0.1-0.4c0.3-0.9,0.5-1.9,0.6-3c0-0.6,0.2-1.1,0.2-1.7l0.2-1.4h3.1c6.7,0,6.7,6.2,6.7,10
		c0,0.9-0.6,3.1-1.1,5h13.6c3.3,0,5.8,2.7,5.8,5.8c0,1.2-0.3,2.3-1.1,3.3c0.6,0.9,1.1,2.2,1.1,3.3c0,1.7-0.8,3.4-2,4.5
		c0.3,0.6,0.5,1.4,0.5,2.2c0,2.3-1.4,4.4-3.3,5.3V40C40,42.8,37.8,45,35,45z M3.4,38.2h7.3l0.6,0.6c1.9,1.9,4.2,2.8,6.9,2.8h17
		c0.9,0,1.7-0.8,1.7-1.7v-3.1l1.4-0.3c1.1-0.3,2-1.2,2-2.5c0-0.6-0.2-1.2-0.6-1.7l-1.6-1.9l2.3-0.8c0.9-0.3,1.6-1.2,1.6-2.3
		c0-0.8-0.3-1.6-0.9-2l-1.7-1.4l1.7-1.4c0.6-0.5,0.9-1.2,0.9-2c0-1.4-1.1-2.5-2.5-2.5H21.1l0.6-2.2c0.8-2.5,1.6-5.6,1.6-6.2
		c0-4.8-0.5-6.7-3.3-6.7h-0.2c0,0,0,0.2,0,0.2c-0.2,1.7-0.4,3.4-1,5.1c-0.7,2.2-1.6,4.3-2.9,6.2c-1.2,1.9-3.1,3.4-5.3,4.2
		c-2,0.7-4.1,1.2-6.2,1.4C4.2,20,3.8,20,3.4,20V38.2z"/>
</g>
</svg>
