<?xml version="1.0" encoding="utf-8"?>
<!-- Generator: Adobe Illustrator 24.0.0, SVG Export Plug-In . SVG Version: 6.00 Build 0)  -->
<svg version="1.1" id="Layer_1" xmlns="http://www.w3.org/2000/svg" xmlns:xlink="http://www.w3.org/1999/xlink" x="0px" y="0px"
	 viewBox="0 0 26 26" style="enable-background:new 0 0 26 26;" xml:space="preserve">
<style type="text/css">
	.st0{fill:#FFFFFF;}
</style>
<path class="st0" d="M7.5,0C3.4,0,0,3.4,0,7.5v10.9C0,22.6,3.4,26,7.5,26h10.9c4.2,0,7.5-3.4,7.5-7.5V7.5C26,3.4,22.6,0,18.5,0H7.5z
	 M7.5,2h10.9C21.5,2,24,4.5,24,7.5v10.9c0,3.1-2.5,5.5-5.5,5.5H7.5C4.5,24,2,21.5,2,18.5V7.5C2,4.5,4.5,2,7.5,2z M20.5,4
	C19.7,4,19,4.7,19,5.5S19.7,7,20.5,7S22,6.3,22,5.5S21.3,4,20.5,4z M13,6c-3.9,0-7,3.1-7,7s3.1,7,7,7s7-3.1,7-7S16.9,6,13,6z M13,8
	c2.8,0,5,2.2,5,5s-2.2,5-5,5s-5-2.2-5-5S10.2,8,13,8z"/>
</svg>
