<?xml version="1.0" encoding="utf-8"?>
<!-- Generator: Adobe Illustrator 24.0.0, SVG Export Plug-In . SVG Version: 6.00 Build 0)  -->
<svg version="1.1" id="Layer_1" xmlns="http://www.w3.org/2000/svg" xmlns:xlink="http://www.w3.org/1999/xlink" x="0px" y="0px"
	 viewBox="0 0 25 25" style="enable-background:new 0 0 25 25;" xml:space="preserve">
<style type="text/css">
	.st0{fill:#FCFCFC;}
</style>
<path class="st0" d="M12.5,2.2c-3.6,0-6.8,0.4-8.8,0.7C2.1,3.1,0.8,4.4,0.5,6C0.3,7.4,0,9.4,0,12c0,2.6,0.3,4.6,0.5,6
	c0.3,1.6,1.6,2.9,3.2,3.1c2,0.3,5.2,0.7,8.8,0.7s6.8-0.4,8.8-0.7h0c1.6-0.2,2.9-1.5,3.2-3.1c0.3-1.4,0.5-3.5,0.5-6
	c0-2.6-0.3-4.6-0.5-6c-0.3-1.6-1.6-2.9-3.2-3.1C19.3,2.6,16.1,2.2,12.5,2.2z M12.5,4C16,4,19.1,4.3,21,4.6c0.8,0.1,1.5,0.8,1.7,1.6
	c0.2,1.3,0.5,3.3,0.5,5.7s-0.2,4.4-0.5,5.7c-0.2,0.9-0.8,1.5-1.7,1.7C19.1,19.6,16,20,12.5,20S5.9,19.6,4,19.4
	c-0.8-0.1-1.5-0.8-1.7-1.7c-0.2-1.3-0.5-3.3-0.5-5.7c0-2.5,0.2-4.4,0.5-5.7C2.4,5.4,3.1,4.8,4,4.6h0C5.9,4.4,9,4,12.5,4z M8.9,7.5
	v8.9l8.9-4.5L8.9,7.5z"/>
</svg>
