<?xml version="1.0" encoding="utf-8"?>
<!-- Generator: Adobe Illustrator 24.0.0, SVG Export Plug-In . SVG Version: 6.00 Build 0)  -->
<svg version="1.1" id="Layer_1" xmlns="http://www.w3.org/2000/svg" xmlns:xlink="http://www.w3.org/1999/xlink" x="0px" y="0px"
	 viewBox="0 0 48 48" style="enable-background:new 0 0 48 48;" xml:space="preserve">
<style type="text/css">
	.st0{fill-rule:evenodd;clip-rule:evenodd;fill:#008080;}
</style>
<path class="st0" d="M75.8-45l-9.5-9.3l9.6-9.5L95-44.9V-11c-8.2,0-16.3,0-24.5,0L57-22c0-7.7,0-15.4,0-23C63.3-45,69.5-45,75.8-45
	L75.8-45z M71-34v12h11v-12H71z"/>
<path class="st0" d="M163-11h-25v-34h24.5L176-34v9h-24v3h10L163-11L163-11z M152-34v3h11v-3H152z"/>
<path class="st0" d="M47.6,2.3v43h-8.2l-8.2-6.8v6.8H17.5L0.8,31.4c0-9.7,0-19.5,0-29.2C16.4,2.3,32,2.3,47.6,2.3L47.6,2.3z
	 M17.2,16.2v15.2h13.9V16.2H17.2z"/>
<path class="st0" d="M116.8-45l-9.6-9.4l9.6-9.5L136-45v34c-8.2,0-16.3,0-24.5,0L98-22c0-7.7,0-15.4,0-23.1
	C104.3-45,110.6-45,116.8-45L116.8-45z M111-34v12h11v-12H111z"/>
<path class="st0" d="M197.9-45l-9.6-9.4l9.6-9.5L217-45v34c-8.2,0-16.3,0-24.5,0L179-22c0-7.7,0-15.4,0-23.1
	C185.4-45,191.6-45,197.9-45L197.9-45z M192-34v12h11v-12H192z"/>
<path class="st0" d="M222.4-18.2c0.5,0,0.9,0.1,1.4,0.3c0.4,0.2,0.8,0.4,1.2,0.7c0.3,0.3,0.6,0.7,0.7,1.2c0.2,0.4,0.3,0.8,0.3,1.4
	s-0.1,0.9-0.3,1.4c-0.2,0.4-0.4,0.8-0.7,1.2c-0.3,0.3-0.7,0.6-1.2,0.7c-0.4,0.2-0.8,0.3-1.4,0.3c-0.5,0-0.9-0.1-1.4-0.3
	s-0.8-0.4-1.2-0.7c-0.3-0.3-0.6-0.7-0.7-1.2c-0.2-0.4-0.3-0.8-0.3-1.4s0.1-0.9,0.3-1.4c0.2-0.4,0.4-0.8,0.7-1.2
	c0.3-0.3,0.7-0.6,1.2-0.7C221.4-18.1,222-18.2,222.4-18.2L222.4-18.2z M221-12.6h-0.2l1.2,0.1V-14h-0.2h0.2h0.1
	c0-0.3,0.1-0.3,0.1-0.2l0.1,0.1c0,0.1,0.1,0.1,0.1,0.2c0.1,0.1,0.1,0.2,0.2,0.4l0.5,1.5h0.8l-0.6-1.9c0-0.1-0.1-0.2-0.2-0.3
	c-0.1-0.1-0.1-0.2-0.2-0.2l0,0l-0.1-0.1c0.1,0,0.1-0.1,0.2-0.1c0.1-0.1,0.2-0.1,0.3-0.3s0.1-0.2,0.2-0.4s0.1-0.3,0.5-0.4V-16
	c-0.4-0.1-0.5-0.2-0.5-0.3s-0.1-0.2-0.2-0.2c-0.1-0.1-0.1-0.1-0.2-0.2c-0.1,0-0.2-0.1-0.3-0.3h-0.4H221V-12.6L221-12.6z M221-15h1.3
	h0.2h0.2c0,0.1,0.1,0.1,0.1,0l0.1-0.1c0,0,0-0.1,0.1-0.1v-0.2v-0.2c0-0.1-0.1-0.1-0.1-0.2c0,0-0.1-0.1-0.2-0.2h-0.3H221L221-15
	L221-15z M224.5-16.7c-0.3-0.3-0.6-0.5-0.9-0.6c-0.3-0.1-0.7-0.2-1.2-0.2c-0.4,0-0.8,0.1-1.2,0.2c-0.4,0.1-0.7,0.4-0.9,0.6
	c-0.3,0.3-0.5,0.6-0.6,0.9c-0.1,0.3-0.2,0.7-0.2,1.2c0,0.4,0.1,0.8,0.2,1.2c0.1,0.4,0.4,0.7,0.6,0.9c0.3,0.3,0.6,0.5,0.9,0.6
	c0.3,0.1,0.7,0.2,1.2,0.2s0.8-0.1,1.2-0.2c0.4-0.1,0.7-0.4,0.9-0.6c0.3-0.3,0.5-0.6,0.6-0.9c0.1-0.3,0.2-0.7,0.2-1.2
	s-0.1-0.8-0.2-1.2C225-16.1,224.8-16.5,224.5-16.7z"/>
</svg>
